M48
;Layer_Color=9474304
;FILE_FORMAT=2:5
INCH,LZ
;TYPE=PLATED
T1F00S00C0.00787
T2F00S00C0.02756
T3F00S00C0.02800
T4F00S00C0.02953
T5F00S00C0.03900
T6F00S00C0.03937
T7F00S00C0.04331
T8F00S00C0.05118
T9F00S00C0.05906
T10F00S00C0.14764
;TYPE=NON_PLATED
T11F00S00C0.02756
%
T01
X0294169Y0067583
Y0071913
Y0076244
Y0080575
Y0084905
X02985
X0302831
Y0080575
X02985
Y0076244
X0302831
Y0071913
X02985
Y0067583
X0302831
X0686941Y0388601
Y039372
X0692059
Y0388601
Y0398838
Y0403956
X0686941
Y0398838
T02
X0515315Y01065
X0535
X058824Y0109158
Y0128842
T03
X01575Y00385
X02195Y0048
X02275Y0073
X02585Y0085
X0273Y0066
X02775Y0048
X02815Y00385
X0264Y0034
X02945Y00515
X02995Y00905
Y01075
X03165Y00995
X0319Y00775
X03195Y007
X03585Y00675
X0377Y00525
X03255Y00345
X0333Y0108
X0403277Y010686
T04
X0465158Y00715
X0484842
X05495Y0066815
Y00865
T05
X0524657Y0459173
X0534657
X0544658
T06
X0534657Y0380673
X0544658
X0554658
T07
X0389283Y0213646
Y0223646
Y0233646
Y0243646
Y0253646
T08
X01365Y0047472
Y0067158
Y0086843
Y0106528
T09
X0588Y0027
X0608
X0628
X0827Y0163
Y0183
Y0203
T10
X06095Y04535
X06445Y0453
T11
X0820854Y0071473
Y0087812
M30
