G04*
G04 #@! TF.GenerationSoftware,Altium Limited,Altium Designer,22.10.1 (41)*
G04*
G04 Layer_Physical_Order=1*
G04 Layer_Color=255*
%FSLAX25Y25*%
%MOIN*%
G70*
G04*
G04 #@! TF.SameCoordinates,861FA483-057D-4AEF-8965-819BABE67C1D*
G04*
G04*
G04 #@! TF.FilePolarity,Positive*
G04*
G01*
G75*
%ADD11C,0.01000*%
%ADD14R,0.02402X0.05000*%
%ADD15R,0.05000X0.02402*%
%ADD16R,0.14961X0.07992*%
%ADD17R,0.03937X0.05315*%
%ADD18R,0.08268X0.05512*%
%ADD19R,0.04724X0.04331*%
%ADD20R,0.04745X0.02095*%
G04:AMPARAMS|DCode=21|XSize=47.45mil|YSize=20.95mil|CornerRadius=10.48mil|HoleSize=0mil|Usage=FLASHONLY|Rotation=0.000|XOffset=0mil|YOffset=0mil|HoleType=Round|Shape=RoundedRectangle|*
%AMROUNDEDRECTD21*
21,1,0.04745,0.00000,0,0,0.0*
21,1,0.02650,0.02095,0,0,0.0*
1,1,0.02095,0.01325,0.00000*
1,1,0.02095,-0.01325,0.00000*
1,1,0.02095,-0.01325,0.00000*
1,1,0.02095,0.01325,0.00000*
%
%ADD21ROUNDEDRECTD21*%
%ADD22R,0.04921X0.03150*%
%ADD23R,0.05512X0.05906*%
%ADD24R,0.03740X0.03543*%
%ADD25R,0.03150X0.04921*%
%ADD26R,0.04724X0.02362*%
%ADD27R,0.09843X0.15748*%
G04:AMPARAMS|DCode=28|XSize=39.37mil|YSize=80.71mil|CornerRadius=1.97mil|HoleSize=0mil|Usage=FLASHONLY|Rotation=90.000|XOffset=0mil|YOffset=0mil|HoleType=Round|Shape=RoundedRectangle|*
%AMROUNDEDRECTD28*
21,1,0.03937,0.07677,0,0,90.0*
21,1,0.03543,0.08071,0,0,90.0*
1,1,0.00394,0.03839,0.01772*
1,1,0.00394,0.03839,-0.01772*
1,1,0.00394,-0.03839,-0.01772*
1,1,0.00394,-0.03839,0.01772*
%
%ADD28ROUNDEDRECTD28*%
G04:AMPARAMS|DCode=29|XSize=127.95mil|YSize=80.71mil|CornerRadius=2.02mil|HoleSize=0mil|Usage=FLASHONLY|Rotation=90.000|XOffset=0mil|YOffset=0mil|HoleType=Round|Shape=RoundedRectangle|*
%AMROUNDEDRECTD29*
21,1,0.12795,0.07667,0,0,90.0*
21,1,0.12392,0.08071,0,0,90.0*
1,1,0.00404,0.03834,0.06196*
1,1,0.00404,0.03834,-0.06196*
1,1,0.00404,-0.03834,-0.06196*
1,1,0.00404,-0.03834,0.06196*
%
%ADD29ROUNDEDRECTD29*%
%ADD30R,0.05906X0.05512*%
%ADD31R,0.05315X0.03740*%
%ADD32R,0.04528X0.05315*%
%ADD33R,0.07087X0.03937*%
%ADD34R,0.07992X0.14961*%
%ADD35R,0.05906X0.02362*%
%ADD36R,0.09843X0.06693*%
%ADD58C,0.01500*%
%ADD59C,0.02500*%
%ADD60C,0.04000*%
%ADD61R,0.05906X0.05906*%
%ADD62C,0.05906*%
%ADD63C,0.06299*%
%ADD64R,0.06299X0.06299*%
%ADD65R,0.05906X0.05906*%
%ADD66R,0.06299X0.06299*%
%ADD67C,0.03000*%
G36*
X730475Y844591D02*
X732814Y844126D01*
X735071Y843360D01*
X737209Y842305D01*
X739191Y840981D01*
X740984Y839409D01*
X742556Y837617D01*
X743880Y835635D01*
X744935Y833496D01*
X745701Y831239D01*
X746166Y828901D01*
X746304Y826800D01*
X746298Y826772D01*
Y19761D01*
X746289Y19752D01*
X746289Y19752D01*
X746289Y19752D01*
X746182Y18120D01*
X745730Y15844D01*
X744984Y13647D01*
X743958Y11566D01*
X742669Y9637D01*
X741139Y7893D01*
X739394Y6363D01*
X737465Y5074D01*
X735384Y4048D01*
X733187Y3302D01*
X730912Y2849D01*
X728596Y2698D01*
X728383Y2712D01*
X727914Y2742D01*
X727424Y2733D01*
X727369Y2733D01*
X20160D01*
X19685Y2733D01*
X19662Y2729D01*
X19162Y2729D01*
X17187Y2859D01*
X14977Y3298D01*
X12844Y4023D01*
X10823Y5019D01*
X8950Y6271D01*
X7256Y7756D01*
X5771Y9450D01*
X4519Y11323D01*
X3523Y13344D01*
X2798Y15477D01*
X2359Y17687D01*
X2229Y19665D01*
X2233Y19685D01*
Y374016D01*
Y826295D01*
X2233Y826772D01*
X2229Y826794D01*
X2228Y827291D01*
X2362Y829335D01*
X2814Y831609D01*
X3560Y833805D01*
X4585Y835884D01*
X5873Y837812D01*
X7402Y839555D01*
X9145Y841084D01*
X11073Y842372D01*
X13152Y843397D01*
X15348Y844142D01*
X17621Y844595D01*
X19660Y844728D01*
X19685Y844723D01*
X19685Y844723D01*
X338383D01*
Y813146D01*
X338476Y812677D01*
X338741Y812280D01*
X339138Y812015D01*
X339606Y811922D01*
X353354D01*
Y810783D01*
X353154D01*
Y810370D01*
X332611D01*
X332277Y810870D01*
X332403Y811175D01*
X327613D01*
X327739Y810870D01*
X327405Y810370D01*
X294330D01*
X294158Y810542D01*
X293542Y810898D01*
X292856Y811082D01*
X292144D01*
X291458Y810898D01*
X290842Y810542D01*
X290339Y810040D01*
X289984Y809424D01*
X289800Y808737D01*
Y808026D01*
X289984Y807340D01*
X290339Y806724D01*
X290842Y806221D01*
X291458Y805866D01*
X292144Y805682D01*
X292856D01*
X293542Y805866D01*
X294158Y806221D01*
X294219Y806282D01*
X294629Y806242D01*
X294917Y805793D01*
X294800Y805355D01*
Y804644D01*
X294984Y803958D01*
X295339Y803342D01*
X295512Y803170D01*
Y801124D01*
X295016Y801042D01*
X294660Y801658D01*
X294158Y802160D01*
X293542Y802516D01*
X292856Y802700D01*
X292144D01*
X291458Y802516D01*
X290842Y802160D01*
X290670Y801988D01*
X283647D01*
X283323Y802550D01*
X282550Y803323D01*
X281603Y803870D01*
X280547Y804153D01*
X279453D01*
X278397Y803870D01*
X277450Y803323D01*
X276677Y802550D01*
X276353Y801988D01*
X261830D01*
X261658Y802160D01*
X261042Y802516D01*
X260355Y802700D01*
X259645D01*
X258958Y802516D01*
X258342Y802160D01*
X257839Y801658D01*
X257484Y801042D01*
X257300Y800356D01*
Y799645D01*
X257484Y798958D01*
X257839Y798342D01*
X258342Y797839D01*
X258958Y797484D01*
X259645Y797300D01*
X260355D01*
X261042Y797484D01*
X261658Y797839D01*
X261830Y798012D01*
X276353D01*
X276677Y797450D01*
X277450Y796677D01*
X278397Y796130D01*
X279453Y795847D01*
X280547D01*
X281603Y796130D01*
X282550Y796677D01*
X283323Y797450D01*
X283647Y798012D01*
X290670D01*
X290842Y797839D01*
X291458Y797484D01*
X292144Y797300D01*
X292856D01*
X293542Y797484D01*
X294158Y797839D01*
X294660Y798342D01*
X295016Y798958D01*
X295512Y798876D01*
Y791830D01*
X295339Y791658D01*
X294984Y791042D01*
X294800Y790355D01*
Y789644D01*
X294984Y788958D01*
X295339Y788342D01*
X295842Y787840D01*
X296458Y787484D01*
X297145Y787300D01*
X297855D01*
X298542Y787484D01*
X299158Y787840D01*
X299660Y788342D01*
X300016Y788958D01*
X300200Y789644D01*
Y790355D01*
X300016Y791042D01*
X299660Y791658D01*
X299488Y791830D01*
Y798876D01*
X299984Y798958D01*
X300340Y798342D01*
X300842Y797839D01*
X301458Y797484D01*
X302145Y797300D01*
X302855D01*
X303542Y797484D01*
X304158Y797839D01*
X304535Y798216D01*
X304816Y798129D01*
X305013Y797987D01*
Y797357D01*
X305197Y796670D01*
X305552Y796055D01*
X306055Y795552D01*
X306670Y795197D01*
X307357Y795013D01*
X308068D01*
X308755Y795197D01*
X309370Y795552D01*
X309583Y795517D01*
X309658Y795460D01*
X309923Y794983D01*
X309800Y794525D01*
Y793814D01*
X309984Y793127D01*
X310339Y792511D01*
X310842Y792009D01*
X311458Y791653D01*
X312144Y791469D01*
X312856D01*
X313542Y791653D01*
X314158Y792009D01*
X314330Y792181D01*
X315156D01*
X315363Y791681D01*
X315339Y791658D01*
X314984Y791042D01*
X314800Y790355D01*
Y789644D01*
X314984Y788958D01*
X315339Y788342D01*
X315842Y787840D01*
X316458Y787484D01*
X317144Y787300D01*
X317856D01*
X318542Y787484D01*
X319158Y787840D01*
X319475Y788157D01*
X319923Y787898D01*
X319800Y787438D01*
Y786727D01*
X319984Y786040D01*
X320339Y785425D01*
X320842Y784922D01*
X321458Y784567D01*
X322145Y784383D01*
X322855D01*
X323542Y784567D01*
X324158Y784922D01*
X324316Y785080D01*
X324773Y785047D01*
X325008Y784623D01*
X324984Y784582D01*
X324800Y783895D01*
Y783184D01*
X324984Y782497D01*
X325340Y781882D01*
X325842Y781379D01*
X326458Y781023D01*
X327145Y780839D01*
X327855D01*
X328542Y781023D01*
X329158Y781379D01*
X329316Y781537D01*
X329773Y781503D01*
X330008Y781080D01*
X329984Y781038D01*
X329800Y780351D01*
Y779641D01*
X329984Y778954D01*
X330340Y778338D01*
X330842Y777836D01*
X331458Y777480D01*
X332144Y777296D01*
X332856D01*
X333542Y777480D01*
X334158Y777836D01*
X334330Y778008D01*
X334803D01*
X335053Y777575D01*
X334984Y777456D01*
X334800Y776769D01*
Y776058D01*
X334984Y775371D01*
X335339Y774755D01*
X335842Y774253D01*
X336458Y773897D01*
X337144Y773713D01*
X337856D01*
X338542Y773897D01*
X339158Y774253D01*
X339330Y774425D01*
X339929D01*
X340205Y773925D01*
X339984Y773542D01*
X339800Y772856D01*
Y772145D01*
X339984Y771458D01*
X340339Y770842D01*
X340842Y770339D01*
X341458Y769984D01*
X342144Y769800D01*
X342856D01*
X343542Y769984D01*
X344158Y770339D01*
X344385Y770567D01*
X344538Y770546D01*
X344884Y769996D01*
X344800Y769682D01*
Y768971D01*
X344984Y768285D01*
X345339Y767669D01*
X345842Y767166D01*
X346458Y766811D01*
X347145Y766627D01*
X347696D01*
X348108Y766231D01*
X348083Y766139D01*
Y765428D01*
X348268Y764741D01*
X348623Y764126D01*
X349126Y763623D01*
X349741Y763268D01*
X350428Y763084D01*
X351139D01*
X351826Y763268D01*
X352441Y763623D01*
X352614Y763795D01*
X353154D01*
Y763383D01*
X355670D01*
Y756300D01*
X356083D01*
Y748323D01*
X354747Y746988D01*
X318624D01*
X318542Y747484D01*
X319158Y747839D01*
X319660Y748342D01*
X320016Y748958D01*
X320200Y749645D01*
Y750355D01*
X320016Y751042D01*
X319660Y751658D01*
X319158Y752161D01*
X318542Y752516D01*
X317856Y752700D01*
X317144D01*
X316458Y752516D01*
X315842Y752161D01*
X315670Y751988D01*
X283647D01*
X283323Y752550D01*
X282550Y753323D01*
X281603Y753870D01*
X280547Y754153D01*
X279453D01*
X278397Y753870D01*
X277450Y753323D01*
X276677Y752550D01*
X276353Y751988D01*
X264330D01*
X264158Y752161D01*
X263542Y752516D01*
X262856Y752700D01*
X262144D01*
X261458Y752516D01*
X260842Y752161D01*
X260339Y751658D01*
X259984Y751042D01*
X259800Y750355D01*
Y749645D01*
X259984Y748958D01*
X260339Y748342D01*
X260842Y747839D01*
X261458Y747484D01*
X262144Y747300D01*
X262856D01*
X263542Y747484D01*
X264158Y747839D01*
X264330Y748012D01*
X276353D01*
X276677Y747450D01*
X277450Y746677D01*
X278397Y746130D01*
X279453Y745847D01*
X280547D01*
X281603Y746130D01*
X282550Y746677D01*
X283323Y747450D01*
X283647Y748012D01*
X290449D01*
X290656Y747512D01*
X290339Y747195D01*
X289984Y746580D01*
X289800Y745893D01*
Y745182D01*
X289984Y744495D01*
X290339Y743880D01*
X290842Y743377D01*
X291458Y743021D01*
X292144Y742837D01*
X292388D01*
X292776Y742450D01*
X292584Y741988D01*
X283647D01*
X283323Y742550D01*
X282550Y743323D01*
X281603Y743870D01*
X280547Y744153D01*
X279453D01*
X278397Y743870D01*
X277450Y743323D01*
X276677Y742550D01*
X276130Y741603D01*
X275847Y740547D01*
Y739453D01*
X276130Y738397D01*
X276677Y737450D01*
X277450Y736677D01*
X278397Y736130D01*
X279453Y735847D01*
X280547D01*
X281603Y736130D01*
X282550Y736677D01*
X283323Y737450D01*
X283647Y738012D01*
X294107D01*
X294367Y737838D01*
X295127Y737687D01*
X318254D01*
X318388Y737187D01*
X318342Y737160D01*
X317840Y736658D01*
X317484Y736042D01*
X317300Y735356D01*
Y734645D01*
X317484Y733958D01*
X317840Y733342D01*
X318342Y732839D01*
X318958Y732484D01*
X318876Y731988D01*
X283647D01*
X283323Y732550D01*
X282550Y733323D01*
X281603Y733870D01*
X280547Y734153D01*
X279453D01*
X278397Y733870D01*
X277450Y733323D01*
X276677Y732550D01*
X276130Y731603D01*
X275847Y730547D01*
Y729453D01*
X276130Y728397D01*
X276677Y727450D01*
X277450Y726677D01*
X278397Y726130D01*
X279453Y725847D01*
X280547D01*
X281603Y726130D01*
X282550Y726677D01*
X283323Y727450D01*
X283647Y728012D01*
X325670D01*
X325842Y727840D01*
X325997Y727750D01*
Y727250D01*
X325842Y727161D01*
X325340Y726658D01*
X324984Y726042D01*
X324800Y725355D01*
Y724645D01*
X324984Y723958D01*
X325340Y723342D01*
X325842Y722839D01*
X326458Y722484D01*
X326376Y721988D01*
X283647D01*
X283323Y722550D01*
X282550Y723323D01*
X281603Y723870D01*
X280547Y724153D01*
X279453D01*
X278397Y723870D01*
X277450Y723323D01*
X276677Y722550D01*
X276130Y721603D01*
X275847Y720547D01*
Y719453D01*
X276130Y718397D01*
X276677Y717450D01*
X277450Y716677D01*
X278397Y716130D01*
X279453Y715847D01*
X280547D01*
X281603Y716130D01*
X282550Y716677D01*
X283323Y717450D01*
X283647Y718012D01*
X330670D01*
X330842Y717839D01*
X330997Y717750D01*
Y717250D01*
X330842Y717161D01*
X330340Y716658D01*
X329984Y716042D01*
X329800Y715355D01*
Y714644D01*
X329984Y713958D01*
X330340Y713342D01*
X330842Y712840D01*
X331458Y712484D01*
X331376Y711988D01*
X283647D01*
X283323Y712550D01*
X282550Y713323D01*
X281603Y713870D01*
X280547Y714153D01*
X279453D01*
X278397Y713870D01*
X277450Y713323D01*
X276677Y712550D01*
X276130Y711603D01*
X275847Y710547D01*
Y709453D01*
X276130Y708397D01*
X276677Y707450D01*
X277450Y706677D01*
X278397Y706130D01*
X279453Y705847D01*
X280547D01*
X281603Y706130D01*
X282550Y706677D01*
X283323Y707450D01*
X283647Y708012D01*
X335670D01*
X335842Y707839D01*
X336458Y707484D01*
X337144Y707300D01*
X337856D01*
X338542Y707484D01*
X339158Y707839D01*
X339330Y708012D01*
X438876D01*
X438958Y707516D01*
X438342Y707161D01*
X437840Y706658D01*
X437484Y706042D01*
X437300Y705356D01*
Y704644D01*
X437484Y703958D01*
X437840Y703342D01*
X438156Y703026D01*
X437949Y702526D01*
X411101D01*
X410340Y702374D01*
X409762Y701988D01*
X406830D01*
X406658Y702161D01*
X406042Y702516D01*
X405356Y702700D01*
X404644D01*
X403958Y702516D01*
X403342Y702161D01*
X402840Y701658D01*
X402484Y701042D01*
X402300Y700355D01*
Y699645D01*
X402484Y698958D01*
X402840Y698342D01*
X403342Y697839D01*
X403958Y697484D01*
X404644Y697300D01*
X405356D01*
X406042Y697484D01*
X406658Y697839D01*
X406830Y698012D01*
X410563D01*
X411324Y698163D01*
X411902Y698549D01*
X411968D01*
X412352Y698049D01*
X412300Y697856D01*
Y697145D01*
X412484Y696458D01*
X412840Y695842D01*
X413342Y695339D01*
X413958Y694984D01*
X413876Y694488D01*
X404330D01*
X404158Y694661D01*
X403542Y695016D01*
X402855Y695200D01*
X402144D01*
X401458Y695016D01*
X400842Y694661D01*
X400340Y694158D01*
X399984Y693542D01*
X399800Y692856D01*
Y692144D01*
X399984Y691458D01*
X400340Y690842D01*
X400842Y690340D01*
X401458Y689984D01*
X401376Y689488D01*
X399330D01*
X399158Y689661D01*
X398542Y690016D01*
X397855Y690200D01*
X397145D01*
X396458Y690016D01*
X395842Y689661D01*
X395339Y689158D01*
X394984Y688542D01*
X394800Y687855D01*
Y687145D01*
X394984Y686458D01*
X395339Y685842D01*
X395504Y685678D01*
X395416Y685397D01*
X395274Y685200D01*
X394644D01*
X393958Y685016D01*
X393342Y684660D01*
X392840Y684158D01*
X392484Y683542D01*
X392300Y682856D01*
Y682144D01*
X392484Y681458D01*
X392840Y680842D01*
X393342Y680339D01*
X393958Y679984D01*
X393876Y679488D01*
X391830D01*
X391658Y679661D01*
X391042Y680016D01*
X390355Y680200D01*
X389645D01*
X388958Y680016D01*
X388342Y679661D01*
X387840Y679158D01*
X387484Y678542D01*
X387300Y677855D01*
Y677144D01*
X387484Y676458D01*
X387840Y675842D01*
X388342Y675340D01*
X388958Y674984D01*
X388876Y674488D01*
X301830D01*
X301658Y674660D01*
X301042Y675016D01*
X300356Y675200D01*
X299644D01*
X298958Y675016D01*
X298342Y674660D01*
X297839Y674158D01*
X297484Y673542D01*
X297300Y672856D01*
Y672145D01*
X297484Y671458D01*
X297839Y670842D01*
X298342Y670339D01*
X298958Y669984D01*
X299644Y669800D01*
X300356D01*
X301042Y669984D01*
X301658Y670339D01*
X301830Y670512D01*
X628170D01*
X628342Y670339D01*
X628958Y669984D01*
X629644Y669800D01*
X630356D01*
X631042Y669984D01*
X631658Y670339D01*
X632161Y670842D01*
X632516Y671458D01*
X632700Y672145D01*
Y672856D01*
X632516Y673542D01*
X632161Y674158D01*
X631658Y674660D01*
X631042Y675016D01*
X630356Y675200D01*
X629644D01*
X628958Y675016D01*
X628342Y674660D01*
X628170Y674488D01*
X401124D01*
X401042Y674984D01*
X401658Y675340D01*
X402161Y675842D01*
X402516Y676458D01*
X402700Y677144D01*
Y677855D01*
X402516Y678542D01*
X402161Y679158D01*
X401658Y679661D01*
X401042Y680016D01*
X401124Y680512D01*
X408170D01*
X408342Y680339D01*
X408958Y679984D01*
X409645Y679800D01*
X410356D01*
X411042Y679984D01*
X411658Y680339D01*
X412160Y680842D01*
X412516Y681458D01*
X412700Y682144D01*
Y682856D01*
X412516Y683542D01*
X412160Y684158D01*
X411658Y684660D01*
X411042Y685016D01*
X411124Y685512D01*
X418170D01*
X418342Y685339D01*
X418958Y684984D01*
X419644Y684800D01*
X420356D01*
X421042Y684984D01*
X421658Y685339D01*
X422160Y685842D01*
X422516Y686458D01*
X422700Y687145D01*
Y687855D01*
X422516Y688542D01*
X422160Y689158D01*
X421658Y689661D01*
X421042Y690016D01*
X421124Y690512D01*
X428170D01*
X428342Y690340D01*
X428958Y689984D01*
X429644Y689800D01*
X430356D01*
X431042Y689984D01*
X431658Y690340D01*
X432161Y690842D01*
X432516Y691458D01*
X432700Y692144D01*
Y692734D01*
X433012Y692924D01*
X433180Y692961D01*
X437547Y688594D01*
X438192Y688163D01*
X438953Y688012D01*
X466353D01*
X466677Y687450D01*
X467450Y686677D01*
X468397Y686130D01*
X469453Y685847D01*
X470547D01*
X471603Y686130D01*
X472550Y686677D01*
X473323Y687450D01*
X473647Y688012D01*
X558170D01*
X558342Y687840D01*
X558958Y687484D01*
X559645Y687300D01*
X560356D01*
X561042Y687484D01*
X561658Y687840D01*
X562160Y688342D01*
X562516Y688958D01*
X562700Y689644D01*
Y690355D01*
X562516Y691042D01*
X562160Y691658D01*
X561658Y692161D01*
X561042Y692516D01*
X560356Y692700D01*
X559645D01*
X558958Y692516D01*
X558342Y692161D01*
X558170Y691988D01*
X473647D01*
X473323Y692550D01*
X472550Y693323D01*
X471603Y693870D01*
X470547Y694153D01*
X469453D01*
X468397Y693870D01*
X467450Y693323D01*
X466677Y692550D01*
X466353Y691988D01*
X439777D01*
X433677Y698087D01*
X433869Y698549D01*
X437720D01*
X437840Y698342D01*
X438342Y697839D01*
X438958Y697484D01*
X439644Y697300D01*
X440355D01*
X441042Y697484D01*
X441658Y697839D01*
X442161Y698342D01*
X442516Y698958D01*
X442700Y699645D01*
Y700355D01*
X442516Y701042D01*
X442161Y701658D01*
X441658Y702161D01*
X441546Y702225D01*
X441680Y702725D01*
X442604D01*
X442794Y702687D01*
X464501D01*
X466015Y701173D01*
X465847Y700547D01*
Y699453D01*
X466130Y698397D01*
X466677Y697450D01*
X467450Y696677D01*
X468397Y696130D01*
X469453Y695847D01*
X470547D01*
X471603Y696130D01*
X472550Y696677D01*
X473323Y697450D01*
X473647Y698012D01*
X568170D01*
X568342Y697839D01*
X568958Y697484D01*
X569644Y697300D01*
X570356D01*
X571042Y697484D01*
X571658Y697839D01*
X572160Y698342D01*
X572516Y698958D01*
X572700Y699645D01*
Y700355D01*
X572516Y701042D01*
X572160Y701658D01*
X571996Y701822D01*
X572084Y702103D01*
X572226Y702300D01*
X572856D01*
X573542Y702484D01*
X574158Y702840D01*
X574660Y703342D01*
X575016Y703958D01*
X575200Y704644D01*
Y705356D01*
X575016Y706042D01*
X574660Y706658D01*
X574158Y707161D01*
X573542Y707516D01*
X573624Y708012D01*
X663170D01*
X663342Y707839D01*
X663958Y707484D01*
X664644Y707300D01*
X665355D01*
X666042Y707484D01*
X666658Y707839D01*
X667161Y708342D01*
X667516Y708958D01*
X667700Y709645D01*
Y710356D01*
X667516Y711042D01*
X667161Y711658D01*
X666658Y712160D01*
X666042Y712516D01*
X666124Y713012D01*
X688170D01*
X688342Y712840D01*
X688958Y712484D01*
X689644Y712300D01*
X690355D01*
X691042Y712484D01*
X691658Y712840D01*
X692161Y713342D01*
X692516Y713958D01*
X692700Y714644D01*
Y715355D01*
X692516Y716042D01*
X692161Y716658D01*
X691658Y717161D01*
X691042Y717516D01*
X690355Y717700D01*
X689644D01*
X688958Y717516D01*
X688342Y717161D01*
X688170Y716988D01*
X671124D01*
X671042Y717484D01*
X671658Y717839D01*
X672160Y718342D01*
X672516Y718958D01*
X672700Y719644D01*
Y720356D01*
X672516Y721042D01*
X672160Y721658D01*
X671658Y722160D01*
X671042Y722516D01*
X671124Y723012D01*
X678170D01*
X678342Y722839D01*
X678958Y722484D01*
X679644Y722300D01*
X680356D01*
X681042Y722484D01*
X681658Y722839D01*
X682161Y723342D01*
X682516Y723958D01*
X682700Y724645D01*
Y725355D01*
X682516Y726042D01*
X682161Y726658D01*
X681658Y727161D01*
X681042Y727516D01*
X680356Y727700D01*
X679644D01*
X678958Y727516D01*
X678342Y727161D01*
X678170Y726988D01*
X526124D01*
X526042Y727484D01*
X526658Y727840D01*
X527161Y728342D01*
X527516Y728958D01*
X527700Y729644D01*
Y730356D01*
X527516Y731042D01*
X527161Y731658D01*
X526658Y732161D01*
X526042Y732516D01*
X525355Y732700D01*
X524645D01*
X523958Y732516D01*
X523342Y732161D01*
X523170Y731988D01*
X491661D01*
X491580Y732484D01*
X492195Y732839D01*
X492698Y733342D01*
X493053Y733958D01*
X493237Y734645D01*
Y735356D01*
X493053Y736042D01*
X492698Y736658D01*
X492195Y737160D01*
X491580Y737516D01*
X490893Y737700D01*
X490182D01*
X489495Y737516D01*
X488880Y737160D01*
X488707Y736988D01*
X483323D01*
X480475Y739837D01*
X480666Y740299D01*
X614389D01*
X617300Y737388D01*
Y737145D01*
X617484Y736458D01*
X617839Y735842D01*
X618342Y735339D01*
X618958Y734984D01*
X619644Y734800D01*
X620356D01*
X621042Y734984D01*
X621658Y735339D01*
X622160Y735842D01*
X622516Y736458D01*
X622700Y737145D01*
Y737855D01*
X622516Y738542D01*
X622160Y739158D01*
X621658Y739661D01*
X621042Y740016D01*
X620356Y740200D01*
X620112D01*
X616618Y743693D01*
X615973Y744124D01*
X615213Y744276D01*
X587741D01*
X587549Y744737D01*
X590112Y747300D01*
X590355D01*
X591042Y747484D01*
X591658Y747839D01*
X592161Y748342D01*
X592516Y748958D01*
X592700Y749645D01*
Y750355D01*
X592516Y751042D01*
X592161Y751658D01*
X591658Y752161D01*
X591042Y752516D01*
X590355Y752700D01*
X589644D01*
X588958Y752516D01*
X588342Y752161D01*
X587840Y751658D01*
X587484Y751042D01*
X587300Y750355D01*
Y750112D01*
X583751Y746563D01*
X513138D01*
X512931Y747063D01*
X513320Y747452D01*
X513867Y748398D01*
X514150Y749454D01*
Y749500D01*
X510000D01*
X505850D01*
Y749454D01*
X506133Y748398D01*
X506679Y747452D01*
X507069Y747063D01*
X506861Y746563D01*
X476249D01*
X473985Y748827D01*
X474153Y749453D01*
Y750547D01*
X473870Y751603D01*
X473323Y752550D01*
X472550Y753323D01*
X471603Y753870D01*
X470547Y754153D01*
X469453D01*
X468397Y753870D01*
X467450Y753323D01*
X466677Y752550D01*
X466353Y751988D01*
X431830D01*
X431658Y752161D01*
X431042Y752516D01*
X430356Y752700D01*
X429644D01*
X428958Y752516D01*
X428342Y752161D01*
X427840Y751658D01*
X427484Y751042D01*
X427300Y750355D01*
Y749645D01*
X427484Y748958D01*
X427840Y748342D01*
X428342Y747839D01*
X428958Y747484D01*
X429644Y747300D01*
X430356D01*
X431042Y747484D01*
X431658Y747839D01*
X431830Y748012D01*
X466353D01*
X466677Y747450D01*
X467149Y746978D01*
X466942Y746478D01*
X411360D01*
X410599Y746327D01*
X409954Y745896D01*
X406139Y742081D01*
X403372D01*
X403084Y742581D01*
X403185Y742757D01*
X403369Y743444D01*
Y744155D01*
X403185Y744841D01*
X403041Y745092D01*
X403370Y745521D01*
X403857Y745391D01*
X404568D01*
X405255Y745575D01*
X405870Y745930D01*
X406373Y746433D01*
X406729Y747048D01*
X406913Y747735D01*
Y748446D01*
X406729Y749133D01*
X406373Y749748D01*
X406201Y749921D01*
Y756300D01*
X406613D01*
Y756500D01*
X407256D01*
Y760000D01*
X407756D01*
Y760500D01*
X409957D01*
Y763383D01*
X412673D01*
Y763795D01*
X431558D01*
X432300Y763054D01*
Y762810D01*
X432386Y762488D01*
X432005Y761988D01*
X426830D01*
X426658Y762160D01*
X426042Y762516D01*
X425355Y762700D01*
X424645D01*
X423958Y762516D01*
X423342Y762160D01*
X422839Y761658D01*
X422484Y761042D01*
X422300Y760356D01*
Y759645D01*
X422484Y758958D01*
X422839Y758342D01*
X423342Y757839D01*
X423958Y757484D01*
X424645Y757300D01*
X425355D01*
X426042Y757484D01*
X426658Y757839D01*
X426830Y758012D01*
X466353D01*
X466677Y757450D01*
X467450Y756677D01*
X468397Y756130D01*
X469453Y755847D01*
X470547D01*
X471603Y756130D01*
X472550Y756677D01*
X473323Y757450D01*
X473870Y758397D01*
X474153Y759453D01*
Y760547D01*
X473870Y761603D01*
X473323Y762550D01*
X472550Y763323D01*
X471603Y763870D01*
X470547Y764153D01*
X469453D01*
X468397Y763870D01*
X467450Y763323D01*
X466677Y762550D01*
X466353Y761988D01*
X437995D01*
X437614Y762488D01*
X437700Y762810D01*
Y763521D01*
X437516Y764208D01*
X437160Y764823D01*
X436658Y765326D01*
X436042Y765681D01*
X435356Y765865D01*
X435242D01*
X435029Y766139D01*
X435248Y766627D01*
X435356D01*
X436042Y766811D01*
X436658Y767166D01*
X437117Y767626D01*
X466576D01*
X466677Y767450D01*
X467450Y766677D01*
X468397Y766130D01*
X469453Y765847D01*
X470547D01*
X471603Y766130D01*
X472550Y766677D01*
X473323Y767450D01*
X473870Y768397D01*
X474153Y769453D01*
Y770547D01*
X473870Y771603D01*
X473323Y772550D01*
X472550Y773323D01*
X471603Y773870D01*
X470547Y774153D01*
X469453D01*
X468397Y773870D01*
X467450Y773323D01*
X466677Y772550D01*
X466130Y771603D01*
X466130Y771602D01*
X442925D01*
X442589Y772102D01*
X442700Y772515D01*
Y773225D01*
X442516Y773912D01*
X442492Y773954D01*
X442727Y774377D01*
X443184Y774411D01*
X443342Y774253D01*
X443958Y773897D01*
X444644Y773713D01*
X445356D01*
X446042Y773897D01*
X446658Y774253D01*
X447160Y774755D01*
X447516Y775371D01*
X447700Y776058D01*
Y776769D01*
X447516Y777456D01*
X447447Y777575D01*
X447697Y778008D01*
X448170D01*
X448342Y777836D01*
X448958Y777480D01*
X449645Y777296D01*
X450355D01*
X451042Y777480D01*
X451658Y777836D01*
X452161Y778338D01*
X452516Y778954D01*
X452700Y779641D01*
Y780351D01*
X452516Y781038D01*
X452470Y781118D01*
X452720Y781551D01*
X454631D01*
X454803Y781379D01*
X455418Y781023D01*
X456105Y780839D01*
X456816D01*
X457503Y781023D01*
X458118Y781379D01*
X458621Y781882D01*
X458977Y782497D01*
X459161Y783184D01*
Y783895D01*
X458977Y784582D01*
X458621Y785197D01*
X458118Y785700D01*
X457503Y786055D01*
X456816Y786239D01*
X456105D01*
X455418Y786055D01*
X454803Y785700D01*
X454631Y785528D01*
X422720D01*
X422470Y785961D01*
X422516Y786040D01*
X422700Y786727D01*
Y787438D01*
X422516Y788125D01*
X422470Y788205D01*
X422720Y788638D01*
X428170D01*
X428342Y788465D01*
X428958Y788110D01*
X429644Y787926D01*
X430356D01*
X431042Y788110D01*
X431658Y788465D01*
X432161Y788968D01*
X432516Y789584D01*
X432700Y790271D01*
Y790981D01*
X432590Y791391D01*
X433039Y791650D01*
X436094Y788594D01*
X436739Y788163D01*
X436950Y788121D01*
Y786142D01*
X443877D01*
Y786342D01*
X445622D01*
Y790000D01*
Y793657D01*
X443877D01*
Y793857D01*
X442402D01*
Y796832D01*
X444743D01*
Y803168D01*
X435257D01*
Y796832D01*
X438425D01*
Y793857D01*
X436950D01*
Y793857D01*
X436599Y793712D01*
X434737Y795575D01*
X434092Y796006D01*
X433331Y796158D01*
X430368D01*
X430069Y796658D01*
X430200Y797145D01*
Y797692D01*
X431406Y798897D01*
X431837Y799542D01*
X431988Y800303D01*
Y806637D01*
X433205Y807854D01*
X435257D01*
Y806674D01*
X444743D01*
Y813011D01*
X442402D01*
Y816142D01*
X443877D01*
Y816343D01*
X445622D01*
Y820000D01*
Y823658D01*
X443877D01*
Y823857D01*
X436950D01*
Y816142D01*
X438425D01*
Y813011D01*
X435734D01*
X435398Y813011D01*
X435166Y813393D01*
X435135Y813461D01*
X435152Y813501D01*
X435407Y814118D01*
X433762D01*
Y812472D01*
X434428Y812748D01*
X434803Y813123D01*
X435257Y812870D01*
X435257Y812570D01*
Y811831D01*
X432382D01*
X431621Y811679D01*
X430976Y811248D01*
X428594Y808867D01*
X428163Y808222D01*
X428012Y807461D01*
Y805962D01*
X427516Y805881D01*
X427161Y806496D01*
X426658Y806999D01*
X426042Y807355D01*
X425355Y807539D01*
X424645D01*
X423958Y807355D01*
X423342Y806999D01*
X423184Y806841D01*
X422727Y806875D01*
X422492Y807298D01*
X422516Y807340D01*
X422700Y808026D01*
Y808737D01*
X422516Y809424D01*
X422160Y810040D01*
X421658Y810542D01*
X421042Y810898D01*
X420356Y811082D01*
X419644D01*
X418958Y810898D01*
X418342Y810542D01*
X418170Y810370D01*
X412673D01*
Y810783D01*
X412472D01*
Y811922D01*
X426221D01*
X426689Y812015D01*
X427086Y812280D01*
X427351Y812677D01*
X427444Y813146D01*
Y844723D01*
X727846D01*
X727846Y844723D01*
X728346Y844723D01*
X728375Y844729D01*
X730475Y844591D01*
D02*
G37*
%LPC*%
G36*
X453858Y843070D02*
X446142D01*
Y841988D01*
X438858D01*
Y843070D01*
X431143D01*
Y836930D01*
X431343D01*
Y834594D01*
X435000D01*
X438658D01*
Y836930D01*
X438858D01*
Y838012D01*
X446142D01*
Y836930D01*
X446343D01*
Y834594D01*
X450000D01*
X453657D01*
Y836930D01*
X453858D01*
Y838012D01*
X458170D01*
X458342Y837840D01*
X458958Y837484D01*
X459645Y837300D01*
X460356D01*
X461042Y837484D01*
X461658Y837840D01*
X462160Y838342D01*
X462516Y838958D01*
X462700Y839645D01*
Y840355D01*
X462516Y841042D01*
X462160Y841658D01*
X461658Y842161D01*
X461042Y842516D01*
X460356Y842700D01*
X459645D01*
X458958Y842516D01*
X458342Y842161D01*
X458170Y841988D01*
X453858D01*
Y843070D01*
D02*
G37*
G36*
X453657Y833594D02*
X450500D01*
Y831224D01*
X453657D01*
Y833594D01*
D02*
G37*
G36*
X449500D02*
X446343D01*
Y831224D01*
X449500D01*
Y833594D01*
D02*
G37*
G36*
X438658D02*
X435500D01*
Y831224D01*
X438658D01*
Y833594D01*
D02*
G37*
G36*
X434500D02*
X431343D01*
Y831224D01*
X434500D01*
Y833594D01*
D02*
G37*
G36*
X449386Y823658D02*
X446622D01*
Y820500D01*
X449386D01*
Y823658D01*
D02*
G37*
G36*
X145355Y823055D02*
X144644D01*
X143958Y822871D01*
X143342Y822516D01*
X142840Y822013D01*
X142484Y821398D01*
X142300Y820711D01*
Y820000D01*
X142484Y819313D01*
X142840Y818698D01*
X143342Y818195D01*
X143958Y817840D01*
X144644Y817655D01*
X145355D01*
X146042Y817840D01*
X146649Y818190D01*
X257992D01*
X258342Y817840D01*
X258958Y817484D01*
X259645Y817300D01*
X260355D01*
X261042Y817484D01*
X261658Y817840D01*
X262160Y818342D01*
X262516Y818958D01*
X262700Y819645D01*
Y820356D01*
X262516Y821042D01*
X262160Y821658D01*
X261658Y822161D01*
X261042Y822516D01*
X260355Y822700D01*
X259645D01*
X258958Y822516D01*
X258351Y822166D01*
X147008D01*
X146658Y822516D01*
X146042Y822871D01*
X145355Y823055D01*
D02*
G37*
G36*
X449386Y819500D02*
X446622D01*
Y816343D01*
X449386D01*
Y819500D01*
D02*
G37*
G36*
X433762Y817263D02*
Y815617D01*
X435407D01*
X435131Y816284D01*
X434428Y816987D01*
X433762Y817263D01*
D02*
G37*
G36*
X432262D02*
X431596Y816987D01*
X430892Y816284D01*
X430617Y815617D01*
X432262D01*
Y817263D01*
D02*
G37*
G36*
X330758Y814320D02*
Y812675D01*
X332403D01*
X332127Y813341D01*
X331424Y814045D01*
X330758Y814320D01*
D02*
G37*
G36*
X329258D02*
X328592Y814045D01*
X327889Y813341D01*
X327613Y812675D01*
X329258D01*
Y814320D01*
D02*
G37*
G36*
X432262Y814118D02*
X430617D01*
X430892Y813451D01*
X431596Y812748D01*
X432262Y812472D01*
Y814118D01*
D02*
G37*
G36*
X473953Y813953D02*
X470500D01*
Y810500D01*
X473953D01*
Y813953D01*
D02*
G37*
G36*
X283953D02*
X280500D01*
Y810500D01*
X283953D01*
Y813953D01*
D02*
G37*
G36*
X469500D02*
X466047D01*
Y810500D01*
X469500D01*
Y813953D01*
D02*
G37*
G36*
X279500D02*
X276047D01*
Y810500D01*
X279500D01*
Y813953D01*
D02*
G37*
G36*
X473953Y809500D02*
X470500D01*
Y806047D01*
X473953D01*
Y809500D01*
D02*
G37*
G36*
X469500D02*
X466047D01*
Y806047D01*
X469500D01*
Y809500D01*
D02*
G37*
G36*
X283953D02*
X280500D01*
Y806047D01*
X283953D01*
Y809500D01*
D02*
G37*
G36*
X279500D02*
X276047D01*
Y806047D01*
X279500D01*
Y809500D01*
D02*
G37*
G36*
X470547Y804153D02*
X469453D01*
X468397Y803870D01*
X467450Y803323D01*
X466677Y802550D01*
X466353Y801988D01*
X454330D01*
X454158Y802160D01*
X453542Y802516D01*
X452855Y802700D01*
X452144D01*
X451458Y802516D01*
X450842Y802160D01*
X450340Y801658D01*
X449984Y801042D01*
X449800Y800356D01*
Y799645D01*
X449984Y798958D01*
X450340Y798342D01*
X450842Y797839D01*
X451458Y797484D01*
X452144Y797300D01*
X452855D01*
X453542Y797484D01*
X454158Y797839D01*
X454330Y798012D01*
X466353D01*
X466677Y797450D01*
X467450Y796677D01*
X468397Y796130D01*
X469453Y795847D01*
X470547D01*
X471603Y796130D01*
X472550Y796677D01*
X473323Y797450D01*
X473647Y798012D01*
X485670D01*
X485842Y797839D01*
X486458Y797484D01*
X487145Y797300D01*
X487855D01*
X488542Y797484D01*
X489158Y797839D01*
X489661Y798342D01*
X490016Y798958D01*
X490200Y799645D01*
Y800356D01*
X490016Y801042D01*
X489661Y801658D01*
X489158Y802160D01*
X488542Y802516D01*
X487855Y802700D01*
X487145D01*
X486458Y802516D01*
X485842Y802160D01*
X485670Y801988D01*
X473647D01*
X473323Y802550D01*
X472550Y803323D01*
X471603Y803870D01*
X470547Y804153D01*
D02*
G37*
G36*
X714350Y804350D02*
X705650D01*
Y795650D01*
X714350D01*
Y804350D01*
D02*
G37*
G36*
X514350D02*
X505650D01*
Y795650D01*
X514350D01*
Y804350D01*
D02*
G37*
G36*
X44350D02*
X35650D01*
Y795650D01*
X44350D01*
Y804350D01*
D02*
G37*
G36*
X449386Y793657D02*
X446622D01*
Y790500D01*
X449386D01*
Y793657D01*
D02*
G37*
G36*
Y789500D02*
X446622D01*
Y786342D01*
X449386D01*
Y789500D01*
D02*
G37*
G36*
X470547Y794153D02*
X469453D01*
X468397Y793870D01*
X467450Y793323D01*
X466677Y792550D01*
X466130Y791603D01*
X465847Y790547D01*
Y789453D01*
X466130Y788397D01*
X466677Y787450D01*
X467450Y786677D01*
X468397Y786130D01*
X469453Y785847D01*
X470547D01*
X471603Y786130D01*
X472550Y786677D01*
X473323Y787450D01*
X473870Y788397D01*
X474153Y789453D01*
Y790547D01*
X473870Y791603D01*
X473323Y792550D01*
X472550Y793323D01*
X471603Y793870D01*
X470547Y794153D01*
D02*
G37*
G36*
X244350Y804350D02*
X235650D01*
Y796675D01*
X217593D01*
X216832Y796524D01*
X216187Y796093D01*
X215294Y795200D01*
X214645D01*
X213958Y795016D01*
X213342Y794661D01*
X212840Y794158D01*
X212484Y793542D01*
X212300Y792856D01*
Y792144D01*
X212484Y791458D01*
X212840Y790842D01*
X213342Y790340D01*
X213958Y789984D01*
X214645Y789800D01*
X215355D01*
X216042Y789984D01*
X216658Y790340D01*
X217161Y790842D01*
X217516Y791458D01*
X217641Y791923D01*
X218416Y792699D01*
X235958D01*
X236247Y792199D01*
X235947Y791679D01*
X235650Y790573D01*
Y789427D01*
X235947Y788321D01*
X236520Y787329D01*
X237329Y786519D01*
X238321Y785947D01*
X239427Y785650D01*
X240573D01*
X241679Y785947D01*
X242671Y786519D01*
X243480Y787329D01*
X244053Y788321D01*
X244350Y789427D01*
Y790573D01*
X244053Y791679D01*
X243753Y792199D01*
X244042Y792699D01*
X255266D01*
X259371Y788594D01*
X260016Y788163D01*
X260777Y788012D01*
X276353D01*
X276677Y787450D01*
X277450Y786677D01*
X278397Y786130D01*
X279453Y785847D01*
X280547D01*
X281603Y786130D01*
X282550Y786677D01*
X283323Y787450D01*
X283870Y788397D01*
X284153Y789453D01*
Y790547D01*
X283870Y791603D01*
X283323Y792550D01*
X282550Y793323D01*
X281603Y793870D01*
X280547Y794153D01*
X279453D01*
X278397Y793870D01*
X277450Y793323D01*
X276677Y792550D01*
X276353Y791988D01*
X261600D01*
X257496Y796093D01*
X256851Y796524D01*
X256090Y796675D01*
X244350D01*
Y804350D01*
D02*
G37*
G36*
X710573Y794350D02*
X709427D01*
X708321Y794053D01*
X707329Y793480D01*
X706520Y792671D01*
X705947Y791679D01*
X705650Y790573D01*
Y789427D01*
X705947Y788321D01*
X706520Y787329D01*
X707329Y786519D01*
X708321Y785947D01*
X709427Y785650D01*
X710573D01*
X711679Y785947D01*
X712671Y786519D01*
X713481Y787329D01*
X714053Y788321D01*
X714350Y789427D01*
Y790573D01*
X714053Y791679D01*
X713481Y792671D01*
X712671Y793480D01*
X711679Y794053D01*
X710573Y794350D01*
D02*
G37*
G36*
X510573D02*
X509427D01*
X508321Y794053D01*
X507329Y793480D01*
X506520Y792671D01*
X505947Y791679D01*
X505650Y790573D01*
Y789427D01*
X505947Y788321D01*
X506520Y787329D01*
X507329Y786519D01*
X508321Y785947D01*
X509427Y785650D01*
X510573D01*
X511679Y785947D01*
X512671Y786519D01*
X513481Y787329D01*
X514053Y788321D01*
X514350Y789427D01*
Y790573D01*
X514053Y791679D01*
X513481Y792671D01*
X512671Y793480D01*
X511679Y794053D01*
X510573Y794350D01*
D02*
G37*
G36*
X40573D02*
X39427D01*
X38321Y794053D01*
X37329Y793480D01*
X36520Y792671D01*
X35947Y791679D01*
X35650Y790573D01*
Y789427D01*
X35947Y788321D01*
X36520Y787329D01*
X37329Y786519D01*
X38321Y785947D01*
X39427Y785650D01*
X40573D01*
X41679Y785947D01*
X42671Y786519D01*
X43481Y787329D01*
X44053Y788321D01*
X44350Y789427D01*
Y790573D01*
X44053Y791679D01*
X43481Y792671D01*
X42671Y793480D01*
X41679Y794053D01*
X40573Y794350D01*
D02*
G37*
G36*
X280547Y784153D02*
X279453D01*
X278397Y783870D01*
X277450Y783323D01*
X276677Y782550D01*
X276130Y781603D01*
X275847Y780547D01*
Y779453D01*
X276130Y778397D01*
X276677Y777450D01*
X277450Y776677D01*
X278397Y776130D01*
X279453Y775847D01*
X280547D01*
X281603Y776130D01*
X282550Y776677D01*
X283323Y777450D01*
X283647Y778012D01*
X290666D01*
X290842Y777836D01*
X291458Y777480D01*
X292144Y777296D01*
X292856D01*
X293542Y777480D01*
X294158Y777836D01*
X294334Y778012D01*
X300670D01*
X300842Y777840D01*
X301458Y777484D01*
X302145Y777300D01*
X302855D01*
X303542Y777484D01*
X304158Y777840D01*
X304661Y778342D01*
X305016Y778958D01*
X305200Y779644D01*
Y780356D01*
X305016Y781042D01*
X304661Y781658D01*
X304158Y782161D01*
X303542Y782516D01*
X302855Y782700D01*
X302145D01*
X301458Y782516D01*
X300842Y782161D01*
X300670Y781988D01*
X294326D01*
X294158Y782157D01*
X293542Y782512D01*
X292856Y782696D01*
X292144D01*
X291458Y782512D01*
X290842Y782157D01*
X290674Y781988D01*
X283647D01*
X283323Y782550D01*
X282550Y783323D01*
X281603Y783870D01*
X280547Y784153D01*
D02*
G37*
G36*
X470547D02*
X469453D01*
X468397Y783870D01*
X467450Y783323D01*
X466677Y782550D01*
X466130Y781603D01*
X465847Y780547D01*
Y779453D01*
X466130Y778397D01*
X466677Y777450D01*
X467450Y776677D01*
X468397Y776130D01*
X469453Y775847D01*
X470547D01*
X471603Y776130D01*
X472550Y776677D01*
X473323Y777450D01*
X473870Y778397D01*
X474153Y779453D01*
Y780547D01*
X473870Y781603D01*
X473323Y782550D01*
X472550Y783323D01*
X471603Y783870D01*
X470547Y784153D01*
D02*
G37*
G36*
X710573Y784350D02*
X709427D01*
X708321Y784053D01*
X707329Y783481D01*
X706520Y782671D01*
X705947Y781679D01*
X705650Y780573D01*
Y779427D01*
X705947Y778321D01*
X706520Y777329D01*
X707329Y776519D01*
X708321Y775947D01*
X709427Y775650D01*
X710573D01*
X711679Y775947D01*
X712671Y776519D01*
X713481Y777329D01*
X714053Y778321D01*
X714350Y779427D01*
Y780573D01*
X714053Y781679D01*
X713481Y782671D01*
X712671Y783481D01*
X711679Y784053D01*
X710573Y784350D01*
D02*
G37*
G36*
X510573D02*
X509427D01*
X508321Y784053D01*
X507329Y783481D01*
X506520Y782671D01*
X505947Y781679D01*
X505650Y780573D01*
Y779427D01*
X505947Y778321D01*
X506520Y777329D01*
X507329Y776519D01*
X508321Y775947D01*
X509427Y775650D01*
X510573D01*
X511679Y775947D01*
X512671Y776519D01*
X513481Y777329D01*
X514053Y778321D01*
X514350Y779427D01*
Y780573D01*
X514053Y781679D01*
X513481Y782671D01*
X512671Y783481D01*
X511679Y784053D01*
X510573Y784350D01*
D02*
G37*
G36*
X240573D02*
X239427D01*
X238321Y784053D01*
X237329Y783481D01*
X236520Y782671D01*
X235947Y781679D01*
X235650Y780573D01*
Y779427D01*
X235947Y778321D01*
X236520Y777329D01*
X237329Y776519D01*
X238321Y775947D01*
X239427Y775650D01*
X240573D01*
X241679Y775947D01*
X242671Y776519D01*
X243480Y777329D01*
X244053Y778321D01*
X244350Y779427D01*
Y780573D01*
X244053Y781679D01*
X243480Y782671D01*
X242671Y783481D01*
X241679Y784053D01*
X240573Y784350D01*
D02*
G37*
G36*
X40573D02*
X39427D01*
X38321Y784053D01*
X37329Y783481D01*
X36520Y782671D01*
X35947Y781679D01*
X35650Y780573D01*
Y779427D01*
X35947Y778321D01*
X36520Y777329D01*
X37329Y776519D01*
X38321Y775947D01*
X39427Y775650D01*
X40573D01*
X41679Y775947D01*
X42671Y776519D01*
X43481Y777329D01*
X44053Y778321D01*
X44350Y779427D01*
Y780573D01*
X44053Y781679D01*
X43481Y782671D01*
X42671Y783481D01*
X41679Y784053D01*
X40573Y784350D01*
D02*
G37*
G36*
X280547Y774153D02*
X279453D01*
X278397Y773870D01*
X277450Y773323D01*
X276677Y772550D01*
X276353Y771988D01*
X263579D01*
X263246Y771922D01*
X262856Y772027D01*
X262144D01*
X261458Y771843D01*
X260842Y771487D01*
X260339Y770985D01*
X259984Y770369D01*
X259800Y769682D01*
Y768971D01*
X259984Y768285D01*
X260339Y767669D01*
X260842Y767166D01*
X261458Y766811D01*
X262144Y766627D01*
X262856D01*
X263542Y766811D01*
X264158Y767166D01*
X264661Y767669D01*
X264859Y768012D01*
X276353D01*
X276677Y767450D01*
X277450Y766677D01*
X278397Y766130D01*
X279453Y765847D01*
X280547D01*
X281603Y766130D01*
X282550Y766677D01*
X283323Y767450D01*
X283647Y768012D01*
X305670D01*
X305842Y767839D01*
X306458Y767484D01*
X307144Y767300D01*
X307856D01*
X308542Y767484D01*
X309158Y767839D01*
X309661Y768342D01*
X310016Y768958D01*
X310200Y769644D01*
Y770356D01*
X310016Y771042D01*
X309661Y771658D01*
X309158Y772160D01*
X308542Y772516D01*
X307856Y772700D01*
X307144D01*
X306458Y772516D01*
X305842Y772160D01*
X305670Y771988D01*
X283647D01*
X283323Y772550D01*
X282550Y773323D01*
X281603Y773870D01*
X280547Y774153D01*
D02*
G37*
G36*
X40546Y774150D02*
X40500D01*
Y770500D01*
X44150D01*
Y770546D01*
X43867Y771602D01*
X43321Y772548D01*
X42548Y773320D01*
X41602Y773867D01*
X40546Y774150D01*
D02*
G37*
G36*
X39500D02*
X39454D01*
X38398Y773867D01*
X37452Y773320D01*
X36680Y772548D01*
X36133Y771602D01*
X35850Y770546D01*
Y770500D01*
X39500D01*
Y774150D01*
D02*
G37*
G36*
X710546D02*
X710500D01*
Y770500D01*
X714150D01*
Y770546D01*
X713867Y771602D01*
X713320Y772548D01*
X712548Y773320D01*
X711602Y773867D01*
X710546Y774150D01*
D02*
G37*
G36*
X510546D02*
X510500D01*
Y770500D01*
X514150D01*
Y770546D01*
X513867Y771602D01*
X513320Y772548D01*
X512548Y773320D01*
X511602Y773867D01*
X510546Y774150D01*
D02*
G37*
G36*
X240546D02*
X240500D01*
Y770500D01*
X244150D01*
Y770546D01*
X243867Y771602D01*
X243320Y772548D01*
X242548Y773320D01*
X241602Y773867D01*
X240546Y774150D01*
D02*
G37*
G36*
X709500D02*
X709454D01*
X708398Y773867D01*
X707452Y773320D01*
X706679Y772548D01*
X706133Y771602D01*
X705850Y770546D01*
Y770500D01*
X709500D01*
Y774150D01*
D02*
G37*
G36*
X509500D02*
X509454D01*
X508398Y773867D01*
X507452Y773320D01*
X506679Y772548D01*
X506133Y771602D01*
X505850Y770546D01*
Y770500D01*
X509500D01*
Y774150D01*
D02*
G37*
G36*
X239500D02*
X239454D01*
X238398Y773867D01*
X237452Y773320D01*
X236680Y772548D01*
X236133Y771602D01*
X235850Y770546D01*
Y770500D01*
X239500D01*
Y774150D01*
D02*
G37*
G36*
X714150Y769500D02*
X710500D01*
Y765850D01*
X710546D01*
X711602Y766133D01*
X712548Y766679D01*
X713320Y767452D01*
X713867Y768398D01*
X714150Y769454D01*
Y769500D01*
D02*
G37*
G36*
X709500D02*
X705850D01*
Y769454D01*
X706133Y768398D01*
X706679Y767452D01*
X707452Y766679D01*
X708398Y766133D01*
X709454Y765850D01*
X709500D01*
Y769500D01*
D02*
G37*
G36*
X514150D02*
X510500D01*
Y765850D01*
X510546D01*
X511602Y766133D01*
X512548Y766679D01*
X513320Y767452D01*
X513867Y768398D01*
X514150Y769454D01*
Y769500D01*
D02*
G37*
G36*
X509500D02*
X505850D01*
Y769454D01*
X506133Y768398D01*
X506679Y767452D01*
X507452Y766679D01*
X508398Y766133D01*
X509454Y765850D01*
X509500D01*
Y769500D01*
D02*
G37*
G36*
X244150D02*
X240500D01*
Y765850D01*
X240546D01*
X241602Y766133D01*
X242548Y766679D01*
X243320Y767452D01*
X243867Y768398D01*
X244150Y769454D01*
Y769500D01*
D02*
G37*
G36*
X239500D02*
X235850D01*
Y769454D01*
X236133Y768398D01*
X236680Y767452D01*
X237452Y766679D01*
X238398Y766133D01*
X239454Y765850D01*
X239500D01*
Y769500D01*
D02*
G37*
G36*
X44150Y769500D02*
X40500D01*
Y765850D01*
X40546D01*
X41602Y766133D01*
X42548Y766679D01*
X43321Y767452D01*
X43867Y768398D01*
X44150Y769454D01*
Y769500D01*
D02*
G37*
G36*
X39500D02*
X35850D01*
Y769454D01*
X36133Y768398D01*
X36680Y767452D01*
X37452Y766679D01*
X38398Y766133D01*
X39454Y765850D01*
X39500D01*
Y769500D01*
D02*
G37*
G36*
X40546Y764150D02*
X40500D01*
Y760500D01*
X44150D01*
Y760546D01*
X43867Y761602D01*
X43321Y762548D01*
X42548Y763320D01*
X41602Y763867D01*
X40546Y764150D01*
D02*
G37*
G36*
X39500D02*
X39454D01*
X38398Y763867D01*
X37452Y763320D01*
X36680Y762548D01*
X36133Y761602D01*
X35850Y760546D01*
Y760500D01*
X39500D01*
Y764150D01*
D02*
G37*
G36*
X710546D02*
X710500D01*
Y760500D01*
X714150D01*
Y760546D01*
X713867Y761602D01*
X713320Y762548D01*
X712548Y763320D01*
X711602Y763867D01*
X710546Y764150D01*
D02*
G37*
G36*
X510546D02*
X510500D01*
Y760500D01*
X514150D01*
Y760546D01*
X513867Y761602D01*
X513320Y762548D01*
X512548Y763320D01*
X511602Y763867D01*
X510546Y764150D01*
D02*
G37*
G36*
X240546D02*
X240500D01*
Y760500D01*
X244150D01*
Y760546D01*
X243867Y761602D01*
X243320Y762548D01*
X242548Y763320D01*
X241602Y763867D01*
X240546Y764150D01*
D02*
G37*
G36*
X709500D02*
X709454D01*
X708398Y763867D01*
X707452Y763320D01*
X706679Y762548D01*
X706133Y761602D01*
X705850Y760546D01*
Y760500D01*
X709500D01*
Y764150D01*
D02*
G37*
G36*
X509500D02*
X509454D01*
X508398Y763867D01*
X507452Y763320D01*
X506679Y762548D01*
X506133Y761602D01*
X505850Y760546D01*
Y760500D01*
X509500D01*
Y764150D01*
D02*
G37*
G36*
X239500D02*
X239454D01*
X238398Y763867D01*
X237452Y763320D01*
X236680Y762548D01*
X236133Y761602D01*
X235850Y760546D01*
Y760500D01*
X239500D01*
Y764150D01*
D02*
G37*
G36*
X280547Y764153D02*
X279453D01*
X278397Y763870D01*
X277450Y763323D01*
X276677Y762550D01*
X276130Y761603D01*
X275847Y760547D01*
Y759453D01*
X276130Y758397D01*
X276677Y757450D01*
X277450Y756677D01*
X278397Y756130D01*
X279453Y755847D01*
X280547D01*
X281603Y756130D01*
X282550Y756677D01*
X283323Y757450D01*
X283647Y758012D01*
X298170D01*
X298342Y757839D01*
X298958Y757484D01*
X299644Y757300D01*
X300356D01*
X301042Y757484D01*
X301658Y757839D01*
X301830Y758012D01*
X310670D01*
X310842Y757839D01*
X311458Y757484D01*
X312144Y757300D01*
X312856D01*
X313542Y757484D01*
X314158Y757839D01*
X314661Y758342D01*
X315016Y758958D01*
X315200Y759645D01*
Y760356D01*
X315016Y761042D01*
X314661Y761658D01*
X314158Y762160D01*
X313542Y762516D01*
X312856Y762700D01*
X312144D01*
X311458Y762516D01*
X310842Y762160D01*
X310670Y761988D01*
X301830D01*
X301658Y762160D01*
X301042Y762516D01*
X300356Y762700D01*
X299644D01*
X298958Y762516D01*
X298342Y762160D01*
X298170Y761988D01*
X283647D01*
X283323Y762550D01*
X282550Y763323D01*
X281603Y763870D01*
X280547Y764153D01*
D02*
G37*
G36*
X409957Y759500D02*
X408256D01*
Y756500D01*
X409957D01*
Y759500D01*
D02*
G37*
G36*
X714150Y759500D02*
X710500D01*
Y755850D01*
X710546D01*
X711602Y756133D01*
X712548Y756679D01*
X713320Y757452D01*
X713867Y758398D01*
X714150Y759454D01*
Y759500D01*
D02*
G37*
G36*
X709500D02*
X705850D01*
Y759454D01*
X706133Y758398D01*
X706679Y757452D01*
X707452Y756679D01*
X708398Y756133D01*
X709454Y755850D01*
X709500D01*
Y759500D01*
D02*
G37*
G36*
X514150D02*
X510500D01*
Y755850D01*
X510546D01*
X511602Y756133D01*
X512548Y756679D01*
X513320Y757452D01*
X513867Y758398D01*
X514150Y759454D01*
Y759500D01*
D02*
G37*
G36*
X509500D02*
X505850D01*
Y759454D01*
X506133Y758398D01*
X506679Y757452D01*
X507452Y756679D01*
X508398Y756133D01*
X509454Y755850D01*
X509500D01*
Y759500D01*
D02*
G37*
G36*
X244150D02*
X240500D01*
Y755850D01*
X240546D01*
X241602Y756133D01*
X242548Y756679D01*
X243320Y757452D01*
X243867Y758398D01*
X244150Y759454D01*
Y759500D01*
D02*
G37*
G36*
X239500D02*
X235850D01*
Y759454D01*
X236133Y758398D01*
X236680Y757452D01*
X237452Y756679D01*
X238398Y756133D01*
X239454Y755850D01*
X239500D01*
Y759500D01*
D02*
G37*
G36*
X44150Y759500D02*
X40500D01*
Y755850D01*
X40546D01*
X41602Y756133D01*
X42548Y756679D01*
X43321Y757452D01*
X43867Y758398D01*
X44150Y759454D01*
Y759500D01*
D02*
G37*
G36*
X39500D02*
X35850D01*
Y759454D01*
X36133Y758398D01*
X36680Y757452D01*
X37452Y756679D01*
X38398Y756133D01*
X39454Y755850D01*
X39500D01*
Y759500D01*
D02*
G37*
G36*
X40546Y754150D02*
X40500D01*
Y750500D01*
X44150D01*
Y750546D01*
X43867Y751602D01*
X43321Y752548D01*
X42548Y753321D01*
X41602Y753867D01*
X40546Y754150D01*
D02*
G37*
G36*
X39500D02*
X39454D01*
X38398Y753867D01*
X37452Y753321D01*
X36680Y752548D01*
X36133Y751602D01*
X35850Y750546D01*
Y750500D01*
X39500D01*
Y754150D01*
D02*
G37*
G36*
X710546D02*
X710500D01*
Y750500D01*
X714150D01*
Y750546D01*
X713867Y751602D01*
X713320Y752548D01*
X712548Y753321D01*
X711602Y753867D01*
X710546Y754150D01*
D02*
G37*
G36*
X510546D02*
X510500D01*
Y750500D01*
X514150D01*
Y750546D01*
X513867Y751602D01*
X513320Y752548D01*
X512548Y753321D01*
X511602Y753867D01*
X510546Y754150D01*
D02*
G37*
G36*
X240546D02*
X240500D01*
Y750500D01*
X244150D01*
Y750546D01*
X243867Y751602D01*
X243320Y752548D01*
X242548Y753321D01*
X241602Y753867D01*
X240546Y754150D01*
D02*
G37*
G36*
X709500D02*
X709454D01*
X708398Y753867D01*
X707452Y753321D01*
X706679Y752548D01*
X706133Y751602D01*
X705850Y750546D01*
Y750500D01*
X709500D01*
Y754150D01*
D02*
G37*
G36*
X509500D02*
X509454D01*
X508398Y753867D01*
X507452Y753321D01*
X506679Y752548D01*
X506133Y751602D01*
X505850Y750546D01*
Y750500D01*
X509500D01*
Y754150D01*
D02*
G37*
G36*
X239500D02*
X239454D01*
X238398Y753867D01*
X237452Y753321D01*
X236680Y752548D01*
X236133Y751602D01*
X235850Y750546D01*
Y750500D01*
X239500D01*
Y754150D01*
D02*
G37*
G36*
X714150Y749500D02*
X710500D01*
Y745850D01*
X710546D01*
X711602Y746133D01*
X712548Y746679D01*
X713320Y747452D01*
X713867Y748398D01*
X714150Y749454D01*
Y749500D01*
D02*
G37*
G36*
X709500D02*
X705850D01*
Y749454D01*
X706133Y748398D01*
X706679Y747452D01*
X707452Y746679D01*
X708398Y746133D01*
X709454Y745850D01*
X709500D01*
Y749500D01*
D02*
G37*
G36*
X244150D02*
X240500D01*
Y745850D01*
X240546D01*
X241602Y746133D01*
X242548Y746679D01*
X243320Y747452D01*
X243867Y748398D01*
X244150Y749454D01*
Y749500D01*
D02*
G37*
G36*
X239500D02*
X235850D01*
Y749454D01*
X236133Y748398D01*
X236680Y747452D01*
X237452Y746679D01*
X238398Y746133D01*
X239454Y745850D01*
X239500D01*
Y749500D01*
D02*
G37*
G36*
X44150Y749500D02*
X40500D01*
Y745850D01*
X40546D01*
X41602Y746133D01*
X42548Y746679D01*
X43321Y747452D01*
X43867Y748398D01*
X44150Y749454D01*
Y749500D01*
D02*
G37*
G36*
X39500D02*
X35850D01*
Y749454D01*
X36133Y748398D01*
X36680Y747452D01*
X37452Y746679D01*
X38398Y746133D01*
X39454Y745850D01*
X39500D01*
Y749500D01*
D02*
G37*
G36*
X280547Y704153D02*
X279453D01*
X278397Y703870D01*
X277450Y703323D01*
X276677Y702550D01*
X276130Y701603D01*
X275847Y700547D01*
Y699453D01*
X276130Y698397D01*
X276677Y697450D01*
X277450Y696677D01*
X278397Y696130D01*
X279453Y695847D01*
X280547D01*
X281603Y696130D01*
X282550Y696677D01*
X283323Y697450D01*
X283647Y698012D01*
X340670D01*
X340842Y697839D01*
X341115Y697682D01*
X341163Y697425D01*
X341141Y697089D01*
X340709Y696658D01*
X340354Y696042D01*
X340170Y695356D01*
Y694644D01*
X340354Y693958D01*
X340709Y693342D01*
X341212Y692839D01*
X341828Y692484D01*
X341746Y691988D01*
X283647D01*
X283323Y692550D01*
X282550Y693323D01*
X281603Y693870D01*
X280547Y694153D01*
X279453D01*
X278397Y693870D01*
X277450Y693323D01*
X276677Y692550D01*
X276130Y691603D01*
X275847Y690547D01*
Y689453D01*
X276130Y688397D01*
X276677Y687450D01*
X277450Y686677D01*
X278397Y686130D01*
X279453Y685847D01*
X280547D01*
X281603Y686130D01*
X282550Y686677D01*
X283323Y687450D01*
X283647Y688012D01*
X345670D01*
X345842Y687840D01*
X346458Y687484D01*
X347145Y687300D01*
X347855D01*
X348542Y687484D01*
X349158Y687840D01*
X349660Y688342D01*
X350016Y688958D01*
X350200Y689644D01*
Y690355D01*
X350016Y691042D01*
X349660Y691658D01*
X349158Y692161D01*
X348542Y692516D01*
X348624Y693012D01*
X370670D01*
X370842Y692839D01*
X371458Y692484D01*
X372145Y692300D01*
X372855D01*
X373542Y692484D01*
X374158Y692839D01*
X374660Y693342D01*
X375016Y693958D01*
X375200Y694644D01*
Y695356D01*
X375016Y696042D01*
X374660Y696658D01*
X374158Y697160D01*
X373542Y697516D01*
X372855Y697700D01*
X372145D01*
X371458Y697516D01*
X370842Y697160D01*
X370670Y696988D01*
X344700D01*
X344528Y697160D01*
X344255Y697318D01*
X344207Y697575D01*
X344229Y697910D01*
X344660Y698342D01*
X345016Y698958D01*
X345200Y699645D01*
Y700355D01*
X345016Y701042D01*
X344660Y701658D01*
X344158Y702161D01*
X343542Y702516D01*
X342856Y702700D01*
X342144D01*
X341458Y702516D01*
X340842Y702161D01*
X340670Y701988D01*
X283647D01*
X283323Y702550D01*
X282550Y703323D01*
X281603Y703870D01*
X280547Y704153D01*
D02*
G37*
G36*
X376182Y691027D02*
X375471D01*
X374785Y690843D01*
X374169Y690487D01*
X373997Y690315D01*
X360827D01*
X360249Y690200D01*
X359645D01*
X358958Y690016D01*
X358342Y689661D01*
X357839Y689158D01*
X357484Y688542D01*
X357300Y687855D01*
Y687145D01*
X357484Y686458D01*
X357839Y685842D01*
X358342Y685339D01*
X358958Y684984D01*
X359645Y684800D01*
X360355D01*
X361042Y684984D01*
X361658Y685339D01*
X362160Y685842D01*
X362447Y686339D01*
X373997D01*
X374169Y686166D01*
X374785Y685811D01*
X375471Y685627D01*
X376182D01*
X376869Y685811D01*
X377485Y686166D01*
X377987Y686669D01*
X378343Y687285D01*
X378527Y687971D01*
Y688682D01*
X378343Y689369D01*
X377987Y689985D01*
X377485Y690487D01*
X376869Y690843D01*
X376182Y691027D01*
D02*
G37*
G36*
X379726Y685830D02*
X379015D01*
X378328Y685646D01*
X377712Y685290D01*
X377540Y685118D01*
X372460D01*
X372288Y685290D01*
X371672Y685646D01*
X370985Y685830D01*
X370274D01*
X369588Y685646D01*
X368972Y685290D01*
X368469Y684788D01*
X368114Y684172D01*
X367930Y683485D01*
Y682774D01*
X368114Y682088D01*
X368469Y681472D01*
X368972Y680969D01*
X369588Y680614D01*
X370274Y680430D01*
X370985D01*
X371672Y680614D01*
X372288Y680969D01*
X372460Y681142D01*
X377540D01*
X377712Y680969D01*
X378328Y680614D01*
X379015Y680430D01*
X379726D01*
X380412Y680614D01*
X381028Y680969D01*
X381531Y681472D01*
X381886Y682088D01*
X382070Y682774D01*
Y683485D01*
X381886Y684172D01*
X381531Y684788D01*
X381028Y685290D01*
X380412Y685646D01*
X379726Y685830D01*
D02*
G37*
G36*
X470547Y684153D02*
X469453D01*
X468397Y683870D01*
X467450Y683323D01*
X466677Y682550D01*
X466353Y681988D01*
X436830D01*
X436658Y682161D01*
X436042Y682516D01*
X435356Y682700D01*
X434645D01*
X433958Y682516D01*
X433342Y682161D01*
X432839Y681658D01*
X432484Y681042D01*
X432300Y680356D01*
Y679644D01*
X432484Y678958D01*
X432839Y678342D01*
X433342Y677840D01*
X433958Y677484D01*
X434645Y677300D01*
X435356D01*
X436042Y677484D01*
X436658Y677840D01*
X436830Y678012D01*
X466353D01*
X466677Y677450D01*
X467450Y676677D01*
X468397Y676130D01*
X469453Y675847D01*
X470547D01*
X471603Y676130D01*
X472550Y676677D01*
X473323Y677450D01*
X473647Y678012D01*
X708170D01*
X708342Y677840D01*
X708958Y677484D01*
X709645Y677300D01*
X710356D01*
X711042Y677484D01*
X711658Y677840D01*
X712160Y678342D01*
X712516Y678958D01*
X712700Y679644D01*
Y680356D01*
X712516Y681042D01*
X712160Y681658D01*
X711658Y682161D01*
X711042Y682516D01*
X710356Y682700D01*
X709645D01*
X708958Y682516D01*
X708342Y682161D01*
X708170Y681988D01*
X473647D01*
X473323Y682550D01*
X472550Y683323D01*
X471603Y683870D01*
X470547Y684153D01*
D02*
G37*
G36*
X280547D02*
X279453D01*
X278397Y683870D01*
X277450Y683323D01*
X276677Y682550D01*
X276130Y681603D01*
X275847Y680547D01*
Y679453D01*
X276130Y678397D01*
X276677Y677450D01*
X277450Y676677D01*
X278397Y676130D01*
X279453Y675847D01*
X280547D01*
X281603Y676130D01*
X282550Y676677D01*
X283323Y677450D01*
X283647Y678012D01*
X348170D01*
X348342Y677840D01*
X348958Y677484D01*
X349644Y677300D01*
X350356D01*
X351042Y677484D01*
X351658Y677840D01*
X352161Y678342D01*
X352516Y678958D01*
X352700Y679644D01*
Y680356D01*
X352516Y681042D01*
X352161Y681658D01*
X351658Y682161D01*
X351042Y682516D01*
X350356Y682700D01*
X349644D01*
X348958Y682516D01*
X348342Y682161D01*
X348170Y681988D01*
X283647D01*
X283323Y682550D01*
X282550Y683323D01*
X281603Y683870D01*
X280547Y684153D01*
D02*
G37*
G36*
X450520Y663953D02*
X450500D01*
Y660500D01*
X453953D01*
Y660520D01*
X453683Y661526D01*
X453163Y662427D01*
X452427Y663163D01*
X451526Y663683D01*
X450520Y663953D01*
D02*
G37*
G36*
X449500D02*
X449480D01*
X448474Y663683D01*
X447573Y663163D01*
X446837Y662427D01*
X446317Y661526D01*
X446047Y660520D01*
Y660500D01*
X449500D01*
Y663953D01*
D02*
G37*
G36*
X453953Y659500D02*
X450500D01*
Y656047D01*
X450520D01*
X451526Y656317D01*
X452427Y656837D01*
X453163Y657573D01*
X453683Y658474D01*
X453953Y659480D01*
Y659500D01*
D02*
G37*
G36*
X449500D02*
X446047D01*
Y659480D01*
X446317Y658474D01*
X446837Y657573D01*
X447573Y656837D01*
X448474Y656317D01*
X449480Y656047D01*
X449500D01*
Y659500D01*
D02*
G37*
G36*
X440547Y664153D02*
X439453D01*
X438397Y663870D01*
X437450Y663323D01*
X436677Y662550D01*
X436130Y661603D01*
X435847Y660547D01*
Y659453D01*
X436130Y658397D01*
X436677Y657450D01*
X437450Y656677D01*
X438397Y656130D01*
X439453Y655847D01*
X440547D01*
X441603Y656130D01*
X442550Y656677D01*
X443323Y657450D01*
X443870Y658397D01*
X444153Y659453D01*
Y660547D01*
X443870Y661603D01*
X443323Y662550D01*
X442550Y663323D01*
X441603Y663870D01*
X440547Y664153D01*
D02*
G37*
G36*
X430547D02*
X429453D01*
X428397Y663870D01*
X427450Y663323D01*
X426677Y662550D01*
X426130Y661603D01*
X425847Y660547D01*
Y659453D01*
X426130Y658397D01*
X426677Y657450D01*
X427450Y656677D01*
X428397Y656130D01*
X429453Y655847D01*
X430547D01*
X431603Y656130D01*
X432550Y656677D01*
X433323Y657450D01*
X433870Y658397D01*
X434153Y659453D01*
Y660547D01*
X433870Y661603D01*
X433323Y662550D01*
X432550Y663323D01*
X431603Y663870D01*
X430547Y664153D01*
D02*
G37*
G36*
X420547D02*
X419453D01*
X418397Y663870D01*
X417450Y663323D01*
X416677Y662550D01*
X416130Y661603D01*
X415847Y660547D01*
Y659453D01*
X416130Y658397D01*
X416677Y657450D01*
X417450Y656677D01*
X418397Y656130D01*
X419453Y655847D01*
X420547D01*
X421603Y656130D01*
X422550Y656677D01*
X423323Y657450D01*
X423870Y658397D01*
X424153Y659453D01*
Y660547D01*
X423870Y661603D01*
X423323Y662550D01*
X422550Y663323D01*
X421603Y663870D01*
X420547Y664153D01*
D02*
G37*
G36*
X410547D02*
X409453D01*
X408397Y663870D01*
X407450Y663323D01*
X406677Y662550D01*
X406130Y661603D01*
X405847Y660547D01*
Y659453D01*
X406130Y658397D01*
X406677Y657450D01*
X407450Y656677D01*
X408397Y656130D01*
X409453Y655847D01*
X410547D01*
X411603Y656130D01*
X412550Y656677D01*
X413323Y657450D01*
X413870Y658397D01*
X414153Y659453D01*
Y660547D01*
X413870Y661603D01*
X413323Y662550D01*
X412550Y663323D01*
X411603Y663870D01*
X410547Y664153D01*
D02*
G37*
G36*
X400547D02*
X399453D01*
X398397Y663870D01*
X397450Y663323D01*
X396677Y662550D01*
X396130Y661603D01*
X395847Y660547D01*
Y659453D01*
X396130Y658397D01*
X396677Y657450D01*
X397450Y656677D01*
X398397Y656130D01*
X399453Y655847D01*
X400547D01*
X401603Y656130D01*
X402550Y656677D01*
X403323Y657450D01*
X403870Y658397D01*
X404153Y659453D01*
Y660547D01*
X403870Y661603D01*
X403323Y662550D01*
X402550Y663323D01*
X401603Y663870D01*
X400547Y664153D01*
D02*
G37*
G36*
X390547D02*
X389453D01*
X388397Y663870D01*
X387450Y663323D01*
X386677Y662550D01*
X386130Y661603D01*
X385847Y660547D01*
Y659453D01*
X386130Y658397D01*
X386677Y657450D01*
X387450Y656677D01*
X388397Y656130D01*
X389453Y655847D01*
X390547D01*
X391603Y656130D01*
X392550Y656677D01*
X393323Y657450D01*
X393870Y658397D01*
X394153Y659453D01*
Y660547D01*
X393870Y661603D01*
X393323Y662550D01*
X392550Y663323D01*
X391603Y663870D01*
X390547Y664153D01*
D02*
G37*
G36*
X380547D02*
X379453D01*
X378397Y663870D01*
X377450Y663323D01*
X376677Y662550D01*
X376130Y661603D01*
X375847Y660547D01*
Y659453D01*
X376130Y658397D01*
X376677Y657450D01*
X377450Y656677D01*
X378397Y656130D01*
X379453Y655847D01*
X380547D01*
X381603Y656130D01*
X382550Y656677D01*
X383323Y657450D01*
X383870Y658397D01*
X384153Y659453D01*
Y660547D01*
X383870Y661603D01*
X383323Y662550D01*
X382550Y663323D01*
X381603Y663870D01*
X380547Y664153D01*
D02*
G37*
G36*
X370547D02*
X369453D01*
X368397Y663870D01*
X367450Y663323D01*
X366677Y662550D01*
X366130Y661603D01*
X365847Y660547D01*
Y659453D01*
X366130Y658397D01*
X366677Y657450D01*
X367450Y656677D01*
X368397Y656130D01*
X369453Y655847D01*
X370547D01*
X371603Y656130D01*
X372550Y656677D01*
X373323Y657450D01*
X373870Y658397D01*
X374153Y659453D01*
Y660547D01*
X373870Y661603D01*
X373323Y662550D01*
X372550Y663323D01*
X371603Y663870D01*
X370547Y664153D01*
D02*
G37*
G36*
X360547D02*
X359453D01*
X358397Y663870D01*
X357450Y663323D01*
X356677Y662550D01*
X356130Y661603D01*
X355847Y660547D01*
Y659453D01*
X356130Y658397D01*
X356677Y657450D01*
X357450Y656677D01*
X358397Y656130D01*
X359453Y655847D01*
X360547D01*
X361603Y656130D01*
X362550Y656677D01*
X363323Y657450D01*
X363870Y658397D01*
X364153Y659453D01*
Y660547D01*
X363870Y661603D01*
X363323Y662550D01*
X362550Y663323D01*
X361603Y663870D01*
X360547Y664153D01*
D02*
G37*
G36*
X350547D02*
X349453D01*
X348397Y663870D01*
X347450Y663323D01*
X346677Y662550D01*
X346130Y661603D01*
X345847Y660547D01*
Y659453D01*
X346130Y658397D01*
X346677Y657450D01*
X347450Y656677D01*
X348397Y656130D01*
X349453Y655847D01*
X350547D01*
X351603Y656130D01*
X352550Y656677D01*
X353323Y657450D01*
X353870Y658397D01*
X354153Y659453D01*
Y660547D01*
X353870Y661603D01*
X353323Y662550D01*
X352550Y663323D01*
X351603Y663870D01*
X350547Y664153D01*
D02*
G37*
G36*
X340547D02*
X339453D01*
X338397Y663870D01*
X337450Y663323D01*
X336677Y662550D01*
X336130Y661603D01*
X335847Y660547D01*
Y659453D01*
X336130Y658397D01*
X336677Y657450D01*
X337450Y656677D01*
X338397Y656130D01*
X339453Y655847D01*
X340547D01*
X341603Y656130D01*
X342550Y656677D01*
X343323Y657450D01*
X343870Y658397D01*
X344153Y659453D01*
Y660547D01*
X343870Y661603D01*
X343323Y662550D01*
X342550Y663323D01*
X341603Y663870D01*
X340547Y664153D01*
D02*
G37*
G36*
X330547D02*
X329453D01*
X328397Y663870D01*
X327450Y663323D01*
X326677Y662550D01*
X326130Y661603D01*
X325847Y660547D01*
Y659453D01*
X326130Y658397D01*
X326677Y657450D01*
X327450Y656677D01*
X328397Y656130D01*
X329453Y655847D01*
X330547D01*
X331603Y656130D01*
X332550Y656677D01*
X333323Y657450D01*
X333870Y658397D01*
X334153Y659453D01*
Y660547D01*
X333870Y661603D01*
X333323Y662550D01*
X332550Y663323D01*
X331603Y663870D01*
X330547Y664153D01*
D02*
G37*
G36*
X320547D02*
X319453D01*
X318397Y663870D01*
X317450Y663323D01*
X316677Y662550D01*
X316130Y661603D01*
X315847Y660547D01*
Y659453D01*
X316130Y658397D01*
X316677Y657450D01*
X317450Y656677D01*
X318397Y656130D01*
X319453Y655847D01*
X320547D01*
X321603Y656130D01*
X322550Y656677D01*
X323323Y657450D01*
X323870Y658397D01*
X324153Y659453D01*
Y660547D01*
X323870Y661603D01*
X323323Y662550D01*
X322550Y663323D01*
X321603Y663870D01*
X320547Y664153D01*
D02*
G37*
G36*
X314153D02*
X305847D01*
Y655847D01*
X314153D01*
Y664153D01*
D02*
G37*
G36*
X695356Y652700D02*
X694644D01*
X693958Y652516D01*
X693342Y652161D01*
X693170Y651988D01*
X357401D01*
X357229Y652161D01*
X356613Y652516D01*
X355926Y652700D01*
X355215D01*
X354529Y652516D01*
X353913Y652161D01*
X353410Y651658D01*
X353055Y651042D01*
X352871Y650355D01*
Y649645D01*
X353055Y648958D01*
X353410Y648342D01*
X353844Y647908D01*
X353795Y647388D01*
X353725Y647374D01*
X353633Y647313D01*
X278324D01*
X274231Y651406D01*
X273586Y651837D01*
X272825Y651988D01*
X269330D01*
X269158Y652161D01*
X268542Y652516D01*
X267856Y652700D01*
X267144D01*
X266458Y652516D01*
X265842Y652161D01*
X265339Y651658D01*
X264984Y651042D01*
X264800Y650355D01*
Y649645D01*
X264984Y648958D01*
X265339Y648342D01*
X265842Y647839D01*
X266458Y647484D01*
X267144Y647300D01*
X267856D01*
X268542Y647484D01*
X269158Y647839D01*
X269330Y648012D01*
X272001D01*
X274525Y645487D01*
X274334Y645026D01*
X148926D01*
X148165Y644874D01*
X147587Y644488D01*
X101830D01*
X101658Y644661D01*
X101042Y645016D01*
X100356Y645200D01*
X99645D01*
X98958Y645016D01*
X98342Y644661D01*
X97839Y644158D01*
X97484Y643542D01*
X97300Y642856D01*
Y642144D01*
X97484Y641458D01*
X97839Y640842D01*
X98342Y640340D01*
X98958Y639984D01*
X99645Y639800D01*
X100356D01*
X101042Y639984D01*
X101658Y640340D01*
X101830Y640512D01*
X148389D01*
X149149Y640663D01*
X149727Y641049D01*
X192619D01*
X193002Y640549D01*
X192950Y640355D01*
Y639644D01*
X193134Y638958D01*
X193490Y638342D01*
X193993Y637840D01*
X194608Y637484D01*
X194527Y636988D01*
X121830D01*
X121658Y637160D01*
X121042Y637516D01*
X120355Y637700D01*
X119644D01*
X118958Y637516D01*
X118342Y637160D01*
X117840Y636658D01*
X117484Y636042D01*
X117300Y635356D01*
Y634645D01*
X117484Y633958D01*
X117840Y633342D01*
X118342Y632839D01*
X118958Y632484D01*
X119644Y632300D01*
X120355D01*
X121042Y632484D01*
X121658Y632839D01*
X121830Y633012D01*
X318876D01*
X318958Y632516D01*
X318342Y632161D01*
X317840Y631658D01*
X317484Y631042D01*
X317300Y630356D01*
Y629644D01*
X317484Y628958D01*
X317840Y628342D01*
X318342Y627840D01*
X318958Y627484D01*
X318876Y626988D01*
X311830D01*
X311658Y627161D01*
X311042Y627516D01*
X310355Y627700D01*
X309645D01*
X308958Y627516D01*
X308342Y627161D01*
X307839Y626658D01*
X307484Y626042D01*
X307300Y625355D01*
Y624645D01*
X307484Y623958D01*
X307839Y623342D01*
X308156Y623026D01*
X307949Y622526D01*
X111006D01*
X110355Y622700D01*
X109644D01*
X108958Y622516D01*
X108342Y622160D01*
X107840Y621658D01*
X107484Y621042D01*
X107300Y620356D01*
Y619644D01*
X107484Y618958D01*
X107840Y618342D01*
X108342Y617839D01*
X108958Y617484D01*
X109644Y617300D01*
X110355D01*
X111042Y617484D01*
X111658Y617839D01*
X112161Y618342D01*
X112280Y618549D01*
X221968D01*
X222352Y618049D01*
X222300Y617856D01*
Y617144D01*
X222484Y616458D01*
X222839Y615842D01*
X223342Y615340D01*
X223958Y614984D01*
X224644Y614800D01*
X225356D01*
X226042Y614984D01*
X226658Y615340D01*
X226830Y615512D01*
X248876D01*
X248958Y615016D01*
X248342Y614661D01*
X247839Y614158D01*
X247484Y613542D01*
X247300Y612855D01*
Y612145D01*
X247484Y611458D01*
X247839Y610842D01*
X248342Y610339D01*
X248958Y609984D01*
X249644Y609800D01*
X250356D01*
X251042Y609984D01*
X251658Y610339D01*
X251830Y610512D01*
X357214D01*
X357405Y610050D01*
X354881Y607526D01*
X264330D01*
X264158Y607698D01*
X263542Y608053D01*
X262856Y608237D01*
X262144D01*
X261458Y608053D01*
X260842Y607698D01*
X260339Y607195D01*
X259984Y606580D01*
X259800Y605893D01*
Y605182D01*
X259984Y604495D01*
X260339Y603880D01*
X260842Y603377D01*
X261458Y603021D01*
X262144Y602837D01*
X262856D01*
X263542Y603021D01*
X264158Y603377D01*
X264330Y603549D01*
X355704D01*
X356465Y603700D01*
X357110Y604132D01*
X357114Y604136D01*
X357739Y604053D01*
X357839Y603880D01*
X358342Y603377D01*
X358958Y603021D01*
X359645Y602837D01*
X360355D01*
X361042Y603021D01*
X361491Y603280D01*
X682901D01*
X683342Y602840D01*
X683958Y602484D01*
X684645Y602300D01*
X685356D01*
X686042Y602484D01*
X686658Y602840D01*
X687160Y603342D01*
X687516Y603958D01*
X687700Y604644D01*
Y605356D01*
X687516Y606042D01*
X687160Y606658D01*
X686658Y607161D01*
X686042Y607516D01*
X686124Y608012D01*
X698170D01*
X698342Y607839D01*
X698958Y607484D01*
X699645Y607300D01*
X700355D01*
X701042Y607484D01*
X701658Y607839D01*
X702161Y608342D01*
X702516Y608958D01*
X702700Y609645D01*
Y610356D01*
X702516Y611042D01*
X702161Y611658D01*
X701658Y612160D01*
X701042Y612516D01*
X700355Y612700D01*
X699645D01*
X698958Y612516D01*
X698342Y612160D01*
X698170Y611988D01*
X641124D01*
X641042Y612484D01*
X641658Y612840D01*
X642161Y613342D01*
X642516Y613958D01*
X642700Y614644D01*
Y615355D01*
X642516Y616042D01*
X642161Y616658D01*
X641658Y617161D01*
X641042Y617516D01*
X640355Y617700D01*
X639644D01*
X638958Y617516D01*
X638342Y617161D01*
X638170Y616988D01*
X421124D01*
X421042Y617484D01*
X421658Y617839D01*
X422160Y618342D01*
X422516Y618958D01*
X422700Y619644D01*
Y620356D01*
X422516Y621042D01*
X422160Y621658D01*
X421658Y622160D01*
X421042Y622516D01*
X421124Y623012D01*
X673170D01*
X673342Y622839D01*
X673958Y622484D01*
X674645Y622300D01*
X675355D01*
X676042Y622484D01*
X676658Y622839D01*
X677161Y623342D01*
X677516Y623958D01*
X677700Y624645D01*
Y625355D01*
X677516Y626042D01*
X677161Y626658D01*
X676658Y627161D01*
X676042Y627516D01*
X676124Y628012D01*
X703170D01*
X703342Y627840D01*
X703958Y627484D01*
X704644Y627300D01*
X705356D01*
X706042Y627484D01*
X706658Y627840D01*
X707161Y628342D01*
X707516Y628958D01*
X707700Y629644D01*
Y630356D01*
X707516Y631042D01*
X707161Y631658D01*
X706658Y632161D01*
X706042Y632516D01*
X705356Y632700D01*
X704644D01*
X703958Y632516D01*
X703342Y632161D01*
X703170Y631988D01*
X491661D01*
X491580Y632484D01*
X492195Y632839D01*
X492698Y633342D01*
X493053Y633958D01*
X493237Y634645D01*
Y635356D01*
X493053Y636042D01*
X492698Y636658D01*
X492195Y637160D01*
X491580Y637516D01*
X490893Y637700D01*
X490182D01*
X489495Y637516D01*
X488880Y637160D01*
X488707Y636988D01*
X405824D01*
X402224Y640587D01*
X402416Y641049D01*
X427720D01*
X427840Y640842D01*
X428342Y640340D01*
X428958Y639984D01*
X429644Y639800D01*
X430356D01*
X431042Y639984D01*
X431658Y640340D01*
X432161Y640842D01*
X432516Y641458D01*
X432700Y642144D01*
Y642856D01*
X432648Y643049D01*
X433032Y643549D01*
X607720D01*
X607839Y643342D01*
X608342Y642839D01*
X608958Y642484D01*
X609645Y642300D01*
X610356D01*
X611042Y642484D01*
X611658Y642839D01*
X612160Y643342D01*
X612516Y643958D01*
X612700Y644644D01*
Y645356D01*
X612516Y646042D01*
X612160Y646658D01*
X611658Y647160D01*
X611042Y647516D01*
X611124Y648012D01*
X693170D01*
X693342Y647839D01*
X693958Y647484D01*
X694644Y647300D01*
X695356D01*
X696042Y647484D01*
X696658Y647839D01*
X697160Y648342D01*
X697516Y648958D01*
X697700Y649645D01*
Y650355D01*
X697516Y651042D01*
X697160Y651658D01*
X696658Y652161D01*
X696042Y652516D01*
X695356Y652700D01*
D02*
G37*
G36*
X525355Y602700D02*
X524645D01*
X523958Y602516D01*
X523342Y602161D01*
X523170Y601988D01*
X131830D01*
X131658Y602161D01*
X131042Y602516D01*
X130356Y602700D01*
X129645D01*
X128958Y602516D01*
X128342Y602161D01*
X127840Y601658D01*
X127484Y601042D01*
X127300Y600355D01*
Y599645D01*
X127484Y598958D01*
X127840Y598342D01*
X128342Y597839D01*
X128958Y597484D01*
X129645Y597300D01*
X130356D01*
X131042Y597484D01*
X131658Y597839D01*
X131830Y598012D01*
X204189D01*
X204271Y597516D01*
X203655Y597160D01*
X203152Y596658D01*
X202797Y596042D01*
X202613Y595356D01*
Y594644D01*
X202797Y593958D01*
X203152Y593342D01*
X203655Y592839D01*
X204271Y592484D01*
X204958Y592300D01*
X205668D01*
X206355Y592484D01*
X206971Y592839D01*
X207143Y593012D01*
X320269D01*
X321030Y593163D01*
X321675Y593594D01*
X323805Y595724D01*
X336968D01*
X337352Y595224D01*
X337300Y595031D01*
Y594320D01*
X337484Y593633D01*
X337840Y593017D01*
X338342Y592515D01*
X338388Y592488D01*
X338254Y591988D01*
X331830D01*
X331658Y592161D01*
X331042Y592516D01*
X330356Y592700D01*
X329644D01*
X328958Y592516D01*
X328342Y592161D01*
X327839Y591658D01*
X327484Y591042D01*
X327300Y590355D01*
Y589644D01*
X327484Y588958D01*
X327839Y588342D01*
X328342Y587840D01*
X328958Y587484D01*
X329644Y587300D01*
X330356D01*
X331042Y587484D01*
X331658Y587840D01*
X331830Y588012D01*
X448208D01*
X448380Y587840D01*
X448996Y587484D01*
X449683Y587300D01*
X450394D01*
X451080Y587484D01*
X451696Y587840D01*
X452199Y588342D01*
X452554Y588958D01*
X452738Y589644D01*
Y590355D01*
X452554Y591042D01*
X452199Y591658D01*
X451696Y592161D01*
X451080Y592516D01*
X451162Y593012D01*
X480670D01*
X480842Y592839D01*
X481458Y592484D01*
X482144Y592300D01*
X482856D01*
X483542Y592484D01*
X484158Y592839D01*
X484660Y593342D01*
X485016Y593958D01*
X485200Y594644D01*
Y595356D01*
X485016Y596042D01*
X484660Y596658D01*
X484158Y597160D01*
X483542Y597516D01*
X483624Y598012D01*
X523170D01*
X523342Y597839D01*
X523958Y597484D01*
X524645Y597300D01*
X525355D01*
X526042Y597484D01*
X526658Y597839D01*
X527161Y598342D01*
X527516Y598958D01*
X527700Y599645D01*
Y600355D01*
X527516Y601042D01*
X527161Y601658D01*
X526658Y602161D01*
X526042Y602516D01*
X525355Y602700D01*
D02*
G37*
G36*
X317571Y561519D02*
X316861D01*
X316174Y561335D01*
X315558Y560979D01*
X315386Y560807D01*
X313259D01*
X313066Y560936D01*
X312189Y561110D01*
X309539D01*
X308662Y560936D01*
X307919Y560439D01*
X307422Y559696D01*
X307248Y558819D01*
X307422Y557942D01*
X307919Y557198D01*
X308662Y556702D01*
X309539Y556527D01*
X312189D01*
X313066Y556702D01*
X313259Y556831D01*
X315386D01*
X315558Y556658D01*
X316174Y556303D01*
X316861Y556119D01*
X317571D01*
X318258Y556303D01*
X318874Y556658D01*
X319376Y557161D01*
X319732Y557777D01*
X319916Y558463D01*
Y559174D01*
X319732Y559861D01*
X319376Y560477D01*
X318874Y560979D01*
X318258Y561335D01*
X317571Y561519D01*
D02*
G37*
G36*
X346062Y564999D02*
X338938D01*
Y558268D01*
X346062D01*
Y559646D01*
X348170D01*
X348342Y559473D01*
X348958Y559118D01*
X349644Y558934D01*
X350356D01*
X351042Y559118D01*
X351658Y559473D01*
X351830Y559646D01*
X358280D01*
Y542696D01*
X351588D01*
Y532304D01*
X368949D01*
Y542696D01*
X362257D01*
Y559646D01*
X369560D01*
X369733Y559473D01*
X370348Y559118D01*
X371035Y558934D01*
X371746D01*
X372433Y559118D01*
X373048Y559473D01*
X373551Y559976D01*
X373906Y560592D01*
X374091Y561278D01*
Y561989D01*
X373906Y562676D01*
X373551Y563292D01*
X373048Y563794D01*
X372433Y564150D01*
X371746Y564334D01*
X371035D01*
X370348Y564150D01*
X369733Y563794D01*
X369560Y563622D01*
X351830D01*
X351658Y563794D01*
X351042Y564150D01*
X350356Y564334D01*
X349644D01*
X348958Y564150D01*
X348342Y563794D01*
X348170Y563622D01*
X346062D01*
Y564999D01*
D02*
G37*
G36*
X553168Y563357D02*
X546832D01*
Y555642D01*
X553168D01*
Y557512D01*
X558170D01*
X558342Y557339D01*
X558958Y556984D01*
X559645Y556800D01*
X560356D01*
X561042Y556984D01*
X561658Y557339D01*
X562160Y557842D01*
X562516Y558458D01*
X562700Y559144D01*
Y559855D01*
X562516Y560542D01*
X562160Y561158D01*
X561658Y561660D01*
X561042Y562016D01*
X560356Y562200D01*
X559645D01*
X558958Y562016D01*
X558342Y561660D01*
X558170Y561488D01*
X553168D01*
Y563357D01*
D02*
G37*
G36*
X543624Y572700D02*
X542913D01*
X542227Y572516D01*
X541611Y572160D01*
X541108Y571658D01*
X540753Y571042D01*
X540569Y570356D01*
Y569644D01*
X540753Y568958D01*
X541103Y568352D01*
Y563357D01*
X539745D01*
Y555642D01*
X546082D01*
Y563357D01*
X545079D01*
Y567992D01*
X545429Y568342D01*
X545785Y568958D01*
X545969Y569644D01*
Y570356D01*
X545785Y571042D01*
X545429Y571658D01*
X544927Y572160D01*
X544311Y572516D01*
X543624Y572700D01*
D02*
G37*
G36*
X335169Y553940D02*
X334458D01*
X333772Y553756D01*
X333156Y553401D01*
X332984Y553228D01*
X331531D01*
X331338Y553357D01*
X330461Y553532D01*
X327811D01*
X326934Y553357D01*
X326190Y552860D01*
X325694Y552117D01*
X325519Y551240D01*
X325694Y550363D01*
X326190Y549620D01*
X326934Y549123D01*
X327811Y548949D01*
X330461D01*
X331338Y549123D01*
X331531Y549252D01*
X332984D01*
X333156Y549080D01*
X333772Y548724D01*
X334458Y548540D01*
X335169D01*
X335856Y548724D01*
X336472Y549080D01*
X336975Y549582D01*
X337330Y550198D01*
X337514Y550885D01*
Y551596D01*
X337330Y552282D01*
X336975Y552898D01*
X336472Y553401D01*
X335856Y553756D01*
X335169Y553940D01*
D02*
G37*
G36*
X282856Y561519D02*
X282144D01*
X281458Y561335D01*
X280842Y560979D01*
X280340Y560477D01*
X279984Y559861D01*
X279800Y559174D01*
Y558463D01*
X279984Y557777D01*
X280340Y557161D01*
X280842Y556658D01*
X281458Y556303D01*
X282144Y556119D01*
X282856D01*
X283542Y556303D01*
X284158Y556658D01*
X284330Y556831D01*
X289862D01*
X290151Y556331D01*
X289984Y556042D01*
X289800Y555356D01*
Y554644D01*
X289984Y553958D01*
X290339Y553342D01*
X290842Y552840D01*
X291458Y552484D01*
X292144Y552300D01*
X292856D01*
X293542Y552484D01*
X294158Y552840D01*
X294370Y553051D01*
X299348D01*
X299615Y552551D01*
X299339Y552138D01*
X299280Y551839D01*
X305906D01*
X305846Y552138D01*
X305419Y552777D01*
X305359Y552930D01*
Y553338D01*
X305538Y553458D01*
X306035Y554202D01*
X306209Y555079D01*
X306035Y555956D01*
X305918Y556130D01*
X306154Y556571D01*
X306165D01*
Y561066D01*
X299020D01*
Y560807D01*
X284330D01*
X284158Y560979D01*
X283542Y561335D01*
X282856Y561519D01*
D02*
G37*
G36*
X305906Y550839D02*
X303093D01*
Y549251D01*
X303918D01*
X304717Y549410D01*
X305394Y549862D01*
X305846Y550540D01*
X305906Y550839D01*
D02*
G37*
G36*
X302093D02*
X299280D01*
X299339Y550540D01*
X299792Y549862D01*
X300469Y549410D01*
X301268Y549251D01*
X302093D01*
Y550839D01*
D02*
G37*
G36*
X346062Y556732D02*
X338938D01*
Y550001D01*
X340512D01*
Y548424D01*
X338839D01*
Y545538D01*
X338339Y545404D01*
X338332Y545418D01*
X337829Y545920D01*
X337213Y546276D01*
X336526Y546460D01*
X335816D01*
X335129Y546276D01*
X334513Y545920D01*
X334341Y545748D01*
X331531D01*
X331338Y545877D01*
X330461Y546051D01*
X327811D01*
X326934Y545877D01*
X326190Y545380D01*
X325694Y544637D01*
X325519Y543760D01*
X325694Y542883D01*
X326190Y542139D01*
X326934Y541643D01*
X327811Y541468D01*
X330461D01*
X331338Y541643D01*
X331531Y541772D01*
X333939D01*
X334146Y541272D01*
X334010Y541136D01*
X333655Y540521D01*
X333471Y539834D01*
Y539123D01*
X333655Y538436D01*
X333851Y538097D01*
X333548Y537622D01*
X333427Y537622D01*
X333427Y537622D01*
X333411Y537622D01*
X329157D01*
Y534366D01*
X333791D01*
X333791Y537223D01*
Y537228D01*
Y537228D01*
X333791Y537333D01*
X334291Y537540D01*
X334513Y537318D01*
X335129Y536963D01*
X335816Y536778D01*
X336526D01*
X337213Y536963D01*
X337829Y537318D01*
X337873Y537362D01*
X338839D01*
Y536576D01*
X346161D01*
Y542125D01*
X339286D01*
X338922Y542125D01*
X338682Y542389D01*
X338660Y542547D01*
X338883Y542875D01*
X346161D01*
Y548424D01*
X344488D01*
Y550001D01*
X346062D01*
Y556732D01*
D02*
G37*
G36*
X312189Y553630D02*
X309539D01*
X308662Y553456D01*
X307919Y552959D01*
X307422Y552215D01*
X307248Y551339D01*
X307422Y550462D01*
X307919Y549718D01*
X308662Y549222D01*
X309539Y549047D01*
X312189D01*
X313066Y549222D01*
X313180Y549297D01*
X313591Y549218D01*
X313733Y548742D01*
X312692Y547700D01*
X312144D01*
X311458Y547516D01*
X310842Y547160D01*
X310339Y546658D01*
X309984Y546042D01*
X309800Y545356D01*
Y544644D01*
X309984Y543958D01*
X310339Y543342D01*
X310842Y542839D01*
X311458Y542484D01*
X312144Y542300D01*
X312856D01*
X313542Y542484D01*
X314158Y542839D01*
X314661Y543342D01*
X315016Y543958D01*
X315178Y544563D01*
X316127Y545512D01*
X317646D01*
X317913Y545012D01*
X317611Y544559D01*
X317551Y544260D01*
X324177D01*
X324118Y544559D01*
X323690Y545199D01*
X323630Y545352D01*
Y545760D01*
X323810Y545880D01*
X324306Y546623D01*
X324481Y547500D01*
X324306Y548377D01*
X324190Y548552D01*
X324425Y548993D01*
X324437D01*
Y553488D01*
X317292D01*
Y553278D01*
X313333D01*
X313066Y553456D01*
X312189Y553630D01*
D02*
G37*
G36*
X324177Y543260D02*
X321364D01*
Y541672D01*
X322189D01*
X322988Y541831D01*
X323665Y542284D01*
X324118Y542961D01*
X324177Y543260D01*
D02*
G37*
G36*
X320364D02*
X317551D01*
X317611Y542961D01*
X318063Y542284D01*
X318740Y541831D01*
X319539Y541672D01*
X320364D01*
Y543260D01*
D02*
G37*
G36*
X400412Y557436D02*
X388169D01*
Y548343D01*
X392302D01*
Y543233D01*
X392201Y542856D01*
Y542144D01*
X392385Y541458D01*
X392740Y540842D01*
X393243Y540340D01*
X393859Y539984D01*
X394545Y539800D01*
X395256D01*
X395943Y539984D01*
X396559Y540340D01*
X397061Y540842D01*
X397417Y541458D01*
X397601Y542144D01*
Y542856D01*
X397417Y543542D01*
X397061Y544158D01*
X396559Y544661D01*
X396278Y544822D01*
Y548343D01*
X400412D01*
Y557436D01*
D02*
G37*
G36*
X553168Y543857D02*
X546832D01*
Y536142D01*
X553168D01*
Y538012D01*
X567992D01*
X568164Y537840D01*
X568780Y537484D01*
X569467Y537300D01*
X570178D01*
X570864Y537484D01*
X571480Y537840D01*
X571983Y538342D01*
X572338Y538958D01*
X572522Y539644D01*
Y540355D01*
X572338Y541042D01*
X571983Y541658D01*
X571480Y542161D01*
X570864Y542516D01*
X570178Y542700D01*
X569467D01*
X568780Y542516D01*
X568164Y542161D01*
X567992Y541988D01*
X553168D01*
Y543857D01*
D02*
G37*
G36*
X543269Y552700D02*
X542558D01*
X541871Y552516D01*
X541256Y552161D01*
X540753Y551658D01*
X540397Y551042D01*
X540213Y550355D01*
Y549645D01*
X540397Y548958D01*
X540753Y548342D01*
X540925Y548170D01*
Y543857D01*
X539745D01*
Y536142D01*
X546082D01*
Y543857D01*
X544902D01*
Y548170D01*
X545074Y548342D01*
X545429Y548958D01*
X545613Y549645D01*
Y550355D01*
X545429Y551042D01*
X545074Y551658D01*
X544571Y552161D01*
X543956Y552516D01*
X543269Y552700D01*
D02*
G37*
G36*
X328157Y537622D02*
X323523D01*
Y534366D01*
X328157D01*
Y537622D01*
D02*
G37*
G36*
X420585Y536791D02*
X420538D01*
Y533141D01*
X424188D01*
Y533187D01*
X423905Y534243D01*
X423359Y535189D01*
X422586Y535961D01*
X421640Y536508D01*
X420585Y536791D01*
D02*
G37*
G36*
X419538D02*
X419492D01*
X418436Y536508D01*
X417490Y535961D01*
X416718Y535189D01*
X416171Y534243D01*
X415889Y533187D01*
Y533141D01*
X419538D01*
Y536791D01*
D02*
G37*
G36*
X333791Y533366D02*
X329157D01*
Y530110D01*
X333791D01*
Y533366D01*
D02*
G37*
G36*
X328157D02*
X323523D01*
Y530110D01*
X328157D01*
Y533366D01*
D02*
G37*
G36*
X298164Y537822D02*
X287497D01*
Y529910D01*
X298164D01*
Y537822D01*
D02*
G37*
G36*
X424188Y532141D02*
X420538D01*
Y528491D01*
X420585D01*
X421640Y528774D01*
X422586Y529320D01*
X423359Y530093D01*
X423905Y531039D01*
X424188Y532095D01*
Y532141D01*
D02*
G37*
G36*
X419538D02*
X415889D01*
Y532095D01*
X416171Y531039D01*
X416718Y530093D01*
X417490Y529320D01*
X418436Y528774D01*
X419492Y528491D01*
X419538D01*
Y532141D01*
D02*
G37*
G36*
X450611Y536990D02*
X449466D01*
X448359Y536694D01*
X447367Y536121D01*
X446558Y535312D01*
X445985Y534320D01*
X445689Y533214D01*
Y532068D01*
X445985Y530962D01*
X446558Y529970D01*
X447367Y529160D01*
X448359Y528588D01*
X449466Y528291D01*
X450611D01*
X451717Y528588D01*
X452709Y529160D01*
X453519Y529970D01*
X454091Y530962D01*
X454388Y532068D01*
Y533214D01*
X454091Y534320D01*
X453519Y535312D01*
X452709Y536121D01*
X451717Y536694D01*
X450611Y536990D01*
D02*
G37*
G36*
X440611D02*
X439466D01*
X438359Y536694D01*
X437367Y536121D01*
X436558Y535312D01*
X435985Y534320D01*
X435689Y533214D01*
Y532068D01*
X435985Y530962D01*
X436558Y529970D01*
X437367Y529160D01*
X438359Y528588D01*
X439466Y528291D01*
X440611D01*
X441717Y528588D01*
X442709Y529160D01*
X443519Y529970D01*
X444091Y530962D01*
X444388Y532068D01*
Y533214D01*
X444091Y534320D01*
X443519Y535312D01*
X442709Y536121D01*
X441717Y536694D01*
X440611Y536990D01*
D02*
G37*
G36*
X416159Y557436D02*
X403917D01*
Y548343D01*
X408050D01*
Y536990D01*
X405689D01*
Y528291D01*
X414388D01*
Y536990D01*
X412026D01*
Y548343D01*
X416159D01*
Y557436D01*
D02*
G37*
G36*
X514350Y529350D02*
X505650D01*
Y520650D01*
X514350D01*
Y523012D01*
X558170D01*
X558342Y522839D01*
X558958Y522484D01*
X559645Y522300D01*
X560356D01*
X561042Y522484D01*
X561658Y522839D01*
X562160Y523342D01*
X562516Y523958D01*
X562700Y524645D01*
Y525355D01*
X562516Y526042D01*
X562160Y526658D01*
X561658Y527161D01*
X561042Y527516D01*
X560356Y527700D01*
X559645D01*
X558958Y527516D01*
X558342Y527161D01*
X558170Y526988D01*
X514350D01*
Y529350D01*
D02*
G37*
G36*
X714350D02*
X705650D01*
Y520650D01*
X714350D01*
Y529350D01*
D02*
G37*
G36*
X700573D02*
X699427D01*
X698321Y529053D01*
X697329Y528480D01*
X696520Y527671D01*
X695947Y526679D01*
X695650Y525573D01*
Y524427D01*
X695947Y523321D01*
X696520Y522329D01*
X697329Y521520D01*
X698321Y520947D01*
X699427Y520650D01*
X700573D01*
X701679Y520947D01*
X702671Y521520D01*
X703480Y522329D01*
X704053Y523321D01*
X704350Y524427D01*
Y525573D01*
X704053Y526679D01*
X703480Y527671D01*
X702671Y528480D01*
X701679Y529053D01*
X700573Y529350D01*
D02*
G37*
G36*
X690573D02*
X689427D01*
X688321Y529053D01*
X687329Y528480D01*
X686519Y527671D01*
X685947Y526679D01*
X685650Y525573D01*
Y524427D01*
X685947Y523321D01*
X686519Y522329D01*
X687329Y521520D01*
X688321Y520947D01*
X689427Y520650D01*
X690573D01*
X691679Y520947D01*
X692671Y521520D01*
X693480Y522329D01*
X694053Y523321D01*
X694350Y524427D01*
Y525573D01*
X694053Y526679D01*
X693480Y527671D01*
X692671Y528480D01*
X691679Y529053D01*
X690573Y529350D01*
D02*
G37*
G36*
X680573D02*
X679427D01*
X678321Y529053D01*
X677329Y528480D01*
X676519Y527671D01*
X675947Y526679D01*
X675650Y525573D01*
Y524427D01*
X675947Y523321D01*
X676519Y522329D01*
X677329Y521520D01*
X678321Y520947D01*
X679427Y520650D01*
X680573D01*
X681679Y520947D01*
X682671Y521520D01*
X683481Y522329D01*
X684053Y523321D01*
X684350Y524427D01*
Y525573D01*
X684053Y526679D01*
X683481Y527671D01*
X682671Y528480D01*
X681679Y529053D01*
X680573Y529350D01*
D02*
G37*
G36*
X670573D02*
X669427D01*
X668321Y529053D01*
X667329Y528480D01*
X666519Y527671D01*
X665947Y526679D01*
X665650Y525573D01*
Y524427D01*
X665947Y523321D01*
X666519Y522329D01*
X667329Y521520D01*
X668321Y520947D01*
X669427Y520650D01*
X670573D01*
X671679Y520947D01*
X672671Y521520D01*
X673481Y522329D01*
X674053Y523321D01*
X674350Y524427D01*
Y525573D01*
X674053Y526679D01*
X673481Y527671D01*
X672671Y528480D01*
X671679Y529053D01*
X670573Y529350D01*
D02*
G37*
G36*
X660573D02*
X659427D01*
X658321Y529053D01*
X657329Y528480D01*
X656520Y527671D01*
X655947Y526679D01*
X655650Y525573D01*
Y524427D01*
X655947Y523321D01*
X656520Y522329D01*
X657329Y521520D01*
X658321Y520947D01*
X659427Y520650D01*
X660573D01*
X661679Y520947D01*
X662671Y521520D01*
X663481Y522329D01*
X664053Y523321D01*
X664350Y524427D01*
Y525573D01*
X664053Y526679D01*
X663481Y527671D01*
X662671Y528480D01*
X661679Y529053D01*
X660573Y529350D01*
D02*
G37*
G36*
X244350D02*
X235650D01*
Y520650D01*
X244350D01*
Y529350D01*
D02*
G37*
G36*
X230573D02*
X229427D01*
X228321Y529053D01*
X227329Y528480D01*
X226519Y527671D01*
X225947Y526679D01*
X225650Y525573D01*
Y524427D01*
X225947Y523321D01*
X226519Y522329D01*
X227329Y521520D01*
X228321Y520947D01*
X229427Y520650D01*
X230573D01*
X231679Y520947D01*
X232671Y521520D01*
X233481Y522329D01*
X234053Y523321D01*
X234350Y524427D01*
Y525573D01*
X234053Y526679D01*
X233481Y527671D01*
X232671Y528480D01*
X231679Y529053D01*
X230573Y529350D01*
D02*
G37*
G36*
X220573D02*
X219427D01*
X218321Y529053D01*
X217329Y528480D01*
X216519Y527671D01*
X215947Y526679D01*
X215650Y525573D01*
Y524427D01*
X215947Y523321D01*
X216519Y522329D01*
X217329Y521520D01*
X218321Y520947D01*
X219427Y520650D01*
X220573D01*
X221679Y520947D01*
X222671Y521520D01*
X223481Y522329D01*
X224053Y523321D01*
X224350Y524427D01*
Y525573D01*
X224053Y526679D01*
X223481Y527671D01*
X222671Y528480D01*
X221679Y529053D01*
X220573Y529350D01*
D02*
G37*
G36*
X210573D02*
X209427D01*
X208321Y529053D01*
X207329Y528480D01*
X206520Y527671D01*
X205947Y526679D01*
X205650Y525573D01*
Y524427D01*
X205947Y523321D01*
X206520Y522329D01*
X207329Y521520D01*
X208321Y520947D01*
X209427Y520650D01*
X210573D01*
X211679Y520947D01*
X212671Y521520D01*
X213480Y522329D01*
X214053Y523321D01*
X214350Y524427D01*
Y525573D01*
X214053Y526679D01*
X213480Y527671D01*
X212671Y528480D01*
X211679Y529053D01*
X210573Y529350D01*
D02*
G37*
G36*
X200573D02*
X199427D01*
X198321Y529053D01*
X197329Y528480D01*
X196519Y527671D01*
X195947Y526679D01*
X195650Y525573D01*
Y524427D01*
X195947Y523321D01*
X196519Y522329D01*
X197329Y521520D01*
X198321Y520947D01*
X199427Y520650D01*
X200573D01*
X201679Y520947D01*
X202671Y521520D01*
X203481Y522329D01*
X204053Y523321D01*
X204350Y524427D01*
Y525573D01*
X204053Y526679D01*
X203481Y527671D01*
X202671Y528480D01*
X201679Y529053D01*
X200573Y529350D01*
D02*
G37*
G36*
X190573D02*
X189427D01*
X188321Y529053D01*
X187329Y528480D01*
X186520Y527671D01*
X185947Y526679D01*
X185650Y525573D01*
Y524427D01*
X185947Y523321D01*
X186520Y522329D01*
X187329Y521520D01*
X188321Y520947D01*
X189427Y520650D01*
X190573D01*
X191679Y520947D01*
X192671Y521520D01*
X193481Y522329D01*
X194053Y523321D01*
X194350Y524427D01*
Y525573D01*
X194053Y526679D01*
X193481Y527671D01*
X192671Y528480D01*
X191679Y529053D01*
X190573Y529350D01*
D02*
G37*
G36*
X44350D02*
X35650D01*
Y520650D01*
X44350D01*
Y529350D01*
D02*
G37*
G36*
X359237Y523857D02*
X352900D01*
Y516143D01*
X359237D01*
Y517502D01*
X361263D01*
X361458Y517389D01*
X362144Y517205D01*
X362856D01*
X363542Y517389D01*
X364158Y517745D01*
X364661Y518248D01*
X365016Y518863D01*
X365200Y519550D01*
Y520261D01*
X365016Y520948D01*
X364661Y521563D01*
X364158Y522066D01*
X363542Y522422D01*
X362856Y522606D01*
X362144D01*
X361743Y522498D01*
X359237D01*
Y523857D01*
D02*
G37*
G36*
X430611Y536990D02*
X429466D01*
X428359Y536694D01*
X427367Y536121D01*
X426558Y535312D01*
X425985Y534320D01*
X425689Y533214D01*
Y532068D01*
X425985Y530962D01*
X426558Y529970D01*
X427367Y529160D01*
X428050Y528766D01*
Y515428D01*
X428083Y515264D01*
X427766Y514877D01*
X374280D01*
X373519Y514726D01*
X372874Y514295D01*
X370567Y511988D01*
X334406D01*
X333991Y512194D01*
Y520078D01*
X340261D01*
X341668Y518671D01*
X342313Y518240D01*
X343074Y518089D01*
X345814D01*
Y516143D01*
X352151D01*
Y523857D01*
X345814D01*
Y522065D01*
X343897D01*
X342490Y523472D01*
X341845Y523903D01*
X341084Y524054D01*
X315547D01*
X314786Y523903D01*
X314141Y523472D01*
X308807Y518138D01*
X305330D01*
X305158Y518310D01*
X304542Y518666D01*
X303855Y518850D01*
X303145D01*
X302458Y518666D01*
X301842Y518310D01*
X301670Y518138D01*
X298164D01*
Y520106D01*
X287497D01*
Y512194D01*
X298164D01*
Y514161D01*
X301670D01*
X301842Y513989D01*
X302458Y513634D01*
X303145Y513450D01*
X303855D01*
X304542Y513634D01*
X305158Y513989D01*
X305330Y514161D01*
X309630D01*
X310391Y514313D01*
X311036Y514744D01*
X311847Y515554D01*
X312404Y515405D01*
X312484Y515107D01*
X312840Y514492D01*
X313012Y514319D01*
Y512500D01*
X313163Y511739D01*
X313594Y511094D01*
X316094Y508594D01*
X316739Y508163D01*
X317500Y508012D01*
X371391D01*
X372151Y508163D01*
X372796Y508594D01*
X375103Y510901D01*
X428720D01*
Y509032D01*
X435057D01*
Y516747D01*
X432026D01*
Y528766D01*
X432709Y529160D01*
X433519Y529970D01*
X434091Y530962D01*
X434388Y532068D01*
Y533214D01*
X434091Y534320D01*
X433519Y535312D01*
X432709Y536121D01*
X431717Y536694D01*
X430611Y536990D01*
D02*
G37*
G36*
X40573Y519350D02*
X39427D01*
X38321Y519053D01*
X37329Y518480D01*
X36520Y517671D01*
X35947Y516679D01*
X35650Y515573D01*
Y514427D01*
X35947Y513321D01*
X36520Y512329D01*
X37329Y511519D01*
X38321Y510947D01*
X39427Y510650D01*
X40573D01*
X41679Y510947D01*
X42671Y511519D01*
X43481Y512329D01*
X44053Y513321D01*
X44350Y514427D01*
Y515573D01*
X44053Y516679D01*
X43481Y517671D01*
X42671Y518480D01*
X41679Y519053D01*
X40573Y519350D01*
D02*
G37*
G36*
X442144Y516747D02*
X435807D01*
Y509032D01*
X442144D01*
Y510391D01*
X443315D01*
X443346Y510373D01*
X444032Y510189D01*
X444743D01*
X445430Y510373D01*
X446046Y510729D01*
X446548Y511231D01*
X446904Y511847D01*
X447088Y512534D01*
Y513245D01*
X446904Y513931D01*
X446548Y514547D01*
X446046Y515050D01*
X445430Y515405D01*
X444743Y515589D01*
X444032D01*
X443346Y515405D01*
X443315Y515387D01*
X442144D01*
Y516747D01*
D02*
G37*
G36*
X510573Y519350D02*
X509427D01*
X508321Y519053D01*
X507329Y518480D01*
X506520Y517671D01*
X505947Y516679D01*
X505650Y515573D01*
Y514427D01*
X505947Y513321D01*
X506520Y512329D01*
X507329Y511519D01*
X508321Y510947D01*
X509427Y510650D01*
X510573D01*
X511334Y510854D01*
X513594Y508594D01*
X514239Y508163D01*
X515000Y508012D01*
X567992D01*
X568164Y507839D01*
X568780Y507484D01*
X569467Y507300D01*
X570178D01*
X570864Y507484D01*
X571480Y507839D01*
X571983Y508342D01*
X572338Y508958D01*
X572522Y509645D01*
Y510356D01*
X572338Y511042D01*
X571983Y511658D01*
X571480Y512160D01*
X570864Y512516D01*
X570178Y512700D01*
X569467D01*
X568780Y512516D01*
X568164Y512160D01*
X567992Y511988D01*
X515824D01*
X514146Y513666D01*
X514350Y514427D01*
Y515573D01*
X514053Y516679D01*
X513481Y517671D01*
X512671Y518480D01*
X511679Y519053D01*
X510573Y519350D01*
D02*
G37*
G36*
X40573Y509350D02*
X39427D01*
X38321Y509053D01*
X37329Y508481D01*
X36520Y507671D01*
X35947Y506679D01*
X35650Y505573D01*
Y504427D01*
X35947Y503321D01*
X36520Y502329D01*
X37329Y501519D01*
X38321Y500947D01*
X39427Y500650D01*
X40573D01*
X41679Y500947D01*
X42671Y501519D01*
X43481Y502329D01*
X44053Y503321D01*
X44350Y504427D01*
Y505573D01*
X44053Y506679D01*
X43481Y507671D01*
X42671Y508481D01*
X41679Y509053D01*
X40573Y509350D01*
D02*
G37*
G36*
X510573D02*
X509427D01*
X508321Y509053D01*
X507329Y508481D01*
X506520Y507671D01*
X505947Y506679D01*
X505650Y505573D01*
Y504427D01*
X505947Y503321D01*
X506520Y502329D01*
X507329Y501519D01*
X508321Y500947D01*
X509427Y500650D01*
X510573D01*
X511679Y500947D01*
X512671Y501519D01*
X513481Y502329D01*
X513644Y502612D01*
X514576D01*
X518594Y498594D01*
X519239Y498163D01*
X520000Y498012D01*
X578170D01*
X578342Y497839D01*
X578958Y497484D01*
X579644Y497300D01*
X580356D01*
X581042Y497484D01*
X581658Y497839D01*
X582161Y498342D01*
X582516Y498958D01*
X582700Y499645D01*
Y500355D01*
X582516Y501042D01*
X582161Y501658D01*
X581658Y502161D01*
X581042Y502516D01*
X580356Y502700D01*
X579644D01*
X578958Y502516D01*
X578342Y502161D01*
X578170Y501988D01*
X520823D01*
X516806Y506006D01*
X516160Y506437D01*
X515400Y506589D01*
X514077D01*
X514053Y506679D01*
X513481Y507671D01*
X512671Y508481D01*
X511679Y509053D01*
X510573Y509350D01*
D02*
G37*
G36*
X400355Y495200D02*
X399644D01*
X398958Y495016D01*
X398342Y494661D01*
X398170Y494488D01*
X284330D01*
X284158Y494661D01*
X283542Y495016D01*
X282856Y495200D01*
X282144D01*
X281458Y495016D01*
X280842Y494661D01*
X280340Y494158D01*
X279984Y493542D01*
X279800Y492856D01*
Y492144D01*
X279984Y491458D01*
X280340Y490842D01*
X280842Y490340D01*
X281458Y489984D01*
X282144Y489800D01*
X282856D01*
X283542Y489984D01*
X284158Y490340D01*
X284330Y490512D01*
X398170D01*
X398342Y490340D01*
X398958Y489984D01*
X399644Y489800D01*
X400355D01*
X401042Y489984D01*
X401658Y490340D01*
X402161Y490842D01*
X402516Y491458D01*
X402700Y492144D01*
Y492856D01*
X402516Y493542D01*
X402161Y494158D01*
X401658Y494661D01*
X401042Y495016D01*
X400355Y495200D01*
D02*
G37*
G36*
X40573Y499350D02*
X39427D01*
X38321Y499053D01*
X37329Y498481D01*
X36520Y497671D01*
X35947Y496679D01*
X35650Y495573D01*
Y494427D01*
X35947Y493321D01*
X36520Y492329D01*
X37329Y491519D01*
X38321Y490947D01*
X39427Y490650D01*
X40573D01*
X41679Y490947D01*
X42671Y491519D01*
X43481Y492329D01*
X44053Y493321D01*
X44350Y494427D01*
Y495573D01*
X44053Y496679D01*
X43481Y497671D01*
X42671Y498481D01*
X41679Y499053D01*
X40573Y499350D01*
D02*
G37*
G36*
X510573D02*
X509427D01*
X508321Y499053D01*
X507329Y498481D01*
X506520Y497671D01*
X505947Y496679D01*
X505650Y495573D01*
Y494427D01*
X505947Y493321D01*
X506520Y492329D01*
X507329Y491519D01*
X508321Y490947D01*
X509427Y490650D01*
X510573D01*
X511679Y490947D01*
X512671Y491519D01*
X513481Y492329D01*
X513644Y492612D01*
X514576D01*
X518594Y488594D01*
X519239Y488163D01*
X520000Y488012D01*
X588170D01*
X588342Y487840D01*
X588958Y487484D01*
X589644Y487300D01*
X590355D01*
X591042Y487484D01*
X591658Y487840D01*
X592161Y488342D01*
X592516Y488958D01*
X592700Y489644D01*
Y490355D01*
X592516Y491042D01*
X592161Y491658D01*
X591658Y492161D01*
X591042Y492516D01*
X590355Y492700D01*
X589644D01*
X588958Y492516D01*
X588342Y492161D01*
X588170Y491988D01*
X520823D01*
X516806Y496006D01*
X516160Y496437D01*
X515400Y496589D01*
X514077D01*
X514053Y496679D01*
X513481Y497671D01*
X512671Y498481D01*
X511679Y499053D01*
X510573Y499350D01*
D02*
G37*
G36*
Y489350D02*
X509427D01*
X508321Y489053D01*
X507329Y488481D01*
X506520Y487671D01*
X506156Y487041D01*
X374277D01*
X374158Y487160D01*
X373542Y487516D01*
X372855Y487700D01*
X372145D01*
X371458Y487516D01*
X370842Y487160D01*
X370723Y487041D01*
X142035D01*
X141809Y487267D01*
X141193Y487622D01*
X140507Y487806D01*
X139796D01*
X139109Y487622D01*
X138494Y487267D01*
X137991Y486764D01*
X137635Y486149D01*
X137451Y485462D01*
Y484751D01*
X137635Y484064D01*
X137991Y483449D01*
X138494Y482946D01*
X139109Y482590D01*
X139796Y482406D01*
X140507D01*
X141193Y482590D01*
X141809Y482946D01*
X141928Y483065D01*
X370617D01*
X370842Y482839D01*
X371458Y482484D01*
X372145Y482300D01*
X372855D01*
X373542Y482484D01*
X374158Y482839D01*
X374383Y483065D01*
X506095D01*
X506520Y482329D01*
X507329Y481520D01*
X508321Y480947D01*
X509427Y480650D01*
X510573D01*
X511679Y480947D01*
X512671Y481520D01*
X513481Y482329D01*
X514053Y483321D01*
X514350Y484427D01*
Y485573D01*
X514053Y486679D01*
X513481Y487671D01*
X512671Y488481D01*
X511679Y489053D01*
X510573Y489350D01*
D02*
G37*
G36*
X40573D02*
X39427D01*
X38321Y489053D01*
X37329Y488481D01*
X36520Y487671D01*
X35947Y486679D01*
X35650Y485573D01*
Y484427D01*
X35947Y483321D01*
X36520Y482329D01*
X37329Y481520D01*
X38321Y480947D01*
X39427Y480650D01*
X40573D01*
X41679Y480947D01*
X42671Y481520D01*
X43481Y482329D01*
X44053Y483321D01*
X44350Y484427D01*
Y485573D01*
X44053Y486679D01*
X43481Y487671D01*
X42671Y488481D01*
X41679Y489053D01*
X40573Y489350D01*
D02*
G37*
G36*
X510573Y479350D02*
X509427D01*
X508321Y479053D01*
X507329Y478480D01*
X506520Y477671D01*
X505947Y476679D01*
X505650Y475573D01*
Y474427D01*
X505947Y473321D01*
X506520Y472329D01*
X507329Y471520D01*
X508321Y470947D01*
X509427Y470650D01*
X510573D01*
X511679Y470947D01*
X512671Y471520D01*
X513481Y472329D01*
X514053Y473321D01*
X514350Y474427D01*
Y475573D01*
X514053Y476679D01*
X513481Y477671D01*
X512671Y478480D01*
X511679Y479053D01*
X510573Y479350D01*
D02*
G37*
G36*
X40573D02*
X39427D01*
X38321Y479053D01*
X37329Y478480D01*
X36520Y477671D01*
X35947Y476679D01*
X35650Y475573D01*
Y474427D01*
X35947Y473321D01*
X36520Y472329D01*
X37329Y471520D01*
X38321Y470947D01*
X39427Y470650D01*
X40573D01*
X41679Y470947D01*
X42671Y471520D01*
X43481Y472329D01*
X44053Y473321D01*
X44350Y474427D01*
Y475573D01*
X44053Y476679D01*
X43481Y477671D01*
X42671Y478480D01*
X41679Y479053D01*
X40573Y479350D01*
D02*
G37*
G36*
X454996Y475980D02*
X450500D01*
Y468000D01*
X454996D01*
Y475980D01*
D02*
G37*
G36*
X304996D02*
X300500D01*
Y468000D01*
X304996D01*
Y475980D01*
D02*
G37*
G36*
X449500D02*
X445004D01*
Y468000D01*
X449500D01*
Y475980D01*
D02*
G37*
G36*
X299500D02*
X295004D01*
Y468000D01*
X299500D01*
Y475980D01*
D02*
G37*
G36*
X454996Y467000D02*
X450500D01*
Y459020D01*
X454996D01*
Y467000D01*
D02*
G37*
G36*
X449500D02*
X445004D01*
Y459020D01*
X449500D01*
Y467000D01*
D02*
G37*
G36*
X304996D02*
X300500D01*
Y459020D01*
X304996D01*
Y467000D01*
D02*
G37*
G36*
X299500D02*
X295004D01*
Y459020D01*
X299500D01*
Y467000D01*
D02*
G37*
G36*
X432161Y437992D02*
X429200D01*
Y435917D01*
X432161D01*
Y437992D01*
D02*
G37*
G36*
X428200D02*
X425239D01*
Y435917D01*
X428200D01*
Y437992D01*
D02*
G37*
G36*
X301180Y442946D02*
X283820D01*
Y432554D01*
X301180D01*
Y435262D01*
X305016D01*
X305189Y435089D01*
X305804Y434734D01*
X306491Y434550D01*
X307202D01*
X307889Y434734D01*
X308504Y435089D01*
X309007Y435592D01*
X309363Y436208D01*
X309547Y436895D01*
Y437605D01*
X309363Y438292D01*
X309007Y438908D01*
X308504Y439410D01*
X307889Y439766D01*
X307202Y439950D01*
X306491D01*
X305804Y439766D01*
X305189Y439410D01*
X305016Y439238D01*
X301180D01*
Y442946D01*
D02*
G37*
G36*
X432161Y434917D02*
X429200D01*
Y432842D01*
X432161D01*
Y434917D01*
D02*
G37*
G36*
X428200D02*
X425239D01*
Y432842D01*
X428200D01*
Y434917D01*
D02*
G37*
G36*
X365857Y440173D02*
X360436D01*
Y431799D01*
X365857D01*
Y440173D01*
D02*
G37*
G36*
X359436D02*
X354014D01*
Y431799D01*
X359436D01*
Y440173D01*
D02*
G37*
G36*
X471657Y426008D02*
X468500D01*
Y423638D01*
X471657D01*
Y426008D01*
D02*
G37*
G36*
X467500D02*
X464342D01*
Y423638D01*
X467500D01*
Y426008D01*
D02*
G37*
G36*
X365857Y430799D02*
X360436D01*
Y422425D01*
X365857D01*
Y430799D01*
D02*
G37*
G36*
X359436D02*
X354014D01*
Y422425D01*
X359436D01*
Y430799D01*
D02*
G37*
G36*
X451873Y424016D02*
X448420D01*
Y422335D01*
X451873D01*
Y424016D01*
D02*
G37*
G36*
X447420D02*
X443968D01*
Y422335D01*
X447420D01*
Y424016D01*
D02*
G37*
G36*
X307339Y424364D02*
X304000D01*
Y421872D01*
X308559D01*
Y423143D01*
X308466Y423610D01*
X308202Y424006D01*
X307806Y424271D01*
X307339Y424364D01*
D02*
G37*
G36*
X303000D02*
X299661D01*
X299194Y424271D01*
X298798Y424006D01*
X298534Y423610D01*
X298441Y423143D01*
Y421872D01*
X303000D01*
Y424364D01*
D02*
G37*
G36*
X432361Y431893D02*
X425039D01*
Y426343D01*
X426712D01*
Y423999D01*
X425138D01*
Y420279D01*
X334049D01*
X333990Y420267D01*
X333929Y420273D01*
X333757Y420221D01*
X333581Y420186D01*
X333530Y420152D01*
X333472Y420134D01*
X333333Y420020D01*
X333184Y419920D01*
X333150Y419870D01*
X333103Y419831D01*
X333025Y419736D01*
X332881Y419833D01*
X332334Y419942D01*
X324666D01*
X324119Y419833D01*
X323975Y419736D01*
X323897Y419831D01*
X323850Y419870D01*
X323816Y419920D01*
X323667Y420020D01*
X323528Y420134D01*
X323470Y420152D01*
X323419Y420186D01*
X323243Y420221D01*
X323071Y420273D01*
X323010Y420267D01*
X322951Y420279D01*
X308654D01*
X308559Y420357D01*
Y420872D01*
X303500D01*
X298441D01*
Y420357D01*
X298346Y420279D01*
X25000D01*
X24532Y420186D01*
X24135Y419920D01*
X23870Y419523D01*
X23776Y419055D01*
Y350000D01*
X23870Y349532D01*
X24135Y349135D01*
X24532Y348870D01*
X25000Y348777D01*
X37330D01*
X37360Y348666D01*
X37408Y348276D01*
X36680Y347548D01*
X36133Y346602D01*
X35850Y345546D01*
Y345500D01*
X40000D01*
X44150D01*
Y345546D01*
X43867Y346602D01*
X43321Y347548D01*
X42592Y348276D01*
X42640Y348666D01*
X42670Y348777D01*
X50000D01*
X50468Y348870D01*
X50865Y349135D01*
X51130Y349532D01*
X51223Y350000D01*
Y386277D01*
X287142D01*
X287293Y386153D01*
X291000D01*
Y385653D01*
D01*
Y386153D01*
X294707D01*
X294857Y386277D01*
X331078D01*
X331278Y386112D01*
Y383470D01*
X334436D01*
Y386340D01*
X335436D01*
Y383470D01*
X338593D01*
Y386112D01*
X338793Y386277D01*
X367987D01*
Y382304D01*
X385348D01*
Y386277D01*
X498776D01*
Y350000D01*
X498870Y349532D01*
X499135Y349135D01*
X499532Y348870D01*
X500000Y348777D01*
X507330D01*
X507360Y348666D01*
X507408Y348276D01*
X506679Y347548D01*
X506133Y346602D01*
X505850Y345546D01*
Y345500D01*
X510000D01*
X514150D01*
Y345546D01*
X513867Y346602D01*
X513320Y347548D01*
X512592Y348276D01*
X512640Y348666D01*
X512670Y348777D01*
X525000D01*
X525468Y348870D01*
X525865Y349135D01*
X526130Y349532D01*
X526224Y350000D01*
Y419055D01*
X526130Y419523D01*
X525865Y419920D01*
X525468Y420186D01*
X525000Y420279D01*
X471857D01*
Y420303D01*
X471657D01*
Y422638D01*
X468000D01*
X464342D01*
Y420303D01*
X464143D01*
Y420279D01*
X459553D01*
Y420476D01*
X451873D01*
Y421335D01*
X447920D01*
X443968D01*
Y420279D01*
X432262D01*
Y423999D01*
X430688D01*
Y426343D01*
X432361D01*
Y431893D01*
D02*
G37*
G36*
X294657Y385153D02*
X291500D01*
Y382783D01*
X294657D01*
Y385153D01*
D02*
G37*
G36*
X290500D02*
X287343D01*
Y382783D01*
X290500D01*
Y385153D01*
D02*
G37*
G36*
X714350Y379350D02*
X705650D01*
Y370650D01*
X714350D01*
Y379350D01*
D02*
G37*
G36*
X244350D02*
X235650D01*
Y370650D01*
X244350D01*
Y379350D01*
D02*
G37*
G36*
X454996Y370980D02*
X450500D01*
Y363000D01*
X454996D01*
Y370980D01*
D02*
G37*
G36*
X449500D02*
X445004D01*
Y363000D01*
X449500D01*
Y370980D01*
D02*
G37*
G36*
X710573Y369350D02*
X709427D01*
X708321Y369053D01*
X707329Y368480D01*
X706520Y367671D01*
X705947Y366679D01*
X705650Y365573D01*
Y364427D01*
X705947Y363321D01*
X706520Y362329D01*
X707329Y361520D01*
X708321Y360947D01*
X709427Y360650D01*
X710573D01*
X711679Y360947D01*
X712671Y361520D01*
X713481Y362329D01*
X714053Y363321D01*
X714350Y364427D01*
Y365573D01*
X714053Y366679D01*
X713481Y367671D01*
X712671Y368480D01*
X711679Y369053D01*
X710573Y369350D01*
D02*
G37*
G36*
X240573D02*
X239427D01*
X238321Y369053D01*
X237329Y368480D01*
X236520Y367671D01*
X235947Y366679D01*
X235650Y365573D01*
Y364427D01*
X235947Y363321D01*
X236520Y362329D01*
X237329Y361520D01*
X238321Y360947D01*
X239427Y360650D01*
X240573D01*
X241679Y360947D01*
X242671Y361520D01*
X243480Y362329D01*
X244053Y363321D01*
X244350Y364427D01*
Y365573D01*
X244053Y366679D01*
X243480Y367671D01*
X242671Y368480D01*
X241679Y369053D01*
X240573Y369350D01*
D02*
G37*
G36*
X360355Y360200D02*
X359645D01*
X358958Y360016D01*
X358342Y359661D01*
X358170Y359488D01*
X266830D01*
X266658Y359661D01*
X266042Y360016D01*
X265355Y360200D01*
X264645D01*
X263958Y360016D01*
X263342Y359661D01*
X262840Y359158D01*
X262484Y358542D01*
X262300Y357856D01*
Y357144D01*
X262484Y356458D01*
X262840Y355842D01*
X263342Y355340D01*
X263958Y354984D01*
X264645Y354800D01*
X265355D01*
X266042Y354984D01*
X266658Y355340D01*
X266830Y355512D01*
X358170D01*
X358342Y355340D01*
X358958Y354984D01*
X359645Y354800D01*
X360355D01*
X361042Y354984D01*
X361658Y355340D01*
X362160Y355842D01*
X362516Y356458D01*
X362700Y357144D01*
Y357856D01*
X362516Y358542D01*
X362160Y359158D01*
X361658Y359661D01*
X361042Y360016D01*
X360355Y360200D01*
D02*
G37*
G36*
X454996Y362000D02*
X450500D01*
Y354020D01*
X454996D01*
Y362000D01*
D02*
G37*
G36*
X449500D02*
X445004D01*
Y354020D01*
X449500D01*
Y362000D01*
D02*
G37*
G36*
X330356Y352700D02*
X329644D01*
X328958Y352516D01*
X328342Y352161D01*
X328170Y351988D01*
X271830D01*
X271658Y352161D01*
X271042Y352516D01*
X270356Y352700D01*
X269644D01*
X268958Y352516D01*
X268342Y352161D01*
X267840Y351658D01*
X267484Y351042D01*
X267300Y350356D01*
Y349644D01*
X267484Y348958D01*
X267840Y348342D01*
X268342Y347839D01*
X268958Y347484D01*
X269644Y347300D01*
X270356D01*
X271042Y347484D01*
X271658Y347839D01*
X271830Y348012D01*
X328170D01*
X328342Y347839D01*
X328958Y347484D01*
X329644Y347300D01*
X330356D01*
X331042Y347484D01*
X331658Y347839D01*
X332160Y348342D01*
X332516Y348958D01*
X332700Y349644D01*
Y350356D01*
X332516Y351042D01*
X332160Y351658D01*
X331658Y352161D01*
X331042Y352516D01*
X330356Y352700D01*
D02*
G37*
G36*
X710573Y359350D02*
X709427D01*
X708321Y359053D01*
X707329Y358481D01*
X706520Y357671D01*
X705947Y356679D01*
X705650Y355573D01*
Y354427D01*
X705947Y353321D01*
X706520Y352329D01*
X707329Y351519D01*
X708321Y350947D01*
X709427Y350650D01*
X710573D01*
X711679Y350947D01*
X712671Y351519D01*
X713481Y352329D01*
X714053Y353321D01*
X714350Y354427D01*
Y355573D01*
X714053Y356679D01*
X713481Y357671D01*
X712671Y358481D01*
X711679Y359053D01*
X710573Y359350D01*
D02*
G37*
G36*
X240573D02*
X239427D01*
X238321Y359053D01*
X237329Y358481D01*
X236520Y357671D01*
X235947Y356679D01*
X235650Y355573D01*
Y354427D01*
X235947Y353321D01*
X236520Y352329D01*
X237329Y351519D01*
X238321Y350947D01*
X239427Y350650D01*
X240573D01*
X241679Y350947D01*
X242671Y351519D01*
X243480Y352329D01*
X244053Y353321D01*
X244350Y354427D01*
Y355573D01*
X244053Y356679D01*
X243480Y357671D01*
X242671Y358481D01*
X241679Y359053D01*
X240573Y359350D01*
D02*
G37*
G36*
X710546Y349150D02*
X710500D01*
Y345500D01*
X714150D01*
Y345546D01*
X713867Y346602D01*
X713320Y347548D01*
X712548Y348321D01*
X711602Y348867D01*
X710546Y349150D01*
D02*
G37*
G36*
X240546D02*
X240500D01*
Y345500D01*
X244150D01*
Y345546D01*
X243867Y346602D01*
X243320Y347548D01*
X242548Y348321D01*
X241602Y348867D01*
X240546Y349150D01*
D02*
G37*
G36*
X709500D02*
X709454D01*
X708398Y348867D01*
X707452Y348321D01*
X706679Y347548D01*
X706133Y346602D01*
X705850Y345546D01*
Y345500D01*
X709500D01*
Y349150D01*
D02*
G37*
G36*
X239500D02*
X239454D01*
X238398Y348867D01*
X237452Y348321D01*
X236680Y347548D01*
X236133Y346602D01*
X235850Y345546D01*
Y345500D01*
X239500D01*
Y349150D01*
D02*
G37*
G36*
X714150Y344500D02*
X710500D01*
Y340850D01*
X710546D01*
X711602Y341133D01*
X712548Y341680D01*
X713320Y342452D01*
X713867Y343398D01*
X714150Y344454D01*
Y344500D01*
D02*
G37*
G36*
X709500D02*
X705850D01*
Y344454D01*
X706133Y343398D01*
X706679Y342452D01*
X707452Y341680D01*
X708398Y341133D01*
X709454Y340850D01*
X709500D01*
Y344500D01*
D02*
G37*
G36*
X514150D02*
X510500D01*
Y340850D01*
X510546D01*
X511602Y341133D01*
X512548Y341680D01*
X513320Y342452D01*
X513867Y343398D01*
X514150Y344454D01*
Y344500D01*
D02*
G37*
G36*
X509500D02*
X505850D01*
Y344454D01*
X506133Y343398D01*
X506679Y342452D01*
X507452Y341680D01*
X508398Y341133D01*
X509454Y340850D01*
X509500D01*
Y344500D01*
D02*
G37*
G36*
X244150D02*
X240500D01*
Y340850D01*
X240546D01*
X241602Y341133D01*
X242548Y341680D01*
X243320Y342452D01*
X243867Y343398D01*
X244150Y344454D01*
Y344500D01*
D02*
G37*
G36*
X239500D02*
X235850D01*
Y344454D01*
X236133Y343398D01*
X236680Y342452D01*
X237452Y341680D01*
X238398Y341133D01*
X239454Y340850D01*
X239500D01*
Y344500D01*
D02*
G37*
G36*
X44150Y344500D02*
X40500D01*
Y340850D01*
X40546D01*
X41602Y341133D01*
X42548Y341680D01*
X43321Y342452D01*
X43867Y343398D01*
X44150Y344454D01*
Y344500D01*
D02*
G37*
G36*
X39500D02*
X35850D01*
Y344454D01*
X36133Y343398D01*
X36680Y342452D01*
X37452Y341680D01*
X38398Y341133D01*
X39454Y340850D01*
X39500D01*
Y344500D01*
D02*
G37*
G36*
X40546Y339150D02*
X40500D01*
Y335500D01*
X44150D01*
Y335546D01*
X43867Y336602D01*
X43321Y337548D01*
X42548Y338320D01*
X41602Y338867D01*
X40546Y339150D01*
D02*
G37*
G36*
X39500D02*
X39454D01*
X38398Y338867D01*
X37452Y338320D01*
X36680Y337548D01*
X36133Y336602D01*
X35850Y335546D01*
Y335500D01*
X39500D01*
Y339150D01*
D02*
G37*
G36*
X710546D02*
X710500D01*
Y335500D01*
X714150D01*
Y335546D01*
X713867Y336602D01*
X713320Y337548D01*
X712548Y338320D01*
X711602Y338867D01*
X710546Y339150D01*
D02*
G37*
G36*
X510546D02*
X510500D01*
Y335500D01*
X514150D01*
Y335546D01*
X513867Y336602D01*
X513320Y337548D01*
X512548Y338320D01*
X511602Y338867D01*
X510546Y339150D01*
D02*
G37*
G36*
X240546D02*
X240500D01*
Y335500D01*
X244150D01*
Y335546D01*
X243867Y336602D01*
X243320Y337548D01*
X242548Y338320D01*
X241602Y338867D01*
X240546Y339150D01*
D02*
G37*
G36*
X709500D02*
X709454D01*
X708398Y338867D01*
X707452Y338320D01*
X706679Y337548D01*
X706133Y336602D01*
X705850Y335546D01*
Y335500D01*
X709500D01*
Y339150D01*
D02*
G37*
G36*
X509500D02*
X509454D01*
X508398Y338867D01*
X507452Y338320D01*
X506679Y337548D01*
X506133Y336602D01*
X505850Y335546D01*
Y335500D01*
X509500D01*
Y339150D01*
D02*
G37*
G36*
X239500D02*
X239454D01*
X238398Y338867D01*
X237452Y338320D01*
X236680Y337548D01*
X236133Y336602D01*
X235850Y335546D01*
Y335500D01*
X239500D01*
Y339150D01*
D02*
G37*
G36*
X714150Y334500D02*
X710500D01*
Y330850D01*
X710546D01*
X711602Y331133D01*
X712548Y331680D01*
X713320Y332452D01*
X713867Y333398D01*
X714150Y334454D01*
Y334500D01*
D02*
G37*
G36*
X709500D02*
X705850D01*
Y334454D01*
X706133Y333398D01*
X706679Y332452D01*
X707452Y331680D01*
X708398Y331133D01*
X709454Y330850D01*
X709500D01*
Y334500D01*
D02*
G37*
G36*
X514150D02*
X510500D01*
Y330850D01*
X510546D01*
X511602Y331133D01*
X512548Y331680D01*
X513320Y332452D01*
X513867Y333398D01*
X514150Y334454D01*
Y334500D01*
D02*
G37*
G36*
X509500D02*
X505850D01*
Y334454D01*
X506133Y333398D01*
X506679Y332452D01*
X507452Y331680D01*
X508398Y331133D01*
X509454Y330850D01*
X509500D01*
Y334500D01*
D02*
G37*
G36*
X244150D02*
X240500D01*
Y330850D01*
X240546D01*
X241602Y331133D01*
X242548Y331680D01*
X243320Y332452D01*
X243867Y333398D01*
X244150Y334454D01*
Y334500D01*
D02*
G37*
G36*
X239500D02*
X235850D01*
Y334454D01*
X236133Y333398D01*
X236680Y332452D01*
X237452Y331680D01*
X238398Y331133D01*
X239454Y330850D01*
X239500D01*
Y334500D01*
D02*
G37*
G36*
X44150Y334500D02*
X40500D01*
Y330850D01*
X40546D01*
X41602Y331133D01*
X42548Y331680D01*
X43321Y332452D01*
X43867Y333398D01*
X44150Y334454D01*
Y334500D01*
D02*
G37*
G36*
X39500D02*
X35850D01*
Y334454D01*
X36133Y333398D01*
X36680Y332452D01*
X37452Y331680D01*
X38398Y331133D01*
X39454Y330850D01*
X39500D01*
Y334500D01*
D02*
G37*
G36*
X40546Y329150D02*
X40500D01*
Y325500D01*
X44150D01*
Y325546D01*
X43867Y326602D01*
X43321Y327548D01*
X42548Y328321D01*
X41602Y328867D01*
X40546Y329150D01*
D02*
G37*
G36*
X39500D02*
X39454D01*
X38398Y328867D01*
X37452Y328321D01*
X36680Y327548D01*
X36133Y326602D01*
X35850Y325546D01*
Y325500D01*
X39500D01*
Y329150D01*
D02*
G37*
G36*
X710546D02*
X710500D01*
Y325500D01*
X714150D01*
Y325546D01*
X713867Y326602D01*
X713320Y327548D01*
X712548Y328321D01*
X711602Y328867D01*
X710546Y329150D01*
D02*
G37*
G36*
X510546D02*
X510500D01*
Y325500D01*
X514150D01*
Y325546D01*
X513867Y326602D01*
X513320Y327548D01*
X512548Y328321D01*
X511602Y328867D01*
X510546Y329150D01*
D02*
G37*
G36*
X240546D02*
X240500D01*
Y325500D01*
X244150D01*
Y325546D01*
X243867Y326602D01*
X243320Y327548D01*
X242548Y328321D01*
X241602Y328867D01*
X240546Y329150D01*
D02*
G37*
G36*
X709500D02*
X709454D01*
X708398Y328867D01*
X707452Y328321D01*
X706679Y327548D01*
X706133Y326602D01*
X705850Y325546D01*
Y325500D01*
X709500D01*
Y329150D01*
D02*
G37*
G36*
X509500D02*
X509454D01*
X508398Y328867D01*
X507452Y328321D01*
X506679Y327548D01*
X506133Y326602D01*
X505850Y325546D01*
Y325500D01*
X509500D01*
Y329150D01*
D02*
G37*
G36*
X239500D02*
X239454D01*
X238398Y328867D01*
X237452Y328321D01*
X236680Y327548D01*
X236133Y326602D01*
X235850Y325546D01*
Y325500D01*
X239500D01*
Y329150D01*
D02*
G37*
G36*
X460535Y324465D02*
X458460D01*
Y321504D01*
X460535D01*
Y324465D01*
D02*
G37*
G36*
X457460D02*
X455385D01*
Y321504D01*
X457460D01*
Y324465D01*
D02*
G37*
G36*
X714150Y324500D02*
X710500D01*
Y320850D01*
X710546D01*
X711602Y321133D01*
X712548Y321679D01*
X713320Y322452D01*
X713867Y323398D01*
X714150Y324454D01*
Y324500D01*
D02*
G37*
G36*
X709500D02*
X705850D01*
Y324454D01*
X706133Y323398D01*
X706679Y322452D01*
X707452Y321679D01*
X708398Y321133D01*
X709454Y320850D01*
X709500D01*
Y324500D01*
D02*
G37*
G36*
X514150D02*
X510500D01*
Y320850D01*
X510546D01*
X511602Y321133D01*
X512548Y321679D01*
X513320Y322452D01*
X513867Y323398D01*
X514150Y324454D01*
Y324500D01*
D02*
G37*
G36*
X509500D02*
X505850D01*
Y324454D01*
X506133Y323398D01*
X506679Y322452D01*
X507452Y321679D01*
X508398Y321133D01*
X509454Y320850D01*
X509500D01*
Y324500D01*
D02*
G37*
G36*
X244150D02*
X240500D01*
Y320850D01*
X240546D01*
X241602Y321133D01*
X242548Y321679D01*
X243320Y322452D01*
X243867Y323398D01*
X244150Y324454D01*
Y324500D01*
D02*
G37*
G36*
X239500D02*
X235850D01*
Y324454D01*
X236133Y323398D01*
X236680Y322452D01*
X237452Y321679D01*
X238398Y321133D01*
X239454Y320850D01*
X239500D01*
Y324500D01*
D02*
G37*
G36*
X44150Y324500D02*
X40500D01*
Y320850D01*
X40546D01*
X41602Y321133D01*
X42548Y321679D01*
X43321Y322452D01*
X43867Y323398D01*
X44150Y324454D01*
Y324500D01*
D02*
G37*
G36*
X39500D02*
X35850D01*
Y324454D01*
X36133Y323398D01*
X36680Y322452D01*
X37452Y321679D01*
X38398Y321133D01*
X39454Y320850D01*
X39500D01*
Y324500D01*
D02*
G37*
G36*
X460535Y320504D02*
X458460D01*
Y317543D01*
X460535D01*
Y320504D01*
D02*
G37*
G36*
X457460D02*
X455385D01*
Y317543D01*
X457460D01*
Y320504D01*
D02*
G37*
G36*
X441522Y326436D02*
X434398D01*
Y319706D01*
X441522D01*
Y321083D01*
X444176D01*
X445661Y319598D01*
X446306Y319167D01*
X447067Y319016D01*
X448886D01*
Y317343D01*
X454435D01*
Y324665D01*
X448886D01*
Y322992D01*
X447891D01*
X446406Y324477D01*
X445761Y324908D01*
X445000Y325059D01*
X441522D01*
Y326436D01*
D02*
G37*
G36*
Y318168D02*
X434398D01*
Y316791D01*
X401830D01*
X401658Y316964D01*
X401042Y317319D01*
X400355Y317503D01*
X399644D01*
X398958Y317319D01*
X398342Y316964D01*
X397839Y316461D01*
X397484Y315845D01*
X397300Y315159D01*
Y314448D01*
X397484Y313761D01*
X397839Y313145D01*
X398342Y312643D01*
X398958Y312287D01*
X399644Y312103D01*
X400355D01*
X401042Y312287D01*
X401658Y312643D01*
X401830Y312815D01*
X434398D01*
Y311438D01*
X435972D01*
Y303897D01*
X433807D01*
Y295985D01*
Y288111D01*
X442113D01*
Y290079D01*
X446103D01*
X446275Y289906D01*
X446891Y289551D01*
X447578Y289367D01*
X448288D01*
X448975Y289551D01*
X449591Y289906D01*
X450094Y290409D01*
X450449Y291025D01*
X450633Y291711D01*
Y292422D01*
X450449Y293109D01*
X450094Y293725D01*
X449591Y294228D01*
X448975Y294583D01*
X448288Y294767D01*
X447578D01*
X446891Y294583D01*
X446275Y294228D01*
X446103Y294055D01*
X442113D01*
Y295985D01*
Y303897D01*
X439948D01*
Y311438D01*
X441522D01*
Y312815D01*
X444176D01*
X447157Y309834D01*
X447802Y309403D01*
X448563Y309252D01*
X450854D01*
Y308859D01*
X457941D01*
Y306374D01*
X457779Y305941D01*
X457441Y305941D01*
X454917D01*
Y304260D01*
X457779D01*
Y304686D01*
X457941Y305119D01*
X458279Y305119D01*
X465065D01*
Y305512D01*
X465670D01*
X465842Y305340D01*
X466458Y304984D01*
X467144Y304800D01*
X467856D01*
X468542Y304984D01*
X469158Y305340D01*
X469661Y305842D01*
X470016Y306458D01*
X470200Y307144D01*
Y307856D01*
X470016Y308542D01*
X469661Y309158D01*
X469158Y309661D01*
X468542Y310016D01*
X467856Y310200D01*
X467144D01*
X466458Y310016D01*
X465842Y309661D01*
X465670Y309488D01*
X465065D01*
Y309881D01*
X457979D01*
Y313621D01*
X450854D01*
Y313228D01*
X449387D01*
X446406Y316209D01*
X445761Y316640D01*
X445000Y316791D01*
X441522D01*
Y318168D01*
D02*
G37*
G36*
X339625Y313858D02*
X333288D01*
Y311988D01*
X331830D01*
X331658Y312160D01*
X331042Y312516D01*
X330356Y312700D01*
X329644D01*
X328958Y312516D01*
X328342Y312160D01*
X327839Y311658D01*
X327484Y311042D01*
X327300Y310355D01*
Y309645D01*
X327484Y308958D01*
X327839Y308342D01*
X328342Y307839D01*
X328958Y307484D01*
X329644Y307300D01*
X330356D01*
X331042Y307484D01*
X331658Y307839D01*
X331830Y308012D01*
X333288D01*
Y306142D01*
X334469D01*
Y305000D01*
X334620Y304239D01*
X335051Y303594D01*
X335369Y303276D01*
X335177Y302814D01*
X332579D01*
Y294902D01*
X343247D01*
Y302814D01*
X339902D01*
Y303543D01*
X339750Y304304D01*
X339319Y304949D01*
X338626Y305643D01*
X338833Y306142D01*
X339625D01*
Y313858D01*
D02*
G37*
G36*
X346712D02*
X340375D01*
Y306142D01*
X346712D01*
Y308012D01*
X348170D01*
X348342Y307839D01*
X348958Y307484D01*
X349644Y307300D01*
X350356D01*
X351042Y307484D01*
X351658Y307839D01*
X352161Y308342D01*
X352516Y308958D01*
X352700Y309645D01*
Y310355D01*
X352516Y311042D01*
X352161Y311658D01*
X351658Y312160D01*
X351042Y312516D01*
X350356Y312700D01*
X349644D01*
X348958Y312516D01*
X348342Y312160D01*
X348170Y311988D01*
X346712D01*
Y313858D01*
D02*
G37*
G36*
X360291Y322700D02*
X359580D01*
X358893Y322516D01*
X358278Y322161D01*
X357775Y321658D01*
X357419Y321042D01*
X357236Y320356D01*
Y319644D01*
X357419Y318958D01*
X357775Y318342D01*
X358012Y318105D01*
Y311279D01*
X356438D01*
Y304548D01*
X363562D01*
Y311279D01*
X361988D01*
Y318234D01*
X362096Y318342D01*
X362452Y318958D01*
X362635Y319644D01*
Y320356D01*
X362452Y321042D01*
X362096Y321658D01*
X361593Y322161D01*
X360978Y322516D01*
X360291Y322700D01*
D02*
G37*
G36*
X453917Y305941D02*
X451054D01*
Y304260D01*
X453917D01*
Y305941D01*
D02*
G37*
G36*
X457779Y303260D02*
X454917D01*
Y301579D01*
X457779D01*
Y303260D01*
D02*
G37*
G36*
X453917D02*
X451054D01*
Y301579D01*
X453917D01*
Y303260D01*
D02*
G37*
G36*
X307420Y302814D02*
X296753D01*
Y294902D01*
X307420D01*
Y302814D01*
D02*
G37*
G36*
X307221Y284898D02*
X302587D01*
Y281642D01*
X307221D01*
Y284898D01*
D02*
G37*
G36*
X301587D02*
X296953D01*
Y281642D01*
X301587D01*
Y284898D01*
D02*
G37*
G36*
X363562Y303011D02*
X356438D01*
Y296280D01*
X358012D01*
Y285924D01*
X356339D01*
Y280375D01*
X363661D01*
Y285924D01*
X361988D01*
Y296280D01*
X363562D01*
Y303011D01*
D02*
G37*
G36*
X307221Y280642D02*
X302587D01*
Y277386D01*
X307221D01*
Y280642D01*
D02*
G37*
G36*
X301587D02*
X296953D01*
Y277386D01*
X301587D01*
Y280642D01*
D02*
G37*
G36*
X363461Y279425D02*
X360500D01*
Y277350D01*
X363461D01*
Y279425D01*
D02*
G37*
G36*
X359500D02*
X356539D01*
Y277350D01*
X359500D01*
Y279425D01*
D02*
G37*
G36*
X343247Y285098D02*
X332579D01*
Y277186D01*
X343247D01*
Y285098D01*
D02*
G37*
G36*
X363461Y276350D02*
X360500D01*
Y274276D01*
X363461D01*
Y276350D01*
D02*
G37*
G36*
X359500D02*
X356539D01*
Y274276D01*
X359500D01*
Y276350D01*
D02*
G37*
G36*
X454996Y230980D02*
X450500D01*
Y223000D01*
X454996D01*
Y230980D01*
D02*
G37*
G36*
X303996D02*
X299500D01*
Y223000D01*
X303996D01*
Y230980D01*
D02*
G37*
G36*
X449500D02*
X445004D01*
Y223000D01*
X449500D01*
Y230980D01*
D02*
G37*
G36*
X298500D02*
X294004D01*
Y223000D01*
X298500D01*
Y230980D01*
D02*
G37*
G36*
X454996Y222000D02*
X450500D01*
Y214020D01*
X454996D01*
Y222000D01*
D02*
G37*
G36*
X449500D02*
X445004D01*
Y214020D01*
X449500D01*
Y222000D01*
D02*
G37*
G36*
X303996D02*
X299500D01*
Y214020D01*
X303996D01*
Y222000D01*
D02*
G37*
G36*
X298500D02*
X294004D01*
Y214020D01*
X298500D01*
Y222000D01*
D02*
G37*
G36*
X411150Y169150D02*
X407500D01*
Y165500D01*
X411150D01*
Y169150D01*
D02*
G37*
G36*
X406500D02*
X402850D01*
Y165500D01*
X406500D01*
Y169150D01*
D02*
G37*
G36*
X411150Y164500D02*
X407500D01*
Y160850D01*
X411150D01*
Y164500D01*
D02*
G37*
G36*
X406500D02*
X402850D01*
Y160850D01*
X406500D01*
Y164500D01*
D02*
G37*
G36*
X397573Y169350D02*
X396427D01*
X395321Y169053D01*
X394329Y168481D01*
X393519Y167671D01*
X392947Y166679D01*
X392650Y165573D01*
Y164427D01*
X392947Y163321D01*
X393519Y162329D01*
X394329Y161520D01*
X395321Y160947D01*
X396427Y160650D01*
X397573D01*
X398679Y160947D01*
X399671Y161520D01*
X400481Y162329D01*
X401053Y163321D01*
X401350Y164427D01*
Y165573D01*
X401053Y166679D01*
X400481Y167671D01*
X399671Y168481D01*
X398679Y169053D01*
X397573Y169350D01*
D02*
G37*
G36*
X387573D02*
X386427D01*
X385321Y169053D01*
X384329Y168481D01*
X383520Y167671D01*
X382947Y166679D01*
X382650Y165573D01*
Y164427D01*
X382947Y163321D01*
X383520Y162329D01*
X384329Y161520D01*
X385321Y160947D01*
X386427Y160650D01*
X387573D01*
X388679Y160947D01*
X389671Y161520D01*
X390480Y162329D01*
X391053Y163321D01*
X391350Y164427D01*
Y165573D01*
X391053Y166679D01*
X390480Y167671D01*
X389671Y168481D01*
X388679Y169053D01*
X387573Y169350D01*
D02*
G37*
G36*
X367573D02*
X366427D01*
X365321Y169053D01*
X364329Y168481D01*
X363520Y167671D01*
X362947Y166679D01*
X362650Y165573D01*
Y164427D01*
X362947Y163321D01*
X363520Y162329D01*
X364329Y161520D01*
X365321Y160947D01*
X366427Y160650D01*
X367573D01*
X368679Y160947D01*
X369671Y161520D01*
X370480Y162329D01*
X371053Y163321D01*
X371350Y164427D01*
Y165573D01*
X371053Y166679D01*
X370480Y167671D01*
X369671Y168481D01*
X368679Y169053D01*
X367573Y169350D01*
D02*
G37*
G36*
X357573D02*
X356427D01*
X355321Y169053D01*
X354329Y168481D01*
X353520Y167671D01*
X352947Y166679D01*
X352650Y165573D01*
Y164427D01*
X352947Y163321D01*
X353520Y162329D01*
X354329Y161520D01*
X355321Y160947D01*
X356427Y160650D01*
X357573D01*
X358679Y160947D01*
X359671Y161520D01*
X360480Y162329D01*
X361053Y163321D01*
X361350Y164427D01*
Y165573D01*
X361053Y166679D01*
X360480Y167671D01*
X359671Y168481D01*
X358679Y169053D01*
X357573Y169350D01*
D02*
G37*
G36*
X377573D02*
X376427D01*
X375321Y169053D01*
X374329Y168481D01*
X373519Y167671D01*
X372947Y166679D01*
X372650Y165573D01*
Y164427D01*
X372947Y163321D01*
X373519Y162329D01*
X374329Y161520D01*
X375012Y161125D01*
Y149153D01*
X373044D01*
Y140847D01*
X388830D01*
Y143012D01*
X393930D01*
Y142151D01*
X393882Y142036D01*
X393772Y141201D01*
X393882Y140365D01*
X393930Y140251D01*
Y138229D01*
X395812D01*
X396165Y138083D01*
X397000Y137973D01*
X523701D01*
X524536Y138083D01*
X525315Y138406D01*
X525983Y138918D01*
X526496Y139587D01*
X526818Y140365D01*
X526928Y141201D01*
X526818Y142036D01*
X526621Y142512D01*
X526952Y143012D01*
X544176D01*
X544449Y142739D01*
Y138857D01*
X543268D01*
Y131142D01*
X549606D01*
Y133012D01*
X607597D01*
X607769Y132840D01*
X608385Y132484D01*
X609072Y132300D01*
X609783D01*
X610469Y132484D01*
X611085Y132840D01*
X611588Y133342D01*
X611943Y133958D01*
X612127Y134644D01*
Y135355D01*
X611943Y136042D01*
X611588Y136658D01*
X611085Y137161D01*
X610469Y137516D01*
X609783Y137700D01*
X609072D01*
X608385Y137516D01*
X607769Y137161D01*
X607597Y136988D01*
X549606D01*
Y138857D01*
X548425D01*
Y143563D01*
X548274Y144324D01*
X547843Y144969D01*
X546406Y146406D01*
X545761Y146837D01*
X545000Y146988D01*
X388830D01*
Y149153D01*
X378988D01*
Y161125D01*
X379671Y161520D01*
X380481Y162329D01*
X381053Y163321D01*
X381350Y164427D01*
Y165573D01*
X381053Y166679D01*
X380481Y167671D01*
X379671Y168481D01*
X378679Y169053D01*
X377573Y169350D01*
D02*
G37*
G36*
X378830Y139153D02*
X363044D01*
Y130847D01*
X365012D01*
Y126090D01*
X364984Y126042D01*
X364800Y125356D01*
Y124644D01*
X364984Y123958D01*
X365339Y123342D01*
X365842Y122839D01*
X366458Y122484D01*
X367144Y122300D01*
X367856D01*
X368542Y122484D01*
X369158Y122839D01*
X369660Y123342D01*
X370016Y123958D01*
X370200Y124644D01*
Y125356D01*
X370016Y126042D01*
X369660Y126658D01*
X369158Y127161D01*
X368988Y127259D01*
Y130847D01*
X373012D01*
Y127330D01*
X372839Y127158D01*
X372484Y126542D01*
X372300Y125856D01*
Y125145D01*
X372484Y124458D01*
X372839Y123842D01*
X373342Y123339D01*
X373958Y122984D01*
X374644Y122800D01*
X375356D01*
X376042Y122984D01*
X376658Y123339D01*
X377161Y123842D01*
X377516Y124458D01*
X377700Y125145D01*
Y125856D01*
X377516Y126542D01*
X377161Y127158D01*
X376988Y127330D01*
Y130847D01*
X378830D01*
Y139153D01*
D02*
G37*
G36*
X96712Y128858D02*
X90375D01*
Y121142D01*
X96712D01*
Y123012D01*
X98170D01*
X98342Y122839D01*
X98958Y122484D01*
X99645Y122300D01*
X100356D01*
X101042Y122484D01*
X101658Y122839D01*
X102161Y123342D01*
X102516Y123958D01*
X102700Y124644D01*
Y125356D01*
X102516Y126042D01*
X102161Y126658D01*
X101658Y127161D01*
X101042Y127516D01*
X100356Y127700D01*
X99645D01*
X98958Y127516D01*
X98342Y127161D01*
X98170Y126988D01*
X96712D01*
Y128858D01*
D02*
G37*
G36*
X400070Y131771D02*
X393930D01*
Y125828D01*
X394502D01*
Y120635D01*
X394692Y119679D01*
X394857Y119433D01*
X394984Y118958D01*
X395339Y118342D01*
X395842Y117840D01*
X396458Y117484D01*
X397145Y117300D01*
X397855D01*
X398542Y117484D01*
X399158Y117840D01*
X399660Y118342D01*
X400016Y118958D01*
X400200Y119644D01*
Y120355D01*
X400016Y121042D01*
X399660Y121658D01*
X399498Y121820D01*
Y125828D01*
X400070D01*
Y131771D01*
D02*
G37*
G36*
X549212Y117913D02*
X542875D01*
Y110198D01*
X549212D01*
Y112068D01*
X618170D01*
X618342Y111896D01*
X618958Y111540D01*
X619644Y111356D01*
X620356D01*
X621042Y111540D01*
X621658Y111896D01*
X622160Y112398D01*
X622516Y113014D01*
X622700Y113700D01*
Y114411D01*
X622516Y115098D01*
X622160Y115714D01*
X621658Y116217D01*
X621042Y116572D01*
X620356Y116756D01*
X619644D01*
X618958Y116572D01*
X618342Y116217D01*
X618170Y116044D01*
X549212D01*
Y117913D01*
D02*
G37*
G36*
X542519Y138857D02*
X536182D01*
Y131142D01*
X537165D01*
Y126830D01*
X536993Y126658D01*
X536637Y126042D01*
X536453Y125356D01*
Y124644D01*
X536637Y123958D01*
X536993Y123342D01*
X537165Y123170D01*
Y117913D01*
X535788D01*
Y110198D01*
X542125D01*
Y117913D01*
X541142D01*
Y123170D01*
X541314Y123342D01*
X541670Y123958D01*
X541854Y124644D01*
Y125356D01*
X541670Y126042D01*
X541314Y126658D01*
X541142Y126830D01*
Y131142D01*
X542519D01*
Y138857D01*
D02*
G37*
G36*
X96812Y116358D02*
X90475D01*
Y108642D01*
X96812D01*
Y110512D01*
X108170D01*
X108342Y110339D01*
X108958Y109984D01*
X109644Y109800D01*
X110355D01*
X111042Y109984D01*
X111658Y110339D01*
X112161Y110842D01*
X112516Y111458D01*
X112700Y112144D01*
Y112856D01*
X112516Y113542D01*
X112161Y114158D01*
X111658Y114661D01*
X111042Y115016D01*
X110355Y115200D01*
X109644D01*
X108958Y115016D01*
X108342Y114661D01*
X108170Y114488D01*
X96812D01*
Y116358D01*
D02*
G37*
G36*
X86913Y135200D02*
X86202D01*
X85515Y135016D01*
X84899Y134660D01*
X84396Y134158D01*
X84041Y133542D01*
X83857Y132855D01*
Y132144D01*
X84041Y131458D01*
X84396Y130842D01*
X84469Y130770D01*
Y128858D01*
X83288D01*
Y121142D01*
X84519D01*
Y116358D01*
X83389D01*
Y108642D01*
X89726D01*
Y116358D01*
X88495D01*
Y121142D01*
X89625D01*
Y128858D01*
X88445D01*
Y130570D01*
X88718Y130842D01*
X89073Y131458D01*
X89257Y132144D01*
Y132855D01*
X89073Y133542D01*
X88718Y134158D01*
X88215Y134660D01*
X87599Y135016D01*
X86913Y135200D01*
D02*
G37*
G36*
X514350Y104350D02*
X505650D01*
Y95650D01*
X514350D01*
Y98012D01*
X607597D01*
X607769Y97839D01*
X608385Y97484D01*
X609072Y97300D01*
X609783D01*
X610469Y97484D01*
X611085Y97839D01*
X611588Y98342D01*
X611943Y98958D01*
X612127Y99645D01*
Y100356D01*
X611943Y101042D01*
X611588Y101658D01*
X611085Y102161D01*
X610469Y102516D01*
X609783Y102700D01*
X609072D01*
X608385Y102516D01*
X607769Y102161D01*
X607597Y101988D01*
X514350D01*
Y104350D01*
D02*
G37*
G36*
X44350D02*
X35650D01*
Y95650D01*
X44350D01*
Y98012D01*
X98170D01*
X98342Y97839D01*
X98958Y97484D01*
X99645Y97300D01*
X100356D01*
X101042Y97484D01*
X101658Y97839D01*
X102161Y98342D01*
X102516Y98958D01*
X102700Y99645D01*
Y100356D01*
X102516Y101042D01*
X102161Y101658D01*
X101658Y102161D01*
X101042Y102516D01*
X100356Y102700D01*
X99645D01*
X98958Y102516D01*
X98342Y102161D01*
X98170Y101988D01*
X44350D01*
Y104350D01*
D02*
G37*
G36*
X714350D02*
X705650D01*
Y95650D01*
X714350D01*
Y104350D01*
D02*
G37*
G36*
X700573D02*
X699427D01*
X698321Y104053D01*
X697329Y103481D01*
X696520Y102671D01*
X695947Y101679D01*
X695650Y100573D01*
Y99427D01*
X695947Y98321D01*
X696520Y97329D01*
X697329Y96520D01*
X698321Y95947D01*
X699427Y95650D01*
X700573D01*
X701679Y95947D01*
X702671Y96520D01*
X703480Y97329D01*
X704053Y98321D01*
X704350Y99427D01*
Y100573D01*
X704053Y101679D01*
X703480Y102671D01*
X702671Y103481D01*
X701679Y104053D01*
X700573Y104350D01*
D02*
G37*
G36*
X690573D02*
X689427D01*
X688321Y104053D01*
X687329Y103481D01*
X686519Y102671D01*
X685947Y101679D01*
X685650Y100573D01*
Y99427D01*
X685947Y98321D01*
X686519Y97329D01*
X687329Y96520D01*
X688321Y95947D01*
X689427Y95650D01*
X690573D01*
X691679Y95947D01*
X692671Y96520D01*
X693480Y97329D01*
X694053Y98321D01*
X694350Y99427D01*
Y100573D01*
X694053Y101679D01*
X693480Y102671D01*
X692671Y103481D01*
X691679Y104053D01*
X690573Y104350D01*
D02*
G37*
G36*
X680573D02*
X679427D01*
X678321Y104053D01*
X677329Y103481D01*
X676519Y102671D01*
X675947Y101679D01*
X675650Y100573D01*
Y99427D01*
X675947Y98321D01*
X676519Y97329D01*
X677329Y96520D01*
X678321Y95947D01*
X679427Y95650D01*
X680573D01*
X681679Y95947D01*
X682671Y96520D01*
X683481Y97329D01*
X684053Y98321D01*
X684350Y99427D01*
Y100573D01*
X684053Y101679D01*
X683481Y102671D01*
X682671Y103481D01*
X681679Y104053D01*
X680573Y104350D01*
D02*
G37*
G36*
X670573D02*
X669427D01*
X668321Y104053D01*
X667329Y103481D01*
X666519Y102671D01*
X665947Y101679D01*
X665650Y100573D01*
Y99427D01*
X665947Y98321D01*
X666519Y97329D01*
X667329Y96520D01*
X668321Y95947D01*
X669427Y95650D01*
X670573D01*
X671679Y95947D01*
X672671Y96520D01*
X673481Y97329D01*
X674053Y98321D01*
X674350Y99427D01*
Y100573D01*
X674053Y101679D01*
X673481Y102671D01*
X672671Y103481D01*
X671679Y104053D01*
X670573Y104350D01*
D02*
G37*
G36*
X660573D02*
X659427D01*
X658321Y104053D01*
X657329Y103481D01*
X656520Y102671D01*
X655947Y101679D01*
X655650Y100573D01*
Y99427D01*
X655947Y98321D01*
X656520Y97329D01*
X657329Y96520D01*
X658321Y95947D01*
X659427Y95650D01*
X660573D01*
X661679Y95947D01*
X662671Y96520D01*
X663481Y97329D01*
X664053Y98321D01*
X664350Y99427D01*
Y100573D01*
X664053Y101679D01*
X663481Y102671D01*
X662671Y103481D01*
X661679Y104053D01*
X660573Y104350D01*
D02*
G37*
G36*
X244350D02*
X235650D01*
Y95650D01*
X244350D01*
Y104350D01*
D02*
G37*
G36*
X230573D02*
X229427D01*
X228321Y104053D01*
X227329Y103481D01*
X226519Y102671D01*
X225947Y101679D01*
X225650Y100573D01*
Y99427D01*
X225947Y98321D01*
X226519Y97329D01*
X227329Y96520D01*
X228321Y95947D01*
X229427Y95650D01*
X230573D01*
X231679Y95947D01*
X232671Y96520D01*
X233481Y97329D01*
X234053Y98321D01*
X234350Y99427D01*
Y100573D01*
X234053Y101679D01*
X233481Y102671D01*
X232671Y103481D01*
X231679Y104053D01*
X230573Y104350D01*
D02*
G37*
G36*
X220573D02*
X219427D01*
X218321Y104053D01*
X217329Y103481D01*
X216519Y102671D01*
X215947Y101679D01*
X215650Y100573D01*
Y99427D01*
X215947Y98321D01*
X216519Y97329D01*
X217329Y96520D01*
X218321Y95947D01*
X219427Y95650D01*
X220573D01*
X221679Y95947D01*
X222671Y96520D01*
X223481Y97329D01*
X224053Y98321D01*
X224350Y99427D01*
Y100573D01*
X224053Y101679D01*
X223481Y102671D01*
X222671Y103481D01*
X221679Y104053D01*
X220573Y104350D01*
D02*
G37*
G36*
X210573D02*
X209427D01*
X208321Y104053D01*
X207329Y103481D01*
X206520Y102671D01*
X205947Y101679D01*
X205650Y100573D01*
Y99427D01*
X205947Y98321D01*
X206520Y97329D01*
X207329Y96520D01*
X208321Y95947D01*
X209427Y95650D01*
X210573D01*
X211679Y95947D01*
X212671Y96520D01*
X213480Y97329D01*
X214053Y98321D01*
X214350Y99427D01*
Y100573D01*
X214053Y101679D01*
X213480Y102671D01*
X212671Y103481D01*
X211679Y104053D01*
X210573Y104350D01*
D02*
G37*
G36*
X200573D02*
X199427D01*
X198321Y104053D01*
X197329Y103481D01*
X196519Y102671D01*
X195947Y101679D01*
X195650Y100573D01*
Y99427D01*
X195947Y98321D01*
X196519Y97329D01*
X197329Y96520D01*
X198321Y95947D01*
X199427Y95650D01*
X200573D01*
X201679Y95947D01*
X202671Y96520D01*
X203481Y97329D01*
X204053Y98321D01*
X204350Y99427D01*
Y100573D01*
X204053Y101679D01*
X203481Y102671D01*
X202671Y103481D01*
X201679Y104053D01*
X200573Y104350D01*
D02*
G37*
G36*
X190573D02*
X189427D01*
X188321Y104053D01*
X187329Y103481D01*
X186520Y102671D01*
X185947Y101679D01*
X185650Y100573D01*
Y99427D01*
X185947Y98321D01*
X186520Y97329D01*
X187329Y96520D01*
X188321Y95947D01*
X189427Y95650D01*
X190573D01*
X191679Y95947D01*
X192671Y96520D01*
X193481Y97329D01*
X194053Y98321D01*
X194350Y99427D01*
Y100573D01*
X194053Y101679D01*
X193481Y102671D01*
X192671Y103481D01*
X191679Y104053D01*
X190573Y104350D01*
D02*
G37*
G36*
X510573Y94350D02*
X509427D01*
X508321Y94053D01*
X507329Y93480D01*
X506520Y92671D01*
X506125Y91988D01*
X376830D01*
X376658Y92160D01*
X376042Y92516D01*
X375356Y92700D01*
X374644D01*
X373958Y92516D01*
X373342Y92160D01*
X372839Y91658D01*
X372484Y91042D01*
X372300Y90355D01*
Y89644D01*
X372484Y88958D01*
X372839Y88342D01*
X373342Y87840D01*
X373958Y87484D01*
X374644Y87300D01*
X375356D01*
X376042Y87484D01*
X376658Y87840D01*
X376830Y88012D01*
X506125D01*
X506520Y87329D01*
X507329Y86519D01*
X508321Y85947D01*
X509427Y85650D01*
X510573D01*
X511679Y85947D01*
X512671Y86519D01*
X513481Y87329D01*
X513875Y88012D01*
X618170D01*
X618342Y87840D01*
X618958Y87484D01*
X619644Y87300D01*
X620356D01*
X621042Y87484D01*
X621658Y87840D01*
X622160Y88342D01*
X622516Y88958D01*
X622700Y89644D01*
Y90355D01*
X622516Y91042D01*
X622160Y91658D01*
X621658Y92160D01*
X621042Y92516D01*
X620356Y92700D01*
X619644D01*
X618958Y92516D01*
X618342Y92160D01*
X618170Y91988D01*
X513875D01*
X513481Y92671D01*
X512671Y93480D01*
X511679Y94053D01*
X510573Y94350D01*
D02*
G37*
G36*
X40573D02*
X39427D01*
X38321Y94053D01*
X37329Y93480D01*
X36520Y92671D01*
X35947Y91679D01*
X35650Y90573D01*
Y89427D01*
X35947Y88321D01*
X36520Y87329D01*
X37329Y86519D01*
X38321Y85947D01*
X39427Y85650D01*
X40573D01*
X41679Y85947D01*
X42671Y86519D01*
X43481Y87329D01*
X43875Y88012D01*
X107700D01*
X107840Y87770D01*
X108342Y87267D01*
X108958Y86911D01*
X109644Y86727D01*
X110355D01*
X111042Y86911D01*
X111658Y87267D01*
X112161Y87770D01*
X112516Y88385D01*
X112700Y89072D01*
Y89783D01*
X112516Y90469D01*
X112161Y91085D01*
X111658Y91588D01*
X111042Y91943D01*
X110355Y92127D01*
X109644D01*
X109125Y91988D01*
X43875D01*
X43481Y92671D01*
X42671Y93480D01*
X41679Y94053D01*
X40573Y94350D01*
D02*
G37*
G36*
X510573Y84350D02*
X509427D01*
X508321Y84053D01*
X507329Y83481D01*
X506520Y82671D01*
X505947Y81679D01*
X505650Y80573D01*
Y79427D01*
X505947Y78321D01*
X506520Y77329D01*
X507329Y76520D01*
X508321Y75947D01*
X509427Y75650D01*
X510573D01*
X511679Y75947D01*
X512671Y76520D01*
X513481Y77329D01*
X513875Y78012D01*
X628170D01*
X628342Y77839D01*
X628958Y77484D01*
X629644Y77300D01*
X630356D01*
X631042Y77484D01*
X631658Y77839D01*
X632161Y78342D01*
X632516Y78958D01*
X632700Y79645D01*
Y80356D01*
X632516Y81042D01*
X632161Y81658D01*
X631658Y82161D01*
X631042Y82516D01*
X630356Y82700D01*
X629644D01*
X628958Y82516D01*
X628342Y82161D01*
X628170Y81988D01*
X513875D01*
X513481Y82671D01*
X512671Y83481D01*
X511679Y84053D01*
X510573Y84350D01*
D02*
G37*
G36*
X40573D02*
X39427D01*
X38321Y84053D01*
X37329Y83481D01*
X36520Y82671D01*
X35947Y81679D01*
X35650Y80573D01*
Y79427D01*
X35947Y78321D01*
X36520Y77329D01*
X37329Y76520D01*
X38321Y75947D01*
X39427Y75650D01*
X40573D01*
X41679Y75947D01*
X42671Y76520D01*
X43481Y77329D01*
X43875Y78012D01*
X117597D01*
X117770Y77839D01*
X118385Y77484D01*
X119072Y77300D01*
X119783D01*
X120469Y77484D01*
X121085Y77839D01*
X121588Y78342D01*
X121943Y78958D01*
X122127Y79645D01*
Y80356D01*
X121943Y81042D01*
X121588Y81658D01*
X121085Y82161D01*
X120469Y82516D01*
X119783Y82700D01*
X119072D01*
X118385Y82516D01*
X117770Y82161D01*
X117597Y81988D01*
X43875D01*
X43481Y82671D01*
X42671Y83481D01*
X41679Y84053D01*
X40573Y84350D01*
D02*
G37*
G36*
X510573Y74350D02*
X509427D01*
X508321Y74053D01*
X507329Y73480D01*
X506520Y72671D01*
X505947Y71679D01*
X505650Y70573D01*
Y69427D01*
X505947Y68321D01*
X506520Y67329D01*
X507329Y66519D01*
X508321Y65947D01*
X509427Y65650D01*
X510573D01*
X511679Y65947D01*
X512671Y66519D01*
X513481Y67329D01*
X513875Y68012D01*
X638170D01*
X638342Y67839D01*
X638958Y67484D01*
X639644Y67300D01*
X640355D01*
X641042Y67484D01*
X641658Y67839D01*
X642161Y68342D01*
X642516Y68958D01*
X642700Y69644D01*
Y70355D01*
X642516Y71042D01*
X642161Y71658D01*
X641658Y72161D01*
X641042Y72516D01*
X640355Y72700D01*
X639644D01*
X638958Y72516D01*
X638342Y72161D01*
X638170Y71988D01*
X513875D01*
X513481Y72671D01*
X512671Y73480D01*
X511679Y74053D01*
X510573Y74350D01*
D02*
G37*
G36*
X40573D02*
X39427D01*
X38321Y74053D01*
X37329Y73480D01*
X36520Y72671D01*
X35947Y71679D01*
X35650Y70573D01*
Y69427D01*
X35947Y68321D01*
X36520Y67329D01*
X37329Y66519D01*
X38321Y65947D01*
X39427Y65650D01*
X40573D01*
X41679Y65947D01*
X42671Y66519D01*
X43481Y67329D01*
X43875Y68012D01*
X127597D01*
X127769Y67839D01*
X128385Y67484D01*
X129072Y67300D01*
X129783D01*
X130470Y67484D01*
X131085Y67839D01*
X131588Y68342D01*
X131943Y68958D01*
X132127Y69644D01*
Y70355D01*
X131943Y71042D01*
X131588Y71658D01*
X131085Y72161D01*
X130470Y72516D01*
X129783Y72700D01*
X129072D01*
X128385Y72516D01*
X127769Y72161D01*
X127597Y71988D01*
X43875D01*
X43481Y72671D01*
X42671Y73480D01*
X41679Y74053D01*
X40573Y74350D01*
D02*
G37*
G36*
X510573Y64350D02*
X509427D01*
X508321Y64053D01*
X507329Y63481D01*
X506520Y62671D01*
X506125Y61988D01*
X141830D01*
X141658Y62160D01*
X141042Y62516D01*
X140356Y62700D01*
X139645D01*
X138958Y62516D01*
X138342Y62160D01*
X138170Y61988D01*
X43875D01*
X43481Y62671D01*
X42671Y63481D01*
X41679Y64053D01*
X40573Y64350D01*
X39427D01*
X38321Y64053D01*
X37329Y63481D01*
X36520Y62671D01*
X35947Y61679D01*
X35650Y60573D01*
Y59427D01*
X35947Y58321D01*
X36520Y57329D01*
X37329Y56520D01*
X38321Y55947D01*
X39427Y55650D01*
X40573D01*
X41679Y55947D01*
X42671Y56520D01*
X43481Y57329D01*
X43875Y58012D01*
X138170D01*
X138342Y57840D01*
X138958Y57484D01*
X139645Y57300D01*
X140356D01*
X141042Y57484D01*
X141658Y57840D01*
X141830Y58012D01*
X506125D01*
X506520Y57329D01*
X507329Y56520D01*
X508321Y55947D01*
X509427Y55650D01*
X510573D01*
X511679Y55947D01*
X512671Y56520D01*
X513481Y57329D01*
X514053Y58321D01*
X514350Y59427D01*
Y60573D01*
X514053Y61679D01*
X513481Y62671D01*
X512671Y63481D01*
X511679Y64053D01*
X510573Y64350D01*
D02*
G37*
G36*
Y54350D02*
X509427D01*
X508321Y54053D01*
X507329Y53480D01*
X506520Y52671D01*
X505947Y51679D01*
X505650Y50573D01*
Y49427D01*
X505947Y48321D01*
X506520Y47329D01*
X507329Y46520D01*
X508321Y45947D01*
X509427Y45650D01*
X510573D01*
X511679Y45947D01*
X512671Y46520D01*
X513481Y47329D01*
X514053Y48321D01*
X514350Y49427D01*
Y50573D01*
X514053Y51679D01*
X513481Y52671D01*
X512671Y53480D01*
X511679Y54053D01*
X510573Y54350D01*
D02*
G37*
G36*
X40573D02*
X39427D01*
X38321Y54053D01*
X37329Y53480D01*
X36520Y52671D01*
X35947Y51679D01*
X35650Y50573D01*
Y49427D01*
X35947Y48321D01*
X36520Y47329D01*
X37329Y46520D01*
X38321Y45947D01*
X39427Y45650D01*
X40573D01*
X41679Y45947D01*
X42671Y46520D01*
X43481Y47329D01*
X44053Y48321D01*
X44350Y49427D01*
Y50573D01*
X44053Y51679D01*
X43481Y52671D01*
X42671Y53480D01*
X41679Y54053D01*
X40573Y54350D01*
D02*
G37*
%LPD*%
G36*
X525000Y350000D02*
X500000D01*
Y387500D01*
X385148D01*
Y392496D01*
X377168D01*
Y387500D01*
X376168D01*
Y392496D01*
X368187D01*
Y387500D01*
X338793D01*
Y389748D01*
X343535D01*
X343567Y389729D01*
X344253Y389545D01*
X344964D01*
X345651Y389729D01*
X346267Y390085D01*
X346769Y390588D01*
X347125Y391203D01*
X347309Y391890D01*
Y392601D01*
X347125Y393288D01*
X346769Y393903D01*
X346267Y394406D01*
X345651Y394761D01*
X344964Y394946D01*
X344253D01*
X343567Y394761D01*
X343535Y394743D01*
X338793D01*
Y395316D01*
X331078D01*
Y389175D01*
Y387500D01*
X294857D01*
Y388723D01*
X294657D01*
Y391059D01*
X291000D01*
X287343D01*
Y388723D01*
X287142D01*
Y387500D01*
X50000D01*
Y350000D01*
X25000D01*
Y419055D01*
X298346D01*
X298654Y418593D01*
X299116Y418284D01*
X299661Y418176D01*
X307339D01*
X307884Y418284D01*
X308346Y418593D01*
X308654Y419055D01*
X322951D01*
X323268Y418669D01*
X323237Y418513D01*
Y414815D01*
X308533D01*
X308346Y415095D01*
X307884Y415404D01*
X307339Y415513D01*
X299661D01*
X299116Y415404D01*
X298654Y415095D01*
X298346Y414633D01*
X298237Y414088D01*
Y410545D01*
X298346Y410000D01*
X298654Y409538D01*
X299116Y409229D01*
X299661Y409121D01*
X307339D01*
X307884Y409229D01*
X308346Y409538D01*
X308533Y409819D01*
X323237D01*
Y406121D01*
X323346Y405574D01*
X323656Y405110D01*
X324119Y404800D01*
X324666Y404692D01*
X332334D01*
X332881Y404800D01*
X333344Y405110D01*
X333654Y405574D01*
X333763Y406121D01*
Y408544D01*
X336927D01*
X336958Y408526D01*
X337645Y408342D01*
X338355D01*
X339042Y408526D01*
X339658Y408882D01*
X340160Y409384D01*
X340516Y410000D01*
X340700Y410687D01*
Y411398D01*
X340516Y412084D01*
X340160Y412700D01*
X339658Y413203D01*
X339042Y413558D01*
X338355Y413742D01*
X337645D01*
X336958Y413558D01*
X336927Y413540D01*
X333763D01*
Y418513D01*
X333732Y418669D01*
X334049Y419055D01*
X425138D01*
Y417269D01*
X432262D01*
Y419055D01*
X451448D01*
Y418595D01*
X455401D01*
X459353D01*
Y419055D01*
X464342D01*
Y417733D01*
X468000D01*
X471657D01*
Y419055D01*
X525000D01*
Y350000D01*
D02*
G37*
%LPC*%
G36*
X459353Y417594D02*
X455901D01*
Y415913D01*
X459353D01*
Y417594D01*
D02*
G37*
G36*
X471657Y416733D02*
X468500D01*
Y414363D01*
X471657D01*
Y416733D01*
D02*
G37*
G36*
X467500D02*
X464342D01*
Y414363D01*
X467500D01*
Y416733D01*
D02*
G37*
G36*
X454901Y417594D02*
X451448D01*
Y416735D01*
X443768D01*
Y416342D01*
X440000D01*
X439239Y416191D01*
X438594Y415760D01*
X437188Y414354D01*
X432262D01*
Y415731D01*
X425138D01*
Y409001D01*
X432262D01*
Y410378D01*
X438012D01*
X438773Y410529D01*
X439418Y410960D01*
X440824Y412366D01*
X443768D01*
Y411973D01*
X452073D01*
Y415913D01*
X454901D01*
Y417594D01*
D02*
G37*
G36*
X307339Y406253D02*
X304000D01*
Y403762D01*
X308559D01*
Y405033D01*
X308466Y405500D01*
X308202Y405896D01*
X307806Y406161D01*
X307339Y406253D01*
D02*
G37*
G36*
X303000D02*
X299661D01*
X299194Y406161D01*
X298798Y405896D01*
X298534Y405500D01*
X298441Y405033D01*
Y403762D01*
X303000D01*
Y406253D01*
D02*
G37*
G36*
X308559Y402762D02*
X304000D01*
Y400270D01*
X307339D01*
X307806Y400362D01*
X308202Y400627D01*
X308466Y401023D01*
X308559Y401490D01*
Y402762D01*
D02*
G37*
G36*
X303000D02*
X298441D01*
Y401490D01*
X298534Y401023D01*
X298798Y400627D01*
X299194Y400362D01*
X299661Y400270D01*
X303000D01*
Y402762D01*
D02*
G37*
G36*
X294657Y394429D02*
X291500D01*
Y392059D01*
X294657D01*
Y394429D01*
D02*
G37*
G36*
X290500D02*
X287343D01*
Y392059D01*
X290500D01*
Y394429D01*
D02*
G37*
G36*
X366057Y416358D02*
X353814D01*
Y398210D01*
X357437D01*
Y395642D01*
X357419Y395611D01*
X357236Y394924D01*
Y394213D01*
X357419Y393527D01*
X357775Y392911D01*
X358278Y392408D01*
X358893Y392053D01*
X359580Y391869D01*
X360291D01*
X360978Y392053D01*
X361593Y392408D01*
X362096Y392911D01*
X362452Y393527D01*
X362635Y394213D01*
Y394924D01*
X362452Y395611D01*
X362434Y395642D01*
Y398210D01*
X366057D01*
Y416358D01*
D02*
G37*
G36*
X44150Y379150D02*
X40500D01*
Y375500D01*
X44150D01*
Y379150D01*
D02*
G37*
G36*
X39500D02*
X35850D01*
Y375500D01*
X39500D01*
Y379150D01*
D02*
G37*
G36*
X514150D02*
X510500D01*
Y375500D01*
X514150D01*
Y379150D01*
D02*
G37*
G36*
X509500D02*
X505850D01*
Y375500D01*
X509500D01*
Y379150D01*
D02*
G37*
G36*
X514150Y374500D02*
X510500D01*
Y370850D01*
X514150D01*
Y374500D01*
D02*
G37*
G36*
X509500D02*
X505850D01*
Y370850D01*
X509500D01*
Y374500D01*
D02*
G37*
G36*
X44150Y374500D02*
X40500D01*
Y370850D01*
X44150D01*
Y374500D01*
D02*
G37*
G36*
X39500D02*
X35850D01*
Y370850D01*
X39500D01*
Y374500D01*
D02*
G37*
G36*
X40546Y369150D02*
X40500D01*
Y365500D01*
X44150D01*
Y365546D01*
X43867Y366602D01*
X43321Y367548D01*
X42548Y368320D01*
X41602Y368867D01*
X40546Y369150D01*
D02*
G37*
G36*
X39500D02*
X39454D01*
X38398Y368867D01*
X37452Y368320D01*
X36680Y367548D01*
X36133Y366602D01*
X35850Y365546D01*
Y365500D01*
X39500D01*
Y369150D01*
D02*
G37*
G36*
X510546D02*
X510500D01*
Y365500D01*
X514150D01*
Y365546D01*
X513867Y366602D01*
X513320Y367548D01*
X512548Y368320D01*
X511602Y368867D01*
X510546Y369150D01*
D02*
G37*
G36*
X509500D02*
X509454D01*
X508398Y368867D01*
X507452Y368320D01*
X506679Y367548D01*
X506133Y366602D01*
X505850Y365546D01*
Y365500D01*
X509500D01*
Y369150D01*
D02*
G37*
G36*
X514150Y364500D02*
X510500D01*
Y360850D01*
X510546D01*
X511602Y361133D01*
X512548Y361680D01*
X513320Y362452D01*
X513867Y363398D01*
X514150Y364454D01*
Y364500D01*
D02*
G37*
G36*
X509500D02*
X505850D01*
Y364454D01*
X506133Y363398D01*
X506679Y362452D01*
X507452Y361680D01*
X508398Y361133D01*
X509454Y360850D01*
X509500D01*
Y364500D01*
D02*
G37*
G36*
X44150Y364500D02*
X40500D01*
Y360850D01*
X40546D01*
X41602Y361133D01*
X42548Y361680D01*
X43321Y362452D01*
X43867Y363398D01*
X44150Y364454D01*
Y364500D01*
D02*
G37*
G36*
X39500D02*
X35850D01*
Y364454D01*
X36133Y363398D01*
X36680Y362452D01*
X37452Y361680D01*
X38398Y361133D01*
X39454Y360850D01*
X39500D01*
Y364500D01*
D02*
G37*
G36*
X40546Y359150D02*
X40500D01*
Y355500D01*
X44150D01*
Y355546D01*
X43867Y356602D01*
X43321Y357548D01*
X42548Y358320D01*
X41602Y358867D01*
X40546Y359150D01*
D02*
G37*
G36*
X39500D02*
X39454D01*
X38398Y358867D01*
X37452Y358320D01*
X36680Y357548D01*
X36133Y356602D01*
X35850Y355546D01*
Y355500D01*
X39500D01*
Y359150D01*
D02*
G37*
G36*
X510546D02*
X510500D01*
Y355500D01*
X514150D01*
Y355546D01*
X513867Y356602D01*
X513320Y357548D01*
X512548Y358320D01*
X511602Y358867D01*
X510546Y359150D01*
D02*
G37*
G36*
X509500D02*
X509454D01*
X508398Y358867D01*
X507452Y358320D01*
X506679Y357548D01*
X506133Y356602D01*
X505850Y355546D01*
Y355500D01*
X509500D01*
Y359150D01*
D02*
G37*
G36*
X514150Y354500D02*
X510500D01*
Y350850D01*
X510546D01*
X511602Y351133D01*
X512548Y351679D01*
X513320Y352452D01*
X513867Y353398D01*
X514150Y354454D01*
Y354500D01*
D02*
G37*
G36*
X509500D02*
X505850D01*
Y354454D01*
X506133Y353398D01*
X506679Y352452D01*
X507452Y351679D01*
X508398Y351133D01*
X509454Y350850D01*
X509500D01*
Y354500D01*
D02*
G37*
G36*
X44150Y354500D02*
X40500D01*
Y350850D01*
X40546D01*
X41602Y351133D01*
X42548Y351679D01*
X43321Y352452D01*
X43867Y353398D01*
X44150Y354454D01*
Y354500D01*
D02*
G37*
G36*
X39500D02*
X35850D01*
Y354454D01*
X36133Y353398D01*
X36680Y352452D01*
X37452Y351679D01*
X38398Y351133D01*
X39454Y350850D01*
X39500D01*
Y354500D01*
D02*
G37*
%LPD*%
D11*
X19685Y846457D02*
G03*
X500Y826772I250J-19435D01*
G01*
X748032D02*
G03*
X727846Y846457I-19935J-250D01*
G01*
Y1000D02*
G03*
X748032Y19685I750J19435D01*
G01*
X500D02*
G03*
X19685Y1000I18935J250D01*
G01*
X748032Y374016D02*
Y826772D01*
X374016Y846457D02*
X728346D01*
X19685D02*
X374016D01*
X500Y472441D02*
Y826772D01*
X748032Y19685D02*
Y374016D01*
X374016Y1000D02*
X727846D01*
X500Y19685D02*
Y472441D01*
X19685Y1000D02*
X374016D01*
D14*
X358071Y760000D02*
D03*
X361614D02*
D03*
X365158D02*
D03*
X368701D02*
D03*
X372284D02*
D03*
X375827D02*
D03*
X379370D02*
D03*
X382913D02*
D03*
X386457D02*
D03*
X390000D02*
D03*
X393583D02*
D03*
X397126D02*
D03*
X400669D02*
D03*
X404213D02*
D03*
X407756D02*
D03*
D15*
X356854Y811925D02*
D03*
Y808382D02*
D03*
Y804839D02*
D03*
Y801295D02*
D03*
Y797713D02*
D03*
Y794169D02*
D03*
Y790626D02*
D03*
Y787083D02*
D03*
Y783539D02*
D03*
Y779996D02*
D03*
Y776413D02*
D03*
Y772870D02*
D03*
Y769327D02*
D03*
Y765784D02*
D03*
X408972D02*
D03*
Y769327D02*
D03*
Y772870D02*
D03*
Y776413D02*
D03*
Y779996D02*
D03*
Y783539D02*
D03*
Y787083D02*
D03*
Y790626D02*
D03*
Y794169D02*
D03*
Y797713D02*
D03*
Y801295D02*
D03*
Y804839D02*
D03*
Y808382D02*
D03*
Y811925D02*
D03*
D16*
X376668Y387500D02*
D03*
X292500Y437750D02*
D03*
X360269Y537500D02*
D03*
D17*
X356069Y520000D02*
D03*
X348982D02*
D03*
X343543Y310000D02*
D03*
X336457D02*
D03*
X93543Y125000D02*
D03*
X86457D02*
D03*
X546437Y135000D02*
D03*
X539350D02*
D03*
X438975Y512889D02*
D03*
X431889D02*
D03*
X542913Y540000D02*
D03*
X550000D02*
D03*
X542913Y559500D02*
D03*
X550000D02*
D03*
X538957Y114056D02*
D03*
X546043D02*
D03*
X86557Y112500D02*
D03*
X93644D02*
D03*
D18*
X292830Y516150D02*
D03*
X328657D02*
D03*
X292830Y533866D02*
D03*
X328657D02*
D03*
X337913Y298858D02*
D03*
X302087D02*
D03*
X337913Y281142D02*
D03*
X302087D02*
D03*
D19*
X342500Y561634D02*
D03*
Y553366D02*
D03*
X360000Y299646D02*
D03*
Y307913D02*
D03*
X437960Y323071D02*
D03*
Y314803D02*
D03*
X428700Y420634D02*
D03*
Y412366D02*
D03*
D20*
X320864Y551240D02*
D03*
X302593Y558819D02*
D03*
D21*
X320864Y547500D02*
D03*
Y543760D02*
D03*
X329136D02*
D03*
Y551240D02*
D03*
X302593Y555079D02*
D03*
Y551339D02*
D03*
X310864D02*
D03*
Y558819D02*
D03*
D22*
X342500Y539350D02*
D03*
Y545650D02*
D03*
X360000Y283150D02*
D03*
Y276850D02*
D03*
X428700Y435417D02*
D03*
Y429118D02*
D03*
D23*
X384874Y145000D02*
D03*
X377000D02*
D03*
X374874Y135000D02*
D03*
X367000D02*
D03*
D24*
X397000Y128799D02*
D03*
Y141201D02*
D03*
D25*
X451661Y321004D02*
D03*
X457960D02*
D03*
D26*
X461503Y307500D02*
D03*
X454417Y303760D02*
D03*
Y311240D02*
D03*
D27*
X359935Y431299D02*
D03*
Y407283D02*
D03*
D28*
X303500Y421372D02*
D03*
Y412317D02*
D03*
Y403262D02*
D03*
D29*
X328500Y412317D02*
D03*
D30*
X437960Y292067D02*
D03*
Y299941D02*
D03*
D31*
X334935Y392246D02*
D03*
Y386340D02*
D03*
X291000Y391559D02*
D03*
Y385653D02*
D03*
X450000Y834095D02*
D03*
Y840000D02*
D03*
X435000Y834095D02*
D03*
Y840000D02*
D03*
X468000Y423138D02*
D03*
Y417233D02*
D03*
D32*
X440413Y790000D02*
D03*
X446122D02*
D03*
X440413Y820000D02*
D03*
X446122D02*
D03*
D33*
X440000Y800000D02*
D03*
Y809842D02*
D03*
D34*
X450000Y467500D02*
D03*
X299000Y222500D02*
D03*
X300000Y467500D02*
D03*
X450000Y222500D02*
D03*
Y362500D02*
D03*
D35*
X447921Y421835D02*
D03*
Y414354D02*
D03*
X455401Y418094D02*
D03*
D36*
X410038Y552889D02*
D03*
X394290D02*
D03*
D58*
X330008Y811925D02*
X356854D01*
X429619Y811474D02*
X433012Y814867D01*
X409423Y811474D02*
X429619D01*
X408972Y811925D02*
X409423Y811474D01*
X293000Y437250D02*
X306847D01*
X292500Y437750D02*
X293000Y437250D01*
X405000Y635000D02*
X490537D01*
X452500Y800000D02*
X487500D01*
X474478Y742287D02*
X615213D01*
X482500Y735000D02*
X490537D01*
X615213Y742287D02*
X620000Y737500D01*
X262500Y769327D02*
X262906D01*
X263579Y770000D01*
X307500D01*
X360695Y561634D02*
X371391D01*
X350000D02*
X360695D01*
X360269Y537500D02*
Y561207D01*
X360695Y561634D01*
X341084Y522066D02*
X343074Y520077D01*
X315547Y522066D02*
X341084D01*
X343074Y520077D02*
X348905D01*
X348982Y520000D01*
X309630Y516150D02*
X315547Y522066D01*
X303500Y516150D02*
X309630D01*
X438012Y412366D02*
X440000Y414354D01*
X447921D01*
X428700Y412366D02*
X438012D01*
X428700Y420634D02*
Y429118D01*
X410038Y532641D02*
Y552889D01*
X140205Y485053D02*
X509947D01*
X342500Y561634D02*
X350000D01*
X329136Y543760D02*
X336171D01*
X342500Y545650D02*
Y553366D01*
X312803Y545000D02*
X315303Y547500D01*
X320864D01*
X312500Y545000D02*
X312803D01*
X315000Y512500D02*
Y516150D01*
Y512500D02*
X317500Y510000D01*
X371391D01*
X374280Y512889D02*
X431889D01*
X371391Y510000D02*
X374280Y512889D01*
X430038Y515428D02*
X431889Y513578D01*
Y512889D02*
Y513578D01*
X430038Y515428D02*
Y532641D01*
X302553Y555039D02*
X302593Y555079D01*
X292539Y555039D02*
X302553D01*
X292500Y555000D02*
X292539Y555039D01*
X292830Y516150D02*
X303500D01*
X310913Y551289D02*
X320815D01*
X310864Y551339D02*
X310913Y551289D01*
X320815D02*
X320864Y551240D01*
X282500Y558819D02*
X302593D01*
X282500Y492500D02*
X400000D01*
Y314803D02*
X437960D01*
X445000D01*
X448563Y311240D01*
X454417D01*
X437960Y299941D02*
Y314803D01*
X445000Y323071D02*
X447067Y321004D01*
X437960Y323071D02*
X445000D01*
X447067Y321004D02*
X451661D01*
X267500Y650000D02*
X272825D01*
X265000Y357500D02*
X360000D01*
X359935Y320000D02*
X360000Y319935D01*
Y307913D02*
Y319935D01*
Y283150D02*
Y299646D01*
X270000Y350000D02*
X330000D01*
Y310000D02*
X336457D01*
Y305000D02*
X337913Y303543D01*
X336457Y305000D02*
Y310000D01*
X337913Y298858D02*
Y303543D01*
X374874Y135000D02*
X375000Y134874D01*
Y125500D02*
Y134874D01*
X375000Y90000D02*
X510000D01*
X546437Y135000D02*
X609427D01*
X546437D02*
Y143563D01*
X546043Y114056D02*
X620000D01*
X545000Y145000D02*
X546437Y143563D01*
X384874Y145000D02*
X545000D01*
X377000D02*
Y165000D01*
X367000Y125906D02*
X367500Y125406D01*
X367000Y125906D02*
Y135000D01*
X367500Y125000D02*
Y125406D01*
X550000Y540000D02*
X569822D01*
X550000Y559500D02*
X560000D01*
X256090Y794687D02*
X260777Y790000D01*
X280000D01*
X217593Y794687D02*
X256090D01*
X215406Y792500D02*
X217593Y794687D01*
X215000Y792500D02*
X215406D01*
X468235Y705000D02*
X572500D01*
X466272Y706963D02*
X468235Y705000D01*
X443742Y706963D02*
X466272D01*
X440704Y710000D02*
X443742Y706963D01*
X337500Y710000D02*
X440704D01*
X440287Y704713D02*
X442757D01*
X465325Y704675D02*
X470000Y700000D01*
X442757Y704713D02*
X442794Y704675D01*
X465325D01*
X440000Y705000D02*
X440287Y704713D01*
X470000Y700000D02*
X570000D01*
X445000Y710000D02*
X470000D01*
X609463Y645537D02*
X610000Y645000D01*
X354485Y645537D02*
X609463D01*
X277500Y645325D02*
X354273D01*
X354485Y645537D01*
X429594Y642500D02*
X430000D01*
X429057Y643037D02*
X429594Y642500D01*
X272825Y650000D02*
X277500Y645325D01*
X280000Y780000D02*
X302500D01*
X292500Y745537D02*
X296075Y741963D01*
X320492D01*
X362764Y740093D02*
X406963D01*
X360143Y742713D02*
X362764Y740093D01*
X320492Y741963D02*
X321242Y742713D01*
X295127Y739675D02*
X322500D01*
X321242Y742713D02*
X360143D01*
X294802Y740000D02*
X295127Y739675D01*
X361614Y745537D02*
Y760000D01*
X406963Y740093D02*
X411360Y744490D01*
X280000Y740000D02*
X294802D01*
X310000Y745000D02*
X355571D01*
X358071Y747500D01*
X411360Y744490D02*
X472275D01*
X474478Y742287D01*
X470000Y750000D02*
X475425Y744575D01*
X584575D02*
X590000Y750000D01*
X475425Y744575D02*
X584575D01*
X470000Y740000D02*
X477500D01*
X482500Y735000D01*
X420000Y740000D02*
X470000D01*
X300000Y760000D02*
X312500D01*
X280000D02*
X300000D01*
Y672500D02*
X630000D01*
X381796Y615000D02*
X640000D01*
X376258Y609463D02*
X381796Y615000D01*
X355704Y605537D02*
X359630Y609463D01*
X262500Y605537D02*
X355704D01*
X359630Y609463D02*
X376258D01*
X410038Y610000D02*
X700000D01*
X360000Y605537D02*
X360269Y605269D01*
X684731D01*
X685000Y605000D01*
X262500Y750000D02*
X280000D01*
X375827Y725000D02*
X680000D01*
X370827Y730000D02*
X375827Y725000D01*
X327500Y730000D02*
X370827D01*
X372500Y720000D02*
X377500Y715000D01*
X332500Y720000D02*
X372500D01*
X377500Y715000D02*
X690000D01*
X280000Y710000D02*
X337500D01*
X355571Y650000D02*
X695000D01*
X148389Y642500D02*
X148926Y643037D01*
X100000Y642500D02*
X148389D01*
X148926Y643037D02*
X429057D01*
X195650Y640000D02*
X400000D01*
X120000Y635000D02*
X390000D01*
X400000Y640000D02*
X405000Y635000D01*
X320000Y630000D02*
X705000D01*
X205313Y595000D02*
X320269D01*
X442287Y597713D02*
X445000Y595000D01*
X320269D02*
X322981Y597713D01*
X130000Y600000D02*
X525000D01*
X322981Y597713D02*
X442287D01*
X340056Y594731D02*
X439770D01*
X340000Y594675D02*
X340056Y594731D01*
X439770D02*
X440038Y594463D01*
X445000Y595000D02*
X482500D01*
X470000Y730000D02*
X525000D01*
X450000Y720000D02*
X670000D01*
X470000Y710000D02*
X665000D01*
X470000Y680000D02*
X710000D01*
X435000D02*
X470000D01*
X310000Y625000D02*
X675000D01*
X470000Y690000D02*
X560000D01*
X110000Y620000D02*
X110537Y620537D01*
X386963D01*
X387500Y620000D01*
X420000D01*
X225000Y617500D02*
X380000D01*
X250000Y612500D02*
X370630D01*
X330000Y590000D02*
X450038D01*
X520000Y490000D02*
X590000D01*
X515400Y494600D02*
X520000Y490000D01*
X510400Y494600D02*
X515400D01*
X510000Y495000D02*
X510400Y494600D01*
X520000Y500000D02*
X580000D01*
X510400Y504600D02*
X515400D01*
X520000Y500000D01*
X510000Y505000D02*
X510400Y504600D01*
X515000Y510000D02*
X569822D01*
X510000Y515000D02*
X515000Y510000D01*
X510000Y525000D02*
X560000D01*
X510000Y70000D02*
X640000D01*
X510000Y80000D02*
X630000D01*
X510000Y90000D02*
X620000D01*
X510000Y100000D02*
X609427D01*
X509947Y485053D02*
X510000Y485000D01*
X140151Y485106D02*
X140205Y485053D01*
X145178Y820178D02*
X259822D01*
X145000Y820356D02*
X145178Y820178D01*
X259822D02*
X260000Y820000D01*
X86457Y132400D02*
X86557Y132500D01*
X86457Y125000D02*
Y132400D01*
X86507Y112550D02*
Y124950D01*
Y112550D02*
X86557Y112500D01*
X86457Y125000D02*
X86507Y124950D01*
X93644Y112500D02*
X110000D01*
X93543Y125000D02*
X100000D01*
X40000Y100000D02*
X100000D01*
X109427Y90000D02*
X110000Y89427D01*
X40000Y90000D02*
X109427D01*
X40000Y80000D02*
X119427D01*
X40000Y70000D02*
X129427D01*
X140000Y60000D02*
X510000D01*
X40000D02*
X140000D01*
X260000Y800000D02*
X280000D01*
X408972Y801295D02*
X416000D01*
X450000Y840000D02*
X460000D01*
X435000D02*
X450000D01*
X543091Y561407D02*
X543956Y560542D01*
X543091Y561407D02*
Y569822D01*
X543269Y570000D01*
X542913Y559500D02*
X543956Y560542D01*
X542913Y540000D02*
Y550000D01*
X394290Y543111D02*
X394901Y542500D01*
X394290Y543111D02*
Y552889D01*
X336171Y539478D02*
X336299Y539350D01*
X342500D01*
X329136Y551240D02*
X334814D01*
X310864Y558819D02*
X317216D01*
X343543Y310000D02*
X350000D01*
X461503Y307500D02*
X467500D01*
X437960Y292067D02*
X447933D01*
X539153Y114253D02*
Y134803D01*
X539350Y135000D01*
X538957Y114056D02*
X539153Y114253D01*
X332906Y715000D02*
X333943Y716037D01*
X332500Y715000D02*
X332906D01*
X333943Y716037D02*
X368537D01*
Y745772D02*
X368619Y745854D01*
Y759918D01*
X365158Y750000D02*
Y760000D01*
X327500Y725000D02*
X365000D01*
X320000Y735000D02*
X320406D01*
X321193Y735787D02*
X361614D01*
X320406Y735000D02*
X321193Y735787D01*
X440000Y800000D02*
X440413Y799587D01*
Y790000D02*
Y799587D01*
X437500Y790000D02*
X440413D01*
X433331Y794169D02*
X437500Y790000D01*
X425000Y794169D02*
X433331D01*
X430000Y807461D02*
X432382Y809842D01*
X440000D01*
X430000Y800303D02*
Y807461D01*
X427500Y797803D02*
X430000Y800303D01*
X427500Y797500D02*
Y797803D01*
X440000Y809842D02*
X440413Y810256D01*
Y820000D01*
X432382Y765784D02*
X435000Y763165D01*
Y769327D02*
X435287Y769614D01*
X469614D01*
X408972Y765784D02*
X432382D01*
X438953Y690000D02*
X470000D01*
X415000Y697500D02*
X431453D01*
X438953Y690000D01*
X439057Y700537D02*
X439594Y700000D01*
X440000D01*
X405000D02*
X410563D01*
X411101Y700537D01*
X439057D01*
X402500Y692500D02*
X430000D01*
X408972Y769327D02*
X415000D01*
X408972Y772870D02*
X440000D01*
X408972Y776413D02*
X445000D01*
X408972Y779996D02*
X450000D01*
X457500Y730000D02*
X470000D01*
X408972Y783539D02*
X456461D01*
X408972Y787083D02*
X420000D01*
X430000Y750000D02*
X470000D01*
X408972Y790626D02*
X430000D01*
X425000Y760000D02*
X470000D01*
X408972Y794169D02*
X425000D01*
X469614Y769614D02*
X470000Y770000D01*
X408972Y797713D02*
X427287D01*
X408972Y804839D02*
X425000D01*
X408972Y808382D02*
X420000D01*
X404213Y748091D02*
Y760000D01*
X400669Y743799D02*
Y760000D01*
X397500Y687500D02*
X420000D01*
X397126Y747874D02*
Y760000D01*
X395000Y682500D02*
X410000D01*
X393583Y744547D02*
Y760000D01*
X390000Y677500D02*
X400000D01*
X390000Y747500D02*
Y760000D01*
X386457Y743957D02*
Y760000D01*
X382913Y747303D02*
Y760000D01*
X370630Y683130D02*
X379370D01*
Y743130D02*
Y760000D01*
X360000Y687500D02*
X360827Y688327D01*
X375827D01*
Y751673D02*
Y760000D01*
X342870Y695000D02*
X372500D01*
X372284Y745217D02*
Y760000D01*
X358071Y747500D02*
Y760000D01*
X280000Y680000D02*
X350000D01*
X350783Y765784D02*
X356854D01*
X280000Y690000D02*
X347500D01*
Y769327D02*
X356854D01*
X280000Y700000D02*
X342500D01*
Y772500D02*
X342870Y772870D01*
X356854D01*
X337500Y776413D02*
X356854D01*
X280000Y720000D02*
X332500D01*
Y779996D02*
X356854D01*
X280000Y730000D02*
X327500D01*
Y783539D02*
X356854D01*
X322500Y787083D02*
X356854D01*
X280000Y750000D02*
X317500D01*
Y790000D02*
X318126Y790626D01*
X356854D01*
X312500Y794169D02*
X356854D01*
X307713Y797713D02*
X356854D01*
X302500Y800000D02*
X303795Y801295D01*
X356854D01*
X297500Y790000D02*
Y805000D01*
X280000Y800000D02*
X292500D01*
X297581Y804919D02*
X356774D01*
X297500Y805000D02*
X297581Y804919D01*
X292500Y808382D02*
X356854D01*
D59*
X397000Y120635D02*
Y128799D01*
Y120635D02*
X397500Y120135D01*
Y120000D02*
Y120135D01*
X328478Y411042D02*
X338000D01*
X302547Y412317D02*
X328500D01*
X362405Y520000D02*
X362500Y519906D01*
X356069Y520000D02*
X362405D01*
X438975Y512889D02*
X444388D01*
X359935Y394569D02*
Y407283D01*
X334935Y392246D02*
X344609D01*
D60*
X397000Y141201D02*
X523701D01*
D61*
X470000Y810000D02*
D03*
X280000D02*
D03*
D62*
X470000Y800000D02*
D03*
Y790000D02*
D03*
Y780000D02*
D03*
Y770000D02*
D03*
Y760000D02*
D03*
Y750000D02*
D03*
Y740000D02*
D03*
Y730000D02*
D03*
Y720000D02*
D03*
Y710000D02*
D03*
Y700000D02*
D03*
Y690000D02*
D03*
Y680000D02*
D03*
X450000Y660000D02*
D03*
X440000D02*
D03*
X430000D02*
D03*
X420000D02*
D03*
X410000D02*
D03*
X400000D02*
D03*
X390000D02*
D03*
X380000D02*
D03*
X370000D02*
D03*
X360000D02*
D03*
X350000D02*
D03*
X340000D02*
D03*
X330000D02*
D03*
X320000D02*
D03*
X280000Y680000D02*
D03*
Y690000D02*
D03*
Y700000D02*
D03*
Y710000D02*
D03*
Y720000D02*
D03*
Y730000D02*
D03*
Y740000D02*
D03*
Y750000D02*
D03*
Y760000D02*
D03*
Y770000D02*
D03*
Y780000D02*
D03*
Y790000D02*
D03*
Y800000D02*
D03*
D63*
X377000Y165000D02*
D03*
X397000D02*
D03*
X387000D02*
D03*
X367000D02*
D03*
X357000D02*
D03*
X450038Y532641D02*
D03*
X440038D02*
D03*
X420038D02*
D03*
X430038D02*
D03*
X680000Y525000D02*
D03*
X700000D02*
D03*
X690000D02*
D03*
X670000D02*
D03*
X660000D02*
D03*
X680000Y100000D02*
D03*
X700000D02*
D03*
X690000D02*
D03*
X670000D02*
D03*
X660000D02*
D03*
X710000Y345000D02*
D03*
Y365000D02*
D03*
Y355000D02*
D03*
Y335000D02*
D03*
Y325000D02*
D03*
Y770000D02*
D03*
Y790000D02*
D03*
Y780000D02*
D03*
Y760000D02*
D03*
Y750000D02*
D03*
X510000Y495000D02*
D03*
Y515000D02*
D03*
Y505000D02*
D03*
Y485000D02*
D03*
Y475000D02*
D03*
Y770000D02*
D03*
Y790000D02*
D03*
Y780000D02*
D03*
Y760000D02*
D03*
Y750000D02*
D03*
Y70000D02*
D03*
Y90000D02*
D03*
Y80000D02*
D03*
Y60000D02*
D03*
Y50000D02*
D03*
Y345000D02*
D03*
Y365000D02*
D03*
Y355000D02*
D03*
Y335000D02*
D03*
Y325000D02*
D03*
X210000Y525000D02*
D03*
X230000D02*
D03*
X220000D02*
D03*
X200000D02*
D03*
X190000D02*
D03*
X240000Y770000D02*
D03*
Y790000D02*
D03*
Y780000D02*
D03*
Y760000D02*
D03*
Y750000D02*
D03*
X40000Y770000D02*
D03*
Y790000D02*
D03*
Y780000D02*
D03*
Y760000D02*
D03*
Y750000D02*
D03*
Y495000D02*
D03*
Y515000D02*
D03*
Y505000D02*
D03*
Y485000D02*
D03*
Y475000D02*
D03*
X240000Y345000D02*
D03*
Y365000D02*
D03*
Y355000D02*
D03*
Y335000D02*
D03*
Y325000D02*
D03*
X40000Y70000D02*
D03*
Y90000D02*
D03*
Y80000D02*
D03*
Y60000D02*
D03*
Y50000D02*
D03*
Y345000D02*
D03*
Y365000D02*
D03*
Y355000D02*
D03*
Y335000D02*
D03*
Y325000D02*
D03*
X210000Y100000D02*
D03*
X230000D02*
D03*
X220000D02*
D03*
X200000D02*
D03*
X190000D02*
D03*
D64*
X407000Y165000D02*
D03*
X410038Y532641D02*
D03*
X710000Y525000D02*
D03*
Y100000D02*
D03*
X240000Y525000D02*
D03*
Y100000D02*
D03*
D65*
X310000Y660000D02*
D03*
D66*
X710000Y375000D02*
D03*
Y800000D02*
D03*
X510000Y525000D02*
D03*
Y800000D02*
D03*
Y100000D02*
D03*
Y375000D02*
D03*
X240000Y800000D02*
D03*
X40000D02*
D03*
Y525000D02*
D03*
X240000Y375000D02*
D03*
X40000Y100000D02*
D03*
Y375000D02*
D03*
D67*
X330008Y811925D02*
D03*
X433012Y814867D02*
D03*
X306847Y437250D02*
D03*
X487500Y800000D02*
D03*
X490537Y635000D02*
D03*
Y735000D02*
D03*
X262500Y769327D02*
D03*
X372500Y485000D02*
D03*
X371391Y561634D02*
D03*
X350000D02*
D03*
X336171Y543760D02*
D03*
X312500Y545000D02*
D03*
X315000Y516150D02*
D03*
X292500Y555000D02*
D03*
X303500Y516150D02*
D03*
X282500Y558819D02*
D03*
Y492500D02*
D03*
X400000D02*
D03*
Y314803D02*
D03*
X267500Y650000D02*
D03*
X265000Y357500D02*
D03*
X360000D02*
D03*
X359935Y320000D02*
D03*
X270000Y350000D02*
D03*
X330000D02*
D03*
Y310000D02*
D03*
X375000Y125500D02*
D03*
X375000Y90000D02*
D03*
X620000Y114056D02*
D03*
X609427Y135000D02*
D03*
X397500Y120000D02*
D03*
X523701Y141201D02*
D03*
X367500Y125000D02*
D03*
X569822Y540000D02*
D03*
X560000Y559500D02*
D03*
X215000Y792500D02*
D03*
X572500Y705000D02*
D03*
X445000Y710000D02*
D03*
X610000Y645000D02*
D03*
X430000Y642500D02*
D03*
X292500Y779996D02*
D03*
Y745537D02*
D03*
X361614D02*
D03*
X322500Y739675D02*
D03*
X620000Y737500D02*
D03*
X300000Y760000D02*
D03*
Y672500D02*
D03*
X630000D02*
D03*
X640000Y615000D02*
D03*
X410038Y610000D02*
D03*
X262500Y605537D02*
D03*
Y750000D02*
D03*
X680000Y725000D02*
D03*
X690000Y715000D02*
D03*
X355571Y650000D02*
D03*
X695000D02*
D03*
X195650Y640000D02*
D03*
X205313Y595000D02*
D03*
X340000Y594675D02*
D03*
X360000Y605537D02*
D03*
X440038Y594463D02*
D03*
X482500Y595000D02*
D03*
X590000Y750000D02*
D03*
X525000Y730000D02*
D03*
Y600000D02*
D03*
X670000Y720000D02*
D03*
X665000Y710000D02*
D03*
X570000Y700000D02*
D03*
X560000Y690000D02*
D03*
X710000Y680000D02*
D03*
X100000Y642500D02*
D03*
X110000Y620000D02*
D03*
X420000D02*
D03*
X700000Y610000D02*
D03*
X120000Y635000D02*
D03*
X390000D02*
D03*
X225000Y617500D02*
D03*
X380000D02*
D03*
X250000Y612500D02*
D03*
X370630D02*
D03*
X685000Y605000D02*
D03*
X450038Y590000D02*
D03*
X330000D02*
D03*
X705000Y630000D02*
D03*
X320000D02*
D03*
X675000Y625000D02*
D03*
X310000D02*
D03*
X590000Y490000D02*
D03*
X580000Y500000D02*
D03*
X569822Y510000D02*
D03*
X560000Y525000D02*
D03*
X640000Y70000D02*
D03*
X630000Y80000D02*
D03*
X620000Y90000D02*
D03*
X609427Y100000D02*
D03*
X140151Y485106D02*
D03*
X145000Y820356D02*
D03*
X86557Y132500D02*
D03*
X110000Y112500D02*
D03*
X100000Y125000D02*
D03*
Y100000D02*
D03*
X110000Y89427D02*
D03*
X119427Y80000D02*
D03*
X130000Y600000D02*
D03*
X129427Y70000D02*
D03*
X140000Y60000D02*
D03*
X260000Y820000D02*
D03*
Y800000D02*
D03*
X338000Y411042D02*
D03*
X416000Y801295D02*
D03*
X460000Y840000D02*
D03*
X543269Y570000D02*
D03*
X542913Y550000D02*
D03*
X394901Y542500D02*
D03*
X336171Y539478D02*
D03*
X334814Y551240D02*
D03*
X317216Y558819D02*
D03*
X362500Y519906D02*
D03*
X444388Y512889D02*
D03*
X359935Y394569D02*
D03*
X344609Y392246D02*
D03*
X350000Y310000D02*
D03*
X467500Y307500D02*
D03*
X447933Y292067D02*
D03*
X539153Y125000D02*
D03*
X368537Y716037D02*
D03*
Y745772D02*
D03*
X365158Y750000D02*
D03*
X365000Y725000D02*
D03*
X361614Y735787D02*
D03*
X435000Y680000D02*
D03*
Y763165D02*
D03*
Y769327D02*
D03*
X415000Y697500D02*
D03*
Y769327D02*
D03*
X440000Y705000D02*
D03*
Y772870D02*
D03*
X445000Y776413D02*
D03*
X450000Y720000D02*
D03*
Y779996D02*
D03*
X457500Y730000D02*
D03*
X456461Y783539D02*
D03*
X420000Y740000D02*
D03*
Y787083D02*
D03*
X430000Y750000D02*
D03*
Y790626D02*
D03*
X425000Y760000D02*
D03*
Y794169D02*
D03*
X427500Y797500D02*
D03*
X425000Y804839D02*
D03*
X452500Y800000D02*
D03*
X420000Y808382D02*
D03*
X440000Y700000D02*
D03*
X405000D02*
D03*
X404213Y748091D02*
D03*
X430000Y692500D02*
D03*
X402500D02*
D03*
X400669Y743799D02*
D03*
X337500Y710000D02*
D03*
X420000Y687500D02*
D03*
X397500D02*
D03*
X397126Y747874D02*
D03*
X410000Y682500D02*
D03*
X395000D02*
D03*
X393583Y744547D02*
D03*
X400000Y677500D02*
D03*
X390000D02*
D03*
Y747500D02*
D03*
X386457Y743957D02*
D03*
X382913Y747303D02*
D03*
X370630Y683130D02*
D03*
X379370D02*
D03*
Y743130D02*
D03*
X360000Y687500D02*
D03*
X375827Y688327D02*
D03*
Y751673D02*
D03*
X342870Y695000D02*
D03*
X372500D02*
D03*
X372284Y745217D02*
D03*
X332500Y715000D02*
D03*
X327500Y725000D02*
D03*
X320000Y735000D02*
D03*
X310000Y745000D02*
D03*
X350000Y680000D02*
D03*
X350783Y765784D02*
D03*
X347500Y690000D02*
D03*
Y769327D02*
D03*
X342500Y700000D02*
D03*
Y772500D02*
D03*
X337500Y776413D02*
D03*
X332500Y720000D02*
D03*
Y779996D02*
D03*
X327500Y730000D02*
D03*
Y783539D02*
D03*
X322500Y787083D02*
D03*
X317500Y750000D02*
D03*
Y790000D02*
D03*
X312500Y760000D02*
D03*
Y794169D02*
D03*
X307500Y770000D02*
D03*
X307713Y797713D02*
D03*
X302500Y780000D02*
D03*
Y800000D02*
D03*
X297500Y790000D02*
D03*
X292500Y800000D02*
D03*
X297500Y805000D02*
D03*
X292500Y808382D02*
D03*
M02*
