M48
;Layer_Color=9474304
;FILE_FORMAT=2:5
INCH,LZ
;TYPE=PLATED
T1F00S00C0.01500
T2F00S00C0.03543
T3F00S00C0.04331
%
T01
X014Y006
X0539153Y0125
X0523701Y0141201
X0609427Y0135
X062Y0114056
Y009
X063Y008
X064Y007
X0609427Y01
X03975Y012
X0375Y01255
X03675Y0125
X0375Y009
X011Y0089427
X0119427Y008
X0129427Y007
X01Y01
X011Y01125
X01Y0125
X0086557Y01325
X027Y035
X0265Y03575
X033Y035
Y031
X035
X0359935Y032
X036Y03575
X04Y0314803
X0447933Y0292067
X04675Y03075
X0569822Y051
X058Y05
X059Y049
X056Y0525
X0444388Y0512889
X04Y04925
X03725Y0485
X03625Y0519906
X0359935Y0394569
X0344609Y0392246
X0338Y0411042
X0306847Y043725
X02825Y04925
X03035Y051615
X0315
X0140151Y0485106
X013Y06
X011Y062
X012Y0635
X01Y06425
X019565Y064
X0225Y06175
X025Y06125
X02625Y0605537
X02675Y065
X03Y06725
X031Y0625
X032Y063
X033Y059
X034Y0594675
X035Y0561634
X0334814Y055124
X0336171Y054376
Y0539478
X03125Y0545
X0317216Y0558819
X02925Y0555
X02825Y0558819
X0205313Y0595
X0355571Y065
X035Y068
X03475Y069
X036Y06875
X037063Y068313
X037937
X0375827Y0688327
X03975Y06875
X0395Y06825
X04Y06775
X039
X041Y06825
X042Y06875
X043Y06925
X0435Y068
X043Y06425
X042Y062
X0410038Y061
X038Y06175
X037063Y06125
X036Y0605537
X0371391Y0561634
X0394901Y05425
X0440038Y0594463
X0450038Y059
X04825Y0595
X0490537Y0635
X039
X04025Y06925
X056Y069
X063Y06725
X061Y0645
X064Y0615
X0525Y06
X0543269Y057
X0542913Y055
X056Y05595
X0569822Y054
X0685Y0605
X07Y061
X0705Y063
X0695Y065
X071Y068
X0675Y0625
X067Y072
X068Y0725
X069Y0715
X0665Y071
X062Y07375
X059Y075
X05725Y0705
X057Y07
X0525Y073
X0490537Y0735
X04575Y073
X045Y072
X0445Y071
X044Y0705
Y07
X0415Y06975
X0405Y07
X03725Y0695
X0368537Y0716037
X0365Y0725
X0361614Y0735787
Y0745537
X0368537Y0745772
X0372284Y0745217
X037937Y074313
X0382913Y0747303
X0386457Y0743957
X039Y07475
X0393583Y0744547
X0397126Y0747874
X0404213Y0748091
X0400669Y0743799
X042Y074
X043Y075
X0425Y076
X0435Y0763165
Y0769327
X044Y077287
X0445Y0776413
X045Y0779996
X0456461Y0783539
X04525Y08
X04275Y07975
X0425Y0794169
X043Y0790626
X042Y0787083
X0416Y0801295
X042Y0808382
X0425Y0804839
X0433012Y0814867
X046Y084
X04875Y08
X0415Y0769327
X0375827Y0751673
X0365158Y075
X0350783Y0765784
X03475Y0769327
X03425Y07725
X03375Y0776413
X03325Y0779996
X03275Y0783539
X03225Y0787083
X03175Y079
X03125Y0794169
X0307713Y0797713
X03025Y08
X02925
Y0808382
X02975Y0805
Y079
X03025Y078
X02925Y0779996
X03075Y077
X03125Y076
X03
X02925Y0745537
X031Y0745
X03175Y075
X03225Y0739675
X032Y0735
X03275Y073
Y0725
X03325Y072
Y0715
X03375Y071
X03425Y07
X034287Y0695
X0330008Y0811925
X026Y082
Y08
X02625Y0769327
Y075
X0215Y07925
X0145Y0820356
T02
X028Y068
Y069
X031Y066
X032
X033
X034
X035
X036
X037
X038
X039
X04
X041
X042
X043
X044
X045
X047Y068
Y069
Y07
Y071
Y072
Y073
Y074
Y075
Y076
Y077
Y078
Y079
Y08
Y081
X028
Y08
Y079
Y078
Y077
Y076
Y075
Y074
Y073
Y072
Y071
Y07
T03
X004Y005
Y006
X051
Y005
X067Y01
X068
X069
X07
X071
X066
X051
Y009
Y008
Y007
X0407Y0165
X0397
X0387
X0377
X0367
X0357
X024Y01
X023
X022
X021
X02
X019
X004
Y009
Y008
Y007
Y0325
Y0335
Y0345
Y0355
Y0365
Y0375
X024
Y0365
Y0355
Y0345
Y0335
Y0325
X051
Y0335
Y0345
Y0355
Y0365
Y0375
X071
Y0365
Y0355
Y0345
Y0335
Y0325
Y0525
X07
X069
X068
X067
X066
X051
Y0515
Y0505
Y0495
Y0485
Y0475
X0450038Y0532641
X0440038
X0430038
X0420038
X0410038
X024Y0525
X023
X022
X021
X02
X019
X004
Y0515
Y0505
Y0495
Y0485
Y0475
X071Y075
Y076
Y077
Y078
Y079
Y08
X051
Y079
Y078
Y077
Y076
Y075
X024
Y076
Y077
Y078
Y079
Y08
X004
Y079
Y078
Y077
Y076
Y075
M30
