G04*
G04 #@! TF.GenerationSoftware,Altium Limited,Altium Designer,22.10.1 (41)*
G04*
G04 Layer_Physical_Order=2*
G04 Layer_Color=16711680*
%FSLAX25Y25*%
%MOIN*%
G70*
G04*
G04 #@! TF.SameCoordinates,861FA483-057D-4AEF-8965-819BABE67C1D*
G04*
G04*
G04 #@! TF.FilePolarity,Positive*
G04*
G01*
G75*
%ADD11C,0.01000*%
%ADD58C,0.01500*%
%ADD59C,0.02500*%
%ADD60C,0.04000*%
%ADD61R,0.05906X0.05906*%
%ADD62C,0.05906*%
%ADD63C,0.06299*%
%ADD64R,0.06299X0.06299*%
%ADD65R,0.05906X0.05906*%
%ADD66R,0.06299X0.06299*%
%ADD67C,0.03000*%
G36*
X730475Y844591D02*
X732814Y844126D01*
X735071Y843360D01*
X737209Y842305D01*
X739191Y840981D01*
X740984Y839409D01*
X742556Y837617D01*
X743880Y835635D01*
X744935Y833496D01*
X745701Y831239D01*
X746166Y828901D01*
X746304Y826800D01*
X746298Y826772D01*
Y19761D01*
X746289Y19752D01*
X746289Y19752D01*
X746289Y19752D01*
X746182Y18120D01*
X745730Y15844D01*
X744984Y13647D01*
X743958Y11566D01*
X742669Y9637D01*
X741139Y7893D01*
X739394Y6363D01*
X737465Y5074D01*
X735384Y4048D01*
X733187Y3302D01*
X730912Y2849D01*
X728596Y2698D01*
X728383Y2712D01*
X727914Y2742D01*
X727424Y2733D01*
X727369Y2733D01*
X20160D01*
X19685Y2733D01*
X19662Y2729D01*
X19162Y2729D01*
X17187Y2859D01*
X14977Y3298D01*
X12844Y4023D01*
X10823Y5019D01*
X8950Y6271D01*
X7256Y7756D01*
X5771Y9450D01*
X4519Y11323D01*
X3523Y13344D01*
X2798Y15477D01*
X2359Y17687D01*
X2229Y19665D01*
X2233Y19685D01*
Y374016D01*
Y826295D01*
X2233Y826772D01*
X2229Y826794D01*
X2228Y827291D01*
X2362Y829335D01*
X2814Y831609D01*
X3560Y833805D01*
X4585Y835884D01*
X5873Y837812D01*
X7402Y839555D01*
X9145Y841084D01*
X11073Y842372D01*
X13152Y843397D01*
X15348Y844142D01*
X17621Y844595D01*
X19660Y844728D01*
X19685Y844723D01*
X19685Y844723D01*
X338383D01*
Y813146D01*
X338476Y812677D01*
X338741Y812280D01*
X339138Y812015D01*
X339606Y811922D01*
X426221D01*
X426689Y812015D01*
X427086Y812280D01*
X427351Y812677D01*
X427444Y813146D01*
Y844723D01*
X727846D01*
X727846Y844723D01*
X728346Y844723D01*
X728375Y844729D01*
X730475Y844591D01*
D02*
G37*
%LPC*%
G36*
X460750Y842395D02*
Y840750D01*
X462395D01*
X462119Y841416D01*
X461416Y842119D01*
X460750Y842395D01*
D02*
G37*
G36*
X459250D02*
X458584Y842119D01*
X457881Y841416D01*
X457605Y840750D01*
X459250D01*
Y842395D01*
D02*
G37*
G36*
X462395Y839250D02*
X460750D01*
Y837605D01*
X461416Y837881D01*
X462119Y838584D01*
X462395Y839250D01*
D02*
G37*
G36*
X459250D02*
X457605D01*
X457881Y838584D01*
X458584Y837881D01*
X459250Y837605D01*
Y839250D01*
D02*
G37*
G36*
X433367Y817568D02*
X432656D01*
X431970Y817383D01*
X431354Y817028D01*
X430851Y816525D01*
X430496Y815910D01*
X430312Y815223D01*
Y814512D01*
X430496Y813825D01*
X430851Y813210D01*
X431354Y812707D01*
X431970Y812352D01*
X432656Y812167D01*
X433367D01*
X434054Y812352D01*
X434670Y812707D01*
X435172Y813210D01*
X435528Y813825D01*
X435712Y814512D01*
Y815223D01*
X435528Y815910D01*
X435172Y816525D01*
X434670Y817028D01*
X434054Y817383D01*
X433367Y817568D01*
D02*
G37*
G36*
X330363Y814625D02*
X329653D01*
X328966Y814441D01*
X328350Y814086D01*
X327848Y813583D01*
X327492Y812967D01*
X327308Y812281D01*
Y811570D01*
X327492Y810883D01*
X327848Y810267D01*
X328350Y809765D01*
X328966Y809409D01*
X329653Y809225D01*
X330363D01*
X331050Y809409D01*
X331666Y809765D01*
X332169Y810267D01*
X332524Y810883D01*
X332708Y811570D01*
Y812281D01*
X332524Y812967D01*
X332169Y813583D01*
X331666Y814086D01*
X331050Y814441D01*
X330363Y814625D01*
D02*
G37*
G36*
X474153Y814153D02*
X465847D01*
Y805847D01*
X474153D01*
Y814153D01*
D02*
G37*
G36*
X284153D02*
X275847D01*
Y805847D01*
X284153D01*
Y814153D01*
D02*
G37*
G36*
X292856Y811082D02*
X292144D01*
X291458Y810898D01*
X290842Y810542D01*
X290339Y810040D01*
X289984Y809424D01*
X289800Y808737D01*
Y808026D01*
X289984Y807340D01*
X290339Y806724D01*
X290512Y806552D01*
Y801830D01*
X290339Y801658D01*
X289984Y801042D01*
X289800Y800356D01*
Y799645D01*
X289984Y798958D01*
X290339Y798342D01*
X290842Y797839D01*
X291458Y797484D01*
X292144Y797300D01*
X292856D01*
X293542Y797484D01*
X294158Y797839D01*
X294660Y798342D01*
X295016Y798958D01*
X295200Y799645D01*
Y800356D01*
X295016Y801042D01*
X294660Y801658D01*
X294488Y801830D01*
Y803876D01*
X294984Y803958D01*
X295339Y803342D01*
X295842Y802839D01*
X296458Y802484D01*
X297145Y802300D01*
X297855D01*
X298542Y802484D01*
X299158Y802839D01*
X299660Y803342D01*
X300016Y803958D01*
X300200Y804644D01*
Y805355D01*
X300016Y806042D01*
X299660Y806658D01*
X299158Y807160D01*
X298542Y807516D01*
X297855Y807700D01*
X297145D01*
X296458Y807516D01*
X295842Y807160D01*
X295339Y806658D01*
X295099Y806242D01*
X294582Y806346D01*
X294549Y806612D01*
X294660Y806724D01*
X295016Y807340D01*
X295200Y808026D01*
Y808737D01*
X295016Y809424D01*
X294660Y810040D01*
X294158Y810542D01*
X293542Y810898D01*
X292856Y811082D01*
D02*
G37*
G36*
X416750Y803691D02*
Y802045D01*
X418395D01*
X418119Y802711D01*
X417416Y803415D01*
X416750Y803691D01*
D02*
G37*
G36*
X415250D02*
X414584Y803415D01*
X413881Y802711D01*
X413605Y802045D01*
X415250D01*
Y803691D01*
D02*
G37*
G36*
X244150Y804150D02*
X240500D01*
Y800500D01*
X244150D01*
Y804150D01*
D02*
G37*
G36*
X714150D02*
X710500D01*
Y800500D01*
X714150D01*
Y804150D01*
D02*
G37*
G36*
X239500D02*
X235850D01*
Y800500D01*
X239500D01*
Y804150D01*
D02*
G37*
G36*
X709500D02*
X705850D01*
Y800500D01*
X709500D01*
Y804150D01*
D02*
G37*
G36*
X418395Y800545D02*
X416750D01*
Y798900D01*
X417416Y799176D01*
X418119Y799879D01*
X418395Y800545D01*
D02*
G37*
G36*
X415250D02*
X413605D01*
X413881Y799879D01*
X414584Y799176D01*
X415250Y798900D01*
Y800545D01*
D02*
G37*
G36*
X260355Y822700D02*
X259645D01*
X258958Y822516D01*
X258342Y822161D01*
X257839Y821658D01*
X257484Y821042D01*
X257300Y820356D01*
Y819645D01*
X257484Y818958D01*
X257839Y818342D01*
X258012Y818170D01*
Y801830D01*
X257839Y801658D01*
X257484Y801042D01*
X257300Y800356D01*
Y799645D01*
X257484Y798958D01*
X257839Y798342D01*
X258342Y797839D01*
X258958Y797484D01*
X259645Y797300D01*
X260355D01*
X261042Y797484D01*
X261658Y797839D01*
X262160Y798342D01*
X262516Y798958D01*
X262700Y799645D01*
Y800356D01*
X262516Y801042D01*
X262160Y801658D01*
X261988Y801830D01*
Y818170D01*
X262160Y818342D01*
X262516Y818958D01*
X262700Y819645D01*
Y820356D01*
X262516Y821042D01*
X262160Y821658D01*
X261658Y822161D01*
X261042Y822516D01*
X260355Y822700D01*
D02*
G37*
G36*
X714150Y799500D02*
X710500D01*
Y795850D01*
X714150D01*
Y799500D01*
D02*
G37*
G36*
X709500D02*
X705850D01*
Y795850D01*
X709500D01*
Y799500D01*
D02*
G37*
G36*
X244150D02*
X240500D01*
Y795850D01*
X244150D01*
Y799500D01*
D02*
G37*
G36*
X239500D02*
X235850D01*
Y795850D01*
X239500D01*
Y799500D01*
D02*
G37*
G36*
X470547Y804153D02*
X469453D01*
X468397Y803870D01*
X467450Y803323D01*
X466677Y802550D01*
X466130Y801603D01*
X465847Y800547D01*
Y799453D01*
X466130Y798397D01*
X466677Y797450D01*
X467450Y796677D01*
X468397Y796130D01*
X469453Y795847D01*
X470547D01*
X471603Y796130D01*
X472550Y796677D01*
X473323Y797450D01*
X473870Y798397D01*
X474153Y799453D01*
Y800547D01*
X473870Y801603D01*
X473323Y802550D01*
X472550Y803323D01*
X471603Y803870D01*
X470547Y804153D01*
D02*
G37*
G36*
X280547D02*
X279453D01*
X278397Y803870D01*
X277450Y803323D01*
X276677Y802550D01*
X276130Y801603D01*
X275847Y800547D01*
Y799453D01*
X276130Y798397D01*
X276677Y797450D01*
X277450Y796677D01*
X278397Y796130D01*
X279453Y795847D01*
X280547D01*
X281603Y796130D01*
X282550Y796677D01*
X283323Y797450D01*
X283870Y798397D01*
X284153Y799453D01*
Y800547D01*
X283870Y801603D01*
X283323Y802550D01*
X282550Y803323D01*
X281603Y803870D01*
X280547Y804153D01*
D02*
G37*
G36*
X302855Y802700D02*
X302145D01*
X301458Y802516D01*
X300842Y802160D01*
X300340Y801658D01*
X299984Y801042D01*
X299800Y800356D01*
Y799645D01*
X299984Y798958D01*
X300340Y798342D01*
X300512Y798170D01*
Y791124D01*
X300016Y791042D01*
X299660Y791658D01*
X299158Y792161D01*
X298542Y792516D01*
X297855Y792700D01*
X297145D01*
X296458Y792516D01*
X295842Y792161D01*
X295670Y791988D01*
X283647D01*
X283323Y792550D01*
X282550Y793323D01*
X281603Y793870D01*
X280547Y794153D01*
X279453D01*
X278397Y793870D01*
X277450Y793323D01*
X276677Y792550D01*
X276130Y791603D01*
X275847Y790547D01*
Y789453D01*
X276130Y788397D01*
X276677Y787450D01*
X277450Y786677D01*
X278397Y786130D01*
X279453Y785847D01*
X280547D01*
X281603Y786130D01*
X282550Y786677D01*
X283323Y787450D01*
X283647Y788012D01*
X295670D01*
X295842Y787840D01*
X296458Y787484D01*
X297145Y787300D01*
X297855D01*
X298542Y787484D01*
X299158Y787840D01*
X299660Y788342D01*
X300016Y788958D01*
X300512Y788876D01*
Y781830D01*
X300340Y781658D01*
X299984Y781042D01*
X299800Y780356D01*
Y779644D01*
X299984Y778958D01*
X300340Y778342D01*
X300842Y777840D01*
X301458Y777484D01*
X302145Y777300D01*
X302855D01*
X303542Y777484D01*
X304158Y777840D01*
X304661Y778342D01*
X305016Y778958D01*
X305118Y779339D01*
X305618Y779273D01*
Y771937D01*
X305340Y771658D01*
X304984Y771042D01*
X304800Y770356D01*
Y769644D01*
X304984Y768958D01*
X305340Y768342D01*
X305842Y767839D01*
X306458Y767484D01*
X307144Y767300D01*
X307856D01*
X308542Y767484D01*
X309158Y767839D01*
X309661Y768342D01*
X310016Y768958D01*
X310512Y768876D01*
Y761830D01*
X310339Y761658D01*
X309984Y761042D01*
X309800Y760356D01*
Y759645D01*
X309984Y758958D01*
X310339Y758342D01*
X310842Y757839D01*
X311458Y757484D01*
X312144Y757300D01*
X312856D01*
X313542Y757484D01*
X314158Y757839D01*
X314661Y758342D01*
X315016Y758958D01*
X315512Y758876D01*
Y751830D01*
X315339Y751658D01*
X314984Y751042D01*
X314800Y750355D01*
Y749645D01*
X314984Y748958D01*
X315339Y748342D01*
X315842Y747839D01*
X316458Y747484D01*
X317144Y747300D01*
X317856D01*
X318542Y747484D01*
X319158Y747839D01*
X319660Y748342D01*
X320016Y748958D01*
X320512Y748876D01*
Y741505D01*
X320339Y741333D01*
X319984Y740717D01*
X319800Y740031D01*
Y739320D01*
X319984Y738633D01*
X320234Y738200D01*
X320011Y737734D01*
X319971Y737700D01*
X319644D01*
X318958Y737516D01*
X318342Y737160D01*
X317840Y736658D01*
X317484Y736042D01*
X317300Y735356D01*
Y734645D01*
X317484Y733958D01*
X317840Y733342D01*
X318012Y733170D01*
Y663647D01*
X317450Y663323D01*
X316677Y662550D01*
X316130Y661603D01*
X315847Y660547D01*
Y659453D01*
X316130Y658397D01*
X316677Y657450D01*
X317450Y656677D01*
X318012Y656353D01*
Y631830D01*
X317840Y631658D01*
X317484Y631042D01*
X317300Y630356D01*
Y629644D01*
X317484Y628958D01*
X317840Y628342D01*
X318342Y627840D01*
X318958Y627484D01*
X319644Y627300D01*
X320356D01*
X321042Y627484D01*
X321658Y627840D01*
X322161Y628342D01*
X322516Y628958D01*
X322700Y629644D01*
Y630356D01*
X322516Y631042D01*
X322161Y631658D01*
X321988Y631830D01*
Y656353D01*
X322550Y656677D01*
X323323Y657450D01*
X323870Y658397D01*
X324153Y659453D01*
Y660547D01*
X323870Y661603D01*
X323323Y662550D01*
X322550Y663323D01*
X321988Y663647D01*
Y733170D01*
X322161Y733342D01*
X322516Y733958D01*
X322700Y734645D01*
Y735356D01*
X322516Y736042D01*
X322266Y736475D01*
X322489Y736941D01*
X322529Y736975D01*
X322855D01*
X323542Y737159D01*
X324158Y737515D01*
X324660Y738017D01*
X325016Y738633D01*
X325512Y738552D01*
Y731830D01*
X325340Y731658D01*
X324984Y731042D01*
X324800Y730356D01*
Y729644D01*
X324984Y728958D01*
X325340Y728342D01*
X325842Y727840D01*
X325997Y727750D01*
Y727250D01*
X325842Y727161D01*
X325340Y726658D01*
X324984Y726042D01*
X324800Y725355D01*
Y724645D01*
X324984Y723958D01*
X325340Y723342D01*
X325842Y722839D01*
X326458Y722484D01*
X326923Y722359D01*
X327474Y721808D01*
Y663337D01*
X327450Y663323D01*
X326677Y662550D01*
X326130Y661603D01*
X325847Y660547D01*
Y659453D01*
X326130Y658397D01*
X326677Y657450D01*
X327450Y656677D01*
X328012Y656353D01*
Y591830D01*
X327839Y591658D01*
X327484Y591042D01*
X327300Y590355D01*
Y589644D01*
X327484Y588958D01*
X327839Y588342D01*
X328342Y587840D01*
X328958Y587484D01*
X329644Y587300D01*
X330356D01*
X331042Y587484D01*
X331658Y587840D01*
X332160Y588342D01*
X332516Y588958D01*
X332700Y589644D01*
Y590355D01*
X332516Y591042D01*
X332160Y591658D01*
X331988Y591830D01*
Y656353D01*
X332550Y656677D01*
X333323Y657450D01*
X333870Y658397D01*
X334153Y659453D01*
Y660547D01*
X333870Y661603D01*
X333323Y662550D01*
X332550Y663323D01*
X331603Y663870D01*
X331451Y663910D01*
Y665084D01*
X331913Y665275D01*
X336015Y661173D01*
X335847Y660547D01*
Y659453D01*
X336130Y658397D01*
X336677Y657450D01*
X337450Y656677D01*
X338012Y656353D01*
Y596505D01*
X337840Y596333D01*
X337484Y595717D01*
X337300Y595031D01*
Y594320D01*
X337484Y593633D01*
X337840Y593017D01*
X338342Y592515D01*
X338958Y592159D01*
X339645Y591975D01*
X340355D01*
X341042Y592159D01*
X341658Y592515D01*
X342161Y593017D01*
X342516Y593633D01*
X342700Y594320D01*
Y595031D01*
X342516Y595717D01*
X342161Y596333D01*
X341988Y596505D01*
Y656353D01*
X342550Y656677D01*
X343323Y657450D01*
X343870Y658397D01*
X344153Y659453D01*
Y660547D01*
X343870Y661603D01*
X343323Y662550D01*
X342550Y663323D01*
X341603Y663870D01*
X340547Y664153D01*
X339453D01*
X338827Y663985D01*
X334488Y668324D01*
Y708876D01*
X334984Y708958D01*
X335339Y708342D01*
X335842Y707839D01*
X336458Y707484D01*
X337144Y707300D01*
X337856D01*
X338542Y707484D01*
X339158Y707839D01*
X339661Y708342D01*
X340016Y708958D01*
X340512Y708876D01*
Y701830D01*
X340339Y701658D01*
X339984Y701042D01*
X339800Y700355D01*
Y699645D01*
X339984Y698958D01*
X340339Y698342D01*
X340842Y697839D01*
X341115Y697682D01*
X341163Y697425D01*
X341141Y697089D01*
X340709Y696658D01*
X340354Y696042D01*
X340170Y695356D01*
Y694644D01*
X340354Y693958D01*
X340709Y693342D01*
X340882Y693170D01*
Y674630D01*
X341033Y673869D01*
X341464Y673224D01*
X348012Y666677D01*
Y663647D01*
X347450Y663323D01*
X346677Y662550D01*
X346130Y661603D01*
X345847Y660547D01*
Y659453D01*
X346130Y658397D01*
X346677Y657450D01*
X347450Y656677D01*
X348397Y656130D01*
X349453Y655847D01*
X350547D01*
X351603Y656130D01*
X352550Y656677D01*
X353022Y657149D01*
X353522Y656942D01*
Y651769D01*
X353410Y651658D01*
X353055Y651042D01*
X352871Y650355D01*
Y649645D01*
X353055Y648958D01*
X353410Y648342D01*
X353913Y647839D01*
X354529Y647484D01*
X355215Y647300D01*
X355926D01*
X356613Y647484D01*
X357229Y647839D01*
X357512Y648123D01*
X358012Y647915D01*
Y607368D01*
X357839Y607195D01*
X357484Y606580D01*
X357300Y605893D01*
Y605182D01*
X357484Y604495D01*
X357839Y603880D01*
X358342Y603377D01*
X358958Y603021D01*
X359645Y602837D01*
X360355D01*
X361042Y603021D01*
X361658Y603377D01*
X362160Y603880D01*
X362516Y604495D01*
X362700Y605182D01*
Y605893D01*
X362516Y606580D01*
X362160Y607195D01*
X361988Y607368D01*
Y656353D01*
X362550Y656677D01*
X363323Y657450D01*
X363870Y658397D01*
X364153Y659453D01*
Y660547D01*
X363870Y661603D01*
X363323Y662550D01*
X362550Y663323D01*
X361988Y663647D01*
Y685670D01*
X362160Y685842D01*
X362516Y686458D01*
X362700Y687145D01*
Y687855D01*
X362516Y688542D01*
X362160Y689158D01*
X361658Y689661D01*
X361042Y690016D01*
X360355Y690200D01*
X359645D01*
X358958Y690016D01*
X358342Y689661D01*
X357839Y689158D01*
X357484Y688542D01*
X357300Y687855D01*
Y687145D01*
X357484Y686458D01*
X357839Y685842D01*
X358012Y685670D01*
Y664131D01*
X357998Y664123D01*
X357498Y664412D01*
Y674490D01*
X357347Y675251D01*
X356916Y675896D01*
X352700Y680112D01*
Y680356D01*
X352692Y680384D01*
X352772Y680784D01*
Y763953D01*
X352944Y764126D01*
X353299Y764741D01*
X353484Y765428D01*
Y766139D01*
X353299Y766826D01*
X352944Y767441D01*
X352441Y767944D01*
X351826Y768299D01*
X351139Y768483D01*
X350587D01*
X350175Y768879D01*
X350200Y768971D01*
Y769682D01*
X350016Y770369D01*
X349660Y770985D01*
X349158Y771487D01*
X348542Y771843D01*
X347855Y772027D01*
X347145D01*
X346458Y771843D01*
X345842Y771487D01*
X345339Y770985D01*
X345245Y770821D01*
X344712Y770898D01*
X344706Y770921D01*
X345016Y771458D01*
X345200Y772145D01*
Y772856D01*
X345016Y773542D01*
X344660Y774158D01*
X344158Y774660D01*
X343542Y775016D01*
X342856Y775200D01*
X342144D01*
X341458Y775016D01*
X340842Y774660D01*
X340339Y774158D01*
X339984Y773542D01*
X339488Y773624D01*
Y774583D01*
X339661Y774755D01*
X340016Y775371D01*
X340200Y776058D01*
Y776769D01*
X340016Y777456D01*
X339661Y778071D01*
X339158Y778574D01*
X338542Y778929D01*
X337856Y779113D01*
X337144D01*
X336458Y778929D01*
X335842Y778574D01*
X335339Y778071D01*
X334984Y777456D01*
X334488Y777537D01*
Y778166D01*
X334661Y778338D01*
X335016Y778954D01*
X335200Y779641D01*
Y780351D01*
X335016Y781038D01*
X334661Y781654D01*
X334158Y782157D01*
X333542Y782512D01*
X332856Y782696D01*
X332144D01*
X331458Y782512D01*
X330842Y782157D01*
X330340Y781654D01*
X329984Y781038D01*
X329488Y781120D01*
Y781709D01*
X329661Y781882D01*
X330016Y782497D01*
X330200Y783184D01*
Y783895D01*
X330016Y784582D01*
X329661Y785197D01*
X329158Y785700D01*
X328542Y786055D01*
X327855Y786239D01*
X327145D01*
X326458Y786055D01*
X325842Y785700D01*
X325340Y785197D01*
X324984Y784582D01*
X324488Y784663D01*
Y785253D01*
X324660Y785425D01*
X325016Y786040D01*
X325200Y786727D01*
Y787438D01*
X325016Y788125D01*
X324660Y788740D01*
X324158Y789243D01*
X323542Y789599D01*
X322855Y789783D01*
X322145D01*
X321458Y789599D01*
X320842Y789243D01*
X320525Y788926D01*
X320077Y789185D01*
X320200Y789644D01*
Y790355D01*
X320016Y791042D01*
X319660Y791658D01*
X319158Y792161D01*
X318542Y792516D01*
X317856Y792700D01*
X317144D01*
X316458Y792516D01*
X315842Y792161D01*
X315339Y791658D01*
X314984Y791042D01*
X314488Y791124D01*
Y792339D01*
X314661Y792511D01*
X315016Y793127D01*
X315200Y793814D01*
Y794525D01*
X315016Y795211D01*
X314661Y795827D01*
X314158Y796330D01*
X313542Y796685D01*
X312856Y796869D01*
X312144D01*
X311458Y796685D01*
X310842Y796330D01*
X310369Y795857D01*
X310209Y795856D01*
X309828Y795942D01*
X309814Y795996D01*
X309873Y796055D01*
X310229Y796670D01*
X310413Y797357D01*
Y798068D01*
X310229Y798755D01*
X309873Y799370D01*
X309370Y799873D01*
X308755Y800229D01*
X308068Y800413D01*
X307357D01*
X306670Y800229D01*
X306055Y799873D01*
X305678Y799496D01*
X305397Y799583D01*
X305200Y799725D01*
Y800356D01*
X305016Y801042D01*
X304661Y801658D01*
X304158Y802160D01*
X303542Y802516D01*
X302855Y802700D01*
D02*
G37*
G36*
X240546Y794150D02*
X240500D01*
Y790500D01*
X244150D01*
Y790546D01*
X243867Y791602D01*
X243320Y792548D01*
X242548Y793321D01*
X241602Y793867D01*
X240546Y794150D01*
D02*
G37*
G36*
X710546D02*
X710500D01*
Y790500D01*
X714150D01*
Y790546D01*
X713867Y791602D01*
X713320Y792548D01*
X712548Y793321D01*
X711602Y793867D01*
X710546Y794150D01*
D02*
G37*
G36*
X239500D02*
X239454D01*
X238398Y793867D01*
X237452Y793321D01*
X236680Y792548D01*
X236133Y791602D01*
X235850Y790546D01*
Y790500D01*
X239500D01*
Y794150D01*
D02*
G37*
G36*
X709500D02*
X709454D01*
X708398Y793867D01*
X707452Y793321D01*
X706679Y792548D01*
X706133Y791602D01*
X705850Y790546D01*
Y790500D01*
X709500D01*
Y794150D01*
D02*
G37*
G36*
X427855Y800200D02*
X427144D01*
X426458Y800016D01*
X425842Y799660D01*
X425340Y799158D01*
X424984Y798542D01*
X424800Y797856D01*
Y797145D01*
X424375Y796797D01*
X423958Y796685D01*
X423342Y796330D01*
X422839Y795827D01*
X422484Y795211D01*
X422300Y794525D01*
Y793814D01*
X422484Y793127D01*
X422839Y792511D01*
X423012Y792339D01*
Y788206D01*
X422516Y788125D01*
X422160Y788740D01*
X421658Y789243D01*
X421042Y789599D01*
X420356Y789783D01*
X419644D01*
X418958Y789599D01*
X418342Y789243D01*
X417839Y788740D01*
X417484Y788125D01*
X417300Y787438D01*
Y786727D01*
X417484Y786040D01*
X417839Y785425D01*
X418012Y785253D01*
Y770450D01*
X417516Y770369D01*
X417161Y770985D01*
X416658Y771487D01*
X416042Y771843D01*
X415355Y772027D01*
X414644D01*
X413958Y771843D01*
X413342Y771487D01*
X412840Y770985D01*
X412484Y770369D01*
X412300Y769682D01*
Y768971D01*
X412484Y768285D01*
X412840Y767669D01*
X413012Y767497D01*
Y699330D01*
X412840Y699158D01*
X412484Y698542D01*
X412300Y697856D01*
Y697145D01*
X412484Y696458D01*
X412840Y695842D01*
X413342Y695339D01*
X413958Y694984D01*
X414644Y694800D01*
X415355D01*
X416042Y694984D01*
X416658Y695339D01*
X417161Y695842D01*
X417516Y696458D01*
X417700Y697145D01*
Y697856D01*
X417516Y698542D01*
X417161Y699158D01*
X416988Y699330D01*
Y738876D01*
X417484Y738958D01*
X417839Y738342D01*
X418342Y737840D01*
X418958Y737484D01*
X419644Y737300D01*
X420356D01*
X421042Y737484D01*
X421658Y737840D01*
X422160Y738342D01*
X422516Y738958D01*
X422700Y739644D01*
Y740355D01*
X422516Y741042D01*
X422160Y741658D01*
X421988Y741830D01*
Y758876D01*
X422484Y758958D01*
X422839Y758342D01*
X423342Y757839D01*
X423958Y757484D01*
X424645Y757300D01*
X425355D01*
X426042Y757484D01*
X426658Y757839D01*
X427161Y758342D01*
X427516Y758958D01*
X428012Y758876D01*
Y751830D01*
X427840Y751658D01*
X427484Y751042D01*
X427300Y750355D01*
Y749645D01*
X427484Y748958D01*
X427840Y748342D01*
X428342Y747839D01*
X428958Y747484D01*
X429644Y747300D01*
X430356D01*
X431042Y747484D01*
X431658Y747839D01*
X432161Y748342D01*
X432516Y748958D01*
X433012Y748876D01*
Y693624D01*
X432516Y693542D01*
X432161Y694158D01*
X431658Y694661D01*
X431042Y695016D01*
X430356Y695200D01*
X429644D01*
X428958Y695016D01*
X428342Y694661D01*
X427840Y694158D01*
X427484Y693542D01*
X427300Y692856D01*
Y692144D01*
X427484Y691458D01*
X427840Y690842D01*
X428012Y690670D01*
Y663647D01*
X427450Y663323D01*
X426677Y662550D01*
X426130Y661603D01*
X425847Y660547D01*
Y659453D01*
X426130Y658397D01*
X426677Y657450D01*
X427450Y656677D01*
X428012Y656353D01*
Y644330D01*
X427840Y644158D01*
X427484Y643542D01*
X427300Y642856D01*
Y642144D01*
X427484Y641458D01*
X427840Y640842D01*
X428342Y640340D01*
X428958Y639984D01*
X429644Y639800D01*
X430356D01*
X431042Y639984D01*
X431658Y640340D01*
X432161Y640842D01*
X432516Y641458D01*
X432700Y642144D01*
Y642856D01*
X432516Y643542D01*
X432161Y644158D01*
X431988Y644330D01*
Y656353D01*
X432550Y656677D01*
X433323Y657450D01*
X433870Y658397D01*
X434153Y659453D01*
Y660547D01*
X433870Y661603D01*
X433323Y662550D01*
X432550Y663323D01*
X431988Y663647D01*
Y678876D01*
X432484Y678958D01*
X432839Y678342D01*
X433342Y677840D01*
X433958Y677484D01*
X434645Y677300D01*
X435356D01*
X436042Y677484D01*
X436658Y677840D01*
X437160Y678342D01*
X437516Y678958D01*
X438012Y678876D01*
Y663647D01*
X437450Y663323D01*
X436677Y662550D01*
X436130Y661603D01*
X435847Y660547D01*
Y659453D01*
X436130Y658397D01*
X436677Y657450D01*
X437450Y656677D01*
X438397Y656130D01*
X439453Y655847D01*
X440547D01*
X441603Y656130D01*
X442550Y656677D01*
X443323Y657450D01*
X443870Y658397D01*
X444153Y659453D01*
Y660547D01*
X443870Y661603D01*
X443323Y662550D01*
X442550Y663323D01*
X441988Y663647D01*
Y698170D01*
X442161Y698342D01*
X442516Y698958D01*
X442700Y699645D01*
Y700355D01*
X442516Y701042D01*
X442161Y701658D01*
X441658Y702161D01*
X441503Y702250D01*
Y702750D01*
X441658Y702840D01*
X442161Y703342D01*
X442516Y703958D01*
X442700Y704644D01*
Y705356D01*
X442516Y706042D01*
X442161Y706658D01*
X441988Y706830D01*
Y708876D01*
X442484Y708958D01*
X442839Y708342D01*
X443342Y707839D01*
X443958Y707484D01*
X444644Y707300D01*
X445356D01*
X446042Y707484D01*
X446658Y707839D01*
X447160Y708342D01*
X447516Y708958D01*
X447700Y709645D01*
Y710356D01*
X447516Y711042D01*
X447160Y711658D01*
X446988Y711830D01*
Y718876D01*
X447484Y718958D01*
X447839Y718342D01*
X448342Y717839D01*
X448958Y717484D01*
X449645Y717300D01*
X450355D01*
X451042Y717484D01*
X451658Y717839D01*
X452161Y718342D01*
X452516Y718958D01*
X452700Y719644D01*
Y720356D01*
X452516Y721042D01*
X452161Y721658D01*
X451988Y721830D01*
Y778166D01*
X452161Y778338D01*
X452516Y778954D01*
X452700Y779641D01*
Y780351D01*
X452516Y781038D01*
X452161Y781654D01*
X451658Y782157D01*
X451042Y782512D01*
X450355Y782696D01*
X449645D01*
X448958Y782512D01*
X448342Y782157D01*
X447839Y781654D01*
X447484Y781038D01*
X447300Y780351D01*
Y779641D01*
X447484Y778954D01*
X447839Y778338D01*
X448012Y778166D01*
Y777537D01*
X447516Y777456D01*
X447160Y778071D01*
X446658Y778574D01*
X446042Y778929D01*
X445356Y779113D01*
X444644D01*
X443958Y778929D01*
X443342Y778574D01*
X442839Y778071D01*
X442484Y777456D01*
X442300Y776769D01*
Y776058D01*
X442484Y775371D01*
X442839Y774755D01*
X443012Y774583D01*
Y773994D01*
X442516Y773912D01*
X442161Y774528D01*
X441658Y775031D01*
X441042Y775386D01*
X440355Y775570D01*
X439644D01*
X438958Y775386D01*
X438342Y775031D01*
X437840Y774528D01*
X437484Y773912D01*
X436988Y773994D01*
Y790000D01*
X436837Y790761D01*
X436406Y791406D01*
X430200Y797612D01*
Y797856D01*
X430016Y798542D01*
X429661Y799158D01*
X429158Y799660D01*
X428542Y800016D01*
X427855Y800200D01*
D02*
G37*
G36*
X714150Y789500D02*
X710500D01*
Y785850D01*
X710546D01*
X711602Y786133D01*
X712548Y786680D01*
X713320Y787452D01*
X713867Y788398D01*
X714150Y789454D01*
Y789500D01*
D02*
G37*
G36*
X709500D02*
X705850D01*
Y789454D01*
X706133Y788398D01*
X706679Y787452D01*
X707452Y786680D01*
X708398Y786133D01*
X709454Y785850D01*
X709500D01*
Y789500D01*
D02*
G37*
G36*
X244150D02*
X240500D01*
Y785850D01*
X240546D01*
X241602Y786133D01*
X242548Y786680D01*
X243320Y787452D01*
X243867Y788398D01*
X244150Y789454D01*
Y789500D01*
D02*
G37*
G36*
X239500D02*
X235850D01*
Y789454D01*
X236133Y788398D01*
X236680Y787452D01*
X237452Y786680D01*
X238398Y786133D01*
X239454Y785850D01*
X239500D01*
Y789500D01*
D02*
G37*
G36*
X420356Y811082D02*
X419644D01*
X418958Y810898D01*
X418342Y810542D01*
X417839Y810040D01*
X417484Y809424D01*
X417300Y808737D01*
Y808026D01*
X417484Y807340D01*
X417839Y806724D01*
X418342Y806221D01*
X418958Y805866D01*
X419644Y805682D01*
X420356D01*
X421042Y805866D01*
X421658Y806221D01*
X421816Y806380D01*
X422273Y806346D01*
X422508Y805922D01*
X422484Y805881D01*
X422300Y805194D01*
Y804483D01*
X422484Y803796D01*
X422839Y803181D01*
X423342Y802678D01*
X423958Y802323D01*
X424645Y802139D01*
X425355D01*
X426042Y802323D01*
X426658Y802678D01*
X426830Y802850D01*
X441838D01*
X456094Y788594D01*
X456739Y788163D01*
X457500Y788012D01*
X466353D01*
X466677Y787450D01*
X467450Y786677D01*
X468397Y786130D01*
X469453Y785847D01*
X470547D01*
X471603Y786130D01*
X472550Y786677D01*
X473323Y787450D01*
X473870Y788397D01*
X474153Y789453D01*
Y790547D01*
X473870Y791603D01*
X473323Y792550D01*
X472550Y793323D01*
X471603Y793870D01*
X470547Y794153D01*
X469453D01*
X468397Y793870D01*
X467450Y793323D01*
X466677Y792550D01*
X466353Y791988D01*
X458323D01*
X453332Y796980D01*
X453462Y797462D01*
X453542Y797484D01*
X454158Y797839D01*
X454661Y798342D01*
X455016Y798958D01*
X455200Y799645D01*
Y800356D01*
X455016Y801042D01*
X454661Y801658D01*
X454488Y801830D01*
Y805000D01*
X454337Y805761D01*
X453906Y806406D01*
X450524Y809788D01*
X449879Y810219D01*
X449118Y810370D01*
X421830D01*
X421658Y810542D01*
X421042Y810898D01*
X420356Y811082D01*
D02*
G37*
G36*
X710546Y784150D02*
X710500D01*
Y780500D01*
X714150D01*
Y780546D01*
X713867Y781602D01*
X713320Y782548D01*
X712548Y783321D01*
X711602Y783867D01*
X710546Y784150D01*
D02*
G37*
G36*
X470520Y783953D02*
X470500D01*
Y780500D01*
X473953D01*
Y780520D01*
X473683Y781526D01*
X473163Y782427D01*
X472427Y783163D01*
X471526Y783683D01*
X470520Y783953D01*
D02*
G37*
G36*
X240546Y784150D02*
X240500D01*
Y780500D01*
X244150D01*
Y780546D01*
X243867Y781602D01*
X243320Y782548D01*
X242548Y783321D01*
X241602Y783867D01*
X240546Y784150D01*
D02*
G37*
G36*
X469500Y783953D02*
X469480D01*
X468474Y783683D01*
X467573Y783163D01*
X466837Y782427D01*
X466317Y781526D01*
X466047Y780520D01*
Y780500D01*
X469500D01*
Y783953D01*
D02*
G37*
G36*
X709500Y784150D02*
X709454D01*
X708398Y783867D01*
X707452Y783321D01*
X706679Y782548D01*
X706133Y781602D01*
X705850Y780546D01*
Y780500D01*
X709500D01*
Y784150D01*
D02*
G37*
G36*
X239500D02*
X239454D01*
X238398Y783867D01*
X237452Y783321D01*
X236680Y782548D01*
X236133Y781602D01*
X235850Y780546D01*
Y780500D01*
X239500D01*
Y784150D01*
D02*
G37*
G36*
X473953Y779500D02*
X470500D01*
Y776047D01*
X470520D01*
X471526Y776317D01*
X472427Y776837D01*
X473163Y777573D01*
X473683Y778474D01*
X473953Y779480D01*
Y779500D01*
D02*
G37*
G36*
X469500D02*
X466047D01*
Y779480D01*
X466317Y778474D01*
X466837Y777573D01*
X467573Y776837D01*
X468474Y776317D01*
X469480Y776047D01*
X469500D01*
Y779500D01*
D02*
G37*
G36*
X714150D02*
X710500D01*
Y775850D01*
X710546D01*
X711602Y776133D01*
X712548Y776680D01*
X713320Y777452D01*
X713867Y778398D01*
X714150Y779454D01*
Y779500D01*
D02*
G37*
G36*
X709500D02*
X705850D01*
Y779454D01*
X706133Y778398D01*
X706679Y777452D01*
X707452Y776680D01*
X708398Y776133D01*
X709454Y775850D01*
X709500D01*
Y779500D01*
D02*
G37*
G36*
X244150D02*
X240500D01*
Y775850D01*
X240546D01*
X241602Y776133D01*
X242548Y776680D01*
X243320Y777452D01*
X243867Y778398D01*
X244150Y779454D01*
Y779500D01*
D02*
G37*
G36*
X239500D02*
X235850D01*
Y779454D01*
X236133Y778398D01*
X236680Y777452D01*
X237452Y776680D01*
X238398Y776133D01*
X239454Y775850D01*
X239500D01*
Y779500D01*
D02*
G37*
G36*
X280547Y784153D02*
X279453D01*
X278397Y783870D01*
X277450Y783323D01*
X276677Y782550D01*
X276130Y781603D01*
X275847Y780547D01*
Y779453D01*
X276130Y778397D01*
X276677Y777450D01*
X277450Y776677D01*
X278397Y776130D01*
X279453Y775847D01*
X280547D01*
X281603Y776130D01*
X282550Y776677D01*
X283323Y777450D01*
X283870Y778397D01*
X284153Y779453D01*
Y780547D01*
X283870Y781603D01*
X283323Y782550D01*
X282550Y783323D01*
X281603Y783870D01*
X280547Y784153D01*
D02*
G37*
G36*
X470547Y774153D02*
X469453D01*
X468397Y773870D01*
X467450Y773323D01*
X466677Y772550D01*
X466130Y771603D01*
X465847Y770547D01*
Y769453D01*
X466130Y768397D01*
X466677Y767450D01*
X467450Y766677D01*
X468397Y766130D01*
X469453Y765847D01*
X470547D01*
X471603Y766130D01*
X472550Y766677D01*
X473323Y767450D01*
X473870Y768397D01*
X474153Y769453D01*
Y770547D01*
X473870Y771603D01*
X473323Y772550D01*
X472550Y773323D01*
X471603Y773870D01*
X470547Y774153D01*
D02*
G37*
G36*
X280547D02*
X279453D01*
X278397Y773870D01*
X277450Y773323D01*
X276677Y772550D01*
X276130Y771603D01*
X275847Y770547D01*
Y769453D01*
X276130Y768397D01*
X276677Y767450D01*
X277450Y766677D01*
X278397Y766130D01*
X279453Y765847D01*
X280547D01*
X281603Y766130D01*
X282550Y766677D01*
X283323Y767450D01*
X283870Y768397D01*
X284153Y769453D01*
Y770547D01*
X283870Y771603D01*
X283323Y772550D01*
X282550Y773323D01*
X281603Y773870D01*
X280547Y774153D01*
D02*
G37*
G36*
X710573Y774350D02*
X709427D01*
X708321Y774053D01*
X707329Y773481D01*
X706520Y772671D01*
X705947Y771679D01*
X705650Y770573D01*
Y769427D01*
X705947Y768321D01*
X706520Y767329D01*
X707329Y766519D01*
X708321Y765947D01*
X709427Y765650D01*
X710573D01*
X711679Y765947D01*
X712671Y766519D01*
X713481Y767329D01*
X714053Y768321D01*
X714350Y769427D01*
Y770573D01*
X714053Y771679D01*
X713481Y772671D01*
X712671Y773481D01*
X711679Y774053D01*
X710573Y774350D01*
D02*
G37*
G36*
X240573D02*
X239427D01*
X238321Y774053D01*
X237329Y773481D01*
X236520Y772671D01*
X235947Y771679D01*
X235650Y770573D01*
Y769427D01*
X235947Y768321D01*
X236520Y767329D01*
X237329Y766519D01*
X238321Y765947D01*
X239427Y765650D01*
X240573D01*
X241679Y765947D01*
X242671Y766519D01*
X243480Y767329D01*
X244053Y768321D01*
X244350Y769427D01*
Y770573D01*
X244053Y771679D01*
X243480Y772671D01*
X242671Y773481D01*
X241679Y774053D01*
X240573Y774350D01*
D02*
G37*
G36*
X470547Y764153D02*
X469453D01*
X468397Y763870D01*
X467450Y763323D01*
X466677Y762550D01*
X466130Y761603D01*
X465847Y760547D01*
Y759453D01*
X466130Y758397D01*
X466677Y757450D01*
X467450Y756677D01*
X468397Y756130D01*
X469453Y755847D01*
X470547D01*
X471603Y756130D01*
X472550Y756677D01*
X473323Y757450D01*
X473870Y758397D01*
X474153Y759453D01*
Y760547D01*
X473870Y761603D01*
X473323Y762550D01*
X472550Y763323D01*
X471603Y763870D01*
X470547Y764153D01*
D02*
G37*
G36*
X280547D02*
X279453D01*
X278397Y763870D01*
X277450Y763323D01*
X276677Y762550D01*
X276130Y761603D01*
X275847Y760547D01*
Y759453D01*
X276130Y758397D01*
X276677Y757450D01*
X277450Y756677D01*
X278397Y756130D01*
X279453Y755847D01*
X280547D01*
X281603Y756130D01*
X282550Y756677D01*
X283323Y757450D01*
X283870Y758397D01*
X284153Y759453D01*
Y760547D01*
X283870Y761603D01*
X283323Y762550D01*
X282550Y763323D01*
X281603Y763870D01*
X280547Y764153D01*
D02*
G37*
G36*
X710573Y764350D02*
X709427D01*
X708321Y764053D01*
X707329Y763481D01*
X706520Y762671D01*
X705947Y761679D01*
X705650Y760573D01*
Y759427D01*
X705947Y758321D01*
X706520Y757329D01*
X707329Y756520D01*
X708321Y755947D01*
X709427Y755650D01*
X710573D01*
X711679Y755947D01*
X712671Y756520D01*
X713481Y757329D01*
X714053Y758321D01*
X714350Y759427D01*
Y760573D01*
X714053Y761679D01*
X713481Y762671D01*
X712671Y763481D01*
X711679Y764053D01*
X710573Y764350D01*
D02*
G37*
G36*
X510573D02*
X509427D01*
X508321Y764053D01*
X507329Y763481D01*
X506520Y762671D01*
X505947Y761679D01*
X505650Y760573D01*
Y759427D01*
X505947Y758321D01*
X506520Y757329D01*
X507329Y756520D01*
X508321Y755947D01*
X509427Y755650D01*
X510573D01*
X511679Y755947D01*
X512671Y756520D01*
X513481Y757329D01*
X514053Y758321D01*
X514350Y759427D01*
Y760573D01*
X514053Y761679D01*
X513481Y762671D01*
X512671Y763481D01*
X511679Y764053D01*
X510573Y764350D01*
D02*
G37*
G36*
X240573D02*
X239427D01*
X238321Y764053D01*
X237329Y763481D01*
X236520Y762671D01*
X235947Y761679D01*
X235650Y760573D01*
Y759427D01*
X235947Y758321D01*
X236520Y757329D01*
X237329Y756520D01*
X238321Y755947D01*
X239427Y755650D01*
X240573D01*
X241679Y755947D01*
X242671Y756520D01*
X243480Y757329D01*
X244053Y758321D01*
X244350Y759427D01*
Y760573D01*
X244053Y761679D01*
X243480Y762671D01*
X242671Y763481D01*
X241679Y764053D01*
X240573Y764350D01*
D02*
G37*
G36*
X40573D02*
X39427D01*
X38321Y764053D01*
X37329Y763481D01*
X36520Y762671D01*
X35947Y761679D01*
X35650Y760573D01*
Y759427D01*
X35947Y758321D01*
X36520Y757329D01*
X37329Y756520D01*
X38321Y755947D01*
X39427Y755650D01*
X40573D01*
X41679Y755947D01*
X42671Y756520D01*
X43481Y757329D01*
X44053Y758321D01*
X44350Y759427D01*
Y760573D01*
X44053Y761679D01*
X43481Y762671D01*
X42671Y763481D01*
X41679Y764053D01*
X40573Y764350D01*
D02*
G37*
G36*
X262856Y772027D02*
X262144D01*
X261458Y771843D01*
X260842Y771487D01*
X260339Y770985D01*
X259984Y770369D01*
X259800Y769682D01*
Y768971D01*
X259984Y768285D01*
X260339Y767669D01*
X260842Y767166D01*
X261458Y766811D01*
X262144Y766627D01*
X262388D01*
X265512Y763503D01*
Y751124D01*
X265016Y751042D01*
X264661Y751658D01*
X264158Y752161D01*
X263542Y752516D01*
X262856Y752700D01*
X262144D01*
X261458Y752516D01*
X260842Y752161D01*
X260339Y751658D01*
X259984Y751042D01*
X259800Y750355D01*
Y749645D01*
X259984Y748958D01*
X260339Y748342D01*
X260512Y748170D01*
Y607368D01*
X260339Y607195D01*
X259984Y606580D01*
X259800Y605893D01*
Y605182D01*
X259984Y604495D01*
X260339Y603880D01*
X260842Y603377D01*
X261458Y603021D01*
X262144Y602837D01*
X262856D01*
X263012Y602717D01*
Y359330D01*
X262840Y359158D01*
X262484Y358542D01*
X262300Y357856D01*
Y357144D01*
X262484Y356458D01*
X262840Y355842D01*
X263342Y355340D01*
X263958Y354984D01*
X264645Y354800D01*
X265355D01*
X266042Y354984D01*
X266658Y355340D01*
X267161Y355842D01*
X267516Y356458D01*
X268012Y356376D01*
Y351830D01*
X267840Y351658D01*
X267484Y351042D01*
X267300Y350356D01*
Y349644D01*
X267484Y348958D01*
X267840Y348342D01*
X268342Y347839D01*
X268958Y347484D01*
X269644Y347300D01*
X270356D01*
X271042Y347484D01*
X271658Y347839D01*
X272161Y348342D01*
X272516Y348958D01*
X272700Y349644D01*
Y350356D01*
X272516Y351042D01*
X272161Y351658D01*
X271988Y351830D01*
Y521879D01*
X274231Y524122D01*
X274662Y524767D01*
X274813Y525528D01*
Y692001D01*
X278827Y696015D01*
X279453Y695847D01*
X280547D01*
X281603Y696130D01*
X282550Y696677D01*
X283323Y697450D01*
X283870Y698397D01*
X284153Y699453D01*
Y700547D01*
X283870Y701603D01*
X283323Y702550D01*
X282550Y703323D01*
X281603Y703870D01*
X280547Y704153D01*
X279453D01*
X278397Y703870D01*
X277450Y703323D01*
X276677Y702550D01*
X276130Y701603D01*
X275847Y700547D01*
Y699453D01*
X276015Y698827D01*
X272988Y695799D01*
X272526Y695991D01*
Y736889D01*
X273648Y738012D01*
X276353D01*
X276677Y737450D01*
X277450Y736677D01*
X278397Y736130D01*
X279453Y735847D01*
X280547D01*
X281603Y736130D01*
X282550Y736677D01*
X283323Y737450D01*
X283870Y738397D01*
X284153Y739453D01*
Y740547D01*
X283870Y741603D01*
X283323Y742550D01*
X282550Y743323D01*
X281603Y743870D01*
X280547Y744153D01*
X279453D01*
X278397Y743870D01*
X277450Y743323D01*
X276677Y742550D01*
X276353Y741988D01*
X272825D01*
X272064Y741837D01*
X271419Y741406D01*
X269950Y739937D01*
X269488Y740128D01*
Y764327D01*
X269337Y765088D01*
X268906Y765733D01*
X265200Y769439D01*
Y769682D01*
X265016Y770369D01*
X264661Y770985D01*
X264158Y771487D01*
X263542Y771843D01*
X262856Y772027D01*
D02*
G37*
G36*
X376182Y754373D02*
X375471D01*
X374785Y754189D01*
X374169Y753834D01*
X373666Y753331D01*
X373311Y752715D01*
X373127Y752029D01*
Y751318D01*
X373311Y750631D01*
X373666Y750015D01*
X373839Y749843D01*
Y747936D01*
X373406Y747686D01*
X373326Y747732D01*
X372639Y747917D01*
X371928D01*
X371241Y747732D01*
X370703Y747422D01*
X370698Y747430D01*
X370195Y747933D01*
X369579Y748288D01*
X368893Y748472D01*
X368182D01*
X367932Y748405D01*
X367602Y748835D01*
X367673Y748958D01*
X367858Y749645D01*
Y750355D01*
X367673Y751042D01*
X367318Y751658D01*
X366815Y752161D01*
X366200Y752516D01*
X365513Y752700D01*
X364802D01*
X364115Y752516D01*
X363500Y752161D01*
X362997Y751658D01*
X362642Y751042D01*
X362457Y750355D01*
Y749645D01*
X362642Y748958D01*
X362917Y748480D01*
X362755Y748215D01*
X362594Y748072D01*
X362591Y748071D01*
X361970Y748237D01*
X361259D01*
X360572Y748053D01*
X359956Y747698D01*
X359454Y747195D01*
X359098Y746580D01*
X358914Y745893D01*
Y745182D01*
X359098Y744495D01*
X359454Y743880D01*
X359626Y743707D01*
Y737618D01*
X359454Y737445D01*
X359098Y736830D01*
X358914Y736143D01*
Y735432D01*
X359098Y734745D01*
X359454Y734130D01*
X359956Y733627D01*
X360572Y733271D01*
X361259Y733087D01*
X361970D01*
X362591Y733254D01*
X363027Y733059D01*
X363090Y733022D01*
Y726909D01*
X362840Y726658D01*
X362484Y726042D01*
X362300Y725355D01*
Y724645D01*
X362484Y723958D01*
X362840Y723342D01*
X363342Y722839D01*
X363958Y722484D01*
X364645Y722300D01*
X365355D01*
X366042Y722484D01*
X366116Y722527D01*
X366549Y722276D01*
Y717867D01*
X366376Y717695D01*
X366021Y717079D01*
X365837Y716393D01*
Y715682D01*
X366021Y714995D01*
X366376Y714379D01*
X366879Y713876D01*
X367495Y713521D01*
X368182Y713337D01*
X368893D01*
X369579Y713521D01*
X370012Y713771D01*
X370512Y713531D01*
Y696830D01*
X370339Y696658D01*
X369984Y696042D01*
X369800Y695356D01*
Y694644D01*
X369984Y693958D01*
X370339Y693342D01*
X370842Y692839D01*
X371458Y692484D01*
X372145Y692300D01*
X372855D01*
X373339Y692429D01*
X373839Y692129D01*
Y690157D01*
X373666Y689985D01*
X373311Y689369D01*
X373127Y688682D01*
Y687971D01*
X373311Y687285D01*
X373666Y686669D01*
X374169Y686166D01*
X374785Y685811D01*
X375471Y685627D01*
X376182D01*
X376869Y685811D01*
X376949Y685857D01*
X377382Y685607D01*
Y684960D01*
X377209Y684788D01*
X376854Y684172D01*
X376670Y683485D01*
Y682774D01*
X376854Y682088D01*
X377209Y681472D01*
X377712Y680969D01*
X378328Y680614D01*
X379015Y680430D01*
X379726D01*
X380412Y680614D01*
X380492Y680660D01*
X380925Y680410D01*
Y673737D01*
X378594Y671406D01*
X378163Y670761D01*
X378012Y670000D01*
Y663647D01*
X377450Y663323D01*
X376677Y662550D01*
X376130Y661603D01*
X375847Y660547D01*
Y659453D01*
X376130Y658397D01*
X376677Y657450D01*
X377450Y656677D01*
X378012Y656353D01*
Y619330D01*
X377839Y619158D01*
X377484Y618542D01*
X377300Y617856D01*
Y617144D01*
X377484Y616458D01*
X377839Y615842D01*
X378342Y615340D01*
X378958Y614984D01*
X379644Y614800D01*
X380356D01*
X381042Y614984D01*
X381658Y615340D01*
X382160Y615842D01*
X382516Y616458D01*
X382700Y617144D01*
Y617856D01*
X382516Y618542D01*
X382160Y619158D01*
X381988Y619330D01*
Y656353D01*
X382550Y656677D01*
X383323Y657450D01*
X383870Y658397D01*
X384153Y659453D01*
Y660547D01*
X383870Y661603D01*
X383323Y662550D01*
X382550Y663323D01*
X381988Y663647D01*
Y669176D01*
X384319Y671508D01*
X384595Y671920D01*
X384693Y671967D01*
X385180Y671997D01*
X385198Y671991D01*
X388012Y669176D01*
Y663647D01*
X387450Y663323D01*
X386677Y662550D01*
X386130Y661603D01*
X385847Y660547D01*
Y659453D01*
X386130Y658397D01*
X386677Y657450D01*
X387450Y656677D01*
X388012Y656353D01*
Y636830D01*
X387840Y636658D01*
X387484Y636042D01*
X387300Y635356D01*
Y634645D01*
X387484Y633958D01*
X387840Y633342D01*
X388342Y632839D01*
X388958Y632484D01*
X389645Y632300D01*
X390355D01*
X391042Y632484D01*
X391658Y632839D01*
X392161Y633342D01*
X392516Y633958D01*
X392700Y634645D01*
Y635356D01*
X392516Y636042D01*
X392161Y636658D01*
X391988Y636830D01*
Y656353D01*
X392550Y656677D01*
X393323Y657450D01*
X393870Y658397D01*
X394153Y659453D01*
Y660547D01*
X393870Y661603D01*
X393323Y662550D01*
X392550Y663323D01*
X391988Y663647D01*
Y670000D01*
X391837Y670761D01*
X391406Y671406D01*
X388491Y674320D01*
X388524Y674732D01*
X388629Y674793D01*
X388969Y674981D01*
X389645Y674800D01*
X390355D01*
X391042Y674984D01*
X391658Y675340D01*
X392161Y675842D01*
X392516Y676458D01*
X392700Y677144D01*
Y677855D01*
X392516Y678542D01*
X392161Y679158D01*
X391988Y679330D01*
Y681376D01*
X392484Y681458D01*
X392840Y680842D01*
X393342Y680339D01*
X393958Y679984D01*
X394644Y679800D01*
X395356D01*
X396042Y679984D01*
X396658Y680339D01*
X397161Y680842D01*
X397516Y681458D01*
X397700Y682144D01*
Y682856D01*
X397516Y683542D01*
X397161Y684158D01*
X396996Y684322D01*
X397083Y684603D01*
X397225Y684800D01*
X397855D01*
X398542Y684984D01*
X399158Y685339D01*
X399660Y685842D01*
X400016Y686458D01*
X400200Y687145D01*
Y687855D01*
X400016Y688542D01*
X399660Y689158D01*
X399158Y689661D01*
X399114Y689686D01*
Y691997D01*
X399614Y692267D01*
X399790Y692151D01*
X399808Y692115D01*
X399984Y691458D01*
X400340Y690842D01*
X400842Y690340D01*
X401458Y689984D01*
X402144Y689800D01*
X402855D01*
X403542Y689984D01*
X404158Y690340D01*
X404661Y690842D01*
X405016Y691458D01*
X405200Y692144D01*
Y692856D01*
X405016Y693542D01*
X404661Y694158D01*
X404158Y694661D01*
X403542Y695016D01*
X402855Y695200D01*
X402658D01*
Y697817D01*
X403158Y698024D01*
X403342Y697839D01*
X403958Y697484D01*
X404644Y697300D01*
X405356D01*
X406042Y697484D01*
X406658Y697839D01*
X407161Y698342D01*
X407516Y698958D01*
X407700Y699645D01*
Y700355D01*
X407516Y701042D01*
X407161Y701658D01*
X406658Y702161D01*
X406201Y702424D01*
Y746260D01*
X406373Y746433D01*
X406729Y747048D01*
X406913Y747735D01*
Y748446D01*
X406729Y749133D01*
X406373Y749748D01*
X405870Y750251D01*
X405255Y750606D01*
X404568Y750791D01*
X403857D01*
X403170Y750606D01*
X402555Y750251D01*
X402052Y749748D01*
X401697Y749133D01*
X401513Y748446D01*
Y747735D01*
X401697Y747048D01*
X401841Y746798D01*
X401512Y746369D01*
X401025Y746499D01*
X400314D01*
X399975Y746408D01*
X399642Y746832D01*
X399826Y747518D01*
Y748230D01*
X399642Y748916D01*
X399287Y749532D01*
X398784Y750035D01*
X398168Y750390D01*
X397481Y750574D01*
X396771D01*
X396084Y750390D01*
X395468Y750035D01*
X394966Y749532D01*
X394610Y748916D01*
X394426Y748230D01*
Y747634D01*
X394051Y747217D01*
X393938Y747247D01*
X393227D01*
X393200Y747240D01*
X392700Y747624D01*
Y747856D01*
X392516Y748542D01*
X392161Y749158D01*
X391658Y749660D01*
X391042Y750016D01*
X390355Y750200D01*
X389645D01*
X388958Y750016D01*
X388342Y749660D01*
X387840Y749158D01*
X387484Y748542D01*
X387300Y747856D01*
Y747145D01*
X387349Y746961D01*
X386996Y746607D01*
X386812Y746657D01*
X386101D01*
X385979Y746624D01*
X385613Y747044D01*
Y747659D01*
X385429Y748345D01*
X385074Y748961D01*
X384571Y749464D01*
X383956Y749819D01*
X383269Y750003D01*
X382558D01*
X381871Y749819D01*
X381256Y749464D01*
X380753Y748961D01*
X380397Y748345D01*
X380213Y747659D01*
Y746948D01*
X380397Y746261D01*
X380461Y746150D01*
X380132Y745721D01*
X379726Y745830D01*
X379015D01*
X378328Y745646D01*
X378248Y745600D01*
X377815Y745850D01*
Y749843D01*
X377987Y750015D01*
X378343Y750631D01*
X378527Y751318D01*
Y752029D01*
X378343Y752715D01*
X377987Y753331D01*
X377485Y753834D01*
X376869Y754189D01*
X376182Y754373D01*
D02*
G37*
G36*
X470547Y754153D02*
X469453D01*
X468397Y753870D01*
X467450Y753323D01*
X466677Y752550D01*
X466130Y751603D01*
X465847Y750547D01*
Y749453D01*
X466130Y748397D01*
X466677Y747450D01*
X467450Y746677D01*
X468397Y746130D01*
X469453Y745847D01*
X470547D01*
X471603Y746130D01*
X472550Y746677D01*
X473323Y747450D01*
X473870Y748397D01*
X474153Y749453D01*
Y750547D01*
X473870Y751603D01*
X473323Y752550D01*
X472550Y753323D01*
X471603Y753870D01*
X470547Y754153D01*
D02*
G37*
G36*
X280547D02*
X279453D01*
X278397Y753870D01*
X277450Y753323D01*
X276677Y752550D01*
X276130Y751603D01*
X275847Y750547D01*
Y749453D01*
X276130Y748397D01*
X276677Y747450D01*
X277450Y746677D01*
X278397Y746130D01*
X279453Y745847D01*
X280547D01*
X281603Y746130D01*
X282550Y746677D01*
X283323Y747450D01*
X283870Y748397D01*
X284153Y749453D01*
Y750547D01*
X283870Y751603D01*
X283323Y752550D01*
X282550Y753323D01*
X281603Y753870D01*
X280547Y754153D01*
D02*
G37*
G36*
X710573Y754350D02*
X709427D01*
X708321Y754053D01*
X707329Y753480D01*
X706520Y752671D01*
X705947Y751679D01*
X705650Y750573D01*
Y749427D01*
X705947Y748321D01*
X706520Y747329D01*
X707329Y746520D01*
X708321Y745947D01*
X709427Y745650D01*
X710573D01*
X711679Y745947D01*
X712671Y746520D01*
X713481Y747329D01*
X714053Y748321D01*
X714350Y749427D01*
Y750573D01*
X714053Y751679D01*
X713481Y752671D01*
X712671Y753480D01*
X711679Y754053D01*
X710573Y754350D01*
D02*
G37*
G36*
X510573D02*
X509427D01*
X508321Y754053D01*
X507329Y753480D01*
X506520Y752671D01*
X505947Y751679D01*
X505650Y750573D01*
Y749427D01*
X505947Y748321D01*
X506520Y747329D01*
X507329Y746520D01*
X508321Y745947D01*
X509427Y745650D01*
X510573D01*
X511679Y745947D01*
X512671Y746520D01*
X513481Y747329D01*
X514053Y748321D01*
X514350Y749427D01*
Y750573D01*
X514053Y751679D01*
X513481Y752671D01*
X512671Y753480D01*
X511679Y754053D01*
X510573Y754350D01*
D02*
G37*
G36*
X240573D02*
X239427D01*
X238321Y754053D01*
X237329Y753480D01*
X236520Y752671D01*
X235947Y751679D01*
X235650Y750573D01*
Y749427D01*
X235947Y748321D01*
X236520Y747329D01*
X237329Y746520D01*
X238321Y745947D01*
X239427Y745650D01*
X240573D01*
X241679Y745947D01*
X242671Y746520D01*
X243480Y747329D01*
X244053Y748321D01*
X244350Y749427D01*
Y750573D01*
X244053Y751679D01*
X243480Y752671D01*
X242671Y753480D01*
X241679Y754053D01*
X240573Y754350D01*
D02*
G37*
G36*
X40573D02*
X39427D01*
X38321Y754053D01*
X37329Y753480D01*
X36520Y752671D01*
X35947Y751679D01*
X35650Y750573D01*
Y749427D01*
X35947Y748321D01*
X36520Y747329D01*
X37329Y746520D01*
X38321Y745947D01*
X39427Y745650D01*
X40573D01*
X41679Y745947D01*
X42671Y746520D01*
X43481Y747329D01*
X44053Y748321D01*
X44350Y749427D01*
Y750573D01*
X44053Y751679D01*
X43481Y752671D01*
X42671Y753480D01*
X41679Y754053D01*
X40573Y754350D01*
D02*
G37*
G36*
X292856Y782696D02*
X292144D01*
X291458Y782512D01*
X290842Y782157D01*
X290339Y781654D01*
X289984Y781038D01*
X289800Y780351D01*
Y779641D01*
X289984Y778954D01*
X290339Y778338D01*
X290512Y778166D01*
Y747368D01*
X290339Y747195D01*
X289984Y746580D01*
X289800Y745893D01*
Y745182D01*
X289984Y744495D01*
X290339Y743880D01*
X290842Y743377D01*
X291458Y743021D01*
X292144Y742837D01*
X292856D01*
X293542Y743021D01*
X294158Y743377D01*
X294660Y743880D01*
X295016Y744495D01*
X295200Y745182D01*
Y745893D01*
X295016Y746580D01*
X294660Y747195D01*
X294488Y747368D01*
Y778166D01*
X294660Y778338D01*
X295016Y778954D01*
X295200Y779641D01*
Y780351D01*
X295016Y781038D01*
X294660Y781654D01*
X294158Y782157D01*
X293542Y782512D01*
X292856Y782696D01*
D02*
G37*
G36*
X470547Y744153D02*
X469453D01*
X468397Y743870D01*
X467450Y743323D01*
X466677Y742550D01*
X466130Y741603D01*
X465847Y740547D01*
Y739453D01*
X466130Y738397D01*
X466677Y737450D01*
X467450Y736677D01*
X468397Y736130D01*
X469453Y735847D01*
X470547D01*
X471603Y736130D01*
X472550Y736677D01*
X473323Y737450D01*
X473870Y738397D01*
X474153Y739453D01*
Y740547D01*
X473870Y741603D01*
X473323Y742550D01*
X472550Y743323D01*
X471603Y743870D01*
X470547Y744153D01*
D02*
G37*
G36*
X456816Y786239D02*
X456105D01*
X455418Y786055D01*
X454803Y785700D01*
X454300Y785197D01*
X453945Y784582D01*
X453761Y783895D01*
Y783184D01*
X453945Y782497D01*
X454300Y781882D01*
X454472Y781709D01*
Y731039D01*
X454624Y730278D01*
X454800Y730015D01*
Y729644D01*
X454984Y728958D01*
X455339Y728342D01*
X455842Y727840D01*
X456458Y727484D01*
X457144Y727300D01*
X457856D01*
X458542Y727484D01*
X459158Y727840D01*
X459660Y728342D01*
X460016Y728958D01*
X460200Y729644D01*
Y730356D01*
X460016Y731042D01*
X459660Y731658D01*
X459158Y732161D01*
X458542Y732516D01*
X458449Y732541D01*
Y781709D01*
X458621Y781882D01*
X458977Y782497D01*
X459161Y783184D01*
Y783895D01*
X458977Y784582D01*
X458621Y785197D01*
X458118Y785700D01*
X457503Y786055D01*
X456816Y786239D01*
D02*
G37*
G36*
X470547Y734153D02*
X469453D01*
X468397Y733870D01*
X467450Y733323D01*
X466677Y732550D01*
X466130Y731603D01*
X465847Y730547D01*
Y729453D01*
X466130Y728397D01*
X466677Y727450D01*
X467450Y726677D01*
X468397Y726130D01*
X469453Y725847D01*
X470547D01*
X471603Y726130D01*
X472550Y726677D01*
X473323Y727450D01*
X473870Y728397D01*
X474153Y729453D01*
Y730547D01*
X473870Y731603D01*
X473323Y732550D01*
X472550Y733323D01*
X471603Y733870D01*
X470547Y734153D01*
D02*
G37*
G36*
X280547D02*
X279453D01*
X278397Y733870D01*
X277450Y733323D01*
X276677Y732550D01*
X276130Y731603D01*
X275847Y730547D01*
Y729453D01*
X276130Y728397D01*
X276677Y727450D01*
X277450Y726677D01*
X278397Y726130D01*
X279453Y725847D01*
X280547D01*
X281603Y726130D01*
X282550Y726677D01*
X283323Y727450D01*
X283870Y728397D01*
X284153Y729453D01*
Y730547D01*
X283870Y731603D01*
X283323Y732550D01*
X282550Y733323D01*
X281603Y733870D01*
X280547Y734153D01*
D02*
G37*
G36*
X470547Y724153D02*
X469453D01*
X468397Y723870D01*
X467450Y723323D01*
X466677Y722550D01*
X466130Y721603D01*
X465847Y720547D01*
Y719453D01*
X466130Y718397D01*
X466677Y717450D01*
X467450Y716677D01*
X468397Y716130D01*
X469453Y715847D01*
X470547D01*
X471603Y716130D01*
X472550Y716677D01*
X473323Y717450D01*
X473870Y718397D01*
X474153Y719453D01*
Y720547D01*
X473870Y721603D01*
X473323Y722550D01*
X472550Y723323D01*
X471603Y723870D01*
X470547Y724153D01*
D02*
G37*
G36*
X280547D02*
X279453D01*
X278397Y723870D01*
X277450Y723323D01*
X276677Y722550D01*
X276130Y721603D01*
X275847Y720547D01*
Y719453D01*
X276130Y718397D01*
X276677Y717450D01*
X277450Y716677D01*
X278397Y716130D01*
X279453Y715847D01*
X280547D01*
X281603Y716130D01*
X282550Y716677D01*
X283323Y717450D01*
X283870Y718397D01*
X284153Y719453D01*
Y720547D01*
X283870Y721603D01*
X283323Y722550D01*
X282550Y723323D01*
X281603Y723870D01*
X280547Y724153D01*
D02*
G37*
G36*
X470547Y714153D02*
X469453D01*
X468397Y713870D01*
X467450Y713323D01*
X466677Y712550D01*
X466130Y711603D01*
X465847Y710547D01*
Y709453D01*
X466130Y708397D01*
X466677Y707450D01*
X467450Y706677D01*
X468397Y706130D01*
X469453Y705847D01*
X470547D01*
X471603Y706130D01*
X472550Y706677D01*
X473323Y707450D01*
X473870Y708397D01*
X474153Y709453D01*
Y710547D01*
X473870Y711603D01*
X473323Y712550D01*
X472550Y713323D01*
X471603Y713870D01*
X470547Y714153D01*
D02*
G37*
G36*
X280547D02*
X279453D01*
X278397Y713870D01*
X277450Y713323D01*
X276677Y712550D01*
X276130Y711603D01*
X275847Y710547D01*
Y709453D01*
X276130Y708397D01*
X276677Y707450D01*
X277450Y706677D01*
X278397Y706130D01*
X279453Y705847D01*
X280547D01*
X281603Y706130D01*
X282550Y706677D01*
X283323Y707450D01*
X283870Y708397D01*
X284153Y709453D01*
Y710547D01*
X283870Y711603D01*
X283323Y712550D01*
X282550Y713323D01*
X281603Y713870D01*
X280547Y714153D01*
D02*
G37*
G36*
X470547Y704153D02*
X469453D01*
X468397Y703870D01*
X467450Y703323D01*
X466677Y702550D01*
X466130Y701603D01*
X465847Y700547D01*
Y699453D01*
X466130Y698397D01*
X466677Y697450D01*
X467450Y696677D01*
X468397Y696130D01*
X469453Y695847D01*
X470547D01*
X471603Y696130D01*
X472550Y696677D01*
X473323Y697450D01*
X473870Y698397D01*
X474153Y699453D01*
Y700547D01*
X473870Y701603D01*
X473323Y702550D01*
X472550Y703323D01*
X471603Y703870D01*
X470547Y704153D01*
D02*
G37*
G36*
Y694153D02*
X469453D01*
X468397Y693870D01*
X467450Y693323D01*
X466677Y692550D01*
X466130Y691603D01*
X465847Y690547D01*
Y689453D01*
X466130Y688397D01*
X466677Y687450D01*
X467450Y686677D01*
X468397Y686130D01*
X469453Y685847D01*
X470547D01*
X471603Y686130D01*
X472550Y686677D01*
X473323Y687450D01*
X473870Y688397D01*
X474153Y689453D01*
Y690547D01*
X473870Y691603D01*
X473323Y692550D01*
X472550Y693323D01*
X471603Y693870D01*
X470547Y694153D01*
D02*
G37*
G36*
X280547D02*
X279453D01*
X278397Y693870D01*
X277450Y693323D01*
X276677Y692550D01*
X276130Y691603D01*
X275847Y690547D01*
Y689453D01*
X276130Y688397D01*
X276677Y687450D01*
X277450Y686677D01*
X278397Y686130D01*
X279453Y685847D01*
X280547D01*
X281603Y686130D01*
X282550Y686677D01*
X283323Y687450D01*
X283870Y688397D01*
X284153Y689453D01*
Y690547D01*
X283870Y691603D01*
X283323Y692550D01*
X282550Y693323D01*
X281603Y693870D01*
X280547Y694153D01*
D02*
G37*
G36*
X470547Y684153D02*
X469453D01*
X468397Y683870D01*
X467450Y683323D01*
X466677Y682550D01*
X466130Y681603D01*
X465847Y680547D01*
Y679453D01*
X466130Y678397D01*
X466677Y677450D01*
X467450Y676677D01*
X468397Y676130D01*
X469453Y675847D01*
X470547D01*
X471603Y676130D01*
X472550Y676677D01*
X473323Y677450D01*
X473870Y678397D01*
X474153Y679453D01*
Y680547D01*
X473870Y681603D01*
X473323Y682550D01*
X472550Y683323D01*
X471603Y683870D01*
X470547Y684153D01*
D02*
G37*
G36*
X280547D02*
X279453D01*
X278397Y683870D01*
X277450Y683323D01*
X276677Y682550D01*
X276130Y681603D01*
X275847Y680547D01*
Y679453D01*
X276130Y678397D01*
X276677Y677450D01*
X277450Y676677D01*
X278397Y676130D01*
X279453Y675847D01*
X280547D01*
X281603Y676130D01*
X282550Y676677D01*
X283323Y677450D01*
X283870Y678397D01*
X284153Y679453D01*
Y680547D01*
X283870Y681603D01*
X283323Y682550D01*
X282550Y683323D01*
X281603Y683870D01*
X280547Y684153D01*
D02*
G37*
G36*
X300356Y762700D02*
X299644D01*
X298958Y762516D01*
X298342Y762160D01*
X297839Y761658D01*
X297484Y761042D01*
X297300Y760356D01*
Y759645D01*
X297484Y758958D01*
X297839Y758342D01*
X298012Y758170D01*
Y674330D01*
X297839Y674158D01*
X297484Y673542D01*
X297300Y672856D01*
Y672145D01*
X297484Y671458D01*
X297839Y670842D01*
X298342Y670339D01*
X298958Y669984D01*
X299644Y669800D01*
X300356D01*
X301042Y669984D01*
X301658Y670339D01*
X302161Y670842D01*
X302516Y671458D01*
X302700Y672145D01*
Y672856D01*
X302516Y673542D01*
X302161Y674158D01*
X301988Y674330D01*
Y758170D01*
X302161Y758342D01*
X302516Y758958D01*
X302700Y759645D01*
Y760356D01*
X302516Y761042D01*
X302161Y761658D01*
X301658Y762160D01*
X301042Y762516D01*
X300356Y762700D01*
D02*
G37*
G36*
X450547Y664153D02*
X449453D01*
X448397Y663870D01*
X447450Y663323D01*
X446677Y662550D01*
X446130Y661603D01*
X445847Y660547D01*
Y659453D01*
X446130Y658397D01*
X446677Y657450D01*
X447450Y656677D01*
X448397Y656130D01*
X449453Y655847D01*
X450547D01*
X451603Y656130D01*
X452550Y656677D01*
X453323Y657450D01*
X453870Y658397D01*
X454153Y659453D01*
Y660547D01*
X453870Y661603D01*
X453323Y662550D01*
X452550Y663323D01*
X451603Y663870D01*
X450547Y664153D01*
D02*
G37*
G36*
X400355Y680200D02*
X399644D01*
X398958Y680016D01*
X398342Y679661D01*
X397839Y679158D01*
X397484Y678542D01*
X397300Y677855D01*
Y677144D01*
X397484Y676458D01*
X397839Y675842D01*
X398012Y675670D01*
Y663647D01*
X397450Y663323D01*
X396677Y662550D01*
X396130Y661603D01*
X395847Y660547D01*
Y659453D01*
X396130Y658397D01*
X396677Y657450D01*
X397450Y656677D01*
X398397Y656130D01*
X399453Y655847D01*
X400547D01*
X401603Y656130D01*
X402550Y656677D01*
X403323Y657450D01*
X403870Y658397D01*
X404153Y659453D01*
Y660547D01*
X403870Y661603D01*
X403323Y662550D01*
X402550Y663323D01*
X401988Y663647D01*
Y675670D01*
X402161Y675842D01*
X402516Y676458D01*
X402700Y677144D01*
Y677855D01*
X402516Y678542D01*
X402161Y679158D01*
X401658Y679661D01*
X401042Y680016D01*
X400355Y680200D01*
D02*
G37*
G36*
X487855Y802700D02*
X487145D01*
X486458Y802516D01*
X485842Y802160D01*
X485339Y801658D01*
X484984Y801042D01*
X484800Y800356D01*
Y799645D01*
X484984Y798958D01*
X485339Y798342D01*
X485512Y798170D01*
Y600823D01*
X482388Y597700D01*
X482144D01*
X481458Y597516D01*
X480842Y597160D01*
X480339Y596658D01*
X479984Y596042D01*
X479800Y595356D01*
Y594644D01*
X479984Y593958D01*
X480339Y593342D01*
X480842Y592839D01*
X481458Y592484D01*
X482144Y592300D01*
X482856D01*
X483542Y592484D01*
X484158Y592839D01*
X484660Y593342D01*
X485016Y593958D01*
X485200Y594644D01*
Y594888D01*
X488906Y598594D01*
X489337Y599239D01*
X489488Y600000D01*
Y631968D01*
X489988Y632352D01*
X490182Y632300D01*
X490893D01*
X491580Y632484D01*
X492195Y632839D01*
X492698Y633342D01*
X493053Y633958D01*
X493237Y634645D01*
Y635356D01*
X493053Y636042D01*
X492698Y636658D01*
X492526Y636830D01*
Y733170D01*
X492698Y733342D01*
X493053Y733958D01*
X493237Y734645D01*
Y735356D01*
X493053Y736042D01*
X492698Y736658D01*
X492195Y737160D01*
X491580Y737516D01*
X490893Y737700D01*
X490182D01*
X489988Y737648D01*
X489488Y738032D01*
Y798170D01*
X489661Y798342D01*
X490016Y798958D01*
X490200Y799645D01*
Y800356D01*
X490016Y801042D01*
X489661Y801658D01*
X489158Y802160D01*
X488542Y802516D01*
X487855Y802700D01*
D02*
G37*
G36*
X680356Y727700D02*
X679644D01*
X678958Y727516D01*
X678342Y727161D01*
X677840Y726658D01*
X677484Y726042D01*
X677300Y725355D01*
Y724645D01*
X677484Y723958D01*
X677840Y723342D01*
X678012Y723170D01*
Y626124D01*
X677516Y626042D01*
X677161Y626658D01*
X676658Y627161D01*
X676042Y627516D01*
X675355Y627700D01*
X674645D01*
X673958Y627516D01*
X673342Y627161D01*
X672839Y626658D01*
X672484Y626042D01*
X671988Y626124D01*
Y718170D01*
X672160Y718342D01*
X672516Y718958D01*
X672700Y719644D01*
Y720356D01*
X672516Y721042D01*
X672160Y721658D01*
X671658Y722160D01*
X671042Y722516D01*
X670356Y722700D01*
X669644D01*
X668958Y722516D01*
X668342Y722160D01*
X667839Y721658D01*
X667484Y721042D01*
X667300Y720356D01*
Y719644D01*
X667484Y718958D01*
X667839Y718342D01*
X668012Y718170D01*
Y711124D01*
X667516Y711042D01*
X667161Y711658D01*
X666658Y712160D01*
X666042Y712516D01*
X665355Y712700D01*
X664644D01*
X663958Y712516D01*
X663342Y712160D01*
X662840Y711658D01*
X662484Y711042D01*
X662300Y710356D01*
Y709645D01*
X662484Y708958D01*
X662840Y708342D01*
X663012Y708170D01*
Y528795D01*
X662512Y528572D01*
X661679Y529053D01*
X660573Y529350D01*
X659427D01*
X658321Y529053D01*
X657329Y528480D01*
X656520Y527671D01*
X655947Y526679D01*
X655650Y525573D01*
Y524427D01*
X655947Y523321D01*
X656520Y522329D01*
X657329Y521520D01*
X658321Y520947D01*
X659427Y520650D01*
X660573D01*
X661679Y520947D01*
X662512Y521428D01*
X663012Y521205D01*
Y115650D01*
X663163Y114890D01*
X663594Y114244D01*
X668012Y109827D01*
Y103875D01*
X667329Y103481D01*
X666519Y102671D01*
X665947Y101679D01*
X665650Y100573D01*
Y99427D01*
X665947Y98321D01*
X666519Y97329D01*
X667329Y96520D01*
X668321Y95947D01*
X669427Y95650D01*
X670573D01*
X671679Y95947D01*
X672671Y96520D01*
X673481Y97329D01*
X674053Y98321D01*
X674350Y99427D01*
Y100573D01*
X674053Y101679D01*
X673481Y102671D01*
X672671Y103481D01*
X671988Y103875D01*
Y110650D01*
X671837Y111411D01*
X671406Y112056D01*
X666988Y116474D01*
Y521205D01*
X667488Y521428D01*
X668321Y520947D01*
X669427Y520650D01*
X670573D01*
X671679Y520947D01*
X672512Y521428D01*
X673012Y521205D01*
Y323415D01*
X673163Y322655D01*
X673594Y322010D01*
X673662Y321942D01*
Y118926D01*
X673813Y118165D01*
X674244Y117520D01*
X678012Y113753D01*
Y103875D01*
X677329Y103481D01*
X676519Y102671D01*
X675947Y101679D01*
X675650Y100573D01*
Y99427D01*
X675947Y98321D01*
X676519Y97329D01*
X677329Y96520D01*
X678321Y95947D01*
X679427Y95650D01*
X680573D01*
X681679Y95947D01*
X682671Y96520D01*
X683481Y97329D01*
X684053Y98321D01*
X684350Y99427D01*
Y100573D01*
X684053Y101679D01*
X683481Y102671D01*
X682671Y103481D01*
X681988Y103875D01*
Y114577D01*
X681837Y115337D01*
X681406Y115982D01*
X677639Y119750D01*
Y322765D01*
X677487Y323526D01*
X677056Y324171D01*
X676988Y324239D01*
Y521205D01*
X677488Y521428D01*
X678321Y520947D01*
X679427Y520650D01*
X680573D01*
X681679Y520947D01*
X682512Y521428D01*
X683012Y521205D01*
Y125000D01*
X683163Y124239D01*
X683594Y123594D01*
X688012Y119176D01*
Y103875D01*
X687329Y103481D01*
X686519Y102671D01*
X685947Y101679D01*
X685650Y100573D01*
Y99427D01*
X685947Y98321D01*
X686519Y97329D01*
X687329Y96520D01*
X688321Y95947D01*
X689427Y95650D01*
X690573D01*
X691679Y95947D01*
X692671Y96520D01*
X693480Y97329D01*
X694053Y98321D01*
X694350Y99427D01*
Y100573D01*
X694053Y101679D01*
X693480Y102671D01*
X692671Y103481D01*
X691988Y103875D01*
Y120000D01*
X691837Y120761D01*
X691406Y121406D01*
X686988Y125823D01*
Y521205D01*
X687488Y521428D01*
X688321Y520947D01*
X689427Y520650D01*
X690573D01*
X691679Y520947D01*
X692512Y521428D01*
X693012Y521205D01*
Y130000D01*
X693163Y129239D01*
X693594Y128594D01*
X698012Y124177D01*
Y103875D01*
X697329Y103481D01*
X696520Y102671D01*
X695947Y101679D01*
X695650Y100573D01*
Y99427D01*
X695947Y98321D01*
X696520Y97329D01*
X697329Y96520D01*
X698321Y95947D01*
X699427Y95650D01*
X700573D01*
X701679Y95947D01*
X702671Y96520D01*
X703480Y97329D01*
X704053Y98321D01*
X704350Y99427D01*
Y100573D01*
X704053Y101679D01*
X703480Y102671D01*
X702671Y103481D01*
X701988Y103875D01*
Y125000D01*
X701837Y125761D01*
X701406Y126406D01*
X696988Y130824D01*
Y521205D01*
X697488Y521428D01*
X698321Y520947D01*
X699427Y520650D01*
X700573D01*
X701679Y520947D01*
X702512Y521428D01*
X703012Y521205D01*
Y135000D01*
X703163Y134239D01*
X703594Y133594D01*
X708012Y129176D01*
Y104350D01*
X705650D01*
Y95650D01*
X714350D01*
Y104350D01*
X711988D01*
Y130000D01*
X711837Y130761D01*
X711406Y131406D01*
X706988Y135824D01*
Y321205D01*
X707488Y321428D01*
X708321Y320947D01*
X709427Y320650D01*
X710573D01*
X711679Y320947D01*
X712671Y321519D01*
X713481Y322329D01*
X714053Y323321D01*
X714350Y324427D01*
Y325573D01*
X714053Y326679D01*
X713481Y327671D01*
X712671Y328481D01*
X711679Y329053D01*
X710573Y329350D01*
X709427D01*
X708321Y329053D01*
X707488Y328572D01*
X706988Y328795D01*
Y331205D01*
X707488Y331428D01*
X708321Y330947D01*
X709427Y330650D01*
X710573D01*
X711679Y330947D01*
X712671Y331520D01*
X713481Y332329D01*
X714053Y333321D01*
X714350Y334427D01*
Y335573D01*
X714053Y336679D01*
X713481Y337671D01*
X712671Y338480D01*
X711679Y339053D01*
X710573Y339350D01*
X709427D01*
X708321Y339053D01*
X707488Y338572D01*
X706988Y338795D01*
Y341205D01*
X707488Y341428D01*
X708321Y340947D01*
X709427Y340650D01*
X710573D01*
X711679Y340947D01*
X712671Y341519D01*
X713481Y342329D01*
X714053Y343321D01*
X714350Y344427D01*
Y345573D01*
X714053Y346679D01*
X713481Y347671D01*
X712671Y348481D01*
X711679Y349053D01*
X710573Y349350D01*
X709427D01*
X708321Y349053D01*
X707488Y348572D01*
X706988Y348795D01*
Y351490D01*
X707227Y351589D01*
X707488Y351659D01*
X708398Y351133D01*
X709454Y350850D01*
X709500D01*
Y355000D01*
Y359150D01*
X709454D01*
X708398Y358867D01*
X707488Y358341D01*
X707227Y358411D01*
X706988Y358510D01*
Y361490D01*
X707227Y361589D01*
X707488Y361659D01*
X708398Y361133D01*
X709454Y360850D01*
X709500D01*
Y365000D01*
Y369150D01*
X709454D01*
X708398Y368867D01*
X707488Y368341D01*
X707227Y368411D01*
X706988Y368510D01*
Y370850D01*
X709500D01*
Y375000D01*
Y379150D01*
X706988D01*
Y520650D01*
X714350D01*
Y529350D01*
X711988D01*
Y678170D01*
X712160Y678342D01*
X712516Y678958D01*
X712700Y679644D01*
Y680356D01*
X712516Y681042D01*
X712160Y681658D01*
X711658Y682161D01*
X711042Y682516D01*
X710356Y682700D01*
X709645D01*
X708958Y682516D01*
X708342Y682161D01*
X707839Y681658D01*
X707484Y681042D01*
X707300Y680356D01*
Y679644D01*
X707484Y678958D01*
X707839Y678342D01*
X708012Y678170D01*
Y631124D01*
X707516Y631042D01*
X707161Y631658D01*
X706658Y632161D01*
X706042Y632516D01*
X705356Y632700D01*
X704644D01*
X703958Y632516D01*
X703342Y632161D01*
X702840Y631658D01*
X702484Y631042D01*
X702300Y630356D01*
Y629644D01*
X702484Y628958D01*
X702840Y628342D01*
X703012Y628170D01*
Y611124D01*
X702516Y611042D01*
X702161Y611658D01*
X701658Y612160D01*
X701042Y612516D01*
X700355Y612700D01*
X699645D01*
X698958Y612516D01*
X698342Y612160D01*
X697839Y611658D01*
X697484Y611042D01*
X696988Y611124D01*
Y648170D01*
X697160Y648342D01*
X697516Y648958D01*
X697700Y649645D01*
Y650355D01*
X697516Y651042D01*
X697160Y651658D01*
X696658Y652161D01*
X696042Y652516D01*
X695356Y652700D01*
X694644D01*
X693958Y652516D01*
X693342Y652161D01*
X692839Y651658D01*
X692484Y651042D01*
X691988Y651124D01*
Y713170D01*
X692161Y713342D01*
X692516Y713958D01*
X692700Y714644D01*
Y715355D01*
X692516Y716042D01*
X692161Y716658D01*
X691658Y717161D01*
X691042Y717516D01*
X690355Y717700D01*
X689644D01*
X688958Y717516D01*
X688342Y717161D01*
X687840Y716658D01*
X687484Y716042D01*
X687300Y715355D01*
Y714644D01*
X687484Y713958D01*
X687840Y713342D01*
X688012Y713170D01*
Y606124D01*
X687516Y606042D01*
X687160Y606658D01*
X686658Y607161D01*
X686042Y607516D01*
X685356Y607700D01*
X684645D01*
X683958Y607516D01*
X683342Y607161D01*
X682839Y606658D01*
X682484Y606042D01*
X681988Y606124D01*
Y723170D01*
X682161Y723342D01*
X682516Y723958D01*
X682700Y724645D01*
Y725355D01*
X682516Y726042D01*
X682161Y726658D01*
X681658Y727161D01*
X681042Y727516D01*
X680356Y727700D01*
D02*
G37*
G36*
X310355Y747700D02*
X309645D01*
X308958Y747516D01*
X308342Y747160D01*
X307839Y746658D01*
X307484Y746042D01*
X307300Y745356D01*
Y744644D01*
X307484Y743958D01*
X307839Y743342D01*
X308012Y743170D01*
Y664153D01*
X305847D01*
Y655847D01*
X308012D01*
Y626830D01*
X307839Y626658D01*
X307484Y626042D01*
X307300Y625355D01*
Y624645D01*
X307484Y623958D01*
X307839Y623342D01*
X308342Y622839D01*
X308958Y622484D01*
X309645Y622300D01*
X310355D01*
X311042Y622484D01*
X311658Y622839D01*
X312160Y623342D01*
X312516Y623958D01*
X312700Y624645D01*
Y625355D01*
X312516Y626042D01*
X312160Y626658D01*
X311988Y626830D01*
Y655847D01*
X314153D01*
Y664153D01*
X311988D01*
Y743170D01*
X312160Y743342D01*
X312516Y743958D01*
X312700Y744644D01*
Y745356D01*
X312516Y746042D01*
X312160Y746658D01*
X311658Y747160D01*
X311042Y747516D01*
X310355Y747700D01*
D02*
G37*
G36*
X420356Y690200D02*
X419644D01*
X418958Y690016D01*
X418342Y689661D01*
X417839Y689158D01*
X417484Y688542D01*
X417300Y687855D01*
Y687145D01*
X417484Y686458D01*
X417839Y685842D01*
X418012Y685670D01*
Y663647D01*
X417450Y663323D01*
X416677Y662550D01*
X416130Y661603D01*
X415847Y660547D01*
Y659453D01*
X416130Y658397D01*
X416677Y657450D01*
X417450Y656677D01*
X418012Y656353D01*
Y621830D01*
X417839Y621658D01*
X417484Y621042D01*
X417300Y620356D01*
Y619644D01*
X417484Y618958D01*
X417839Y618342D01*
X418342Y617839D01*
X418958Y617484D01*
X419644Y617300D01*
X420356D01*
X421042Y617484D01*
X421658Y617839D01*
X422160Y618342D01*
X422516Y618958D01*
X422700Y619644D01*
Y620356D01*
X422516Y621042D01*
X422160Y621658D01*
X421988Y621830D01*
Y656353D01*
X422550Y656677D01*
X423323Y657450D01*
X423870Y658397D01*
X424153Y659453D01*
Y660547D01*
X423870Y661603D01*
X423323Y662550D01*
X422550Y663323D01*
X421988Y663647D01*
Y685670D01*
X422160Y685842D01*
X422516Y686458D01*
X422700Y687145D01*
Y687855D01*
X422516Y688542D01*
X422160Y689158D01*
X421658Y689661D01*
X421042Y690016D01*
X420356Y690200D01*
D02*
G37*
G36*
X370985Y685830D02*
X370274D01*
X369588Y685646D01*
X368972Y685290D01*
X368469Y684788D01*
X368114Y684172D01*
X367930Y683485D01*
Y682774D01*
X368055Y682309D01*
X368012Y682094D01*
Y663647D01*
X367450Y663323D01*
X366677Y662550D01*
X366130Y661603D01*
X365847Y660547D01*
Y659453D01*
X366130Y658397D01*
X366677Y657450D01*
X367450Y656677D01*
X368012Y656353D01*
Y613161D01*
X367930Y612855D01*
Y612145D01*
X368114Y611458D01*
X368469Y610842D01*
X368972Y610339D01*
X369588Y609984D01*
X370274Y609800D01*
X370985D01*
X371672Y609984D01*
X372288Y610339D01*
X372791Y610842D01*
X373146Y611458D01*
X373330Y612145D01*
Y612855D01*
X373146Y613542D01*
X372791Y614158D01*
X372288Y614661D01*
X371988Y614833D01*
Y656353D01*
X372550Y656677D01*
X373323Y657450D01*
X373870Y658397D01*
X374153Y659453D01*
Y660547D01*
X373870Y661603D01*
X373323Y662550D01*
X372550Y663323D01*
X371988Y663647D01*
Y680796D01*
X372288Y680969D01*
X372791Y681472D01*
X373146Y682088D01*
X373330Y682774D01*
Y683485D01*
X373146Y684172D01*
X372791Y684788D01*
X372288Y685290D01*
X371672Y685646D01*
X370985Y685830D01*
D02*
G37*
G36*
X410356Y685200D02*
X409645D01*
X408958Y685016D01*
X408342Y684660D01*
X407839Y684158D01*
X407484Y683542D01*
X407300Y682856D01*
Y682144D01*
X407484Y681458D01*
X407839Y680842D01*
X408012Y680670D01*
Y663647D01*
X407450Y663323D01*
X406677Y662550D01*
X406130Y661603D01*
X405847Y660547D01*
Y659453D01*
X406130Y658397D01*
X406677Y657450D01*
X407450Y656677D01*
X408012Y656353D01*
Y611792D01*
X407878Y611658D01*
X407522Y611042D01*
X407338Y610356D01*
Y609645D01*
X407522Y608958D01*
X407878Y608342D01*
X408380Y607839D01*
X408996Y607484D01*
X409683Y607300D01*
X410394D01*
X411080Y607484D01*
X411696Y607839D01*
X412199Y608342D01*
X412554Y608958D01*
X412738Y609645D01*
Y610356D01*
X412554Y611042D01*
X412199Y611658D01*
X411988Y611868D01*
Y656353D01*
X412550Y656677D01*
X413323Y657450D01*
X413870Y658397D01*
X414153Y659453D01*
Y660547D01*
X413870Y661603D01*
X413323Y662550D01*
X412550Y663323D01*
X411988Y663647D01*
Y680670D01*
X412160Y680842D01*
X412516Y681458D01*
X412700Y682144D01*
Y682856D01*
X412516Y683542D01*
X412160Y684158D01*
X411658Y684660D01*
X411042Y685016D01*
X410356Y685200D01*
D02*
G37*
G36*
X544019Y572395D02*
Y570750D01*
X545664D01*
X545388Y571416D01*
X544685Y572119D01*
X544019Y572395D01*
D02*
G37*
G36*
X545664Y569250D02*
X544019D01*
Y567605D01*
X544685Y567881D01*
X545388Y568584D01*
X545664Y569250D01*
D02*
G37*
G36*
X540000Y811224D02*
X500000D01*
X499532Y811130D01*
X499135Y810865D01*
X498870Y810468D01*
X498776Y810000D01*
Y774660D01*
X498870Y774192D01*
X499135Y773795D01*
X499532Y773530D01*
X500000Y773437D01*
X506633D01*
X506824Y772975D01*
X506520Y772671D01*
X505947Y771679D01*
X505650Y770573D01*
Y769427D01*
X505947Y768321D01*
X506520Y767329D01*
X507329Y766519D01*
X508321Y765947D01*
X509427Y765650D01*
X510573D01*
X511679Y765947D01*
X512671Y766519D01*
X513481Y767329D01*
X514053Y768321D01*
X514350Y769427D01*
Y770573D01*
X514053Y771679D01*
X513481Y772671D01*
X513176Y772975D01*
X513368Y773437D01*
X518777D01*
Y391224D01*
X500000D01*
X499532Y391130D01*
X499135Y390865D01*
X498870Y390468D01*
X498776Y390000D01*
Y349150D01*
X498870Y348681D01*
X499135Y348285D01*
X499532Y348019D01*
X500000Y347926D01*
X506093D01*
X506378Y347426D01*
X505947Y346679D01*
X505650Y345573D01*
Y344427D01*
X505947Y343321D01*
X506520Y342329D01*
X507329Y341519D01*
X508321Y340947D01*
X509427Y340650D01*
X510573D01*
X511679Y340947D01*
X512671Y341519D01*
X513481Y342329D01*
X514053Y343321D01*
X514350Y344427D01*
Y345573D01*
X514053Y346679D01*
X513622Y347426D01*
X513907Y347926D01*
X520473D01*
Y141201D01*
X520583Y140365D01*
X520906Y139587D01*
X521419Y138918D01*
X522087Y138406D01*
X522865Y138083D01*
X523701Y137973D01*
X524536Y138083D01*
X525315Y138406D01*
X525983Y138918D01*
X526496Y139587D01*
X526818Y140365D01*
X526928Y141201D01*
Y347926D01*
X540000D01*
X540468Y348019D01*
X540865Y348285D01*
X541130Y348681D01*
X541223Y349150D01*
Y547501D01*
X541723Y547787D01*
X542163Y547605D01*
Y550000D01*
Y552395D01*
X541723Y552213D01*
X541223Y552499D01*
Y567857D01*
X541685Y568048D01*
X541853Y567881D01*
X542519Y567605D01*
Y570000D01*
Y572395D01*
X541853Y572119D01*
X541685Y571952D01*
X541223Y572144D01*
Y810000D01*
X541130Y810468D01*
X540865Y810865D01*
X540468Y811130D01*
X540000Y811224D01*
D02*
G37*
G36*
X317966Y561214D02*
Y559569D01*
X319611D01*
X319335Y560235D01*
X318632Y560938D01*
X317966Y561214D01*
D02*
G37*
G36*
X316466D02*
X315800Y560938D01*
X315097Y560235D01*
X314821Y559569D01*
X316466D01*
Y561214D01*
D02*
G37*
G36*
X319611Y558069D02*
X317966D01*
Y556424D01*
X318632Y556700D01*
X319335Y557403D01*
X319611Y558069D01*
D02*
G37*
G36*
X316466D02*
X314821D01*
X315097Y557403D01*
X315800Y556700D01*
X316466Y556424D01*
Y558069D01*
D02*
G37*
G36*
X335564Y553636D02*
Y551990D01*
X337209D01*
X336933Y552656D01*
X336230Y553360D01*
X335564Y553636D01*
D02*
G37*
G36*
X334064D02*
X333398Y553360D01*
X332695Y552656D01*
X332419Y551990D01*
X334064D01*
Y553636D01*
D02*
G37*
G36*
X543663Y552395D02*
Y550750D01*
X545309D01*
X545033Y551416D01*
X544330Y552119D01*
X543663Y552395D01*
D02*
G37*
G36*
X337209Y550490D02*
X335564D01*
Y548845D01*
X336230Y549121D01*
X336933Y549824D01*
X337209Y550490D01*
D02*
G37*
G36*
X334064D02*
X332419D01*
X332695Y549824D01*
X333398Y549121D01*
X334064Y548845D01*
Y550490D01*
D02*
G37*
G36*
X545309Y549250D02*
X543663D01*
Y547605D01*
X544330Y547881D01*
X545033Y548584D01*
X545309Y549250D01*
D02*
G37*
G36*
X350356Y564334D02*
X349644D01*
X348958Y564150D01*
X348342Y563794D01*
X347839Y563292D01*
X347484Y562676D01*
X347300Y561989D01*
Y561278D01*
X347484Y560592D01*
X347839Y559976D01*
X348012Y559804D01*
Y548323D01*
X345436Y545748D01*
X338001D01*
X337829Y545920D01*
X337213Y546276D01*
X336526Y546460D01*
X335816D01*
X335129Y546276D01*
X334513Y545920D01*
X334010Y545418D01*
X333655Y544802D01*
X333471Y544115D01*
Y543404D01*
X333655Y542718D01*
X334010Y542102D01*
X334513Y541599D01*
X334541Y541385D01*
X334052Y540895D01*
X333776Y540229D01*
X338566D01*
X338290Y540895D01*
X337851Y541334D01*
X338121Y541772D01*
X346260D01*
X347021Y541923D01*
X347666Y542354D01*
X351406Y546094D01*
X351837Y546739D01*
X351988Y547500D01*
Y559804D01*
X352161Y559976D01*
X352516Y560592D01*
X352700Y561278D01*
Y561989D01*
X352516Y562676D01*
X352161Y563292D01*
X351658Y563794D01*
X351042Y564150D01*
X350356Y564334D01*
D02*
G37*
G36*
X395651Y544895D02*
Y543250D01*
X397296D01*
X397020Y543916D01*
X396317Y544619D01*
X395651Y544895D01*
D02*
G37*
G36*
X394151D02*
X393485Y544619D01*
X392781Y543916D01*
X392506Y543250D01*
X394151D01*
Y544895D01*
D02*
G37*
G36*
X397296Y541750D02*
X395651D01*
Y540105D01*
X396317Y540381D01*
X397020Y541084D01*
X397296Y541750D01*
D02*
G37*
G36*
X394151D02*
X392506D01*
X392781Y541084D01*
X393485Y540381D01*
X394151Y540105D01*
Y541750D01*
D02*
G37*
G36*
X338566Y538729D02*
X336921D01*
Y537083D01*
X337587Y537359D01*
X338290Y538062D01*
X338566Y538729D01*
D02*
G37*
G36*
X335421D02*
X333776D01*
X334052Y538062D01*
X334755Y537359D01*
X335421Y537083D01*
Y538729D01*
D02*
G37*
G36*
X450394Y592700D02*
X449683D01*
X448996Y592516D01*
X448380Y592161D01*
X447878Y591658D01*
X447522Y591042D01*
X447338Y590355D01*
Y589644D01*
X447522Y588958D01*
X447878Y588342D01*
X448050Y588170D01*
Y536516D01*
X447367Y536121D01*
X446558Y535312D01*
X445985Y534320D01*
X445689Y533214D01*
Y532068D01*
X445985Y530962D01*
X446558Y529970D01*
X447367Y529160D01*
X448359Y528588D01*
X449466Y528291D01*
X450611D01*
X451717Y528588D01*
X452709Y529160D01*
X453519Y529970D01*
X454091Y530962D01*
X454388Y532068D01*
Y533214D01*
X454091Y534320D01*
X453519Y535312D01*
X452709Y536121D01*
X452026Y536516D01*
Y588170D01*
X452199Y588342D01*
X452554Y588958D01*
X452738Y589644D01*
Y590355D01*
X452554Y591042D01*
X452199Y591658D01*
X451696Y592161D01*
X451080Y592516D01*
X450394Y592700D01*
D02*
G37*
G36*
X440394Y597163D02*
X439683D01*
X438996Y596979D01*
X438380Y596623D01*
X437878Y596120D01*
X437522Y595505D01*
X437338Y594818D01*
Y594107D01*
X437522Y593420D01*
X437878Y592805D01*
X438050Y592632D01*
Y536516D01*
X437367Y536121D01*
X436558Y535312D01*
X435985Y534320D01*
X435689Y533214D01*
Y532068D01*
X435985Y530962D01*
X436558Y529970D01*
X437367Y529160D01*
X438359Y528588D01*
X439466Y528291D01*
X440611D01*
X441717Y528588D01*
X442709Y529160D01*
X443519Y529970D01*
X444091Y530962D01*
X444388Y532068D01*
Y533214D01*
X444091Y534320D01*
X443519Y535312D01*
X442709Y536121D01*
X442026Y536516D01*
Y592632D01*
X442199Y592805D01*
X442554Y593420D01*
X442738Y594107D01*
Y594818D01*
X442554Y595505D01*
X442199Y596120D01*
X441696Y596623D01*
X441080Y596979D01*
X440394Y597163D01*
D02*
G37*
G36*
X430611Y536990D02*
X429466D01*
X428359Y536694D01*
X427367Y536121D01*
X426558Y535312D01*
X425985Y534320D01*
X425689Y533214D01*
Y532068D01*
X425985Y530962D01*
X426558Y529970D01*
X427367Y529160D01*
X428359Y528588D01*
X429466Y528291D01*
X430611D01*
X431717Y528588D01*
X432709Y529160D01*
X433519Y529970D01*
X434091Y530962D01*
X434388Y532068D01*
Y533214D01*
X434091Y534320D01*
X433519Y535312D01*
X432709Y536121D01*
X431717Y536694D01*
X430611Y536990D01*
D02*
G37*
G36*
X420611D02*
X419466D01*
X418359Y536694D01*
X417368Y536121D01*
X416558Y535312D01*
X415985Y534320D01*
X415689Y533214D01*
Y532068D01*
X415985Y530962D01*
X416558Y529970D01*
X417368Y529160D01*
X418359Y528588D01*
X419466Y528291D01*
X420611D01*
X421717Y528588D01*
X422709Y529160D01*
X423519Y529970D01*
X424091Y530962D01*
X424388Y532068D01*
Y533214D01*
X424091Y534320D01*
X423519Y535312D01*
X422709Y536121D01*
X421717Y536694D01*
X420611Y536990D01*
D02*
G37*
G36*
X414388D02*
X405689D01*
Y528291D01*
X414388D01*
Y536990D01*
D02*
G37*
G36*
X215355Y795200D02*
X214645D01*
X213958Y795016D01*
X213342Y794661D01*
X212840Y794158D01*
X212484Y793542D01*
X212300Y792856D01*
Y792144D01*
X212484Y791458D01*
X212840Y790842D01*
X213325Y790357D01*
Y528480D01*
X212863Y528288D01*
X212671Y528480D01*
X211679Y529053D01*
X210573Y529350D01*
X209427D01*
X208321Y529053D01*
X207801Y528753D01*
X207301Y529042D01*
Y593170D01*
X207473Y593342D01*
X207829Y593958D01*
X208013Y594644D01*
Y595356D01*
X207829Y596042D01*
X207473Y596658D01*
X206971Y597160D01*
X206355Y597516D01*
X205668Y597700D01*
X204958D01*
X204271Y597516D01*
X203655Y597160D01*
X203152Y596658D01*
X202797Y596042D01*
X202613Y595356D01*
Y594644D01*
X202797Y593958D01*
X203152Y593342D01*
X203325Y593170D01*
Y528480D01*
X202863Y528288D01*
X202671Y528480D01*
X201679Y529053D01*
X200573Y529350D01*
X199427D01*
X198321Y529053D01*
X198072Y528909D01*
X197639Y529159D01*
Y638170D01*
X197811Y638342D01*
X198166Y638958D01*
X198350Y639644D01*
Y640355D01*
X198166Y641042D01*
X197811Y641658D01*
X197308Y642161D01*
X196693Y642516D01*
X196006Y642700D01*
X195295D01*
X194608Y642516D01*
X193993Y642161D01*
X193490Y641658D01*
X193134Y641042D01*
X192950Y640355D01*
Y639644D01*
X193134Y638958D01*
X193490Y638342D01*
X193662Y638170D01*
Y528295D01*
X193230Y528032D01*
X193105Y528047D01*
X192671Y528480D01*
X191679Y529053D01*
X190573Y529350D01*
X189427D01*
X188321Y529053D01*
X187329Y528480D01*
X186520Y527671D01*
X185947Y526679D01*
X185650Y525573D01*
Y524427D01*
X185947Y523321D01*
X186520Y522329D01*
X187329Y521520D01*
X188321Y520947D01*
X189427Y520650D01*
X190573D01*
X191679Y520947D01*
X192671Y521520D01*
X193105Y521953D01*
X193230Y521968D01*
X193662Y521705D01*
Y104350D01*
X193814Y103589D01*
X194245Y102944D01*
X195854Y101334D01*
X195650Y100573D01*
Y99427D01*
X195947Y98321D01*
X196519Y97329D01*
X197329Y96520D01*
X198321Y95947D01*
X199427Y95650D01*
X200573D01*
X201679Y95947D01*
X202671Y96520D01*
X203481Y97329D01*
X204053Y98321D01*
X204350Y99427D01*
Y100573D01*
X204053Y101679D01*
X203481Y102671D01*
X202671Y103481D01*
X201679Y104053D01*
X200573Y104350D01*
X199427D01*
X198666Y104146D01*
X197639Y105173D01*
Y520841D01*
X198072Y521091D01*
X198321Y520947D01*
X199427Y520650D01*
X200573D01*
X201679Y520947D01*
X202671Y521520D01*
X202863Y521712D01*
X203325Y521520D01*
Y512837D01*
X203476Y512077D01*
X203907Y511432D01*
X208012Y507327D01*
Y103875D01*
X207329Y103481D01*
X206520Y102671D01*
X205947Y101679D01*
X205650Y100573D01*
Y99427D01*
X205947Y98321D01*
X206520Y97329D01*
X207329Y96520D01*
X208321Y95947D01*
X209427Y95650D01*
X210573D01*
X211679Y95947D01*
X212671Y96520D01*
X213480Y97329D01*
X214053Y98321D01*
X214350Y99427D01*
Y100573D01*
X214053Y101679D01*
X213480Y102671D01*
X212671Y103481D01*
X211988Y103875D01*
Y508150D01*
X211837Y508911D01*
X211406Y509556D01*
X207301Y513661D01*
Y520958D01*
X207801Y521247D01*
X208321Y520947D01*
X209427Y520650D01*
X210573D01*
X211679Y520947D01*
X212671Y521520D01*
X212863Y521712D01*
X213325Y521520D01*
Y513348D01*
X213476Y512587D01*
X213907Y511942D01*
X218012Y507837D01*
Y103875D01*
X217329Y103481D01*
X216519Y102671D01*
X215947Y101679D01*
X215650Y100573D01*
Y99427D01*
X215947Y98321D01*
X216519Y97329D01*
X217329Y96520D01*
X218321Y95947D01*
X219427Y95650D01*
X220573D01*
X221679Y95947D01*
X222671Y96520D01*
X223481Y97329D01*
X224053Y98321D01*
X224350Y99427D01*
Y100573D01*
X224053Y101679D01*
X223481Y102671D01*
X222671Y103481D01*
X221988Y103875D01*
Y508661D01*
X221837Y509422D01*
X221406Y510067D01*
X217301Y514172D01*
Y520958D01*
X217801Y521247D01*
X218321Y520947D01*
X219427Y520650D01*
X220573D01*
X221679Y520947D01*
X222512Y521428D01*
X223012Y521205D01*
Y514172D01*
X223163Y513411D01*
X223594Y512766D01*
X228012Y508348D01*
Y103875D01*
X227329Y103481D01*
X226519Y102671D01*
X225947Y101679D01*
X225650Y100573D01*
Y99427D01*
X225947Y98321D01*
X226519Y97329D01*
X227329Y96520D01*
X228321Y95947D01*
X229427Y95650D01*
X230573D01*
X231679Y95947D01*
X232671Y96520D01*
X233481Y97329D01*
X234053Y98321D01*
X234350Y99427D01*
Y100573D01*
X234053Y101679D01*
X233481Y102671D01*
X232671Y103481D01*
X231988Y103875D01*
Y509171D01*
X231837Y509932D01*
X231406Y510577D01*
X226988Y514995D01*
Y521205D01*
X227488Y521428D01*
X228321Y520947D01*
X229427Y520650D01*
X230573D01*
X231679Y520947D01*
X232671Y521520D01*
X233481Y522329D01*
X234053Y523321D01*
X234350Y524427D01*
Y525573D01*
X234053Y526679D01*
X233481Y527671D01*
X232671Y528480D01*
X231679Y529053D01*
X230573Y529350D01*
X229427D01*
X228321Y529053D01*
X227488Y528572D01*
X226988Y528795D01*
Y615670D01*
X227161Y615842D01*
X227516Y616458D01*
X227700Y617144D01*
Y617856D01*
X227516Y618542D01*
X227161Y619158D01*
X226658Y619661D01*
X226042Y620016D01*
X225356Y620200D01*
X224644D01*
X223958Y620016D01*
X223342Y619661D01*
X222839Y619158D01*
X222484Y618542D01*
X222300Y617856D01*
Y617144D01*
X222484Y616458D01*
X222839Y615842D01*
X223012Y615670D01*
Y528795D01*
X222512Y528572D01*
X221679Y529053D01*
X220573Y529350D01*
X219427D01*
X218321Y529053D01*
X217801Y528753D01*
X217301Y529042D01*
Y791086D01*
X217516Y791458D01*
X217700Y792144D01*
Y792856D01*
X217516Y793542D01*
X217161Y794158D01*
X216658Y794661D01*
X216042Y795016D01*
X215355Y795200D01*
D02*
G37*
G36*
X560356Y692700D02*
X559645D01*
X558958Y692516D01*
X558342Y692161D01*
X557839Y691658D01*
X557484Y691042D01*
X557300Y690355D01*
Y689644D01*
X557484Y688958D01*
X557839Y688342D01*
X558012Y688170D01*
Y561330D01*
X557839Y561158D01*
X557484Y560542D01*
X557300Y559855D01*
Y559144D01*
X557484Y558458D01*
X557839Y557842D01*
X558012Y557670D01*
Y526830D01*
X557839Y526658D01*
X557484Y526042D01*
X557300Y525355D01*
Y524645D01*
X557484Y523958D01*
X557839Y523342D01*
X558342Y522839D01*
X558958Y522484D01*
X559645Y522300D01*
X560356D01*
X561042Y522484D01*
X561658Y522839D01*
X562160Y523342D01*
X562516Y523958D01*
X562700Y524645D01*
Y525355D01*
X562516Y526042D01*
X562160Y526658D01*
X561988Y526830D01*
Y557670D01*
X562160Y557842D01*
X562516Y558458D01*
X562700Y559144D01*
Y559855D01*
X562516Y560542D01*
X562160Y561158D01*
X561988Y561330D01*
Y688170D01*
X562160Y688342D01*
X562516Y688958D01*
X562700Y689644D01*
Y690355D01*
X562516Y691042D01*
X562160Y691658D01*
X561658Y692161D01*
X561042Y692516D01*
X560356Y692700D01*
D02*
G37*
G36*
X363250Y522301D02*
Y520655D01*
X364895D01*
X364619Y521322D01*
X363916Y522025D01*
X363250Y522301D01*
D02*
G37*
G36*
X361750D02*
X361084Y522025D01*
X360381Y521322D01*
X360105Y520655D01*
X361750D01*
Y522301D01*
D02*
G37*
G36*
X514350Y529350D02*
X505650D01*
Y520650D01*
X514350D01*
Y529350D01*
D02*
G37*
G36*
X244350D02*
X235650D01*
Y520650D01*
X244350D01*
Y529350D01*
D02*
G37*
G36*
X44350D02*
X35650D01*
Y520650D01*
X44350D01*
Y529350D01*
D02*
G37*
G36*
X364895Y519156D02*
X363250D01*
Y517510D01*
X363916Y517786D01*
X364619Y518489D01*
X364895Y519156D01*
D02*
G37*
G36*
X361750D02*
X360105D01*
X360381Y518489D01*
X361084Y517786D01*
X361750Y517510D01*
Y519156D01*
D02*
G37*
G36*
X445138Y515284D02*
Y513639D01*
X446783D01*
X446507Y514305D01*
X445804Y515009D01*
X445138Y515284D01*
D02*
G37*
G36*
X443638D02*
X442972Y515009D01*
X442268Y514305D01*
X441993Y513639D01*
X443638D01*
Y515284D01*
D02*
G37*
G36*
X312856Y547700D02*
X312144D01*
X311458Y547516D01*
X310842Y547160D01*
X310339Y546658D01*
X309984Y546042D01*
X309800Y545356D01*
Y544644D01*
X309984Y543958D01*
X310339Y543342D01*
X310512Y543170D01*
Y518953D01*
X310663Y518192D01*
X311094Y517547D01*
X312300Y516341D01*
Y515794D01*
X312484Y515107D01*
X312840Y514492D01*
X313342Y513989D01*
X313958Y513634D01*
X314645Y513450D01*
X315355D01*
X316042Y513634D01*
X316658Y513989D01*
X317161Y514492D01*
X317516Y515107D01*
X317700Y515794D01*
Y516505D01*
X317516Y517192D01*
X317161Y517807D01*
X316658Y518310D01*
X316042Y518666D01*
X315437Y518828D01*
X314488Y519776D01*
Y543170D01*
X314661Y543342D01*
X315016Y543958D01*
X315200Y544644D01*
Y545356D01*
X315016Y546042D01*
X314661Y546658D01*
X314158Y547160D01*
X313542Y547516D01*
X312856Y547700D01*
D02*
G37*
G36*
X292856Y557700D02*
X292144D01*
X291458Y557516D01*
X290842Y557161D01*
X290339Y556658D01*
X289984Y556042D01*
X289800Y555356D01*
Y554644D01*
X289984Y553958D01*
X290339Y553342D01*
X290512Y553170D01*
Y547500D01*
X290663Y546739D01*
X291094Y546094D01*
X301512Y535676D01*
Y517980D01*
X301340Y517807D01*
X300984Y517192D01*
X300800Y516505D01*
Y515794D01*
X300984Y515107D01*
X301340Y514492D01*
X301842Y513989D01*
X302458Y513634D01*
X303145Y513450D01*
X303855D01*
X304542Y513634D01*
X305158Y513989D01*
X305661Y514492D01*
X306016Y515107D01*
X306200Y515794D01*
Y516505D01*
X306016Y517192D01*
X305661Y517807D01*
X305488Y517980D01*
Y536500D01*
X305337Y537261D01*
X304906Y537906D01*
X294488Y548323D01*
Y553170D01*
X294660Y553342D01*
X295016Y553958D01*
X295200Y554644D01*
Y555356D01*
X295016Y556042D01*
X294660Y556658D01*
X294158Y557161D01*
X293542Y557516D01*
X292856Y557700D01*
D02*
G37*
G36*
X510573Y519350D02*
X509427D01*
X508321Y519053D01*
X507329Y518480D01*
X506520Y517671D01*
X505947Y516679D01*
X505650Y515573D01*
Y514427D01*
X505947Y513321D01*
X506520Y512329D01*
X507329Y511519D01*
X508321Y510947D01*
X509427Y510650D01*
X510573D01*
X511679Y510947D01*
X512671Y511519D01*
X513481Y512329D01*
X514053Y513321D01*
X514350Y514427D01*
Y515573D01*
X514053Y516679D01*
X513481Y517671D01*
X512671Y518480D01*
X511679Y519053D01*
X510573Y519350D01*
D02*
G37*
G36*
X40573D02*
X39427D01*
X38321Y519053D01*
X37329Y518480D01*
X36520Y517671D01*
X35947Y516679D01*
X35650Y515573D01*
Y514427D01*
X35947Y513321D01*
X36520Y512329D01*
X37329Y511519D01*
X38321Y510947D01*
X39427Y510650D01*
X40573D01*
X41679Y510947D01*
X42671Y511519D01*
X43481Y512329D01*
X44053Y513321D01*
X44350Y514427D01*
Y515573D01*
X44053Y516679D01*
X43481Y517671D01*
X42671Y518480D01*
X41679Y519053D01*
X40573Y519350D01*
D02*
G37*
G36*
X446783Y512139D02*
X445138D01*
Y510494D01*
X445804Y510770D01*
X446507Y511473D01*
X446783Y512139D01*
D02*
G37*
G36*
X443638D02*
X441993D01*
X442268Y511473D01*
X442972Y510770D01*
X443638Y510494D01*
Y512139D01*
D02*
G37*
G36*
X510573Y509350D02*
X509427D01*
X508321Y509053D01*
X507329Y508481D01*
X506520Y507671D01*
X505947Y506679D01*
X505650Y505573D01*
Y504427D01*
X505947Y503321D01*
X506520Y502329D01*
X507329Y501519D01*
X508321Y500947D01*
X509427Y500650D01*
X510573D01*
X511679Y500947D01*
X512671Y501519D01*
X513481Y502329D01*
X514053Y503321D01*
X514350Y504427D01*
Y505573D01*
X514053Y506679D01*
X513481Y507671D01*
X512671Y508481D01*
X511679Y509053D01*
X510573Y509350D01*
D02*
G37*
G36*
X40573D02*
X39427D01*
X38321Y509053D01*
X37329Y508481D01*
X36520Y507671D01*
X35947Y506679D01*
X35650Y505573D01*
Y504427D01*
X35947Y503321D01*
X36520Y502329D01*
X37329Y501519D01*
X38321Y500947D01*
X39427Y500650D01*
X40573D01*
X41679Y500947D01*
X42671Y501519D01*
X43481Y502329D01*
X44053Y503321D01*
X44350Y504427D01*
Y505573D01*
X44053Y506679D01*
X43481Y507671D01*
X42671Y508481D01*
X41679Y509053D01*
X40573Y509350D01*
D02*
G37*
G36*
X572856Y707700D02*
X572145D01*
X571458Y707516D01*
X570842Y707161D01*
X570339Y706658D01*
X569984Y706042D01*
X569800Y705356D01*
Y704644D01*
X569984Y703958D01*
X570339Y703342D01*
X570504Y703178D01*
X570416Y702897D01*
X570274Y702700D01*
X569644D01*
X568958Y702516D01*
X568342Y702161D01*
X567839Y701658D01*
X567484Y701042D01*
X567300Y700355D01*
Y699645D01*
X567484Y698958D01*
X567839Y698342D01*
X568012Y698170D01*
Y542008D01*
X567662Y541658D01*
X567306Y541042D01*
X567122Y540355D01*
Y539644D01*
X567306Y538958D01*
X567662Y538342D01*
X568012Y537992D01*
Y512008D01*
X567662Y511658D01*
X567306Y511042D01*
X567122Y510356D01*
Y509645D01*
X567306Y508958D01*
X567662Y508342D01*
X568164Y507839D01*
X568780Y507484D01*
X569467Y507300D01*
X570178D01*
X570864Y507484D01*
X571480Y507839D01*
X571983Y508342D01*
X572338Y508958D01*
X572522Y509645D01*
Y510356D01*
X572338Y511042D01*
X571988Y511649D01*
Y538351D01*
X572338Y538958D01*
X572522Y539644D01*
Y540355D01*
X572338Y541042D01*
X571988Y541648D01*
Y698170D01*
X572160Y698342D01*
X572516Y698958D01*
X572700Y699645D01*
Y700355D01*
X572516Y701042D01*
X572254Y701495D01*
X572331Y701896D01*
X572460Y702066D01*
X572641Y702048D01*
X578012Y696676D01*
Y501830D01*
X577840Y501658D01*
X577484Y501042D01*
X577300Y500355D01*
Y499645D01*
X577484Y498958D01*
X577840Y498342D01*
X578342Y497839D01*
X578958Y497484D01*
X579644Y497300D01*
X580356D01*
X581042Y497484D01*
X581658Y497839D01*
X582161Y498342D01*
X582516Y498958D01*
X582700Y499645D01*
Y500355D01*
X582516Y501042D01*
X582161Y501658D01*
X581988Y501830D01*
Y697500D01*
X581837Y698261D01*
X581406Y698906D01*
X575200Y705112D01*
Y705356D01*
X575016Y706042D01*
X574660Y706658D01*
X574158Y707161D01*
X573542Y707516D01*
X572856Y707700D01*
D02*
G37*
G36*
X510573Y499350D02*
X509427D01*
X508321Y499053D01*
X507329Y498481D01*
X506520Y497671D01*
X505947Y496679D01*
X505650Y495573D01*
Y494427D01*
X505947Y493321D01*
X506520Y492329D01*
X507329Y491519D01*
X508321Y490947D01*
X509427Y490650D01*
X510573D01*
X511679Y490947D01*
X512671Y491519D01*
X513481Y492329D01*
X514053Y493321D01*
X514350Y494427D01*
Y495573D01*
X514053Y496679D01*
X513481Y497671D01*
X512671Y498481D01*
X511679Y499053D01*
X510573Y499350D01*
D02*
G37*
G36*
X40573D02*
X39427D01*
X38321Y499053D01*
X37329Y498481D01*
X36520Y497671D01*
X35947Y496679D01*
X35650Y495573D01*
Y494427D01*
X35947Y493321D01*
X36520Y492329D01*
X37329Y491519D01*
X38321Y490947D01*
X39427Y490650D01*
X40573D01*
X41679Y490947D01*
X42671Y491519D01*
X43481Y492329D01*
X44053Y493321D01*
X44350Y494427D01*
Y495573D01*
X44053Y496679D01*
X43481Y497671D01*
X42671Y498481D01*
X41679Y499053D01*
X40573Y499350D01*
D02*
G37*
G36*
X282856Y561519D02*
X282144D01*
X281458Y561335D01*
X280842Y560979D01*
X280340Y560477D01*
X279984Y559861D01*
X279800Y559174D01*
Y558463D01*
X279984Y557777D01*
X280340Y557161D01*
X280512Y556989D01*
Y494330D01*
X280340Y494158D01*
X279984Y493542D01*
X279800Y492856D01*
Y492144D01*
X279984Y491458D01*
X280340Y490842D01*
X280842Y490340D01*
X281458Y489984D01*
X282144Y489800D01*
X282856D01*
X283542Y489984D01*
X284158Y490340D01*
X284661Y490842D01*
X285016Y491458D01*
X285200Y492144D01*
Y492856D01*
X285016Y493542D01*
X284661Y494158D01*
X284488Y494330D01*
Y556989D01*
X284661Y557161D01*
X285016Y557777D01*
X285200Y558463D01*
Y559174D01*
X285016Y559861D01*
X284661Y560477D01*
X284158Y560979D01*
X283542Y561335D01*
X282856Y561519D01*
D02*
G37*
G36*
X590355Y752700D02*
X589644D01*
X588958Y752516D01*
X588342Y752161D01*
X587840Y751658D01*
X587484Y751042D01*
X587300Y750355D01*
Y749645D01*
X587484Y748958D01*
X587840Y748342D01*
X588012Y748170D01*
Y491830D01*
X587840Y491658D01*
X587484Y491042D01*
X587300Y490355D01*
Y489644D01*
X587484Y488958D01*
X587840Y488342D01*
X588342Y487840D01*
X588958Y487484D01*
X589644Y487300D01*
X590355D01*
X591042Y487484D01*
X591658Y487840D01*
X592161Y488342D01*
X592516Y488958D01*
X592700Y489644D01*
Y490355D01*
X592516Y491042D01*
X592161Y491658D01*
X591988Y491830D01*
Y748170D01*
X592161Y748342D01*
X592516Y748958D01*
X592700Y749645D01*
Y750355D01*
X592516Y751042D01*
X592161Y751658D01*
X591658Y752161D01*
X591042Y752516D01*
X590355Y752700D01*
D02*
G37*
G36*
X371746Y564334D02*
X371035D01*
X370348Y564150D01*
X369733Y563794D01*
X369230Y563292D01*
X368875Y562676D01*
X368690Y561989D01*
Y561278D01*
X368875Y560592D01*
X369230Y559976D01*
X369402Y559804D01*
Y486109D01*
X369554Y485349D01*
X369800Y484980D01*
Y484645D01*
X369984Y483958D01*
X370339Y483342D01*
X370842Y482839D01*
X371458Y482484D01*
X372145Y482300D01*
X372855D01*
X373542Y482484D01*
X374158Y482839D01*
X374660Y483342D01*
X375016Y483958D01*
X375200Y484645D01*
Y485356D01*
X375016Y486042D01*
X374660Y486658D01*
X374158Y487160D01*
X373542Y487516D01*
X373379Y487560D01*
Y559804D01*
X373551Y559976D01*
X373906Y560592D01*
X374091Y561278D01*
Y561989D01*
X373906Y562676D01*
X373551Y563292D01*
X373048Y563794D01*
X372433Y564150D01*
X371746Y564334D01*
D02*
G37*
G36*
X510573Y489350D02*
X509427D01*
X508321Y489053D01*
X507329Y488481D01*
X506520Y487671D01*
X505947Y486679D01*
X505650Y485573D01*
Y484427D01*
X505947Y483321D01*
X506520Y482329D01*
X507329Y481520D01*
X508321Y480947D01*
X509427Y480650D01*
X510573D01*
X511679Y480947D01*
X512671Y481520D01*
X513481Y482329D01*
X514053Y483321D01*
X514350Y484427D01*
Y485573D01*
X514053Y486679D01*
X513481Y487671D01*
X512671Y488481D01*
X511679Y489053D01*
X510573Y489350D01*
D02*
G37*
G36*
X40573D02*
X39427D01*
X38321Y489053D01*
X37329Y488481D01*
X36520Y487671D01*
X35947Y486679D01*
X35650Y485573D01*
Y484427D01*
X35947Y483321D01*
X36520Y482329D01*
X37329Y481520D01*
X38321Y480947D01*
X39427Y480650D01*
X40573D01*
X41679Y480947D01*
X42671Y481520D01*
X43481Y482329D01*
X44053Y483321D01*
X44350Y484427D01*
Y485573D01*
X44053Y486679D01*
X43481Y487671D01*
X42671Y488481D01*
X41679Y489053D01*
X40573Y489350D01*
D02*
G37*
G36*
X510573Y479350D02*
X509427D01*
X508321Y479053D01*
X507329Y478480D01*
X506520Y477671D01*
X505947Y476679D01*
X505650Y475573D01*
Y474427D01*
X505947Y473321D01*
X506520Y472329D01*
X507329Y471520D01*
X508321Y470947D01*
X509427Y470650D01*
X510573D01*
X511679Y470947D01*
X512671Y471520D01*
X513481Y472329D01*
X514053Y473321D01*
X514350Y474427D01*
Y475573D01*
X514053Y476679D01*
X513481Y477671D01*
X512671Y478480D01*
X511679Y479053D01*
X510573Y479350D01*
D02*
G37*
G36*
X40573D02*
X39427D01*
X38321Y479053D01*
X37329Y478480D01*
X36520Y477671D01*
X35947Y476679D01*
X35650Y475573D01*
Y474427D01*
X35947Y473321D01*
X36520Y472329D01*
X37329Y471520D01*
X38321Y470947D01*
X39427Y470650D01*
X40573D01*
X41679Y470947D01*
X42671Y471520D01*
X43481Y472329D01*
X44053Y473321D01*
X44350Y474427D01*
Y475573D01*
X44053Y476679D01*
X43481Y477671D01*
X42671Y478480D01*
X41679Y479053D01*
X40573Y479350D01*
D02*
G37*
G36*
X307597Y439645D02*
Y438000D01*
X309242D01*
X308966Y438666D01*
X308263Y439369D01*
X307597Y439645D01*
D02*
G37*
G36*
X306097D02*
X305431Y439369D01*
X304727Y438666D01*
X304451Y438000D01*
X306097D01*
Y439645D01*
D02*
G37*
G36*
X309242Y436500D02*
X307597D01*
Y434855D01*
X308263Y435131D01*
X308966Y435834D01*
X309242Y436500D01*
D02*
G37*
G36*
X306097D02*
X304451D01*
X304727Y435834D01*
X305431Y435131D01*
X306097Y434855D01*
Y436500D01*
D02*
G37*
G36*
X338750Y413438D02*
Y411792D01*
X340395D01*
X340119Y412458D01*
X339416Y413162D01*
X338750Y413438D01*
D02*
G37*
G36*
X337250D02*
X336584Y413162D01*
X335881Y412458D01*
X335605Y411792D01*
X337250D01*
Y413438D01*
D02*
G37*
G36*
X340395Y410292D02*
X338750D01*
Y408647D01*
X339416Y408923D01*
X340119Y409626D01*
X340395Y410292D01*
D02*
G37*
G36*
X337250D02*
X335605D01*
X335881Y409626D01*
X336584Y408923D01*
X337250Y408647D01*
Y410292D01*
D02*
G37*
G36*
X360685Y396964D02*
Y395319D01*
X362331D01*
X362055Y395985D01*
X361352Y396688D01*
X360685Y396964D01*
D02*
G37*
G36*
X359186D02*
X358519Y396688D01*
X357816Y395985D01*
X357540Y395319D01*
X359186D01*
Y396964D01*
D02*
G37*
G36*
X345359Y394641D02*
Y392996D01*
X347004D01*
X346728Y393662D01*
X346025Y394365D01*
X345359Y394641D01*
D02*
G37*
G36*
X343859D02*
X343193Y394365D01*
X342489Y393662D01*
X342214Y392996D01*
X343859D01*
Y394641D01*
D02*
G37*
G36*
X362331Y393819D02*
X360685D01*
Y392173D01*
X361352Y392449D01*
X362055Y393152D01*
X362331Y393819D01*
D02*
G37*
G36*
X359186D02*
X357540D01*
X357816Y393152D01*
X358519Y392449D01*
X359186Y392173D01*
Y393819D01*
D02*
G37*
G36*
X347004Y391495D02*
X345359D01*
Y389850D01*
X346025Y390126D01*
X346728Y390829D01*
X347004Y391495D01*
D02*
G37*
G36*
X343859D02*
X342214D01*
X342489Y390829D01*
X343193Y390126D01*
X343859Y389850D01*
Y391495D01*
D02*
G37*
G36*
X714150Y379150D02*
X710500D01*
Y375500D01*
X714150D01*
Y379150D01*
D02*
G37*
G36*
X244150D02*
X240500D01*
Y375500D01*
X244150D01*
Y379150D01*
D02*
G37*
G36*
X239500D02*
X235850D01*
Y375500D01*
X239500D01*
Y379150D01*
D02*
G37*
G36*
X714150Y374500D02*
X710500D01*
Y370850D01*
X714150D01*
Y374500D01*
D02*
G37*
G36*
X244150D02*
X240500D01*
Y370850D01*
X244150D01*
Y374500D01*
D02*
G37*
G36*
X239500D02*
X235850D01*
Y370850D01*
X239500D01*
Y374500D01*
D02*
G37*
G36*
X710546Y369150D02*
X710500D01*
Y365500D01*
X714150D01*
Y365546D01*
X713867Y366602D01*
X713320Y367548D01*
X712548Y368320D01*
X711602Y368867D01*
X710546Y369150D01*
D02*
G37*
G36*
X240546D02*
X240500D01*
Y365500D01*
X244150D01*
Y365546D01*
X243867Y366602D01*
X243320Y367548D01*
X242548Y368320D01*
X241602Y368867D01*
X240546Y369150D01*
D02*
G37*
G36*
X239500D02*
X239454D01*
X238398Y368867D01*
X237452Y368320D01*
X236680Y367548D01*
X236133Y366602D01*
X235850Y365546D01*
Y365500D01*
X239500D01*
Y369150D01*
D02*
G37*
G36*
X714150Y364500D02*
X710500D01*
Y360850D01*
X710546D01*
X711602Y361133D01*
X712548Y361680D01*
X713320Y362452D01*
X713867Y363398D01*
X714150Y364454D01*
Y364500D01*
D02*
G37*
G36*
X244150D02*
X240500D01*
Y360850D01*
X240546D01*
X241602Y361133D01*
X242548Y361680D01*
X243320Y362452D01*
X243867Y363398D01*
X244150Y364454D01*
Y364500D01*
D02*
G37*
G36*
X239500D02*
X235850D01*
Y364454D01*
X236133Y363398D01*
X236680Y362452D01*
X237452Y361680D01*
X238398Y361133D01*
X239454Y360850D01*
X239500D01*
Y364500D01*
D02*
G37*
G36*
X710546Y359150D02*
X710500D01*
Y355500D01*
X714150D01*
Y355546D01*
X713867Y356602D01*
X713320Y357548D01*
X712548Y358320D01*
X711602Y358867D01*
X710546Y359150D01*
D02*
G37*
G36*
X240546D02*
X240500D01*
Y355500D01*
X244150D01*
Y355546D01*
X243867Y356602D01*
X243320Y357548D01*
X242548Y358320D01*
X241602Y358867D01*
X240546Y359150D01*
D02*
G37*
G36*
X239500D02*
X239454D01*
X238398Y358867D01*
X237452Y358320D01*
X236680Y357548D01*
X236133Y356602D01*
X235850Y355546D01*
Y355500D01*
X239500D01*
Y359150D01*
D02*
G37*
G36*
X714150Y354500D02*
X710500D01*
Y350850D01*
X710546D01*
X711602Y351133D01*
X712548Y351679D01*
X713320Y352452D01*
X713867Y353398D01*
X714150Y354454D01*
Y354500D01*
D02*
G37*
G36*
X244150D02*
X240500D01*
Y350850D01*
X240546D01*
X241602Y351133D01*
X242548Y351679D01*
X243320Y352452D01*
X243867Y353398D01*
X244150Y354454D01*
Y354500D01*
D02*
G37*
G36*
X239500D02*
X235850D01*
Y354454D01*
X236133Y353398D01*
X236680Y352452D01*
X237452Y351679D01*
X238398Y351133D01*
X239454Y350850D01*
X239500D01*
Y354500D01*
D02*
G37*
G36*
X240573Y349350D02*
X239427D01*
X238321Y349053D01*
X237329Y348481D01*
X236520Y347671D01*
X235947Y346679D01*
X235650Y345573D01*
Y344427D01*
X235947Y343321D01*
X236520Y342329D01*
X237329Y341519D01*
X238321Y340947D01*
X239427Y340650D01*
X240573D01*
X241679Y340947D01*
X242671Y341519D01*
X243480Y342329D01*
X244053Y343321D01*
X244350Y344427D01*
Y345573D01*
X244053Y346679D01*
X243480Y347671D01*
X242671Y348481D01*
X241679Y349053D01*
X240573Y349350D01*
D02*
G37*
G36*
X70000Y811224D02*
X30000D01*
X29532Y811130D01*
X29135Y810865D01*
X28870Y810468D01*
X28776Y810000D01*
Y774150D01*
X28870Y773681D01*
X29135Y773284D01*
X29532Y773019D01*
X30000Y772926D01*
X36093D01*
X36378Y772426D01*
X35947Y771679D01*
X35650Y770573D01*
Y769427D01*
X35947Y768321D01*
X36520Y767329D01*
X37329Y766519D01*
X38321Y765947D01*
X39427Y765650D01*
X40573D01*
X41679Y765947D01*
X42671Y766519D01*
X43481Y767329D01*
X44053Y768321D01*
X44350Y769427D01*
Y770573D01*
X44053Y771679D01*
X43622Y772426D01*
X43907Y772926D01*
X48777D01*
Y391224D01*
X30000D01*
X29532Y391130D01*
X29135Y390865D01*
X28870Y390468D01*
X28776Y390000D01*
Y350000D01*
X28870Y349532D01*
X29135Y349135D01*
X29532Y348870D01*
X30000Y348777D01*
X36918D01*
X37125Y348276D01*
X36520Y347671D01*
X35947Y346679D01*
X35650Y345573D01*
Y344427D01*
X35947Y343321D01*
X36520Y342329D01*
X37329Y341519D01*
X38321Y340947D01*
X39427Y340650D01*
X40573D01*
X41679Y340947D01*
X42671Y341519D01*
X43481Y342329D01*
X44053Y343321D01*
X44350Y344427D01*
Y345573D01*
X44053Y346679D01*
X43481Y347671D01*
X42875Y348276D01*
X43082Y348777D01*
X70000D01*
X70468Y348870D01*
X70865Y349135D01*
X71130Y349532D01*
X71223Y350000D01*
Y810000D01*
X71130Y810468D01*
X70865Y810865D01*
X70468Y811130D01*
X70000Y811224D01*
D02*
G37*
G36*
X510573Y339350D02*
X509427D01*
X508321Y339053D01*
X507329Y338480D01*
X506520Y337671D01*
X505947Y336679D01*
X505650Y335573D01*
Y334427D01*
X505947Y333321D01*
X506520Y332329D01*
X507329Y331520D01*
X508321Y330947D01*
X509427Y330650D01*
X510573D01*
X511679Y330947D01*
X512671Y331520D01*
X513481Y332329D01*
X514053Y333321D01*
X514350Y334427D01*
Y335573D01*
X514053Y336679D01*
X513481Y337671D01*
X512671Y338480D01*
X511679Y339053D01*
X510573Y339350D01*
D02*
G37*
G36*
X240573D02*
X239427D01*
X238321Y339053D01*
X237329Y338480D01*
X236520Y337671D01*
X235947Y336679D01*
X235650Y335573D01*
Y334427D01*
X235947Y333321D01*
X236520Y332329D01*
X237329Y331520D01*
X238321Y330947D01*
X239427Y330650D01*
X240573D01*
X241679Y330947D01*
X242671Y331520D01*
X243480Y332329D01*
X244053Y333321D01*
X244350Y334427D01*
Y335573D01*
X244053Y336679D01*
X243480Y337671D01*
X242671Y338480D01*
X241679Y339053D01*
X240573Y339350D01*
D02*
G37*
G36*
X40573D02*
X39427D01*
X38321Y339053D01*
X37329Y338480D01*
X36520Y337671D01*
X35947Y336679D01*
X35650Y335573D01*
Y334427D01*
X35947Y333321D01*
X36520Y332329D01*
X37329Y331520D01*
X38321Y330947D01*
X39427Y330650D01*
X40573D01*
X41679Y330947D01*
X42671Y331520D01*
X43481Y332329D01*
X44053Y333321D01*
X44350Y334427D01*
Y335573D01*
X44053Y336679D01*
X43481Y337671D01*
X42671Y338480D01*
X41679Y339053D01*
X40573Y339350D01*
D02*
G37*
G36*
X510573Y329350D02*
X509427D01*
X508321Y329053D01*
X507329Y328481D01*
X506520Y327671D01*
X505947Y326679D01*
X505650Y325573D01*
Y324427D01*
X505947Y323321D01*
X506520Y322329D01*
X507329Y321519D01*
X508321Y320947D01*
X509427Y320650D01*
X510573D01*
X511679Y320947D01*
X512671Y321519D01*
X513481Y322329D01*
X514053Y323321D01*
X514350Y324427D01*
Y325573D01*
X514053Y326679D01*
X513481Y327671D01*
X512671Y328481D01*
X511679Y329053D01*
X510573Y329350D01*
D02*
G37*
G36*
X240573D02*
X239427D01*
X238321Y329053D01*
X237329Y328481D01*
X236520Y327671D01*
X235947Y326679D01*
X235650Y325573D01*
Y324427D01*
X235947Y323321D01*
X236520Y322329D01*
X237329Y321519D01*
X238321Y320947D01*
X239427Y320650D01*
X240573D01*
X241679Y320947D01*
X242671Y321519D01*
X243480Y322329D01*
X244053Y323321D01*
X244350Y324427D01*
Y325573D01*
X244053Y326679D01*
X243480Y327671D01*
X242671Y328481D01*
X241679Y329053D01*
X240573Y329350D01*
D02*
G37*
G36*
X40573D02*
X39427D01*
X38321Y329053D01*
X37329Y328481D01*
X36520Y327671D01*
X35947Y326679D01*
X35650Y325573D01*
Y324427D01*
X35947Y323321D01*
X36520Y322329D01*
X37329Y321519D01*
X38321Y320947D01*
X39427Y320650D01*
X40573D01*
X41679Y320947D01*
X42671Y321519D01*
X43481Y322329D01*
X44053Y323321D01*
X44350Y324427D01*
Y325573D01*
X44053Y326679D01*
X43481Y327671D01*
X42671Y328481D01*
X41679Y329053D01*
X40573Y329350D01*
D02*
G37*
G36*
X360355Y360200D02*
X359645D01*
X358958Y360016D01*
X358342Y359661D01*
X357839Y359158D01*
X357484Y358542D01*
X357300Y357856D01*
Y357144D01*
X357484Y356458D01*
X357839Y355842D01*
X357947Y355734D01*
Y321830D01*
X357775Y321658D01*
X357419Y321042D01*
X357236Y320356D01*
Y319644D01*
X357419Y318958D01*
X357775Y318342D01*
X358278Y317840D01*
X358893Y317484D01*
X359580Y317300D01*
X360291D01*
X360978Y317484D01*
X361593Y317840D01*
X362096Y318342D01*
X362452Y318958D01*
X362635Y319644D01*
Y320356D01*
X362452Y321042D01*
X362096Y321658D01*
X361924Y321830D01*
Y355605D01*
X362160Y355842D01*
X362516Y356458D01*
X362700Y357144D01*
Y357856D01*
X362516Y358542D01*
X362160Y359158D01*
X361658Y359661D01*
X361042Y360016D01*
X360355Y360200D01*
D02*
G37*
G36*
X400355Y495200D02*
X399644D01*
X398958Y495016D01*
X398342Y494661D01*
X397839Y494158D01*
X397484Y493542D01*
X397300Y492856D01*
Y492144D01*
X397484Y491458D01*
X397839Y490842D01*
X398012Y490670D01*
Y316633D01*
X397839Y316461D01*
X397484Y315845D01*
X397300Y315159D01*
Y314448D01*
X397484Y313761D01*
X397839Y313145D01*
X398342Y312643D01*
X398958Y312287D01*
X399644Y312103D01*
X400355D01*
X401042Y312287D01*
X401658Y312643D01*
X402161Y313145D01*
X402516Y313761D01*
X402700Y314448D01*
Y315159D01*
X402516Y315845D01*
X402161Y316461D01*
X401988Y316633D01*
Y490670D01*
X402161Y490842D01*
X402516Y491458D01*
X402700Y492144D01*
Y492856D01*
X402516Y493542D01*
X402161Y494158D01*
X401658Y494661D01*
X401042Y495016D01*
X400355Y495200D01*
D02*
G37*
G36*
X350750Y312395D02*
Y310750D01*
X352395D01*
X352119Y311416D01*
X351416Y312119D01*
X350750Y312395D01*
D02*
G37*
G36*
X349250D02*
X348584Y312119D01*
X347881Y311416D01*
X347605Y310750D01*
X349250D01*
Y312395D01*
D02*
G37*
G36*
X468250Y309895D02*
Y308250D01*
X469895D01*
X469619Y308916D01*
X468916Y309619D01*
X468250Y309895D01*
D02*
G37*
G36*
X466750D02*
X466084Y309619D01*
X465381Y308916D01*
X465105Y308250D01*
X466750D01*
Y309895D01*
D02*
G37*
G36*
X352395Y309250D02*
X350750D01*
Y307605D01*
X351416Y307881D01*
X352119Y308584D01*
X352395Y309250D01*
D02*
G37*
G36*
X349250D02*
X347605D01*
X347881Y308584D01*
X348584Y307881D01*
X349250Y307605D01*
Y309250D01*
D02*
G37*
G36*
X330356Y352700D02*
X329644D01*
X328958Y352516D01*
X328342Y352161D01*
X327839Y351658D01*
X327484Y351042D01*
X327300Y350356D01*
Y349644D01*
X327484Y348958D01*
X327839Y348342D01*
X328012Y348170D01*
Y311830D01*
X327839Y311658D01*
X327484Y311042D01*
X327300Y310355D01*
Y309645D01*
X327484Y308958D01*
X327839Y308342D01*
X328342Y307839D01*
X328958Y307484D01*
X329644Y307300D01*
X330356D01*
X331042Y307484D01*
X331658Y307839D01*
X332160Y308342D01*
X332516Y308958D01*
X332700Y309645D01*
Y310355D01*
X332516Y311042D01*
X332160Y311658D01*
X331988Y311830D01*
Y348170D01*
X332160Y348342D01*
X332516Y348958D01*
X332700Y349644D01*
Y350356D01*
X332516Y351042D01*
X332160Y351658D01*
X331658Y352161D01*
X331042Y352516D01*
X330356Y352700D01*
D02*
G37*
G36*
X469895Y306750D02*
X468250D01*
Y305105D01*
X468916Y305381D01*
X469619Y306084D01*
X469895Y306750D01*
D02*
G37*
G36*
X466750D02*
X465105D01*
X465381Y306084D01*
X466084Y305381D01*
X466750Y305105D01*
Y306750D01*
D02*
G37*
G36*
X448683Y294462D02*
Y292817D01*
X450328D01*
X450052Y293483D01*
X449349Y294186D01*
X448683Y294462D01*
D02*
G37*
G36*
X447183D02*
X446517Y294186D01*
X445814Y293483D01*
X445538Y292817D01*
X447183D01*
Y294462D01*
D02*
G37*
G36*
X450328Y291317D02*
X448683D01*
Y289672D01*
X449349Y289948D01*
X450052Y290651D01*
X450328Y291317D01*
D02*
G37*
G36*
X447183D02*
X445538D01*
X445814Y290651D01*
X446517Y289948D01*
X447183Y289672D01*
Y291317D01*
D02*
G37*
G36*
X397573Y169350D02*
X396427D01*
X395321Y169053D01*
X394329Y168481D01*
X393519Y167671D01*
X392947Y166679D01*
X392650Y165573D01*
Y164427D01*
X392947Y163321D01*
X392985Y163255D01*
X392585Y162948D01*
X391298Y164235D01*
X391350Y164427D01*
Y165573D01*
X391053Y166679D01*
X390480Y167671D01*
X389671Y168481D01*
X388679Y169053D01*
X387573Y169350D01*
X386427D01*
X385321Y169053D01*
X384329Y168481D01*
X383520Y167671D01*
X382947Y166679D01*
X382650Y165573D01*
Y164427D01*
X382947Y163321D01*
X383520Y162329D01*
X384329Y161520D01*
X385321Y160947D01*
X386427Y160650D01*
X387573D01*
X387765Y160702D01*
X394502Y153965D01*
Y120500D01*
X394692Y119544D01*
X394917Y119207D01*
X394984Y118958D01*
X395339Y118342D01*
X395842Y117840D01*
X396458Y117484D01*
X397145Y117300D01*
X397855D01*
X398542Y117484D01*
X399158Y117840D01*
X399660Y118342D01*
X400016Y118958D01*
X400200Y119644D01*
Y120355D01*
X400016Y121042D01*
X399660Y121658D01*
X399498Y121820D01*
Y155000D01*
X399308Y155956D01*
X398766Y156766D01*
X394948Y160585D01*
X395255Y160985D01*
X395321Y160947D01*
X396427Y160650D01*
X397573D01*
X398679Y160947D01*
X399671Y161520D01*
X400481Y162329D01*
X401053Y163321D01*
X401350Y164427D01*
Y165573D01*
X401053Y166679D01*
X400481Y167671D01*
X399671Y168481D01*
X398679Y169053D01*
X397573Y169350D01*
D02*
G37*
G36*
X411350D02*
X402650D01*
Y160650D01*
X411350D01*
Y169350D01*
D02*
G37*
G36*
X377573D02*
X376427D01*
X375321Y169053D01*
X374329Y168481D01*
X373519Y167671D01*
X372947Y166679D01*
X372650Y165573D01*
Y164427D01*
X372947Y163321D01*
X373519Y162329D01*
X374329Y161520D01*
X375321Y160947D01*
X376427Y160650D01*
X377573D01*
X378679Y160947D01*
X379671Y161520D01*
X380481Y162329D01*
X381053Y163321D01*
X381350Y164427D01*
Y165573D01*
X381053Y166679D01*
X380481Y167671D01*
X379671Y168481D01*
X378679Y169053D01*
X377573Y169350D01*
D02*
G37*
G36*
X357573D02*
X356427D01*
X355321Y169053D01*
X354329Y168481D01*
X353520Y167671D01*
X352947Y166679D01*
X352650Y165573D01*
Y164427D01*
X352947Y163321D01*
X353520Y162329D01*
X354329Y161520D01*
X355321Y160947D01*
X356427Y160650D01*
X357573D01*
X358679Y160947D01*
X359671Y161520D01*
X360480Y162329D01*
X361053Y163321D01*
X361350Y164427D01*
Y165573D01*
X361053Y166679D01*
X360480Y167671D01*
X359671Y168481D01*
X358679Y169053D01*
X357573Y169350D01*
D02*
G37*
G36*
X87307Y134895D02*
Y133250D01*
X88952D01*
X88676Y133916D01*
X87973Y134619D01*
X87307Y134895D01*
D02*
G37*
G36*
X85807D02*
X85141Y134619D01*
X84438Y133916D01*
X84162Y133250D01*
X85807D01*
Y134895D01*
D02*
G37*
G36*
X88952Y131750D02*
X87307D01*
Y130105D01*
X87973Y130381D01*
X88676Y131084D01*
X88952Y131750D01*
D02*
G37*
G36*
X85807D02*
X84162D01*
X84438Y131084D01*
X85141Y130381D01*
X85807Y130105D01*
Y131750D01*
D02*
G37*
G36*
X539903Y127395D02*
Y125750D01*
X541549D01*
X541273Y126416D01*
X540570Y127119D01*
X539903Y127395D01*
D02*
G37*
G36*
X538404D02*
X537737Y127119D01*
X537034Y126416D01*
X536758Y125750D01*
X538404D01*
Y127395D01*
D02*
G37*
G36*
X541549Y124250D02*
X539903D01*
Y122605D01*
X540570Y122881D01*
X541273Y123584D01*
X541549Y124250D01*
D02*
G37*
G36*
X538404D02*
X536758D01*
X537034Y123584D01*
X537737Y122881D01*
X538404Y122605D01*
Y124250D01*
D02*
G37*
G36*
X367573Y169350D02*
X366427D01*
X365321Y169053D01*
X364329Y168481D01*
X363520Y167671D01*
X362947Y166679D01*
X362650Y165573D01*
Y164427D01*
X362947Y163321D01*
X363520Y162329D01*
X364329Y161520D01*
X365012Y161125D01*
Y126090D01*
X364984Y126042D01*
X364800Y125356D01*
Y124644D01*
X364984Y123958D01*
X365339Y123342D01*
X365842Y122839D01*
X366458Y122484D01*
X367144Y122300D01*
X367856D01*
X368542Y122484D01*
X369158Y122839D01*
X369660Y123342D01*
X370016Y123958D01*
X370200Y124644D01*
Y125356D01*
X370016Y126042D01*
X369660Y126658D01*
X369158Y127161D01*
X368988Y127259D01*
Y161125D01*
X369671Y161520D01*
X370480Y162329D01*
X371053Y163321D01*
X371350Y164427D01*
Y165573D01*
X371053Y166679D01*
X370480Y167671D01*
X369671Y168481D01*
X368679Y169053D01*
X367573Y169350D01*
D02*
G37*
G36*
X610356Y647700D02*
X609645D01*
X608958Y647516D01*
X608342Y647160D01*
X607839Y646658D01*
X607484Y646042D01*
X607300Y645356D01*
Y644644D01*
X607484Y643958D01*
X607537Y643865D01*
X607439Y643371D01*
Y136830D01*
X607267Y136658D01*
X606911Y136042D01*
X606727Y135355D01*
Y134644D01*
X606911Y133958D01*
X607267Y133342D01*
X607439Y133170D01*
Y101830D01*
X607267Y101658D01*
X606911Y101042D01*
X606727Y100356D01*
Y99645D01*
X606911Y98958D01*
X607267Y98342D01*
X607769Y97839D01*
X608385Y97484D01*
X609072Y97300D01*
X609783D01*
X610469Y97484D01*
X611085Y97839D01*
X611588Y98342D01*
X611943Y98958D01*
X612127Y99645D01*
Y100356D01*
X611943Y101042D01*
X611588Y101658D01*
X611416Y101830D01*
Y133170D01*
X611588Y133342D01*
X611943Y133958D01*
X612127Y134644D01*
Y135355D01*
X611943Y136042D01*
X611588Y136658D01*
X611416Y136830D01*
Y642695D01*
X611420Y642702D01*
X611658Y642839D01*
X612160Y643342D01*
X612516Y643958D01*
X612700Y644644D01*
Y645356D01*
X612516Y646042D01*
X612160Y646658D01*
X611658Y647160D01*
X611042Y647516D01*
X610356Y647700D01*
D02*
G37*
G36*
X100356Y645200D02*
X99645D01*
X98958Y645016D01*
X98342Y644661D01*
X97839Y644158D01*
X97484Y643542D01*
X97300Y642856D01*
Y642144D01*
X97484Y641458D01*
X97839Y640842D01*
X98012Y640670D01*
Y126830D01*
X97839Y126658D01*
X97484Y126042D01*
X97300Y125356D01*
Y124644D01*
X97484Y123958D01*
X97839Y123342D01*
X98012Y123170D01*
Y101830D01*
X97839Y101658D01*
X97484Y101042D01*
X97300Y100356D01*
Y99645D01*
X97484Y98958D01*
X97839Y98342D01*
X98342Y97839D01*
X98958Y97484D01*
X99645Y97300D01*
X100356D01*
X101042Y97484D01*
X101658Y97839D01*
X102161Y98342D01*
X102516Y98958D01*
X102700Y99645D01*
Y100356D01*
X102516Y101042D01*
X102161Y101658D01*
X101988Y101830D01*
Y123170D01*
X102161Y123342D01*
X102516Y123958D01*
X102700Y124644D01*
Y125356D01*
X102516Y126042D01*
X102161Y126658D01*
X101988Y126830D01*
Y640670D01*
X102161Y640842D01*
X102516Y641458D01*
X102700Y642144D01*
Y642856D01*
X102516Y643542D01*
X102161Y644158D01*
X101658Y644661D01*
X101042Y645016D01*
X100356Y645200D01*
D02*
G37*
G36*
X660573Y104350D02*
X659427D01*
X658321Y104053D01*
X657329Y103481D01*
X656520Y102671D01*
X655947Y101679D01*
X655650Y100573D01*
Y99427D01*
X655947Y98321D01*
X656520Y97329D01*
X657329Y96520D01*
X658321Y95947D01*
X659427Y95650D01*
X660573D01*
X661679Y95947D01*
X662671Y96520D01*
X663481Y97329D01*
X664053Y98321D01*
X664350Y99427D01*
Y100573D01*
X664053Y101679D01*
X663481Y102671D01*
X662671Y103481D01*
X661679Y104053D01*
X660573Y104350D01*
D02*
G37*
G36*
X514350D02*
X505650D01*
Y95650D01*
X514350D01*
Y104350D01*
D02*
G37*
G36*
X250356Y615200D02*
X249644D01*
X248958Y615016D01*
X248342Y614661D01*
X247839Y614158D01*
X247484Y613542D01*
X247300Y612855D01*
Y612145D01*
X247484Y611458D01*
X247839Y610842D01*
X248012Y610670D01*
Y313219D01*
X238594Y303801D01*
X238163Y303156D01*
X238012Y302395D01*
Y104350D01*
X235650D01*
Y95650D01*
X244350D01*
Y104350D01*
X241988D01*
Y301572D01*
X251406Y310989D01*
X251837Y311634D01*
X251988Y312395D01*
Y610670D01*
X252161Y610842D01*
X252516Y611458D01*
X252700Y612145D01*
Y612855D01*
X252516Y613542D01*
X252161Y614158D01*
X251658Y614661D01*
X251042Y615016D01*
X250356Y615200D01*
D02*
G37*
G36*
X190573Y104350D02*
X189427D01*
X188321Y104053D01*
X187329Y103481D01*
X186520Y102671D01*
X185947Y101679D01*
X185650Y100573D01*
Y99427D01*
X185947Y98321D01*
X186520Y97329D01*
X187329Y96520D01*
X188321Y95947D01*
X189427Y95650D01*
X190573D01*
X191679Y95947D01*
X192671Y96520D01*
X193481Y97329D01*
X194053Y98321D01*
X194350Y99427D01*
Y100573D01*
X194053Y101679D01*
X193481Y102671D01*
X192671Y103481D01*
X191679Y104053D01*
X190573Y104350D01*
D02*
G37*
G36*
X44350D02*
X35650D01*
Y95650D01*
X44350D01*
Y104350D01*
D02*
G37*
G36*
X620356Y740200D02*
X619644D01*
X618958Y740016D01*
X618342Y739661D01*
X617839Y739158D01*
X617484Y738542D01*
X617300Y737855D01*
Y737145D01*
X617484Y736458D01*
X617839Y735842D01*
X618012Y735670D01*
Y115886D01*
X617839Y115714D01*
X617484Y115098D01*
X617300Y114411D01*
Y113700D01*
X617484Y113014D01*
X617839Y112398D01*
X618012Y112226D01*
Y91830D01*
X617839Y91658D01*
X617484Y91042D01*
X617300Y90355D01*
Y89644D01*
X617484Y88958D01*
X617839Y88342D01*
X618342Y87840D01*
X618958Y87484D01*
X619644Y87300D01*
X620356D01*
X621042Y87484D01*
X621658Y87840D01*
X622160Y88342D01*
X622516Y88958D01*
X622700Y89644D01*
Y90355D01*
X622516Y91042D01*
X622160Y91658D01*
X621988Y91830D01*
Y112226D01*
X622160Y112398D01*
X622516Y113014D01*
X622700Y113700D01*
Y114411D01*
X622516Y115098D01*
X622160Y115714D01*
X621988Y115886D01*
Y735670D01*
X622160Y735842D01*
X622516Y736458D01*
X622700Y737145D01*
Y737855D01*
X622516Y738542D01*
X622160Y739158D01*
X621658Y739661D01*
X621042Y740016D01*
X620356Y740200D01*
D02*
G37*
G36*
X375356Y128200D02*
X374644D01*
X373958Y128016D01*
X373342Y127661D01*
X372839Y127158D01*
X372484Y126542D01*
X372300Y125856D01*
Y125145D01*
X372484Y124458D01*
X372839Y123842D01*
X373012Y123670D01*
Y91830D01*
X372839Y91658D01*
X372484Y91042D01*
X372300Y90355D01*
Y89644D01*
X372484Y88958D01*
X372839Y88342D01*
X373342Y87840D01*
X373958Y87484D01*
X374644Y87300D01*
X375356D01*
X376042Y87484D01*
X376658Y87840D01*
X377161Y88342D01*
X377516Y88958D01*
X377700Y89644D01*
Y90355D01*
X377516Y91042D01*
X377161Y91658D01*
X376988Y91830D01*
Y123670D01*
X377161Y123842D01*
X377516Y124458D01*
X377700Y125145D01*
Y125856D01*
X377516Y126542D01*
X377161Y127158D01*
X376658Y127661D01*
X376042Y128016D01*
X375356Y128200D01*
D02*
G37*
G36*
X110355Y622700D02*
X109644D01*
X108958Y622516D01*
X108342Y622160D01*
X107840Y621658D01*
X107484Y621042D01*
X107300Y620356D01*
Y619644D01*
X107484Y618958D01*
X107840Y618342D01*
X108012Y618170D01*
Y114330D01*
X107840Y114158D01*
X107484Y113542D01*
X107300Y112856D01*
Y112144D01*
X107484Y111458D01*
X107840Y110842D01*
X108012Y110670D01*
Y91258D01*
X107840Y91085D01*
X107484Y90469D01*
X107300Y89783D01*
Y89072D01*
X107484Y88385D01*
X107840Y87770D01*
X108342Y87267D01*
X108958Y86911D01*
X109644Y86727D01*
X110355D01*
X111042Y86911D01*
X111658Y87267D01*
X112161Y87770D01*
X112516Y88385D01*
X112700Y89072D01*
Y89783D01*
X112516Y90469D01*
X112161Y91085D01*
X111988Y91258D01*
Y110670D01*
X112161Y110842D01*
X112516Y111458D01*
X112700Y112144D01*
Y112856D01*
X112516Y113542D01*
X112161Y114158D01*
X111988Y114330D01*
Y618170D01*
X112161Y618342D01*
X112516Y618958D01*
X112700Y619644D01*
Y620356D01*
X112516Y621042D01*
X112161Y621658D01*
X111658Y622160D01*
X111042Y622516D01*
X110355Y622700D01*
D02*
G37*
G36*
X510573Y94350D02*
X509427D01*
X508321Y94053D01*
X507329Y93480D01*
X506520Y92671D01*
X505947Y91679D01*
X505650Y90573D01*
Y89427D01*
X505947Y88321D01*
X506520Y87329D01*
X507329Y86519D01*
X508321Y85947D01*
X509427Y85650D01*
X510573D01*
X511679Y85947D01*
X512671Y86519D01*
X513481Y87329D01*
X514053Y88321D01*
X514350Y89427D01*
Y90573D01*
X514053Y91679D01*
X513481Y92671D01*
X512671Y93480D01*
X511679Y94053D01*
X510573Y94350D01*
D02*
G37*
G36*
X40573D02*
X39427D01*
X38321Y94053D01*
X37329Y93480D01*
X36520Y92671D01*
X35947Y91679D01*
X35650Y90573D01*
Y89427D01*
X35947Y88321D01*
X36520Y87329D01*
X37329Y86519D01*
X38321Y85947D01*
X39427Y85650D01*
X40573D01*
X41679Y85947D01*
X42671Y86519D01*
X43481Y87329D01*
X44053Y88321D01*
X44350Y89427D01*
Y90573D01*
X44053Y91679D01*
X43481Y92671D01*
X42671Y93480D01*
X41679Y94053D01*
X40573Y94350D01*
D02*
G37*
G36*
X630356Y675200D02*
X629644D01*
X628958Y675016D01*
X628342Y674660D01*
X627840Y674158D01*
X627484Y673542D01*
X627300Y672856D01*
Y672145D01*
X627484Y671458D01*
X627840Y670842D01*
X628012Y670670D01*
Y81830D01*
X627840Y81658D01*
X627484Y81042D01*
X627300Y80356D01*
Y79645D01*
X627484Y78958D01*
X627840Y78342D01*
X628342Y77839D01*
X628958Y77484D01*
X629644Y77300D01*
X630356D01*
X631042Y77484D01*
X631658Y77839D01*
X632161Y78342D01*
X632516Y78958D01*
X632700Y79645D01*
Y80356D01*
X632516Y81042D01*
X632161Y81658D01*
X631988Y81830D01*
Y670670D01*
X632161Y670842D01*
X632516Y671458D01*
X632700Y672145D01*
Y672856D01*
X632516Y673542D01*
X632161Y674158D01*
X631658Y674660D01*
X631042Y675016D01*
X630356Y675200D01*
D02*
G37*
G36*
X120355Y637700D02*
X119644D01*
X118958Y637516D01*
X118342Y637160D01*
X117840Y636658D01*
X117484Y636042D01*
X117300Y635356D01*
Y634645D01*
X117484Y633958D01*
X117840Y633342D01*
X118012Y633170D01*
Y82305D01*
X118007Y82298D01*
X117770Y82161D01*
X117267Y81658D01*
X116911Y81042D01*
X116727Y80356D01*
Y79645D01*
X116911Y78958D01*
X117267Y78342D01*
X117770Y77839D01*
X118385Y77484D01*
X119072Y77300D01*
X119783D01*
X120469Y77484D01*
X121085Y77839D01*
X121588Y78342D01*
X121943Y78958D01*
X122127Y79645D01*
Y80356D01*
X121943Y81042D01*
X121890Y81135D01*
X121988Y81629D01*
Y633170D01*
X122160Y633342D01*
X122516Y633958D01*
X122700Y634645D01*
Y635356D01*
X122516Y636042D01*
X122160Y636658D01*
X121658Y637160D01*
X121042Y637516D01*
X120355Y637700D01*
D02*
G37*
G36*
X510573Y84350D02*
X509427D01*
X508321Y84053D01*
X507329Y83481D01*
X506520Y82671D01*
X505947Y81679D01*
X505650Y80573D01*
Y79427D01*
X505947Y78321D01*
X506520Y77329D01*
X507329Y76520D01*
X508321Y75947D01*
X509427Y75650D01*
X510573D01*
X511679Y75947D01*
X512671Y76520D01*
X513481Y77329D01*
X514053Y78321D01*
X514350Y79427D01*
Y80573D01*
X514053Y81679D01*
X513481Y82671D01*
X512671Y83481D01*
X511679Y84053D01*
X510573Y84350D01*
D02*
G37*
G36*
X40573D02*
X39427D01*
X38321Y84053D01*
X37329Y83481D01*
X36520Y82671D01*
X35947Y81679D01*
X35650Y80573D01*
Y79427D01*
X35947Y78321D01*
X36520Y77329D01*
X37329Y76520D01*
X38321Y75947D01*
X39427Y75650D01*
X40573D01*
X41679Y75947D01*
X42671Y76520D01*
X43481Y77329D01*
X44053Y78321D01*
X44350Y79427D01*
Y80573D01*
X44053Y81679D01*
X43481Y82671D01*
X42671Y83481D01*
X41679Y84053D01*
X40573Y84350D01*
D02*
G37*
G36*
X640355Y617700D02*
X639644D01*
X638958Y617516D01*
X638342Y617161D01*
X637840Y616658D01*
X637484Y616042D01*
X637300Y615355D01*
Y614644D01*
X637484Y613958D01*
X637840Y613342D01*
X638012Y613170D01*
Y71830D01*
X637840Y71658D01*
X637484Y71042D01*
X637300Y70355D01*
Y69644D01*
X637484Y68958D01*
X637840Y68342D01*
X638342Y67839D01*
X638958Y67484D01*
X639644Y67300D01*
X640355D01*
X641042Y67484D01*
X641658Y67839D01*
X642161Y68342D01*
X642516Y68958D01*
X642700Y69644D01*
Y70355D01*
X642516Y71042D01*
X642161Y71658D01*
X641988Y71830D01*
Y613170D01*
X642161Y613342D01*
X642516Y613958D01*
X642700Y614644D01*
Y615355D01*
X642516Y616042D01*
X642161Y616658D01*
X641658Y617161D01*
X641042Y617516D01*
X640355Y617700D01*
D02*
G37*
G36*
X130356Y602700D02*
X129645D01*
X128958Y602516D01*
X128342Y602161D01*
X127840Y601658D01*
X127484Y601042D01*
X127300Y600355D01*
Y599645D01*
X127439Y599125D01*
Y71830D01*
X127267Y71658D01*
X126911Y71042D01*
X126727Y70355D01*
Y69644D01*
X126911Y68958D01*
X127267Y68342D01*
X127769Y67839D01*
X128385Y67484D01*
X129072Y67300D01*
X129783D01*
X130470Y67484D01*
X131085Y67839D01*
X131588Y68342D01*
X131943Y68958D01*
X132127Y69644D01*
Y70355D01*
X131943Y71042D01*
X131588Y71658D01*
X131416Y71830D01*
Y597700D01*
X131658Y597839D01*
X132160Y598342D01*
X132516Y598958D01*
X132700Y599645D01*
Y600355D01*
X132516Y601042D01*
X132160Y601658D01*
X131658Y602161D01*
X131042Y602516D01*
X130356Y602700D01*
D02*
G37*
G36*
X510573Y74350D02*
X509427D01*
X508321Y74053D01*
X507329Y73480D01*
X506520Y72671D01*
X505947Y71679D01*
X505650Y70573D01*
Y69427D01*
X505947Y68321D01*
X506520Y67329D01*
X507329Y66519D01*
X508321Y65947D01*
X509427Y65650D01*
X510573D01*
X511679Y65947D01*
X512671Y66519D01*
X513481Y67329D01*
X514053Y68321D01*
X514350Y69427D01*
Y70573D01*
X514053Y71679D01*
X513481Y72671D01*
X512671Y73480D01*
X511679Y74053D01*
X510573Y74350D01*
D02*
G37*
G36*
X40573D02*
X39427D01*
X38321Y74053D01*
X37329Y73480D01*
X36520Y72671D01*
X35947Y71679D01*
X35650Y70573D01*
Y69427D01*
X35947Y68321D01*
X36520Y67329D01*
X37329Y66519D01*
X38321Y65947D01*
X39427Y65650D01*
X40573D01*
X41679Y65947D01*
X42671Y66519D01*
X43481Y67329D01*
X44053Y68321D01*
X44350Y69427D01*
Y70573D01*
X44053Y71679D01*
X43481Y72671D01*
X42671Y73480D01*
X41679Y74053D01*
X40573Y74350D01*
D02*
G37*
G36*
X145355Y823055D02*
X144644D01*
X143958Y822871D01*
X143342Y822516D01*
X142840Y822013D01*
X142484Y821398D01*
X142300Y820711D01*
Y820467D01*
X138745Y816913D01*
X138314Y816268D01*
X138163Y815507D01*
Y486937D01*
X137991Y486764D01*
X137635Y486149D01*
X137451Y485462D01*
Y484751D01*
X137635Y484064D01*
X137991Y483449D01*
X138087Y483352D01*
Y61906D01*
X137839Y61658D01*
X137484Y61042D01*
X137300Y60356D01*
Y59645D01*
X137484Y58958D01*
X137839Y58342D01*
X138342Y57840D01*
X138958Y57484D01*
X139645Y57300D01*
X140356D01*
X141042Y57484D01*
X141658Y57840D01*
X142160Y58342D01*
X142516Y58958D01*
X142700Y59645D01*
Y60356D01*
X142516Y61042D01*
X142160Y61658D01*
X142064Y61755D01*
Y483201D01*
X142312Y483449D01*
X142667Y484064D01*
X142851Y484751D01*
Y485462D01*
X142667Y486149D01*
X142312Y486764D01*
X142139Y486937D01*
Y814683D01*
X145112Y817655D01*
X145355D01*
X146042Y817840D01*
X146658Y818195D01*
X147160Y818698D01*
X147516Y819313D01*
X147700Y820000D01*
Y820711D01*
X147516Y821398D01*
X147160Y822013D01*
X146658Y822516D01*
X146042Y822871D01*
X145355Y823055D01*
D02*
G37*
G36*
X510573Y64350D02*
X509427D01*
X508321Y64053D01*
X507329Y63481D01*
X506520Y62671D01*
X505947Y61679D01*
X505650Y60573D01*
Y59427D01*
X505947Y58321D01*
X506520Y57329D01*
X507329Y56520D01*
X508321Y55947D01*
X509427Y55650D01*
X510573D01*
X511679Y55947D01*
X512671Y56520D01*
X513481Y57329D01*
X514053Y58321D01*
X514350Y59427D01*
Y60573D01*
X514053Y61679D01*
X513481Y62671D01*
X512671Y63481D01*
X511679Y64053D01*
X510573Y64350D01*
D02*
G37*
G36*
X40573D02*
X39427D01*
X38321Y64053D01*
X37329Y63481D01*
X36520Y62671D01*
X35947Y61679D01*
X35650Y60573D01*
Y59427D01*
X35947Y58321D01*
X36520Y57329D01*
X37329Y56520D01*
X38321Y55947D01*
X39427Y55650D01*
X40573D01*
X41679Y55947D01*
X42671Y56520D01*
X43481Y57329D01*
X44053Y58321D01*
X44350Y59427D01*
Y60573D01*
X44053Y61679D01*
X43481Y62671D01*
X42671Y63481D01*
X41679Y64053D01*
X40573Y64350D01*
D02*
G37*
G36*
X510573Y54350D02*
X509427D01*
X508321Y54053D01*
X507329Y53480D01*
X506520Y52671D01*
X505947Y51679D01*
X505650Y50573D01*
Y49427D01*
X505947Y48321D01*
X506520Y47329D01*
X507329Y46520D01*
X508321Y45947D01*
X509427Y45650D01*
X510573D01*
X511679Y45947D01*
X512671Y46520D01*
X513481Y47329D01*
X514053Y48321D01*
X514350Y49427D01*
Y50573D01*
X514053Y51679D01*
X513481Y52671D01*
X512671Y53480D01*
X511679Y54053D01*
X510573Y54350D01*
D02*
G37*
G36*
X40573D02*
X39427D01*
X38321Y54053D01*
X37329Y53480D01*
X36520Y52671D01*
X35947Y51679D01*
X35650Y50573D01*
Y49427D01*
X35947Y48321D01*
X36520Y47329D01*
X37329Y46520D01*
X38321Y45947D01*
X39427Y45650D01*
X40573D01*
X41679Y45947D01*
X42671Y46520D01*
X43481Y47329D01*
X44053Y48321D01*
X44350Y49427D01*
Y50573D01*
X44053Y51679D01*
X43481Y52671D01*
X42671Y53480D01*
X41679Y54053D01*
X40573Y54350D01*
D02*
G37*
%LPD*%
G36*
X540000Y349150D02*
X511319D01*
X510573Y349350D01*
X509427D01*
X508681Y349150D01*
X500000D01*
Y390000D01*
X520000D01*
Y774660D01*
X500000D01*
Y810000D01*
X540000D01*
Y349150D01*
D02*
G37*
%LPC*%
G36*
X514150Y804150D02*
X510500D01*
Y800500D01*
X514150D01*
Y804150D01*
D02*
G37*
G36*
X509500D02*
X505850D01*
Y800500D01*
X509500D01*
Y804150D01*
D02*
G37*
G36*
X514150Y799500D02*
X510500D01*
Y795850D01*
X514150D01*
Y799500D01*
D02*
G37*
G36*
X509500D02*
X505850D01*
Y795850D01*
X509500D01*
Y799500D01*
D02*
G37*
G36*
X510546Y794150D02*
X510500D01*
Y790500D01*
X514150D01*
Y790546D01*
X513867Y791602D01*
X513320Y792548D01*
X512548Y793321D01*
X511602Y793867D01*
X510546Y794150D01*
D02*
G37*
G36*
X509500D02*
X509454D01*
X508398Y793867D01*
X507452Y793321D01*
X506679Y792548D01*
X506133Y791602D01*
X505850Y790546D01*
Y790500D01*
X509500D01*
Y794150D01*
D02*
G37*
G36*
X514150Y789500D02*
X510500D01*
Y785850D01*
X510546D01*
X511602Y786133D01*
X512548Y786680D01*
X513320Y787452D01*
X513867Y788398D01*
X514150Y789454D01*
Y789500D01*
D02*
G37*
G36*
X509500D02*
X505850D01*
Y789454D01*
X506133Y788398D01*
X506679Y787452D01*
X507452Y786680D01*
X508398Y786133D01*
X509454Y785850D01*
X509500D01*
Y789500D01*
D02*
G37*
G36*
X510546Y784150D02*
X510500D01*
Y780500D01*
X514150D01*
Y780546D01*
X513867Y781602D01*
X513320Y782548D01*
X512548Y783321D01*
X511602Y783867D01*
X510546Y784150D01*
D02*
G37*
G36*
X509500D02*
X509454D01*
X508398Y783867D01*
X507452Y783321D01*
X506679Y782548D01*
X506133Y781602D01*
X505850Y780546D01*
Y780500D01*
X509500D01*
Y784150D01*
D02*
G37*
G36*
X514150Y779500D02*
X510500D01*
Y775850D01*
X510546D01*
X511602Y776133D01*
X512548Y776680D01*
X513320Y777452D01*
X513867Y778398D01*
X514150Y779454D01*
Y779500D01*
D02*
G37*
G36*
X509500D02*
X505850D01*
Y779454D01*
X506133Y778398D01*
X506679Y777452D01*
X507452Y776680D01*
X508398Y776133D01*
X509454Y775850D01*
X509500D01*
Y779500D01*
D02*
G37*
G36*
X525355Y732700D02*
X524645D01*
X523958Y732516D01*
X523342Y732161D01*
X522839Y731658D01*
X522484Y731042D01*
X522300Y730356D01*
Y729644D01*
X522484Y728958D01*
X522839Y728342D01*
X523012Y728170D01*
Y601830D01*
X522839Y601658D01*
X522484Y601042D01*
X522300Y600355D01*
Y599645D01*
X522484Y598958D01*
X522839Y598342D01*
X523342Y597839D01*
X523958Y597484D01*
X524645Y597300D01*
X525355D01*
X526042Y597484D01*
X526658Y597839D01*
X527161Y598342D01*
X527516Y598958D01*
X527700Y599645D01*
Y600355D01*
X527516Y601042D01*
X527161Y601658D01*
X526988Y601830D01*
Y728170D01*
X527161Y728342D01*
X527516Y728958D01*
X527700Y729644D01*
Y730356D01*
X527516Y731042D01*
X527161Y731658D01*
X526658Y732161D01*
X526042Y732516D01*
X525355Y732700D01*
D02*
G37*
G36*
X514150Y379150D02*
X510500D01*
Y375500D01*
X514150D01*
Y379150D01*
D02*
G37*
G36*
X509500D02*
X505850D01*
Y375500D01*
X509500D01*
Y379150D01*
D02*
G37*
G36*
X514150Y374500D02*
X510500D01*
Y370850D01*
X514150D01*
Y374500D01*
D02*
G37*
G36*
X509500D02*
X505850D01*
Y370850D01*
X509500D01*
Y374500D01*
D02*
G37*
G36*
X510546Y369150D02*
X510500D01*
Y365500D01*
X514150D01*
Y365546D01*
X513867Y366602D01*
X513320Y367548D01*
X512548Y368320D01*
X511602Y368867D01*
X510546Y369150D01*
D02*
G37*
G36*
X509500D02*
X509454D01*
X508398Y368867D01*
X507452Y368320D01*
X506679Y367548D01*
X506133Y366602D01*
X505850Y365546D01*
Y365500D01*
X509500D01*
Y369150D01*
D02*
G37*
G36*
X514150Y364500D02*
X510500D01*
Y360850D01*
X510546D01*
X511602Y361133D01*
X512548Y361680D01*
X513320Y362452D01*
X513867Y363398D01*
X514150Y364454D01*
Y364500D01*
D02*
G37*
G36*
X509500D02*
X505850D01*
Y364454D01*
X506133Y363398D01*
X506679Y362452D01*
X507452Y361680D01*
X508398Y361133D01*
X509454Y360850D01*
X509500D01*
Y364500D01*
D02*
G37*
G36*
X510546Y359150D02*
X510500D01*
Y355500D01*
X514150D01*
Y355546D01*
X513867Y356602D01*
X513320Y357548D01*
X512548Y358320D01*
X511602Y358867D01*
X510546Y359150D01*
D02*
G37*
G36*
X509500D02*
X509454D01*
X508398Y358867D01*
X507452Y358320D01*
X506679Y357548D01*
X506133Y356602D01*
X505850Y355546D01*
Y355500D01*
X509500D01*
Y359150D01*
D02*
G37*
G36*
X514150Y354500D02*
X510500D01*
Y350850D01*
X510546D01*
X511602Y351133D01*
X512548Y351679D01*
X513320Y352452D01*
X513867Y353398D01*
X514150Y354454D01*
Y354500D01*
D02*
G37*
G36*
X509500D02*
X505850D01*
Y354454D01*
X506133Y353398D01*
X506679Y352452D01*
X507452Y351679D01*
X508398Y351133D01*
X509454Y350850D01*
X509500D01*
Y354500D01*
D02*
G37*
%LPD*%
G36*
X70000Y350000D02*
X30000D01*
Y390000D01*
X50000D01*
Y774150D01*
X41319D01*
X40573Y774350D01*
X39427D01*
X38681Y774150D01*
X30000D01*
Y810000D01*
X70000D01*
Y350000D01*
D02*
G37*
%LPC*%
G36*
X44150Y804150D02*
X40500D01*
Y800500D01*
X44150D01*
Y804150D01*
D02*
G37*
G36*
X39500D02*
X35850D01*
Y800500D01*
X39500D01*
Y804150D01*
D02*
G37*
G36*
X44150Y799500D02*
X40500D01*
Y795850D01*
X44150D01*
Y799500D01*
D02*
G37*
G36*
X39500D02*
X35850D01*
Y795850D01*
X39500D01*
Y799500D01*
D02*
G37*
G36*
X40546Y794150D02*
X40500D01*
Y790500D01*
X44150D01*
Y790546D01*
X43867Y791602D01*
X43321Y792548D01*
X42548Y793321D01*
X41602Y793867D01*
X40546Y794150D01*
D02*
G37*
G36*
X39500D02*
X39454D01*
X38398Y793867D01*
X37452Y793321D01*
X36680Y792548D01*
X36133Y791602D01*
X35850Y790546D01*
Y790500D01*
X39500D01*
Y794150D01*
D02*
G37*
G36*
X44150Y789500D02*
X40500D01*
Y785850D01*
X40546D01*
X41602Y786133D01*
X42548Y786680D01*
X43321Y787452D01*
X43867Y788398D01*
X44150Y789454D01*
Y789500D01*
D02*
G37*
G36*
X39500D02*
X35850D01*
Y789454D01*
X36133Y788398D01*
X36680Y787452D01*
X37452Y786680D01*
X38398Y786133D01*
X39454Y785850D01*
X39500D01*
Y789500D01*
D02*
G37*
G36*
X40546Y784150D02*
X40500D01*
Y780500D01*
X44150D01*
Y780546D01*
X43867Y781602D01*
X43321Y782548D01*
X42548Y783321D01*
X41602Y783867D01*
X40546Y784150D01*
D02*
G37*
G36*
X39500D02*
X39454D01*
X38398Y783867D01*
X37452Y783321D01*
X36680Y782548D01*
X36133Y781602D01*
X35850Y780546D01*
Y780500D01*
X39500D01*
Y784150D01*
D02*
G37*
G36*
X44150Y779500D02*
X40500D01*
Y775850D01*
X40546D01*
X41602Y776133D01*
X42548Y776680D01*
X43321Y777452D01*
X43867Y778398D01*
X44150Y779454D01*
Y779500D01*
D02*
G37*
G36*
X39500D02*
X35850D01*
Y779454D01*
X36133Y778398D01*
X36680Y777452D01*
X37452Y776680D01*
X38398Y776133D01*
X39454Y775850D01*
X39500D01*
Y779500D01*
D02*
G37*
G36*
X44150Y379150D02*
X40500D01*
Y375500D01*
X44150D01*
Y379150D01*
D02*
G37*
G36*
X39500D02*
X35850D01*
Y375500D01*
X39500D01*
Y379150D01*
D02*
G37*
G36*
X44150Y374500D02*
X40500D01*
Y370850D01*
X44150D01*
Y374500D01*
D02*
G37*
G36*
X39500D02*
X35850D01*
Y370850D01*
X39500D01*
Y374500D01*
D02*
G37*
G36*
X40546Y369150D02*
X40500D01*
Y365500D01*
X44150D01*
Y365546D01*
X43867Y366602D01*
X43321Y367548D01*
X42548Y368320D01*
X41602Y368867D01*
X40546Y369150D01*
D02*
G37*
G36*
X39500D02*
X39454D01*
X38398Y368867D01*
X37452Y368320D01*
X36680Y367548D01*
X36133Y366602D01*
X35850Y365546D01*
Y365500D01*
X39500D01*
Y369150D01*
D02*
G37*
G36*
X44150Y364500D02*
X40500D01*
Y360850D01*
X40546D01*
X41602Y361133D01*
X42548Y361680D01*
X43321Y362452D01*
X43867Y363398D01*
X44150Y364454D01*
Y364500D01*
D02*
G37*
G36*
X39500D02*
X35850D01*
Y364454D01*
X36133Y363398D01*
X36680Y362452D01*
X37452Y361680D01*
X38398Y361133D01*
X39454Y360850D01*
X39500D01*
Y364500D01*
D02*
G37*
G36*
X40546Y359150D02*
X40500D01*
Y355500D01*
X44150D01*
Y355546D01*
X43867Y356602D01*
X43321Y357548D01*
X42548Y358320D01*
X41602Y358867D01*
X40546Y359150D01*
D02*
G37*
G36*
X39500D02*
X39454D01*
X38398Y358867D01*
X37452Y358320D01*
X36680Y357548D01*
X36133Y356602D01*
X35850Y355546D01*
Y355500D01*
X39500D01*
Y359150D01*
D02*
G37*
G36*
X44150Y354500D02*
X40500D01*
Y350850D01*
X40546D01*
X41602Y351133D01*
X42548Y351679D01*
X43321Y352452D01*
X43867Y353398D01*
X44150Y354454D01*
Y354500D01*
D02*
G37*
G36*
X39500D02*
X35850D01*
Y354454D01*
X36133Y353398D01*
X36680Y352452D01*
X37452Y351679D01*
X38398Y351133D01*
X39454Y350850D01*
X39500D01*
Y354500D01*
D02*
G37*
%LPD*%
D11*
X19685Y846457D02*
G03*
X500Y826772I250J-19435D01*
G01*
X748032D02*
G03*
X727846Y846457I-19935J-250D01*
G01*
Y1000D02*
G03*
X748032Y19685I750J19435D01*
G01*
X500D02*
G03*
X19685Y1000I18935J250D01*
G01*
X748032Y374016D02*
Y826772D01*
X374016Y846457D02*
X728346D01*
X19685D02*
X374016D01*
X500Y472441D02*
Y826772D01*
X748032Y19685D02*
Y374016D01*
X374016Y1000D02*
X727846D01*
X500Y19685D02*
Y472441D01*
X19685Y1000D02*
X374016D01*
D58*
X482500Y595000D02*
X487500Y600000D01*
X490537Y635000D02*
Y735000D01*
X487500Y600000D02*
Y800000D01*
X267500Y650000D02*
Y764327D01*
X262500Y769327D02*
X267500Y764327D01*
X371391Y486109D02*
X372500Y485000D01*
X371391Y486109D02*
Y561634D01*
X350000Y547500D02*
Y561634D01*
X346260Y543760D02*
X350000Y547500D01*
X336171Y543760D02*
X346260D01*
X312500Y518953D02*
Y545000D01*
X315000Y516150D02*
Y516453D01*
X312500Y518953D02*
X315000Y516453D01*
X292500Y547500D02*
Y555000D01*
Y547500D02*
X303500Y536500D01*
Y516150D02*
Y536500D01*
X282500Y492500D02*
Y558819D01*
X400000Y314803D02*
Y492500D01*
X270537Y737713D02*
X272825Y740000D01*
X280000D01*
X270000Y522703D02*
X272825Y525528D01*
X270537Y609279D02*
Y737713D01*
X265000Y603742D02*
X270537Y609279D01*
X265000Y357500D02*
Y603742D01*
X272825Y692825D02*
X280000Y700000D01*
X272825Y525528D02*
Y692825D01*
X359935Y320000D02*
Y357435D01*
X360000Y357500D01*
X270000Y350000D02*
Y522703D01*
X330000Y310000D02*
Y350000D01*
X375000Y125500D02*
X375000Y125500D01*
X375000Y90000D02*
Y125500D01*
X620000Y114056D02*
Y737500D01*
Y90000D02*
Y114056D01*
X609427Y135000D02*
Y643371D01*
Y100000D02*
Y135000D01*
X367000Y125500D02*
X367500Y125000D01*
X367000Y125500D02*
Y165000D01*
X570000Y510178D02*
Y700000D01*
X580000Y500000D02*
Y697500D01*
X572500Y705000D02*
X580000Y697500D01*
X560000Y559500D02*
Y690000D01*
Y525000D02*
Y559500D01*
X215000Y792500D02*
X215313Y792187D01*
Y513348D02*
Y792187D01*
X445000Y710000D02*
Y776413D01*
X609713Y643657D02*
Y644713D01*
X609427Y643371D02*
X609713Y643657D01*
Y644713D02*
X610000Y645000D01*
X430000Y642500D02*
Y660000D01*
X292500Y745537D02*
Y779996D01*
X322500Y739675D02*
Y787083D01*
X361614Y735787D02*
Y745537D01*
X630000Y80000D02*
Y672500D01*
X300000D02*
Y760000D01*
X640000Y70000D02*
Y615000D01*
X410000Y610038D02*
Y660000D01*
Y610038D02*
X410038Y610000D01*
X262500Y605537D02*
Y750000D01*
X680000Y525000D02*
Y725000D01*
X350000Y680000D02*
X355510Y674490D01*
Y650061D02*
X355571Y650000D01*
X355510Y650061D02*
Y674490D01*
X695000Y130000D02*
Y650000D01*
X195650Y527279D02*
Y640000D01*
X205313Y512837D02*
Y595000D01*
X340000Y594675D02*
Y660000D01*
X360000Y605537D02*
Y687500D01*
X440038Y532641D02*
Y594463D01*
X590000Y490000D02*
Y750000D01*
X525000Y600000D02*
Y730000D01*
X670000Y525000D02*
Y720000D01*
X665000Y115650D02*
X670000Y110650D01*
X665000Y115650D02*
Y710000D01*
X710000Y525000D02*
Y680000D01*
X110000Y112500D02*
Y620000D01*
X420000D02*
Y660000D01*
X120000Y81629D02*
Y635000D01*
X119714Y81343D02*
X120000Y81629D01*
X119714Y80287D02*
Y81343D01*
X119427Y80000D02*
X119714Y80287D01*
X390000Y635000D02*
Y660000D01*
X225000Y514172D02*
Y617500D01*
Y514172D02*
X230000Y509171D01*
X380000Y617500D02*
Y660000D01*
X370000Y613130D02*
X370630Y612500D01*
X370000Y613130D02*
Y660000D01*
X685000Y125000D02*
Y605000D01*
X140151Y815507D02*
X145000Y820356D01*
X140151Y485106D02*
Y815507D01*
X450038Y532641D02*
Y590000D01*
X330000D02*
Y660000D01*
X705000Y135000D02*
Y630000D01*
X320000D02*
Y660000D01*
X675000Y323415D02*
Y625000D01*
Y323415D02*
X675650Y322765D01*
Y118926D02*
X680000Y114577D01*
X675650Y118926D02*
Y322765D01*
X310000Y625000D02*
Y660000D01*
X569822Y510000D02*
X570000Y510178D01*
X700000Y525000D02*
Y610000D01*
X690000Y525000D02*
Y715000D01*
X710000Y100000D02*
Y130000D01*
X695000D02*
X700000Y125000D01*
Y100000D02*
Y125000D01*
X705000Y135000D02*
X710000Y130000D01*
X690000Y100000D02*
Y120000D01*
X685000Y125000D02*
X690000Y120000D01*
X680000Y100000D02*
Y114577D01*
X670000Y100000D02*
Y110650D01*
X250000Y312395D02*
Y612500D01*
X240000Y302395D02*
X250000Y312395D01*
X240000Y100000D02*
Y302395D01*
X230000Y100000D02*
Y509171D01*
X215313Y513348D02*
X220000Y508661D01*
Y100000D02*
Y508661D01*
X205313Y512837D02*
X210000Y508150D01*
Y100000D02*
Y508150D01*
X195650Y104350D02*
Y522721D01*
X195313Y526941D02*
X195650Y527279D01*
Y104350D02*
X200000Y100000D01*
X195313Y523059D02*
Y526941D01*
Y523059D02*
X195650Y522721D01*
X140000Y60000D02*
X140076Y60076D01*
Y485031D02*
X140151Y485106D01*
X140076Y60076D02*
Y485031D01*
X110000Y89427D02*
Y112500D01*
X100000Y100000D02*
Y125000D01*
Y642500D01*
X129427Y599427D02*
X130000Y600000D01*
X129427Y70000D02*
Y599427D01*
X260000Y800000D02*
Y820000D01*
X368537Y716037D02*
Y745772D01*
X365000Y749843D02*
X365158Y750000D01*
X365079Y725079D02*
Y749764D01*
X365000Y749843D02*
X365079Y749764D01*
X365000Y725000D02*
X365079Y725079D01*
X435000Y680000D02*
Y763165D01*
Y769327D02*
Y790000D01*
X430000Y750000D02*
Y790626D01*
X415000Y697500D02*
Y769327D01*
X420000Y740000D02*
Y787083D01*
X440000Y705000D02*
Y772870D01*
X450000Y720000D02*
Y779996D01*
X456461Y731039D02*
X457500Y730000D01*
X456461Y731039D02*
Y783539D01*
X425000Y760000D02*
Y794169D01*
X427500Y797500D02*
X435000Y790000D01*
X457500D02*
X470000D01*
X442661Y804839D02*
X457500Y790000D01*
X425000Y804839D02*
X442661D01*
X452500Y800000D02*
Y805000D01*
X449118Y808382D02*
X452500Y805000D01*
X420000Y808382D02*
X449118D01*
X440000Y660000D02*
Y700000D01*
X404213Y700787D02*
X405000Y700000D01*
X404213Y700787D02*
Y748091D01*
X430000Y660000D02*
Y692500D01*
X400669Y694331D02*
X402500Y692500D01*
X400669Y694331D02*
Y743799D01*
X332500Y667500D02*
Y715000D01*
Y667500D02*
X340000Y660000D01*
X337500Y710000D02*
Y776413D01*
X420000Y660000D02*
Y687500D01*
X397126Y687874D02*
X397500Y687500D01*
X397126Y687874D02*
Y747874D01*
X410000Y660000D02*
Y682500D01*
X395000D02*
Y682724D01*
X393583Y684141D02*
X395000Y682724D01*
X393583Y684141D02*
Y744547D01*
X400000Y660000D02*
Y677500D01*
X390000D02*
Y747500D01*
X386457Y673543D02*
X390000Y670000D01*
Y660000D02*
Y670000D01*
X386457Y673543D02*
Y743957D01*
X380000Y670000D02*
X382913Y672913D01*
X380000Y660000D02*
Y670000D01*
X382913Y672913D02*
Y747303D01*
X370000Y660000D02*
Y682094D01*
X370630Y682724D01*
Y683130D01*
X379370D02*
Y743130D01*
X375827Y688327D02*
Y751673D01*
X342870Y674630D02*
X350000Y667500D01*
Y660000D02*
Y667500D01*
X342870Y674630D02*
Y695000D01*
X372500D02*
Y745000D01*
X372284Y745217D02*
X372500Y745000D01*
X329463Y660537D02*
Y722632D01*
X327500Y724594D02*
X329463Y722632D01*
Y660537D02*
X330000Y660000D01*
X327500Y724594D02*
Y725000D01*
X332500Y720000D02*
Y779996D01*
X320000Y660000D02*
Y735000D01*
X310000Y660000D02*
Y745000D01*
X327500Y730000D02*
Y783539D01*
X350000Y680000D02*
X350783Y680784D01*
Y765784D01*
X347500Y690000D02*
Y769327D01*
X342500Y700000D02*
Y772500D01*
X317500Y750000D02*
Y790000D01*
X312500Y760000D02*
Y794169D01*
X307500Y797500D02*
X307606Y797394D01*
Y770106D02*
Y797394D01*
X307500Y770000D02*
X307606Y770106D01*
X307500Y797500D02*
X307713Y797713D01*
X302500Y780000D02*
Y800000D01*
X280000Y790000D02*
X297500D01*
X292500Y800000D02*
Y808382D01*
D59*
X397000Y120500D02*
X397500Y120000D01*
X397000Y120500D02*
Y155000D01*
X387000Y165000D02*
X397000Y155000D01*
D60*
X523701Y141201D02*
Y372335D01*
X521035Y375000D02*
X523701Y372335D01*
X510000Y375000D02*
X521035D01*
D61*
X470000Y810000D02*
D03*
X280000D02*
D03*
D62*
X470000Y800000D02*
D03*
Y790000D02*
D03*
Y780000D02*
D03*
Y770000D02*
D03*
Y760000D02*
D03*
Y750000D02*
D03*
Y740000D02*
D03*
Y730000D02*
D03*
Y720000D02*
D03*
Y710000D02*
D03*
Y700000D02*
D03*
Y690000D02*
D03*
Y680000D02*
D03*
X450000Y660000D02*
D03*
X440000D02*
D03*
X430000D02*
D03*
X420000D02*
D03*
X410000D02*
D03*
X400000D02*
D03*
X390000D02*
D03*
X380000D02*
D03*
X370000D02*
D03*
X360000D02*
D03*
X350000D02*
D03*
X340000D02*
D03*
X330000D02*
D03*
X320000D02*
D03*
X280000Y680000D02*
D03*
Y690000D02*
D03*
Y700000D02*
D03*
Y710000D02*
D03*
Y720000D02*
D03*
Y730000D02*
D03*
Y740000D02*
D03*
Y750000D02*
D03*
Y760000D02*
D03*
Y770000D02*
D03*
Y780000D02*
D03*
Y790000D02*
D03*
Y800000D02*
D03*
D63*
X377000Y165000D02*
D03*
X397000D02*
D03*
X387000D02*
D03*
X367000D02*
D03*
X357000D02*
D03*
X450038Y532641D02*
D03*
X440038D02*
D03*
X420038D02*
D03*
X430038D02*
D03*
X680000Y525000D02*
D03*
X700000D02*
D03*
X690000D02*
D03*
X670000D02*
D03*
X660000D02*
D03*
X680000Y100000D02*
D03*
X700000D02*
D03*
X690000D02*
D03*
X670000D02*
D03*
X660000D02*
D03*
X710000Y345000D02*
D03*
Y365000D02*
D03*
Y355000D02*
D03*
Y335000D02*
D03*
Y325000D02*
D03*
Y770000D02*
D03*
Y790000D02*
D03*
Y780000D02*
D03*
Y760000D02*
D03*
Y750000D02*
D03*
X510000Y495000D02*
D03*
Y515000D02*
D03*
Y505000D02*
D03*
Y485000D02*
D03*
Y475000D02*
D03*
Y770000D02*
D03*
Y790000D02*
D03*
Y780000D02*
D03*
Y760000D02*
D03*
Y750000D02*
D03*
Y70000D02*
D03*
Y90000D02*
D03*
Y80000D02*
D03*
Y60000D02*
D03*
Y50000D02*
D03*
Y345000D02*
D03*
Y365000D02*
D03*
Y355000D02*
D03*
Y335000D02*
D03*
Y325000D02*
D03*
X210000Y525000D02*
D03*
X230000D02*
D03*
X220000D02*
D03*
X200000D02*
D03*
X190000D02*
D03*
X240000Y770000D02*
D03*
Y790000D02*
D03*
Y780000D02*
D03*
Y760000D02*
D03*
Y750000D02*
D03*
X40000Y770000D02*
D03*
Y790000D02*
D03*
Y780000D02*
D03*
Y760000D02*
D03*
Y750000D02*
D03*
Y495000D02*
D03*
Y515000D02*
D03*
Y505000D02*
D03*
Y485000D02*
D03*
Y475000D02*
D03*
X240000Y345000D02*
D03*
Y365000D02*
D03*
Y355000D02*
D03*
Y335000D02*
D03*
Y325000D02*
D03*
X40000Y70000D02*
D03*
Y90000D02*
D03*
Y80000D02*
D03*
Y60000D02*
D03*
Y50000D02*
D03*
Y345000D02*
D03*
Y365000D02*
D03*
Y355000D02*
D03*
Y335000D02*
D03*
Y325000D02*
D03*
X210000Y100000D02*
D03*
X230000D02*
D03*
X220000D02*
D03*
X200000D02*
D03*
X190000D02*
D03*
D64*
X407000Y165000D02*
D03*
X410038Y532641D02*
D03*
X710000Y525000D02*
D03*
Y100000D02*
D03*
X240000Y525000D02*
D03*
Y100000D02*
D03*
D65*
X310000Y660000D02*
D03*
D66*
X710000Y375000D02*
D03*
Y800000D02*
D03*
X510000Y525000D02*
D03*
Y800000D02*
D03*
Y100000D02*
D03*
Y375000D02*
D03*
X240000Y800000D02*
D03*
X40000D02*
D03*
Y525000D02*
D03*
X240000Y375000D02*
D03*
X40000Y100000D02*
D03*
Y375000D02*
D03*
D67*
X330008Y811925D02*
D03*
X433012Y814867D02*
D03*
X306847Y437250D02*
D03*
X487500Y800000D02*
D03*
X490537Y635000D02*
D03*
Y735000D02*
D03*
X262500Y769327D02*
D03*
X372500Y485000D02*
D03*
X371391Y561634D02*
D03*
X350000D02*
D03*
X336171Y543760D02*
D03*
X312500Y545000D02*
D03*
X315000Y516150D02*
D03*
X292500Y555000D02*
D03*
X303500Y516150D02*
D03*
X282500Y558819D02*
D03*
Y492500D02*
D03*
X400000D02*
D03*
Y314803D02*
D03*
X267500Y650000D02*
D03*
X265000Y357500D02*
D03*
X360000D02*
D03*
X359935Y320000D02*
D03*
X270000Y350000D02*
D03*
X330000D02*
D03*
Y310000D02*
D03*
X375000Y125500D02*
D03*
X375000Y90000D02*
D03*
X620000Y114056D02*
D03*
X609427Y135000D02*
D03*
X397500Y120000D02*
D03*
X523701Y141201D02*
D03*
X367500Y125000D02*
D03*
X569822Y540000D02*
D03*
X560000Y559500D02*
D03*
X215000Y792500D02*
D03*
X572500Y705000D02*
D03*
X445000Y710000D02*
D03*
X610000Y645000D02*
D03*
X430000Y642500D02*
D03*
X292500Y779996D02*
D03*
Y745537D02*
D03*
X361614D02*
D03*
X322500Y739675D02*
D03*
X620000Y737500D02*
D03*
X300000Y760000D02*
D03*
Y672500D02*
D03*
X630000D02*
D03*
X640000Y615000D02*
D03*
X410038Y610000D02*
D03*
X262500Y605537D02*
D03*
Y750000D02*
D03*
X680000Y725000D02*
D03*
X690000Y715000D02*
D03*
X355571Y650000D02*
D03*
X695000D02*
D03*
X195650Y640000D02*
D03*
X205313Y595000D02*
D03*
X340000Y594675D02*
D03*
X360000Y605537D02*
D03*
X440038Y594463D02*
D03*
X482500Y595000D02*
D03*
X590000Y750000D02*
D03*
X525000Y730000D02*
D03*
Y600000D02*
D03*
X670000Y720000D02*
D03*
X665000Y710000D02*
D03*
X570000Y700000D02*
D03*
X560000Y690000D02*
D03*
X710000Y680000D02*
D03*
X100000Y642500D02*
D03*
X110000Y620000D02*
D03*
X420000D02*
D03*
X700000Y610000D02*
D03*
X120000Y635000D02*
D03*
X390000D02*
D03*
X225000Y617500D02*
D03*
X380000D02*
D03*
X250000Y612500D02*
D03*
X370630D02*
D03*
X685000Y605000D02*
D03*
X450038Y590000D02*
D03*
X330000D02*
D03*
X705000Y630000D02*
D03*
X320000D02*
D03*
X675000Y625000D02*
D03*
X310000D02*
D03*
X590000Y490000D02*
D03*
X580000Y500000D02*
D03*
X569822Y510000D02*
D03*
X560000Y525000D02*
D03*
X640000Y70000D02*
D03*
X630000Y80000D02*
D03*
X620000Y90000D02*
D03*
X609427Y100000D02*
D03*
X140151Y485106D02*
D03*
X145000Y820356D02*
D03*
X86557Y132500D02*
D03*
X110000Y112500D02*
D03*
X100000Y125000D02*
D03*
Y100000D02*
D03*
X110000Y89427D02*
D03*
X119427Y80000D02*
D03*
X130000Y600000D02*
D03*
X129427Y70000D02*
D03*
X140000Y60000D02*
D03*
X260000Y820000D02*
D03*
Y800000D02*
D03*
X338000Y411042D02*
D03*
X416000Y801295D02*
D03*
X460000Y840000D02*
D03*
X543269Y570000D02*
D03*
X542913Y550000D02*
D03*
X394901Y542500D02*
D03*
X336171Y539478D02*
D03*
X334814Y551240D02*
D03*
X317216Y558819D02*
D03*
X362500Y519906D02*
D03*
X444388Y512889D02*
D03*
X359935Y394569D02*
D03*
X344609Y392246D02*
D03*
X350000Y310000D02*
D03*
X467500Y307500D02*
D03*
X447933Y292067D02*
D03*
X539153Y125000D02*
D03*
X368537Y716037D02*
D03*
Y745772D02*
D03*
X365158Y750000D02*
D03*
X365000Y725000D02*
D03*
X361614Y735787D02*
D03*
X435000Y680000D02*
D03*
Y763165D02*
D03*
Y769327D02*
D03*
X415000Y697500D02*
D03*
Y769327D02*
D03*
X440000Y705000D02*
D03*
Y772870D02*
D03*
X445000Y776413D02*
D03*
X450000Y720000D02*
D03*
Y779996D02*
D03*
X457500Y730000D02*
D03*
X456461Y783539D02*
D03*
X420000Y740000D02*
D03*
Y787083D02*
D03*
X430000Y750000D02*
D03*
Y790626D02*
D03*
X425000Y760000D02*
D03*
Y794169D02*
D03*
X427500Y797500D02*
D03*
X425000Y804839D02*
D03*
X452500Y800000D02*
D03*
X420000Y808382D02*
D03*
X440000Y700000D02*
D03*
X405000D02*
D03*
X404213Y748091D02*
D03*
X430000Y692500D02*
D03*
X402500D02*
D03*
X400669Y743799D02*
D03*
X337500Y710000D02*
D03*
X420000Y687500D02*
D03*
X397500D02*
D03*
X397126Y747874D02*
D03*
X410000Y682500D02*
D03*
X395000D02*
D03*
X393583Y744547D02*
D03*
X400000Y677500D02*
D03*
X390000D02*
D03*
Y747500D02*
D03*
X386457Y743957D02*
D03*
X382913Y747303D02*
D03*
X370630Y683130D02*
D03*
X379370D02*
D03*
Y743130D02*
D03*
X360000Y687500D02*
D03*
X375827Y688327D02*
D03*
Y751673D02*
D03*
X342870Y695000D02*
D03*
X372500D02*
D03*
X372284Y745217D02*
D03*
X332500Y715000D02*
D03*
X327500Y725000D02*
D03*
X320000Y735000D02*
D03*
X310000Y745000D02*
D03*
X350000Y680000D02*
D03*
X350783Y765784D02*
D03*
X347500Y690000D02*
D03*
Y769327D02*
D03*
X342500Y700000D02*
D03*
Y772500D02*
D03*
X337500Y776413D02*
D03*
X332500Y720000D02*
D03*
Y779996D02*
D03*
X327500Y730000D02*
D03*
Y783539D02*
D03*
X322500Y787083D02*
D03*
X317500Y750000D02*
D03*
Y790000D02*
D03*
X312500Y760000D02*
D03*
Y794169D02*
D03*
X307500Y770000D02*
D03*
X307713Y797713D02*
D03*
X302500Y780000D02*
D03*
Y800000D02*
D03*
X297500Y790000D02*
D03*
X292500Y800000D02*
D03*
X297500Y805000D02*
D03*
X292500Y808382D02*
D03*
M02*
