G04*
G04 #@! TF.GenerationSoftware,Altium Limited,Altium Designer,23.1.1 (15)*
G04*
G04 Layer_Color=8388736*
%FSLAX25Y25*%
%MOIN*%
G70*
G04*
G04 #@! TF.SameCoordinates,EC016929-1199-40CF-B0C5-1E8161D31A68*
G04*
G04*
G04 #@! TF.FilePolarity,Negative*
G04*
G01*
G75*
%ADD18C,0.01000*%
%ADD20C,0.00394*%
%ADD21C,0.00200*%
%ADD22R,0.04349X0.05339*%
%ADD26R,0.05339X0.04152*%
%ADD29R,0.04724X0.09843*%
%ADD36R,0.02095X0.04745*%
G04:AMPARAMS|DCode=37|XSize=47.45mil|YSize=20.95mil|CornerRadius=10.48mil|HoleSize=0mil|Usage=FLASHONLY|Rotation=270.000|XOffset=0mil|YOffset=0mil|HoleType=Round|Shape=RoundedRectangle|*
%AMROUNDEDRECTD37*
21,1,0.04745,0.00000,0,0,270.0*
21,1,0.02650,0.02095,0,0,270.0*
1,1,0.02095,0.00000,-0.01325*
1,1,0.02095,0.00000,0.01325*
1,1,0.02095,0.00000,0.01325*
1,1,0.02095,0.00000,-0.01325*
%
%ADD37ROUNDEDRECTD37*%
%ADD38R,0.04745X0.02095*%
G04:AMPARAMS|DCode=39|XSize=47.45mil|YSize=20.95mil|CornerRadius=10.48mil|HoleSize=0mil|Usage=FLASHONLY|Rotation=180.000|XOffset=0mil|YOffset=0mil|HoleType=Round|Shape=RoundedRectangle|*
%AMROUNDEDRECTD39*
21,1,0.04745,0.00000,0,0,180.0*
21,1,0.02650,0.02095,0,0,180.0*
1,1,0.02095,-0.01325,0.00000*
1,1,0.02095,0.01325,0.00000*
1,1,0.02095,0.01325,0.00000*
1,1,0.02095,-0.01325,0.00000*
%
%ADD39ROUNDEDRECTD39*%
%ADD43R,0.03740X0.05315*%
%ADD47R,0.05315X0.03740*%
%ADD50R,0.02756X0.05118*%
%ADD51R,0.02756X0.04528*%
%ADD53R,0.03963X0.05544*%
%ADD54R,0.01200X0.03374*%
%ADD55O,0.02362X0.05709*%
%ADD58R,0.04969X0.03182*%
%ADD59R,0.03740X0.05512*%
%ADD60R,0.05118X0.02756*%
%ADD65R,0.03567X0.05157*%
%ADD66R,0.55100X0.18700*%
%ADD71R,0.09843X0.12992*%
%ADD72R,0.04921X0.02362*%
%ADD73R,0.04152X0.05339*%
%ADD74R,0.05733X0.04940*%
%ADD75R,0.05339X0.04349*%
%ADD76R,0.03543X0.05118*%
%ADD84R,0.05512X0.03740*%
%ADD86R,0.02402X0.05000*%
%ADD87R,0.05000X0.02402*%
%ADD89R,0.07087X0.03937*%
%ADD90R,0.06115X0.06902*%
%ADD91R,0.06902X0.06902*%
%ADD92R,0.06312X0.12020*%
%ADD93R,0.06902X0.06115*%
%ADD94R,0.06509X0.05524*%
%ADD95R,0.08280X0.06706*%
%ADD96R,0.04737X0.05131*%
%ADD97R,0.06312X0.09068*%
%ADD98R,0.08792X0.15761*%
%ADD99R,0.05131X0.05524*%
%ADD100R,0.15761X0.08792*%
%ADD101R,0.04737X0.06115*%
%ADD102R,0.03950X0.05721*%
%ADD103R,0.06115X0.05328*%
%ADD104R,0.05524X0.06509*%
%ADD105R,0.06902X0.04343*%
%ADD106R,0.05524X0.03162*%
G04:AMPARAMS|DCode=107|XSize=47.37mil|YSize=88.71mil|CornerRadius=5.97mil|HoleSize=0mil|Usage=FLASHONLY|Rotation=180.000|XOffset=0mil|YOffset=0mil|HoleType=Round|Shape=RoundedRectangle|*
%AMROUNDEDRECTD107*
21,1,0.04737,0.07677,0,0,180.0*
21,1,0.03543,0.08871,0,0,180.0*
1,1,0.01194,-0.01772,0.03839*
1,1,0.01194,0.01772,0.03839*
1,1,0.01194,0.01772,-0.03839*
1,1,0.01194,-0.01772,-0.03839*
%
%ADD107ROUNDEDRECTD107*%
G04:AMPARAMS|DCode=108|XSize=135.95mil|YSize=88.71mil|CornerRadius=6.02mil|HoleSize=0mil|Usage=FLASHONLY|Rotation=180.000|XOffset=0mil|YOffset=0mil|HoleType=Round|Shape=RoundedRectangle|*
%AMROUNDEDRECTD108*
21,1,0.13595,0.07667,0,0,180.0*
21,1,0.12392,0.08871,0,0,180.0*
1,1,0.01204,-0.06196,0.03834*
1,1,0.01204,0.06196,0.03834*
1,1,0.01204,0.06196,-0.03834*
1,1,0.01204,-0.06196,-0.03834*
%
%ADD108ROUNDEDRECTD108*%
%ADD109R,0.05131X0.04737*%
%ADD110R,0.04422X0.06233*%
%ADD111R,0.06509X0.05328*%
%ADD112R,0.11036X0.04934*%
%ADD113R,0.06902X0.06312*%
%ADD114R,0.06902X0.06902*%
%ADD115O,0.08477X0.02375*%
%ADD116R,0.06509X0.12217*%
%ADD117R,0.05328X0.05328*%
%ADD118R,0.05918X0.04343*%
%ADD119R,0.05997X0.05052*%
%ADD120R,0.08280X0.08280*%
%ADD121R,0.08280X0.07887*%
%ADD122R,0.06115X0.02375*%
%ADD123R,0.06312X0.06902*%
G04:AMPARAMS|DCode=124|XSize=130.05mil|YSize=211.94mil|CornerRadius=5.83mil|HoleSize=0mil|Usage=FLASHONLY|Rotation=180.000|XOffset=0mil|YOffset=0mil|HoleType=Round|Shape=RoundedRectangle|*
%AMROUNDEDRECTD124*
21,1,0.13005,0.20028,0,0,180.0*
21,1,0.11839,0.21194,0,0,180.0*
1,1,0.01166,-0.05919,0.10014*
1,1,0.01166,0.05919,0.10014*
1,1,0.01166,0.05919,-0.10014*
1,1,0.01166,-0.05919,-0.10014*
%
%ADD124ROUNDEDRECTD124*%
G04:AMPARAMS|DCode=125|XSize=21.78mil|YSize=72.96mil|CornerRadius=6mil|HoleSize=0mil|Usage=FLASHONLY|Rotation=270.000|XOffset=0mil|YOffset=0mil|HoleType=Round|Shape=RoundedRectangle|*
%AMROUNDEDRECTD125*
21,1,0.02178,0.06097,0,0,270.0*
21,1,0.00978,0.07296,0,0,270.0*
1,1,0.01200,-0.03048,-0.00489*
1,1,0.01200,-0.03048,0.00489*
1,1,0.01200,0.03048,0.00489*
1,1,0.01200,0.03048,-0.00489*
%
%ADD125ROUNDEDRECTD125*%
%ADD126R,0.06706X0.03162*%
%ADD127R,0.05721X0.03950*%
%ADD128C,0.05900*%
%ADD129C,0.09658*%
%ADD130R,0.09658X0.09658*%
%ADD131C,0.05131*%
%ADD132R,0.04724X0.04724*%
%ADD133C,0.04724*%
%ADD134R,0.04724X0.04724*%
%ADD135R,0.09658X0.09658*%
%ADD136C,0.01981*%
%ADD137O,0.16154X0.08477*%
%ADD138C,0.03556*%
%ADD139C,0.22244*%
%ADD140R,0.07099X0.07099*%
%ADD141C,0.07099*%
%ADD142C,0.07099*%
%ADD143R,0.07099X0.07099*%
%ADD144C,0.05800*%
%ADD145C,0.02769*%
G36*
X682031Y390231D02*
X682039D01*
X682051Y390228D01*
X682059D01*
X682071Y390224D01*
X682079Y390220D01*
X682091Y390216D01*
X682098Y390208D01*
X682106Y390204D01*
X682114Y390196D01*
X682122Y390192D01*
X682130Y390184D01*
X682138Y390176D01*
X682146Y390168D01*
X682154Y390161D01*
X682158Y390153D01*
X682165Y390145D01*
X682169Y390137D01*
X682177Y390129D01*
X682181Y390117D01*
X682185Y390109D01*
X682189Y390098D01*
Y390090D01*
X682193Y390078D01*
Y390070D01*
X682197Y390058D01*
Y390050D01*
Y390038D01*
Y387519D01*
Y387507D01*
Y387499D01*
X682193Y387487D01*
Y387479D01*
X682189Y387468D01*
Y387460D01*
X682185Y387448D01*
X682181Y387440D01*
X682177Y387428D01*
X682169Y387420D01*
X682165Y387413D01*
X682158Y387405D01*
X682154Y387397D01*
X682146Y387389D01*
X682138Y387381D01*
X682130Y387373D01*
X682122Y387365D01*
X682114Y387361D01*
X682106Y387353D01*
X682098Y387350D01*
X682091Y387342D01*
X682079Y387338D01*
X682071Y387334D01*
X682059Y387330D01*
X682051D01*
X682039Y387326D01*
X682031D01*
X682020Y387322D01*
X675721D01*
X675709Y387326D01*
X675701D01*
X675689Y387330D01*
X675681D01*
X675669Y387334D01*
X675661Y387338D01*
X675650Y387342D01*
X675642Y387350D01*
X675634Y387353D01*
X675626Y387361D01*
X675618Y387365D01*
X675610Y387373D01*
X675602Y387381D01*
X675595Y387389D01*
X675587Y387397D01*
X675583Y387405D01*
X675575Y387413D01*
X675571Y387420D01*
X675563Y387428D01*
X675559Y387440D01*
X675555Y387448D01*
X675551Y387460D01*
Y387468D01*
X675547Y387479D01*
Y387487D01*
X675543Y387499D01*
Y387507D01*
Y387519D01*
Y390038D01*
Y390050D01*
Y390058D01*
X675547Y390070D01*
Y390078D01*
X675551Y390090D01*
Y390098D01*
X675555Y390109D01*
X675559Y390117D01*
X675563Y390129D01*
X675571Y390137D01*
X675575Y390145D01*
X675583Y390153D01*
X675587Y390161D01*
X675595Y390168D01*
X675602Y390176D01*
X675610Y390184D01*
X675618Y390192D01*
X675626Y390196D01*
X675634Y390204D01*
X675642Y390208D01*
X675650Y390216D01*
X675661Y390220D01*
X675669Y390224D01*
X675681Y390228D01*
X675689D01*
X675701Y390231D01*
X675709D01*
X675721Y390235D01*
X682020D01*
X682031Y390231D01*
D02*
G37*
G36*
Y395231D02*
X682039D01*
X682051Y395228D01*
X682059D01*
X682071Y395223D01*
X682079Y395220D01*
X682091Y395216D01*
X682098Y395208D01*
X682106Y395204D01*
X682114Y395196D01*
X682122Y395192D01*
X682130Y395184D01*
X682138Y395176D01*
X682146Y395168D01*
X682154Y395161D01*
X682158Y395153D01*
X682165Y395145D01*
X682169Y395137D01*
X682177Y395129D01*
X682181Y395117D01*
X682185Y395109D01*
X682189Y395098D01*
Y395090D01*
X682193Y395078D01*
Y395070D01*
X682197Y395058D01*
Y395050D01*
Y395039D01*
Y392519D01*
Y392507D01*
Y392499D01*
X682193Y392487D01*
Y392479D01*
X682189Y392468D01*
Y392460D01*
X682185Y392448D01*
X682181Y392440D01*
X682177Y392428D01*
X682169Y392420D01*
X682165Y392412D01*
X682158Y392405D01*
X682154Y392397D01*
X682146Y392389D01*
X682138Y392381D01*
X682130Y392373D01*
X682122Y392365D01*
X682114Y392361D01*
X682106Y392354D01*
X682098Y392350D01*
X682091Y392342D01*
X682079Y392338D01*
X682071Y392334D01*
X682059Y392330D01*
X682051D01*
X682039Y392326D01*
X682031D01*
X682020Y392322D01*
X675721D01*
X675709Y392326D01*
X675701D01*
X675689Y392330D01*
X675681D01*
X675669Y392334D01*
X675661Y392338D01*
X675650Y392342D01*
X675642Y392350D01*
X675634Y392354D01*
X675626Y392361D01*
X675618Y392365D01*
X675610Y392373D01*
X675602Y392381D01*
X675595Y392389D01*
X675587Y392397D01*
X675583Y392405D01*
X675575Y392412D01*
X675571Y392420D01*
X675563Y392428D01*
X675559Y392440D01*
X675555Y392448D01*
X675551Y392460D01*
Y392468D01*
X675547Y392479D01*
Y392487D01*
X675543Y392499D01*
Y392507D01*
Y392519D01*
Y395039D01*
Y395050D01*
Y395058D01*
X675547Y395070D01*
Y395078D01*
X675551Y395090D01*
Y395098D01*
X675555Y395109D01*
X675559Y395117D01*
X675563Y395129D01*
X675571Y395137D01*
X675575Y395145D01*
X675583Y395153D01*
X675587Y395161D01*
X675595Y395168D01*
X675602Y395176D01*
X675610Y395184D01*
X675618Y395192D01*
X675626Y395196D01*
X675634Y395204D01*
X675642Y395208D01*
X675650Y395216D01*
X675661Y395220D01*
X675669Y395223D01*
X675681Y395228D01*
X675689D01*
X675701Y395231D01*
X675709D01*
X675721Y395235D01*
X682020D01*
X682031Y395231D01*
D02*
G37*
G36*
Y400231D02*
X682039D01*
X682051Y400227D01*
X682059D01*
X682071Y400223D01*
X682079Y400220D01*
X682091Y400216D01*
X682098Y400208D01*
X682106Y400204D01*
X682114Y400196D01*
X682122Y400192D01*
X682130Y400184D01*
X682138Y400176D01*
X682146Y400168D01*
X682154Y400161D01*
X682158Y400153D01*
X682165Y400145D01*
X682169Y400137D01*
X682177Y400129D01*
X682181Y400117D01*
X682185Y400109D01*
X682189Y400098D01*
Y400090D01*
X682193Y400078D01*
Y400070D01*
X682197Y400058D01*
Y400050D01*
Y400038D01*
Y397519D01*
Y397507D01*
Y397499D01*
X682193Y397487D01*
Y397480D01*
X682189Y397468D01*
Y397460D01*
X682185Y397448D01*
X682181Y397440D01*
X682177Y397428D01*
X682169Y397420D01*
X682165Y397412D01*
X682158Y397405D01*
X682154Y397397D01*
X682146Y397389D01*
X682138Y397381D01*
X682130Y397373D01*
X682122Y397365D01*
X682114Y397361D01*
X682106Y397354D01*
X682098Y397350D01*
X682091Y397342D01*
X682079Y397338D01*
X682071Y397334D01*
X682059Y397330D01*
X682051D01*
X682039Y397326D01*
X682031D01*
X682020Y397322D01*
X675721D01*
X675709Y397326D01*
X675701D01*
X675689Y397330D01*
X675681D01*
X675669Y397334D01*
X675661Y397338D01*
X675650Y397342D01*
X675642Y397350D01*
X675634Y397354D01*
X675626Y397361D01*
X675618Y397365D01*
X675610Y397373D01*
X675602Y397381D01*
X675595Y397389D01*
X675587Y397397D01*
X675583Y397405D01*
X675575Y397412D01*
X675571Y397420D01*
X675563Y397428D01*
X675559Y397440D01*
X675555Y397448D01*
X675551Y397460D01*
Y397468D01*
X675547Y397480D01*
Y397487D01*
X675543Y397499D01*
Y397507D01*
Y397519D01*
Y400038D01*
Y400050D01*
Y400058D01*
X675547Y400070D01*
Y400078D01*
X675551Y400090D01*
Y400098D01*
X675555Y400109D01*
X675559Y400117D01*
X675563Y400129D01*
X675571Y400137D01*
X675575Y400145D01*
X675583Y400153D01*
X675587Y400161D01*
X675595Y400168D01*
X675602Y400176D01*
X675610Y400184D01*
X675618Y400192D01*
X675626Y400196D01*
X675634Y400204D01*
X675642Y400208D01*
X675650Y400216D01*
X675661Y400220D01*
X675669Y400223D01*
X675681Y400227D01*
X675689D01*
X675701Y400231D01*
X675709D01*
X675721Y400235D01*
X682020D01*
X682031Y400231D01*
D02*
G37*
G36*
Y405231D02*
X682039D01*
X682051Y405228D01*
X682059D01*
X682071Y405224D01*
X682079Y405220D01*
X682091Y405216D01*
X682098Y405208D01*
X682106Y405204D01*
X682114Y405196D01*
X682122Y405192D01*
X682130Y405184D01*
X682138Y405176D01*
X682146Y405168D01*
X682154Y405161D01*
X682158Y405153D01*
X682165Y405145D01*
X682169Y405137D01*
X682177Y405129D01*
X682181Y405117D01*
X682185Y405109D01*
X682189Y405098D01*
Y405090D01*
X682193Y405078D01*
Y405070D01*
X682197Y405058D01*
Y405050D01*
Y405038D01*
Y402519D01*
Y402507D01*
Y402499D01*
X682193Y402487D01*
Y402480D01*
X682189Y402468D01*
Y402460D01*
X682185Y402448D01*
X682181Y402440D01*
X682177Y402428D01*
X682169Y402420D01*
X682165Y402413D01*
X682158Y402405D01*
X682154Y402397D01*
X682146Y402389D01*
X682138Y402381D01*
X682130Y402373D01*
X682122Y402365D01*
X682114Y402361D01*
X682106Y402353D01*
X682098Y402350D01*
X682091Y402342D01*
X682079Y402338D01*
X682071Y402334D01*
X682059Y402330D01*
X682051D01*
X682039Y402326D01*
X682031D01*
X682020Y402322D01*
X675721D01*
X675709Y402326D01*
X675701D01*
X675689Y402330D01*
X675681D01*
X675669Y402334D01*
X675661Y402338D01*
X675650Y402342D01*
X675642Y402350D01*
X675634Y402353D01*
X675626Y402361D01*
X675618Y402365D01*
X675610Y402373D01*
X675602Y402381D01*
X675595Y402389D01*
X675587Y402397D01*
X675583Y402405D01*
X675575Y402413D01*
X675571Y402420D01*
X675563Y402428D01*
X675559Y402440D01*
X675555Y402448D01*
X675551Y402460D01*
Y402468D01*
X675547Y402480D01*
Y402487D01*
X675543Y402499D01*
Y402507D01*
Y402519D01*
Y405038D01*
Y405050D01*
Y405058D01*
X675547Y405070D01*
Y405078D01*
X675551Y405090D01*
Y405098D01*
X675555Y405109D01*
X675559Y405117D01*
X675563Y405129D01*
X675571Y405137D01*
X675575Y405145D01*
X675583Y405153D01*
X675587Y405161D01*
X675595Y405168D01*
X675602Y405176D01*
X675610Y405184D01*
X675618Y405192D01*
X675626Y405196D01*
X675634Y405204D01*
X675642Y405208D01*
X675650Y405216D01*
X675661Y405220D01*
X675669Y405224D01*
X675681Y405228D01*
X675689D01*
X675701Y405231D01*
X675709D01*
X675721Y405235D01*
X682020D01*
X682031Y405231D01*
D02*
G37*
G36*
X703291D02*
X703299D01*
X703311Y405228D01*
X703319D01*
X703331Y405224D01*
X703339Y405220D01*
X703350Y405216D01*
X703358Y405208D01*
X703366Y405204D01*
X703374Y405196D01*
X703382Y405192D01*
X703390Y405184D01*
X703398Y405176D01*
X703406Y405168D01*
X703413Y405161D01*
X703417Y405153D01*
X703425Y405145D01*
X703429Y405137D01*
X703437Y405129D01*
X703441Y405117D01*
X703445Y405109D01*
X703449Y405098D01*
Y405090D01*
X703453Y405078D01*
Y405070D01*
X703457Y405058D01*
Y405050D01*
Y405038D01*
Y402519D01*
Y402507D01*
Y402499D01*
X703453Y402487D01*
Y402480D01*
X703449Y402468D01*
Y402460D01*
X703445Y402448D01*
X703441Y402440D01*
X703437Y402428D01*
X703429Y402420D01*
X703425Y402413D01*
X703417Y402405D01*
X703413Y402397D01*
X703406Y402389D01*
X703398Y402381D01*
X703390Y402373D01*
X703382Y402365D01*
X703374Y402361D01*
X703366Y402353D01*
X703358Y402350D01*
X703350Y402342D01*
X703339Y402338D01*
X703331Y402334D01*
X703319Y402330D01*
X703311D01*
X703299Y402326D01*
X703291D01*
X703279Y402322D01*
X696980D01*
X696969Y402326D01*
X696961D01*
X696949Y402330D01*
X696941D01*
X696929Y402334D01*
X696921Y402338D01*
X696910Y402342D01*
X696902Y402350D01*
X696894Y402353D01*
X696886Y402361D01*
X696878Y402365D01*
X696870Y402373D01*
X696862Y402381D01*
X696854Y402389D01*
X696846Y402397D01*
X696842Y402405D01*
X696835Y402413D01*
X696831Y402420D01*
X696823Y402428D01*
X696819Y402440D01*
X696815Y402448D01*
X696811Y402460D01*
Y402468D01*
X696807Y402480D01*
Y402487D01*
X696803Y402499D01*
Y402507D01*
Y402519D01*
Y405038D01*
Y405050D01*
Y405058D01*
X696807Y405070D01*
Y405078D01*
X696811Y405090D01*
Y405098D01*
X696815Y405109D01*
X696819Y405117D01*
X696823Y405129D01*
X696831Y405137D01*
X696835Y405145D01*
X696842Y405153D01*
X696846Y405161D01*
X696854Y405168D01*
X696862Y405176D01*
X696870Y405184D01*
X696878Y405192D01*
X696886Y405196D01*
X696894Y405204D01*
X696902Y405208D01*
X696910Y405216D01*
X696921Y405220D01*
X696929Y405224D01*
X696941Y405228D01*
X696949D01*
X696961Y405231D01*
X696969D01*
X696980Y405235D01*
X703279D01*
X703291Y405231D01*
D02*
G37*
G36*
Y400231D02*
X703299D01*
X703311Y400227D01*
X703319D01*
X703331Y400223D01*
X703339Y400220D01*
X703350Y400216D01*
X703358Y400208D01*
X703366Y400204D01*
X703374Y400196D01*
X703382Y400192D01*
X703390Y400184D01*
X703398Y400176D01*
X703406Y400168D01*
X703413Y400161D01*
X703417Y400153D01*
X703425Y400145D01*
X703429Y400137D01*
X703437Y400129D01*
X703441Y400117D01*
X703445Y400109D01*
X703449Y400098D01*
Y400090D01*
X703453Y400078D01*
Y400070D01*
X703457Y400058D01*
Y400050D01*
Y400038D01*
Y397519D01*
Y397507D01*
Y397499D01*
X703453Y397487D01*
Y397480D01*
X703449Y397468D01*
Y397460D01*
X703445Y397448D01*
X703441Y397440D01*
X703437Y397428D01*
X703429Y397420D01*
X703425Y397412D01*
X703417Y397405D01*
X703413Y397397D01*
X703406Y397389D01*
X703398Y397381D01*
X703390Y397373D01*
X703382Y397365D01*
X703374Y397361D01*
X703366Y397354D01*
X703358Y397350D01*
X703350Y397342D01*
X703339Y397338D01*
X703331Y397334D01*
X703319Y397330D01*
X703311D01*
X703299Y397326D01*
X703291D01*
X703279Y397322D01*
X696980D01*
X696969Y397326D01*
X696961D01*
X696949Y397330D01*
X696941D01*
X696929Y397334D01*
X696921Y397338D01*
X696910Y397342D01*
X696902Y397350D01*
X696894Y397354D01*
X696886Y397361D01*
X696878Y397365D01*
X696870Y397373D01*
X696862Y397381D01*
X696854Y397389D01*
X696846Y397397D01*
X696842Y397405D01*
X696835Y397412D01*
X696831Y397420D01*
X696823Y397428D01*
X696819Y397440D01*
X696815Y397448D01*
X696811Y397460D01*
Y397468D01*
X696807Y397480D01*
Y397487D01*
X696803Y397499D01*
Y397507D01*
Y397519D01*
Y400038D01*
Y400050D01*
Y400058D01*
X696807Y400070D01*
Y400078D01*
X696811Y400090D01*
Y400098D01*
X696815Y400109D01*
X696819Y400117D01*
X696823Y400129D01*
X696831Y400137D01*
X696835Y400145D01*
X696842Y400153D01*
X696846Y400161D01*
X696854Y400168D01*
X696862Y400176D01*
X696870Y400184D01*
X696878Y400192D01*
X696886Y400196D01*
X696894Y400204D01*
X696902Y400208D01*
X696910Y400216D01*
X696921Y400220D01*
X696929Y400223D01*
X696941Y400227D01*
X696949D01*
X696961Y400231D01*
X696969D01*
X696980Y400235D01*
X703279D01*
X703291Y400231D01*
D02*
G37*
G36*
Y395231D02*
X703299D01*
X703311Y395228D01*
X703319D01*
X703331Y395223D01*
X703339Y395220D01*
X703350Y395216D01*
X703358Y395208D01*
X703366Y395204D01*
X703374Y395196D01*
X703382Y395192D01*
X703390Y395184D01*
X703398Y395176D01*
X703406Y395168D01*
X703413Y395161D01*
X703417Y395153D01*
X703425Y395145D01*
X703429Y395137D01*
X703437Y395129D01*
X703441Y395117D01*
X703445Y395109D01*
X703449Y395098D01*
Y395090D01*
X703453Y395078D01*
Y395070D01*
X703457Y395058D01*
Y395050D01*
Y395039D01*
Y392519D01*
Y392507D01*
Y392499D01*
X703453Y392487D01*
Y392479D01*
X703449Y392468D01*
Y392460D01*
X703445Y392448D01*
X703441Y392440D01*
X703437Y392428D01*
X703429Y392420D01*
X703425Y392412D01*
X703417Y392405D01*
X703413Y392397D01*
X703406Y392389D01*
X703398Y392381D01*
X703390Y392373D01*
X703382Y392365D01*
X703374Y392361D01*
X703366Y392354D01*
X703358Y392350D01*
X703350Y392342D01*
X703339Y392338D01*
X703331Y392334D01*
X703319Y392330D01*
X703311D01*
X703299Y392326D01*
X703291D01*
X703279Y392322D01*
X696980D01*
X696969Y392326D01*
X696961D01*
X696949Y392330D01*
X696941D01*
X696929Y392334D01*
X696921Y392338D01*
X696910Y392342D01*
X696902Y392350D01*
X696894Y392354D01*
X696886Y392361D01*
X696878Y392365D01*
X696870Y392373D01*
X696862Y392381D01*
X696854Y392389D01*
X696846Y392397D01*
X696842Y392405D01*
X696835Y392412D01*
X696831Y392420D01*
X696823Y392428D01*
X696819Y392440D01*
X696815Y392448D01*
X696811Y392460D01*
Y392468D01*
X696807Y392479D01*
Y392487D01*
X696803Y392499D01*
Y392507D01*
Y392519D01*
Y395039D01*
Y395050D01*
Y395058D01*
X696807Y395070D01*
Y395078D01*
X696811Y395090D01*
Y395098D01*
X696815Y395109D01*
X696819Y395117D01*
X696823Y395129D01*
X696831Y395137D01*
X696835Y395145D01*
X696842Y395153D01*
X696846Y395161D01*
X696854Y395168D01*
X696862Y395176D01*
X696870Y395184D01*
X696878Y395192D01*
X696886Y395196D01*
X696894Y395204D01*
X696902Y395208D01*
X696910Y395216D01*
X696921Y395220D01*
X696929Y395223D01*
X696941Y395228D01*
X696949D01*
X696961Y395231D01*
X696969D01*
X696980Y395235D01*
X703279D01*
X703291Y395231D01*
D02*
G37*
G36*
X694835Y389586D02*
X684165D01*
Y402972D01*
X694835D01*
Y389586D01*
D02*
G37*
G36*
X703291Y390231D02*
X703299D01*
X703311Y390228D01*
X703319D01*
X703331Y390224D01*
X703339Y390220D01*
X703350Y390216D01*
X703358Y390208D01*
X703366Y390204D01*
X703374Y390196D01*
X703382Y390192D01*
X703390Y390184D01*
X703398Y390176D01*
X703406Y390168D01*
X703413Y390161D01*
X703417Y390153D01*
X703425Y390145D01*
X703429Y390137D01*
X703437Y390129D01*
X703441Y390117D01*
X703445Y390109D01*
X703449Y390098D01*
Y390090D01*
X703453Y390078D01*
Y390070D01*
X703457Y390058D01*
Y390050D01*
Y390038D01*
Y387519D01*
Y387507D01*
Y387499D01*
X703453Y387487D01*
Y387479D01*
X703449Y387468D01*
Y387460D01*
X703445Y387448D01*
X703441Y387440D01*
X703437Y387428D01*
X703429Y387420D01*
X703425Y387413D01*
X703417Y387405D01*
X703413Y387397D01*
X703406Y387389D01*
X703398Y387381D01*
X703390Y387373D01*
X703382Y387365D01*
X703374Y387361D01*
X703366Y387353D01*
X703358Y387350D01*
X703350Y387342D01*
X703339Y387338D01*
X703331Y387334D01*
X703319Y387330D01*
X703311D01*
X703299Y387326D01*
X703291D01*
X703279Y387322D01*
X696980D01*
X696969Y387326D01*
X696961D01*
X696949Y387330D01*
X696941D01*
X696929Y387334D01*
X696921Y387338D01*
X696910Y387342D01*
X696902Y387350D01*
X696894Y387353D01*
X696886Y387361D01*
X696878Y387365D01*
X696870Y387373D01*
X696862Y387381D01*
X696854Y387389D01*
X696846Y387397D01*
X696842Y387405D01*
X696835Y387413D01*
X696831Y387420D01*
X696823Y387428D01*
X696819Y387440D01*
X696815Y387448D01*
X696811Y387460D01*
Y387468D01*
X696807Y387479D01*
Y387487D01*
X696803Y387499D01*
Y387507D01*
Y387519D01*
Y390038D01*
Y390050D01*
Y390058D01*
X696807Y390070D01*
Y390078D01*
X696811Y390090D01*
Y390098D01*
X696815Y390109D01*
X696819Y390117D01*
X696823Y390129D01*
X696831Y390137D01*
X696835Y390145D01*
X696842Y390153D01*
X696846Y390161D01*
X696854Y390168D01*
X696862Y390176D01*
X696870Y390184D01*
X696878Y390192D01*
X696886Y390196D01*
X696894Y390204D01*
X696902Y390208D01*
X696910Y390216D01*
X696921Y390220D01*
X696929Y390224D01*
X696941Y390228D01*
X696949D01*
X696961Y390231D01*
X696969D01*
X696980Y390235D01*
X703279D01*
X703291Y390231D01*
D02*
G37*
D18*
X846278Y2686D02*
G03*
X851500Y8000I-93J5314D01*
G01*
D20*
X836209Y65076D02*
Y94209D01*
D21*
X838006Y74918D02*
Y75604D01*
X837930Y75832D01*
X837854Y75908D01*
X837701Y75985D01*
X837473D01*
X837320Y75908D01*
X837244Y75832D01*
X837168Y75604D01*
Y74918D01*
X838768D01*
X837549Y77485D02*
X837397Y77409D01*
X837244Y77257D01*
X837168Y77104D01*
Y76800D01*
X837244Y76647D01*
X837397Y76495D01*
X837549Y76419D01*
X837778Y76343D01*
X838158D01*
X838387Y76419D01*
X838539Y76495D01*
X838692Y76647D01*
X838768Y76800D01*
Y77104D01*
X838692Y77257D01*
X838539Y77409D01*
X838387Y77485D01*
X837168Y77935D02*
X838768D01*
X837168D02*
Y78620D01*
X837244Y78849D01*
X837320Y78925D01*
X837473Y79001D01*
X837625D01*
X837778Y78925D01*
X837854Y78849D01*
X837930Y78620D01*
Y77935D02*
Y78620D01*
X838006Y78849D01*
X838082Y78925D01*
X838235Y79001D01*
X838463D01*
X838615Y78925D01*
X838692Y78849D01*
X838768Y78620D01*
Y77935D01*
X837168Y81606D02*
Y80616D01*
X838768D01*
Y81606D01*
X837930Y80616D02*
Y81225D01*
X837168Y82787D02*
X838768D01*
X837930D02*
X837778Y82635D01*
X837701Y82482D01*
Y82254D01*
X837778Y82101D01*
X837930Y81949D01*
X838158Y81873D01*
X838311D01*
X838539Y81949D01*
X838692Y82101D01*
X838768Y82254D01*
Y82482D01*
X838692Y82635D01*
X838539Y82787D01*
X837701Y84128D02*
X838920D01*
X839149Y84052D01*
X839225Y83975D01*
X839301Y83823D01*
Y83594D01*
X839225Y83442D01*
X837930Y84128D02*
X837778Y83975D01*
X837701Y83823D01*
Y83594D01*
X837778Y83442D01*
X837930Y83290D01*
X838158Y83214D01*
X838311D01*
X838539Y83290D01*
X838692Y83442D01*
X838768Y83594D01*
Y83823D01*
X838692Y83975D01*
X838539Y84128D01*
X838158Y84554D02*
Y85468D01*
X838006D01*
X837854Y85392D01*
X837778Y85316D01*
X837701Y85164D01*
Y84935D01*
X837778Y84783D01*
X837930Y84630D01*
X838158Y84554D01*
X838311D01*
X838539Y84630D01*
X838692Y84783D01*
X838768Y84935D01*
Y85164D01*
X838692Y85316D01*
X838539Y85468D01*
D22*
X339500Y91905D02*
D03*
X345057D02*
D03*
X339500Y61905D02*
D03*
X345057D02*
D03*
D26*
X273000Y59244D02*
D03*
Y53529D02*
D03*
X366000Y68074D02*
D03*
Y62359D02*
D03*
X273500Y95887D02*
D03*
Y101602D02*
D03*
X770500Y28643D02*
D03*
Y34357D02*
D03*
X773500Y76285D02*
D03*
Y82000D02*
D03*
X806000Y61285D02*
D03*
Y67000D02*
D03*
X806500Y83643D02*
D03*
Y77928D02*
D03*
X756500Y34500D02*
D03*
Y28785D02*
D03*
X377500Y83759D02*
D03*
Y78044D02*
D03*
D29*
X393657Y92728D02*
D03*
Y71075D02*
D03*
X413343D02*
D03*
Y92728D02*
D03*
X403500D02*
D03*
Y71075D02*
D03*
X585240Y161000D02*
D03*
Y182653D02*
D03*
X565555D02*
D03*
Y161000D02*
D03*
X575398D02*
D03*
Y182653D02*
D03*
X773658Y203654D02*
D03*
Y182000D02*
D03*
X763815D02*
D03*
Y203654D02*
D03*
X783500D02*
D03*
Y182000D02*
D03*
X609158Y373346D02*
D03*
Y395000D02*
D03*
X619000D02*
D03*
Y373346D02*
D03*
X599315D02*
D03*
Y395000D02*
D03*
D36*
X427882Y292049D02*
D03*
D37*
X424142D02*
D03*
X420402D02*
D03*
Y283778D02*
D03*
X427882D02*
D03*
D38*
X449778Y284173D02*
D03*
D39*
Y287913D02*
D03*
Y291653D02*
D03*
X441506D02*
D03*
Y284173D02*
D03*
D43*
X427831Y254646D02*
D03*
X433736D02*
D03*
X427878Y241646D02*
D03*
X433783D02*
D03*
X462110Y449106D02*
D03*
X456205D02*
D03*
X524453Y164500D02*
D03*
X518547D02*
D03*
X794906Y225453D02*
D03*
X789000D02*
D03*
D47*
X480657Y417721D02*
D03*
Y423626D02*
D03*
X489657Y370126D02*
D03*
Y364220D02*
D03*
X579658Y381221D02*
D03*
Y387126D02*
D03*
X405000Y119953D02*
D03*
Y114047D02*
D03*
X485157Y453221D02*
D03*
Y459126D02*
D03*
X396657Y391606D02*
D03*
Y385701D02*
D03*
D50*
X503677Y381173D02*
D03*
X511158D02*
D03*
D51*
X543398Y336173D02*
D03*
X535917D02*
D03*
D53*
X542658Y354173D02*
D03*
X535170D02*
D03*
D54*
X511500Y58000D02*
D03*
X514059D02*
D03*
X516618D02*
D03*
Y66874D02*
D03*
X511500D02*
D03*
D55*
X550000Y106500D02*
D03*
X555000D02*
D03*
X560000D02*
D03*
X565000D02*
D03*
Y127957D02*
D03*
X560000D02*
D03*
X555000D02*
D03*
X550000D02*
D03*
X481000Y99272D02*
D03*
X486000D02*
D03*
X491000D02*
D03*
X496000D02*
D03*
Y120728D02*
D03*
X491000D02*
D03*
X486000D02*
D03*
X481000D02*
D03*
D58*
X508500Y35342D02*
D03*
Y41658D02*
D03*
X500000Y59342D02*
D03*
Y65658D02*
D03*
D59*
X525142Y175500D02*
D03*
X517858D02*
D03*
X796095Y238953D02*
D03*
X788811D02*
D03*
D60*
X545240Y175740D02*
D03*
Y168260D02*
D03*
X797000Y189260D02*
D03*
Y196740D02*
D03*
D65*
X794000Y78143D02*
D03*
X787889D02*
D03*
X794055Y67143D02*
D03*
X787945D02*
D03*
D66*
X767500Y422079D02*
D03*
Y458479D02*
D03*
D71*
X717083Y433779D02*
D03*
X689917D02*
D03*
D72*
X657000Y388822D02*
D03*
Y381735D02*
D03*
D73*
X720215Y466279D02*
D03*
X714500D02*
D03*
D74*
X657000Y398779D02*
D03*
Y405281D02*
D03*
D75*
X744500Y393557D02*
D03*
Y388000D02*
D03*
D76*
X708760Y413279D02*
D03*
X716240D02*
D03*
D84*
X393500Y121000D02*
D03*
Y113716D02*
D03*
D86*
X270382Y211650D02*
D03*
X273925D02*
D03*
X277468D02*
D03*
X281012D02*
D03*
X284594D02*
D03*
X288138D02*
D03*
X291681D02*
D03*
X295224D02*
D03*
X298768D02*
D03*
X302311D02*
D03*
X305894D02*
D03*
X309437D02*
D03*
X312980D02*
D03*
X316524D02*
D03*
X320067D02*
D03*
D87*
X269165Y263575D02*
D03*
Y260032D02*
D03*
Y256488D02*
D03*
Y252945D02*
D03*
Y249362D02*
D03*
Y245819D02*
D03*
Y242276D02*
D03*
Y238732D02*
D03*
Y235189D02*
D03*
Y231646D02*
D03*
Y228063D02*
D03*
Y224520D02*
D03*
Y220976D02*
D03*
Y217433D02*
D03*
X321284D02*
D03*
Y220976D02*
D03*
Y224520D02*
D03*
Y228063D02*
D03*
Y231646D02*
D03*
Y235189D02*
D03*
Y238732D02*
D03*
Y242276D02*
D03*
Y245819D02*
D03*
Y249362D02*
D03*
Y252945D02*
D03*
Y256488D02*
D03*
Y260032D02*
D03*
Y263575D02*
D03*
D89*
X349783Y238724D02*
D03*
Y248567D02*
D03*
D90*
X341000Y82406D02*
D03*
X348677D02*
D03*
X348839Y71905D02*
D03*
X341161D02*
D03*
D91*
X220000Y65716D02*
D03*
Y73000D02*
D03*
D92*
X254000Y59720D02*
D03*
Y37279D02*
D03*
D93*
X325500Y43728D02*
D03*
Y51406D02*
D03*
X324500Y100567D02*
D03*
Y108244D02*
D03*
D94*
X377000Y67654D02*
D03*
Y59780D02*
D03*
X366500Y84153D02*
D03*
Y76279D02*
D03*
X561500Y87437D02*
D03*
Y79563D02*
D03*
X514500Y80063D02*
D03*
Y87937D02*
D03*
X321500Y170153D02*
D03*
Y162279D02*
D03*
X332000Y162216D02*
D03*
Y170091D02*
D03*
D95*
X403500Y58622D02*
D03*
Y46811D02*
D03*
X622740Y194405D02*
D03*
Y182595D02*
D03*
D96*
X391000Y52370D02*
D03*
Y59063D02*
D03*
X470157Y355866D02*
D03*
Y349173D02*
D03*
X611740Y194693D02*
D03*
Y188000D02*
D03*
X778500Y239000D02*
D03*
Y232307D02*
D03*
X445614Y409626D02*
D03*
Y402933D02*
D03*
D97*
X492783Y254827D02*
D03*
Y219000D02*
D03*
X510500Y254827D02*
D03*
Y219000D02*
D03*
X511000Y275000D02*
D03*
Y310827D02*
D03*
X493284Y275000D02*
D03*
Y310827D02*
D03*
D98*
X363142Y297913D02*
D03*
X491657Y337106D02*
D03*
X472157Y456173D02*
D03*
X467500Y170000D02*
D03*
X484000D02*
D03*
X811000Y26857D02*
D03*
X827500Y26643D02*
D03*
X154500Y163716D02*
D03*
X168000D02*
D03*
X443157Y444606D02*
D03*
X396158Y412606D02*
D03*
X384142Y297913D02*
D03*
D99*
X361276Y195913D02*
D03*
X353008D02*
D03*
X443642Y309413D02*
D03*
X451909D02*
D03*
D100*
X425642Y309913D02*
D03*
X727500Y203953D02*
D03*
Y182453D02*
D03*
D101*
X428055Y227913D02*
D03*
X435142D02*
D03*
X473098Y274913D02*
D03*
X480185D02*
D03*
X472598Y254913D02*
D03*
X479685D02*
D03*
D102*
X473492Y293913D02*
D03*
X479791D02*
D03*
D103*
X363642Y270768D02*
D03*
Y265059D02*
D03*
X371142Y264913D02*
D03*
Y270622D02*
D03*
D104*
X454677Y429433D02*
D03*
X462551D02*
D03*
X535811Y364673D02*
D03*
X542504D02*
D03*
X478063Y85000D02*
D03*
X485937D02*
D03*
X635500Y163000D02*
D03*
X628807D02*
D03*
D105*
X437114Y402433D02*
D03*
Y412866D02*
D03*
X470657Y331957D02*
D03*
Y342390D02*
D03*
D106*
X461201Y406173D02*
D03*
X454114Y402433D02*
D03*
Y409913D02*
D03*
D107*
X471602Y381173D02*
D03*
X480657D02*
D03*
X489713D02*
D03*
D108*
X480657Y406173D02*
D03*
D109*
X543004Y344673D02*
D03*
X536311D02*
D03*
X628807Y153000D02*
D03*
X635500D02*
D03*
D110*
X588500Y93000D02*
D03*
X580980D02*
D03*
D111*
X518500Y42043D02*
D03*
Y34957D02*
D03*
D112*
X765000Y238933D02*
D03*
Y228500D02*
D03*
D113*
X247000Y162476D02*
D03*
Y169957D02*
D03*
X258000Y162476D02*
D03*
Y169957D02*
D03*
X269000Y162476D02*
D03*
Y169957D02*
D03*
X279500Y162476D02*
D03*
Y169957D02*
D03*
X290000Y162476D02*
D03*
Y169957D02*
D03*
X311000Y162260D02*
D03*
Y169740D02*
D03*
X300000Y162500D02*
D03*
Y169980D02*
D03*
X342500Y162476D02*
D03*
Y169957D02*
D03*
X353500Y162476D02*
D03*
Y169957D02*
D03*
D114*
X273642Y73244D02*
D03*
X266358D02*
D03*
Y84744D02*
D03*
X273642D02*
D03*
D115*
X758653Y74393D02*
D03*
Y76893D02*
D03*
Y79393D02*
D03*
Y81893D02*
D03*
Y84393D02*
D03*
Y86893D02*
D03*
Y89393D02*
D03*
Y91893D02*
D03*
Y94393D02*
D03*
Y96893D02*
D03*
X740346Y74393D02*
D03*
Y76893D02*
D03*
Y79393D02*
D03*
Y81893D02*
D03*
Y84393D02*
D03*
Y86893D02*
D03*
Y89393D02*
D03*
Y91893D02*
D03*
Y94393D02*
D03*
Y96893D02*
D03*
D116*
X797909Y366779D02*
D03*
X824091D02*
D03*
D117*
X720874Y393779D02*
D03*
X730126D02*
D03*
D118*
X710500Y394039D02*
D03*
Y401519D02*
D03*
D119*
X818000Y388279D02*
D03*
X824220D02*
D03*
D120*
X830500Y74918D02*
D03*
Y84367D02*
D03*
D121*
Y63895D02*
D03*
Y95391D02*
D03*
D122*
X819969Y74524D02*
D03*
Y84761D02*
D03*
Y77083D02*
D03*
Y79643D02*
D03*
Y82202D02*
D03*
D123*
X778480Y97143D02*
D03*
X771000D02*
D03*
X712000Y85500D02*
D03*
X719480D02*
D03*
X712020Y96500D02*
D03*
X719500D02*
D03*
X712260Y74500D02*
D03*
X719740D02*
D03*
X784000Y162953D02*
D03*
X791480D02*
D03*
D124*
X298500Y76244D02*
D03*
D125*
X286394Y92878D02*
D03*
Y90319D02*
D03*
Y87760D02*
D03*
Y85201D02*
D03*
Y82642D02*
D03*
Y80083D02*
D03*
Y77524D02*
D03*
Y74965D02*
D03*
Y72405D02*
D03*
Y69846D02*
D03*
Y67287D02*
D03*
Y64728D02*
D03*
Y62169D02*
D03*
Y59610D02*
D03*
X310606Y92878D02*
D03*
Y90319D02*
D03*
Y87760D02*
D03*
Y85201D02*
D03*
Y82642D02*
D03*
Y80083D02*
D03*
Y77524D02*
D03*
Y74965D02*
D03*
Y72405D02*
D03*
Y69846D02*
D03*
Y67287D02*
D03*
Y64728D02*
D03*
Y62169D02*
D03*
Y59610D02*
D03*
D126*
X470417Y370913D02*
D03*
Y363433D02*
D03*
X477898Y367173D02*
D03*
D127*
X451142Y200213D02*
D03*
Y193913D02*
D03*
D128*
X544658Y459173D02*
D03*
X534657D02*
D03*
X524657D02*
D03*
D129*
X628000Y27000D02*
D03*
X608000D02*
D03*
X827000Y163000D02*
D03*
Y183000D02*
D03*
D130*
X588000Y27000D02*
D03*
D131*
X549500Y86500D02*
D03*
Y66815D02*
D03*
X465158Y71500D02*
D03*
X484842D02*
D03*
D132*
X515315Y106500D02*
D03*
D133*
X535000D02*
D03*
X588240Y109158D02*
D03*
D134*
Y128842D02*
D03*
D135*
X827000Y203000D02*
D03*
D136*
X692059Y388601D02*
D03*
X686941D02*
D03*
X692059Y393720D02*
D03*
X686941D02*
D03*
X692059Y398838D02*
D03*
X686941D02*
D03*
X692059Y403956D02*
D03*
X686941D02*
D03*
D137*
X136500Y67158D02*
D03*
Y86843D02*
D03*
Y106528D02*
D03*
Y47472D02*
D03*
D138*
X820854Y71473D02*
D03*
Y87812D02*
D03*
D139*
X644500Y453000D02*
D03*
X609500Y453500D02*
D03*
D140*
X534657Y380673D02*
D03*
D141*
X544658D02*
D03*
X554658D02*
D03*
D142*
X389283Y233646D02*
D03*
Y243646D02*
D03*
Y223646D02*
D03*
Y213646D02*
D03*
D143*
Y253646D02*
D03*
D144*
X319500Y70000D02*
D03*
X319000Y77500D02*
D03*
X316500Y99500D02*
D03*
X358500Y67500D02*
D03*
X299500Y107500D02*
D03*
Y90500D02*
D03*
X258500Y85000D02*
D03*
X325500Y34500D02*
D03*
X264000Y34000D02*
D03*
X294500Y51500D02*
D03*
X277500Y48000D02*
D03*
X157500Y38500D02*
D03*
X281500D02*
D03*
X377000Y52500D02*
D03*
X219500Y48000D02*
D03*
X273000Y66000D02*
D03*
X227500Y73000D02*
D03*
X333000Y108000D02*
D03*
X403277Y106860D02*
D03*
D145*
X294169Y84905D02*
D03*
X298500D02*
D03*
X302831D02*
D03*
X294169Y80575D02*
D03*
X298500D02*
D03*
X302831D02*
D03*
X294169Y76244D02*
D03*
X298500D02*
D03*
X302831D02*
D03*
X294169Y71913D02*
D03*
X298500D02*
D03*
X302831D02*
D03*
X294169Y67583D02*
D03*
X298500D02*
D03*
X302831D02*
D03*
M02*
