G04*
G04 #@! TF.GenerationSoftware,Altium Limited,Altium Designer,23.1.1 (15)*
G04*
G04 Layer_Physical_Order=2*
G04 Layer_Color=16711680*
%FSLAX25Y25*%
%MOIN*%
G70*
G04*
G04 #@! TF.SameCoordinates,EC016929-1199-40CF-B0C5-1E8161D31A68*
G04*
G04*
G04 #@! TF.FilePolarity,Positive*
G04*
G01*
G75*
%ADD18C,0.01000*%
%ADD20C,0.00394*%
%ADD21C,0.00200*%
%ADD128C,0.05900*%
%ADD132R,0.04724X0.04724*%
%ADD133C,0.04724*%
%ADD134R,0.04724X0.04724*%
%ADD139C,0.22244*%
%ADD147C,0.08858*%
%ADD148R,0.08858X0.08858*%
%ADD149C,0.04331*%
%ADD150R,0.08858X0.08858*%
%ADD151C,0.01181*%
%ADD152O,0.15354X0.07677*%
%ADD153C,0.02756*%
%ADD154R,0.06299X0.06299*%
%ADD155C,0.06299*%
%ADD156C,0.06299*%
%ADD157R,0.06299X0.06299*%
%ADD158C,0.05000*%
%ADD159C,0.01968*%
D18*
X319500Y70000D02*
X355343D01*
X357843Y67500D02*
X358500D01*
X355343Y70000D02*
X357843Y67500D01*
X319000Y77500D02*
Y96343D01*
X316500Y98843D02*
Y99500D01*
Y98843D02*
X319000Y96343D01*
X294000Y85000D02*
X299500Y90500D01*
Y107500D02*
X299750Y107750D01*
X332750D01*
X333000Y108000D01*
X258500Y85000D02*
X294000D01*
X264250Y34250D02*
X325250D01*
X325500Y34500D01*
X264000Y34000D02*
X264250Y34250D01*
X157500Y38500D02*
X281500D01*
X294500Y51500D02*
X295000Y52000D01*
X376500D01*
X377000Y52500D01*
X219500Y48000D02*
X277500D01*
X234500Y66000D02*
X273000D01*
X227500Y73000D02*
X234500Y66000D01*
X402707Y107430D02*
X403277Y106860D01*
X333570Y107430D02*
X402707D01*
X333000Y108000D02*
X333570Y107430D01*
X846278Y2686D02*
G03*
X851500Y8000I-93J5314D01*
G01*
X100000Y0D02*
Y500000D01*
Y0D02*
X854500D01*
Y500000D01*
X100000D02*
X854500D01*
D20*
X836209Y65076D02*
Y94209D01*
D21*
X838006Y74918D02*
Y75604D01*
X837930Y75832D01*
X837854Y75908D01*
X837701Y75985D01*
X837473D01*
X837320Y75908D01*
X837244Y75832D01*
X837168Y75604D01*
Y74918D01*
X838768D01*
X837549Y77485D02*
X837397Y77409D01*
X837244Y77257D01*
X837168Y77104D01*
Y76800D01*
X837244Y76647D01*
X837397Y76495D01*
X837549Y76419D01*
X837778Y76343D01*
X838158D01*
X838387Y76419D01*
X838539Y76495D01*
X838692Y76647D01*
X838768Y76800D01*
Y77104D01*
X838692Y77257D01*
X838539Y77409D01*
X838387Y77485D01*
X837168Y77935D02*
X838768D01*
X837168D02*
Y78620D01*
X837244Y78849D01*
X837320Y78925D01*
X837473Y79001D01*
X837625D01*
X837778Y78925D01*
X837854Y78849D01*
X837930Y78620D01*
Y77935D02*
Y78620D01*
X838006Y78849D01*
X838082Y78925D01*
X838235Y79001D01*
X838463D01*
X838615Y78925D01*
X838692Y78849D01*
X838768Y78620D01*
Y77935D01*
X837168Y81606D02*
Y80616D01*
X838768D01*
Y81606D01*
X837930Y80616D02*
Y81225D01*
X837168Y82787D02*
X838768D01*
X837930D02*
X837778Y82635D01*
X837701Y82482D01*
Y82254D01*
X837778Y82101D01*
X837930Y81949D01*
X838158Y81873D01*
X838311D01*
X838539Y81949D01*
X838692Y82101D01*
X838768Y82254D01*
Y82482D01*
X838692Y82635D01*
X838539Y82787D01*
X837701Y84128D02*
X838920D01*
X839149Y84052D01*
X839225Y83975D01*
X839301Y83823D01*
Y83594D01*
X839225Y83442D01*
X837930Y84128D02*
X837778Y83975D01*
X837701Y83823D01*
Y83594D01*
X837778Y83442D01*
X837930Y83290D01*
X838158Y83214D01*
X838311D01*
X838539Y83290D01*
X838692Y83442D01*
X838768Y83594D01*
Y83823D01*
X838692Y83975D01*
X838539Y84128D01*
X838158Y84554D02*
Y85468D01*
X838006D01*
X837854Y85392D01*
X837778Y85316D01*
X837701Y85164D01*
Y84935D01*
X837778Y84783D01*
X837930Y84630D01*
X838158Y84554D01*
X838311D01*
X838539Y84630D01*
X838692Y84783D01*
X838768Y84935D01*
Y85164D01*
X838692Y85316D01*
X838539Y85468D01*
D128*
X544658Y459173D02*
D03*
X534657D02*
D03*
X524657D02*
D03*
D132*
X515315Y106500D02*
D03*
D133*
X535000D02*
D03*
X588240Y109158D02*
D03*
D134*
Y128842D02*
D03*
D139*
X644500Y453000D02*
D03*
X609500Y453500D02*
D03*
D147*
X628000Y27000D02*
D03*
X608000D02*
D03*
X827000Y163000D02*
D03*
Y183000D02*
D03*
D148*
X588000Y27000D02*
D03*
D149*
X549500Y86500D02*
D03*
Y66815D02*
D03*
X465158Y71500D02*
D03*
X484842D02*
D03*
D150*
X827000Y203000D02*
D03*
D151*
X692059Y388601D02*
D03*
X686941D02*
D03*
X692059Y393720D02*
D03*
X686941D02*
D03*
X692059Y398838D02*
D03*
X686941D02*
D03*
X692059Y403956D02*
D03*
X686941D02*
D03*
D152*
X136500Y67158D02*
D03*
Y86843D02*
D03*
Y106528D02*
D03*
Y47472D02*
D03*
D153*
X820854Y71473D02*
D03*
Y87812D02*
D03*
D154*
X534657Y380673D02*
D03*
D155*
X544658D02*
D03*
X554658D02*
D03*
D156*
X389283Y233646D02*
D03*
Y243646D02*
D03*
Y223646D02*
D03*
Y213646D02*
D03*
D157*
Y253646D02*
D03*
D158*
X319500Y70000D02*
D03*
X319000Y77500D02*
D03*
X316500Y99500D02*
D03*
X358500Y67500D02*
D03*
X299500Y107500D02*
D03*
Y90500D02*
D03*
X258500Y85000D02*
D03*
X325500Y34500D02*
D03*
X264000Y34000D02*
D03*
X294500Y51500D02*
D03*
X277500Y48000D02*
D03*
X157500Y38500D02*
D03*
X281500D02*
D03*
X377000Y52500D02*
D03*
X219500Y48000D02*
D03*
X273000Y66000D02*
D03*
X227500Y73000D02*
D03*
X333000Y108000D02*
D03*
X403277Y106860D02*
D03*
D159*
X294169Y84905D02*
D03*
X298500D02*
D03*
X302831D02*
D03*
X294169Y80575D02*
D03*
X298500D02*
D03*
X302831D02*
D03*
X294169Y76244D02*
D03*
X298500D02*
D03*
X302831D02*
D03*
X294169Y71913D02*
D03*
X298500D02*
D03*
X302831D02*
D03*
X294169Y67583D02*
D03*
X298500D02*
D03*
X302831D02*
D03*
M02*
