G04*
G04 #@! TF.GenerationSoftware,Altium Limited,Altium Designer,22.10.1 (41)*
G04*
G04 Layer_Color=16711935*
%FSLAX25Y25*%
%MOIN*%
G70*
G04*
G04 #@! TF.SameCoordinates,861FA483-057D-4AEF-8965-819BABE67C1D*
G04*
G04*
G04 #@! TF.FilePolarity,Negative*
G04*
G01*
G75*
%ADD11C,0.01000*%
%ADD51R,0.06706X0.06706*%
%ADD52C,0.06706*%
%ADD53C,0.07099*%
%ADD54R,0.07099X0.07099*%
%ADD55R,0.06706X0.06706*%
%ADD56R,0.07099X0.07099*%
%ADD57C,0.03800*%
D11*
X19685Y846457D02*
G03*
X500Y826772I250J-19435D01*
G01*
X748032D02*
G03*
X727846Y846457I-19935J-250D01*
G01*
Y1000D02*
G03*
X748032Y19685I750J19435D01*
G01*
X500D02*
G03*
X19685Y1000I18935J250D01*
G01*
X748032Y374016D02*
Y826772D01*
X374016Y846457D02*
X728346D01*
X19685D02*
X374016D01*
X500Y472441D02*
Y826772D01*
X748032Y19685D02*
Y374016D01*
X374016Y1000D02*
X727846D01*
X500Y19685D02*
Y472441D01*
X19685Y1000D02*
X374016D01*
D51*
X470000Y810000D02*
D03*
X280000D02*
D03*
D52*
X470000Y800000D02*
D03*
Y790000D02*
D03*
Y780000D02*
D03*
Y770000D02*
D03*
Y760000D02*
D03*
Y750000D02*
D03*
Y740000D02*
D03*
Y730000D02*
D03*
Y720000D02*
D03*
Y710000D02*
D03*
Y700000D02*
D03*
Y690000D02*
D03*
Y680000D02*
D03*
X450000Y660000D02*
D03*
X440000D02*
D03*
X430000D02*
D03*
X420000D02*
D03*
X410000D02*
D03*
X400000D02*
D03*
X390000D02*
D03*
X380000D02*
D03*
X370000D02*
D03*
X360000D02*
D03*
X350000D02*
D03*
X340000D02*
D03*
X330000D02*
D03*
X320000D02*
D03*
X280000Y680000D02*
D03*
Y690000D02*
D03*
Y700000D02*
D03*
Y710000D02*
D03*
Y720000D02*
D03*
Y730000D02*
D03*
Y740000D02*
D03*
Y750000D02*
D03*
Y760000D02*
D03*
Y770000D02*
D03*
Y780000D02*
D03*
Y790000D02*
D03*
Y800000D02*
D03*
D53*
X377000Y165000D02*
D03*
X397000D02*
D03*
X387000D02*
D03*
X367000D02*
D03*
X357000D02*
D03*
X450038Y532641D02*
D03*
X440038D02*
D03*
X420038D02*
D03*
X430038D02*
D03*
X680000Y525000D02*
D03*
X700000D02*
D03*
X690000D02*
D03*
X670000D02*
D03*
X660000D02*
D03*
X680000Y100000D02*
D03*
X700000D02*
D03*
X690000D02*
D03*
X670000D02*
D03*
X660000D02*
D03*
X710000Y345000D02*
D03*
Y365000D02*
D03*
Y355000D02*
D03*
Y335000D02*
D03*
Y325000D02*
D03*
Y770000D02*
D03*
Y790000D02*
D03*
Y780000D02*
D03*
Y760000D02*
D03*
Y750000D02*
D03*
X510000Y495000D02*
D03*
Y515000D02*
D03*
Y505000D02*
D03*
Y485000D02*
D03*
Y475000D02*
D03*
Y770000D02*
D03*
Y790000D02*
D03*
Y780000D02*
D03*
Y760000D02*
D03*
Y750000D02*
D03*
Y70000D02*
D03*
Y90000D02*
D03*
Y80000D02*
D03*
Y60000D02*
D03*
Y50000D02*
D03*
Y345000D02*
D03*
Y365000D02*
D03*
Y355000D02*
D03*
Y335000D02*
D03*
Y325000D02*
D03*
X210000Y525000D02*
D03*
X230000D02*
D03*
X220000D02*
D03*
X200000D02*
D03*
X190000D02*
D03*
X240000Y770000D02*
D03*
Y790000D02*
D03*
Y780000D02*
D03*
Y760000D02*
D03*
Y750000D02*
D03*
X40000Y770000D02*
D03*
Y790000D02*
D03*
Y780000D02*
D03*
Y760000D02*
D03*
Y750000D02*
D03*
Y495000D02*
D03*
Y515000D02*
D03*
Y505000D02*
D03*
Y485000D02*
D03*
Y475000D02*
D03*
X240000Y345000D02*
D03*
Y365000D02*
D03*
Y355000D02*
D03*
Y335000D02*
D03*
Y325000D02*
D03*
X40000Y70000D02*
D03*
Y90000D02*
D03*
Y80000D02*
D03*
Y60000D02*
D03*
Y50000D02*
D03*
Y345000D02*
D03*
Y365000D02*
D03*
Y355000D02*
D03*
Y335000D02*
D03*
Y325000D02*
D03*
X210000Y100000D02*
D03*
X230000D02*
D03*
X220000D02*
D03*
X200000D02*
D03*
X190000D02*
D03*
D54*
X407000Y165000D02*
D03*
X410038Y532641D02*
D03*
X710000Y525000D02*
D03*
Y100000D02*
D03*
X240000Y525000D02*
D03*
Y100000D02*
D03*
D55*
X310000Y660000D02*
D03*
D56*
X710000Y375000D02*
D03*
Y800000D02*
D03*
X510000Y525000D02*
D03*
Y800000D02*
D03*
Y100000D02*
D03*
Y375000D02*
D03*
X240000Y800000D02*
D03*
X40000D02*
D03*
Y525000D02*
D03*
X240000Y375000D02*
D03*
X40000Y100000D02*
D03*
Y375000D02*
D03*
D57*
X330008Y811925D02*
D03*
X433012Y814867D02*
D03*
X306847Y437250D02*
D03*
X487500Y800000D02*
D03*
X490537Y635000D02*
D03*
Y735000D02*
D03*
X262500Y769327D02*
D03*
X372500Y485000D02*
D03*
X371391Y561634D02*
D03*
X350000D02*
D03*
X336171Y543760D02*
D03*
X312500Y545000D02*
D03*
X315000Y516150D02*
D03*
X292500Y555000D02*
D03*
X303500Y516150D02*
D03*
X282500Y558819D02*
D03*
Y492500D02*
D03*
X400000D02*
D03*
Y314803D02*
D03*
X267500Y650000D02*
D03*
X265000Y357500D02*
D03*
X360000D02*
D03*
X359935Y320000D02*
D03*
X270000Y350000D02*
D03*
X330000D02*
D03*
Y310000D02*
D03*
X375000Y125500D02*
D03*
X375000Y90000D02*
D03*
X620000Y114056D02*
D03*
X609427Y135000D02*
D03*
X397500Y120000D02*
D03*
X523701Y141201D02*
D03*
X367500Y125000D02*
D03*
X569822Y540000D02*
D03*
X560000Y559500D02*
D03*
X215000Y792500D02*
D03*
X572500Y705000D02*
D03*
X445000Y710000D02*
D03*
X610000Y645000D02*
D03*
X430000Y642500D02*
D03*
X292500Y779996D02*
D03*
Y745537D02*
D03*
X361614D02*
D03*
X322500Y739675D02*
D03*
X620000Y737500D02*
D03*
X300000Y760000D02*
D03*
Y672500D02*
D03*
X630000D02*
D03*
X640000Y615000D02*
D03*
X410038Y610000D02*
D03*
X262500Y605537D02*
D03*
Y750000D02*
D03*
X680000Y725000D02*
D03*
X690000Y715000D02*
D03*
X355571Y650000D02*
D03*
X695000D02*
D03*
X195650Y640000D02*
D03*
X205313Y595000D02*
D03*
X340000Y594675D02*
D03*
X360000Y605537D02*
D03*
X440038Y594463D02*
D03*
X482500Y595000D02*
D03*
X590000Y750000D02*
D03*
X525000Y730000D02*
D03*
Y600000D02*
D03*
X670000Y720000D02*
D03*
X665000Y710000D02*
D03*
X570000Y700000D02*
D03*
X560000Y690000D02*
D03*
X710000Y680000D02*
D03*
X100000Y642500D02*
D03*
X110000Y620000D02*
D03*
X420000D02*
D03*
X700000Y610000D02*
D03*
X120000Y635000D02*
D03*
X390000D02*
D03*
X225000Y617500D02*
D03*
X380000D02*
D03*
X250000Y612500D02*
D03*
X370630D02*
D03*
X685000Y605000D02*
D03*
X450038Y590000D02*
D03*
X330000D02*
D03*
X705000Y630000D02*
D03*
X320000D02*
D03*
X675000Y625000D02*
D03*
X310000D02*
D03*
X590000Y490000D02*
D03*
X580000Y500000D02*
D03*
X569822Y510000D02*
D03*
X560000Y525000D02*
D03*
X640000Y70000D02*
D03*
X630000Y80000D02*
D03*
X620000Y90000D02*
D03*
X609427Y100000D02*
D03*
X140151Y485106D02*
D03*
X145000Y820356D02*
D03*
X86557Y132500D02*
D03*
X110000Y112500D02*
D03*
X100000Y125000D02*
D03*
Y100000D02*
D03*
X110000Y89427D02*
D03*
X119427Y80000D02*
D03*
X130000Y600000D02*
D03*
X129427Y70000D02*
D03*
X140000Y60000D02*
D03*
X260000Y820000D02*
D03*
Y800000D02*
D03*
X338000Y411042D02*
D03*
X416000Y801295D02*
D03*
X460000Y840000D02*
D03*
X543269Y570000D02*
D03*
X542913Y550000D02*
D03*
X394901Y542500D02*
D03*
X336171Y539478D02*
D03*
X334814Y551240D02*
D03*
X317216Y558819D02*
D03*
X362500Y519906D02*
D03*
X444388Y512889D02*
D03*
X359935Y394569D02*
D03*
X344609Y392246D02*
D03*
X350000Y310000D02*
D03*
X467500Y307500D02*
D03*
X447933Y292067D02*
D03*
X539153Y125000D02*
D03*
X368537Y716037D02*
D03*
Y745772D02*
D03*
X365158Y750000D02*
D03*
X365000Y725000D02*
D03*
X361614Y735787D02*
D03*
X435000Y680000D02*
D03*
Y763165D02*
D03*
Y769327D02*
D03*
X415000Y697500D02*
D03*
Y769327D02*
D03*
X440000Y705000D02*
D03*
Y772870D02*
D03*
X445000Y776413D02*
D03*
X450000Y720000D02*
D03*
Y779996D02*
D03*
X457500Y730000D02*
D03*
X456461Y783539D02*
D03*
X420000Y740000D02*
D03*
Y787083D02*
D03*
X430000Y750000D02*
D03*
Y790626D02*
D03*
X425000Y760000D02*
D03*
Y794169D02*
D03*
X427500Y797500D02*
D03*
X425000Y804839D02*
D03*
X452500Y800000D02*
D03*
X420000Y808382D02*
D03*
X440000Y700000D02*
D03*
X405000D02*
D03*
X404213Y748091D02*
D03*
X430000Y692500D02*
D03*
X402500D02*
D03*
X400669Y743799D02*
D03*
X337500Y710000D02*
D03*
X420000Y687500D02*
D03*
X397500D02*
D03*
X397126Y747874D02*
D03*
X410000Y682500D02*
D03*
X395000D02*
D03*
X393583Y744547D02*
D03*
X400000Y677500D02*
D03*
X390000D02*
D03*
Y747500D02*
D03*
X386457Y743957D02*
D03*
X382913Y747303D02*
D03*
X370630Y683130D02*
D03*
X379370D02*
D03*
Y743130D02*
D03*
X360000Y687500D02*
D03*
X375827Y688327D02*
D03*
Y751673D02*
D03*
X342870Y695000D02*
D03*
X372500D02*
D03*
X372284Y745217D02*
D03*
X332500Y715000D02*
D03*
X327500Y725000D02*
D03*
X320000Y735000D02*
D03*
X310000Y745000D02*
D03*
X350000Y680000D02*
D03*
X350783Y765784D02*
D03*
X347500Y690000D02*
D03*
Y769327D02*
D03*
X342500Y700000D02*
D03*
Y772500D02*
D03*
X337500Y776413D02*
D03*
X332500Y720000D02*
D03*
Y779996D02*
D03*
X327500Y730000D02*
D03*
Y783539D02*
D03*
X322500Y787083D02*
D03*
X317500Y750000D02*
D03*
Y790000D02*
D03*
X312500Y760000D02*
D03*
Y794169D02*
D03*
X307500Y770000D02*
D03*
X307713Y797713D02*
D03*
X302500Y780000D02*
D03*
Y800000D02*
D03*
X297500Y790000D02*
D03*
X292500Y800000D02*
D03*
X297500Y805000D02*
D03*
X292500Y808382D02*
D03*
M02*
